  0
SECTION
  2
HEADER
  9
$ACADVER
  1
AC1024
  9
$ACADMAINTVER
 70
6
  9
$DWGCODEPAGE
  3
ANSI_1252
  9
$LASTSAVEDBY
  1
ezdxf
  9
$INSBASE
 10
0.0
 20
0.0
 30
0.0
  9
$EXTMIN
 10
1e+20
 20
1e+20
 30
1e+20
  9
$EXTMAX
 10
-1e+20
 20
-1e+20
 30
-1e+20
  9
$LIMMIN
 10
0.0
 20
0.0
  9
$LIMMAX
 10
420.0
 20
297.0
  9
$ORTHOMODE
 70
0
  9
$REGENMODE
 70
1
  9
$FILLMODE
 70
1
  9
$QTEXTMODE
 70
0
  9
$MIRRTEXT
 70
1
  9
$LTSCALE
 40
1.0
  9
$ATTMODE
 70
1
  9
$TEXTSIZE
 40
2.5
  9
$TRACEWID
 40
1.0
  9
$TEXTSTYLE
  7
OpenSans
  9
$CLAYER
  8
0
  9
$CELTYPE
  6
ByLayer
  9
$CECOLOR
 62
256
  9
$CELTSCALE
 40
1.0
  9
$DISPSILH
 70
0
  9
$DIMSCALE
 40
1.0
  9
$DIMASZ
 40
0.175
  9
$DIMEXO
 40
0.125
  9
$DIMDLI
 40
3.75
  9
$DIMRND
 40
0.0
  9
$DIMDLE
 40
0.0
  9
$DIMEXE
 40
0.375
  9
$DIMTP
 40
0.0
  9
$DIMTM
 40
0.0
  9
$DIMTXT
 40
0.25
  9
$DIMCEN
 40
2.5
  9
$DIMTSZ
 40
0.0
  9
$DIMTOL
 70
0
  9
$DIMLIM
 70
0
  9
$DIMTIH
 70
0
  9
$DIMTOH
 70
0
  9
$DIMSE1
 70
0
  9
$DIMSE2
 70
0
  9
$DIMTAD
 70
1
  9
$DIMZIN
 70
12
  9
$DIMBLK
  1
ARCHTICK
  9
$DIMASO
 70
1
  9
$DIMSHO
 70
1
  9
$DIMPOST
  1

  9
$DIMAPOST
  1

  9
$DIMALT
 70
0
  9
$DIMALTD
 70
3
  9
$DIMALTF
 40
0.03937007874
  9
$DIMLFAC
 40
100.0
  9
$DIMTOFL
 70
1
  9
$DIMTVP
 40
0.0
  9
$DIMTIX
 70
0
  9
$DIMSOXD
 70
0
  9
$DIMSAH
 70
0
  9
$DIMBLK1
  1

  9
$DIMBLK2
  1

  9
$DIMSTYLE
  2
EZDXF
  9
$DIMCLRD
 70
0
  9
$DIMCLRE
 70
0
  9
$DIMCLRT
 70
0
  9
$DIMTFAC
 40
0.5
  9
$DIMGAP
 40
0.1
  9
$DIMJUST
 70
0
  9
$DIMSD1
 70
0
  9
$DIMSD2
 70
0
  9
$DIMTOLJ
 70
0
  9
$DIMTZIN
 70
8
  9
$DIMALTZ
 70
0
  9
$DIMALTTZ
 70
0
  9
$DIMUPT
 70
1
  9
$DIMDEC
 70
2
  9
$DIMTDEC
 70
2
  9
$DIMALTU
 70
2
  9
$DIMALTTD
 70
3
  9
$DIMTXSTY
  7
OpenSansCondensed-Light
  9
$DIMAUNIT
 70
0
  9
$DIMADEC
 70
2
  9
$DIMALTRND
 40
0.0
  9
$DIMAZIN
 70
3
  9
$DIMDSEP
 70
46
  9
$DIMATFIT
 70
3
  9
$DIMFRAC
 70
0
  9
$DIMLDRBLK
  1

  9
$DIMLUNIT
 70
2
  9
$DIMLWD
 70
-2
  9
$DIMLWE
 70
-2
  9
$DIMTMOVE
 70
2
  9
$DIMFXL
 40
1.0
  9
$DIMFXLON
 70
0
  9
$DIMJOGANG
 40
0.785398163397
  9
$DIMTFILL
 70
0
  9
$DIMTFILLCLR
 70
0
  9
$DIMARCSYM
 70
0
  9
$DIMLTYPE
  6

  9
$DIMLTEX1
  6

  9
$DIMLTEX2
  6

  9
$DIMTXTDIRECTION
 70
0
  9
$LUNITS
 70
2
  9
$LUPREC
 70
4
  9
$SKETCHINC
 40
1.0
  9
$FILLETRAD
 40
10.0
  9
$AUNITS
 70
0
  9
$AUPREC
 70
2
  9
$MENU
  1
.
  9
$ELEVATION
 40
0.0
  9
$PELEVATION
 40
0.0
  9
$THICKNESS
 40
0.0
  9
$LIMCHECK
 70
0
  9
$CHAMFERA
 40
0.0
  9
$CHAMFERB
 40
0.0
  9
$CHAMFERC
 40
0.0
  9
$CHAMFERD
 40
0.0
  9
$SKPOLY
 70
0
  9
$TDCREATE
 40
2461244.674155093
  9
$TDUCREATE
 40
2458532.153996898
  9
$TDUPDATE
 40
2461244.674155093
  9
$TDUUPDATE
 40
2458532.1544311
  9
$TDINDWG
 40
0.0
  9
$TDUSRTIMER
 40
0.0
  9
$USRTIMER
 70
1
  9
$ANGBASE
 50
0.0
  9
$ANGDIR
 70
0
  9
$PDMODE
 70
0
  9
$PDSIZE
 40
0.0
  9
$PLINEWID
 40
0.0
  9
$SPLFRAME
 70
0
  9
$SPLINETYPE
 70
6
  9
$SPLINESEGS
 70
8
  9
$HANDSEED
  5
2F4
  9
$SURFTAB1
 70
6
  9
$SURFTAB2
 70
6
  9
$SURFTYPE
 70
6
  9
$SURFU
 70
6
  9
$SURFV
 70
6
  9
$UCSBASE
  2

  9
$UCSNAME
  2

  9
$UCSORG
 10
0.0
 20
0.0
 30
0.0
  9
$UCSXDIR
 10
1.0
 20
0.0
 30
0.0
  9
$UCSYDIR
 10
0.0
 20
1.0
 30
0.0
  9
$UCSORTHOREF
  2

  9
$UCSORTHOVIEW
 70
0
  9
$UCSORGTOP
 10
0.0
 20
0.0
 30
0.0
  9
$UCSORGBOTTOM
 10
0.0
 20
0.0
 30
0.0
  9
$UCSORGLEFT
 10
0.0
 20
0.0
 30
0.0
  9
$UCSORGRIGHT
 10
0.0
 20
0.0
 30
0.0
  9
$UCSORGFRONT
 10
0.0
 20
0.0
 30
0.0
  9
$UCSORGBACK
 10
0.0
 20
0.0
 30
0.0
  9
$PUCSBASE
  2

  9
$PUCSNAME
  2

  9
$PUCSORG
 10
0.0
 20
0.0
 30
0.0
  9
$PUCSXDIR
 10
1.0
 20
0.0
 30
0.0
  9
$PUCSYDIR
 10
0.0
 20
1.0
 30
0.0
  9
$PUCSORTHOREF
  2

  9
$PUCSORTHOVIEW
 70
0
  9
$PUCSORGTOP
 10
0.0
 20
0.0
 30
0.0
  9
$PUCSORGBOTTOM
 10
0.0
 20
0.0
 30
0.0
  9
$PUCSORGLEFT
 10
0.0
 20
0.0
 30
0.0
  9
$PUCSORGRIGHT
 10
0.0
 20
0.0
 30
0.0
  9
$PUCSORGFRONT
 10
0.0
 20
0.0
 30
0.0
  9
$PUCSORGBACK
 10
0.0
 20
0.0
 30
0.0
  9
$USERI1
 70
0
  9
$USERI2
 70
0
  9
$USERI3
 70
0
  9
$USERI4
 70
0
  9
$USERI5
 70
0
  9
$USERR1
 40
0.0
  9
$USERR2
 40
0.0
  9
$USERR3
 40
0.0
  9
$USERR4
 40
0.0
  9
$USERR5
 40
0.0
  9
$WORLDVIEW
 70
1
  9
$SHADEDGE
 70
3
  9
$SHADEDIF
 70
70
  9
$TILEMODE
 70
1
  9
$MAXACTVP
 70
64
  9
$PINSBASE
 10
0.0
 20
0.0
 30
0.0
  9
$PLIMCHECK
 70
0
  9
$PEXTMIN
 10
1e+20
 20
1e+20
 30
1e+20
  9
$PEXTMAX
 10
-1e+20
 20
-1e+20
 30
-1e+20
  9
$PLIMMIN
 10
0.0
 20
0.0
  9
$PLIMMAX
 10
420.0
 20
297.0
  9
$UNITMODE
 70
0
  9
$VISRETAIN
 70
1
  9
$PLINEGEN
 70
0
  9
$PSLTSCALE
 70
1
  9
$TREEDEPTH
 70
3020
  9
$CMLSTYLE
  2
Standard
  9
$CMLJUST
 70
0
  9
$CMLSCALE
 40
20.0
  9
$PROXYGRAPHICS
 70
1
  9
$MEASUREMENT
 70
1
  9
$CELWEIGHT
370
-1
  9
$ENDCAPS
280
0
  9
$JOINSTYLE
280
0
  9
$LWDISPLAY
290
0
  9
$INSUNITS
 70
6
  9
$HYPERLINKBASE
  1

  9
$STYLESHEET
  1

  9
$XEDIT
290
1
  9
$CEPSNTYPE
380
0
  9
$PSTYLEMODE
290
1
  9
$FINGERPRINTGUID
  2
{62390529-7693-43C7-8FD3-74BEFBBEE3D2}
  9
$VERSIONGUID
  2
{57E5FAE0-350A-4DBD-93F5-CBDEEF82FD90}
  9
$EXTNAMES
290
1
  9
$PSVPSCALE
 40
0.0
  9
$OLESTARTUP
290
0
  9
$SORTENTS
280
127
  9
$INDEXCTL
280
0
  9
$HIDETEXT
280
1
  9
$XCLIPFRAME
280
1
  9
$HALOGAP
280
0
  9
$OBSCOLOR
 70
257
  9
$OBSLTYPE
280
0
  9
$INTERSECTIONDISPLAY
280
0
  9
$INTERSECTIONCOLOR
 70
257
  9
$DIMASSOC
280
2
  9
$PROJECTNAME
  1

  9
$CAMERADISPLAY
290
0
  9
$LENSLENGTH
 40
50.0
  9
$CAMERAHEIGHT
 40
0.0
  9
$STEPSPERSEC
 40
24.0
  9
$STEPSIZE
 40
100.0
  9
$3DDWFPREC
 40
2.0
  9
$PSOLWIDTH
 40
0.005
  9
$PSOLHEIGHT
 40
0.08
  9
$LOFTANG1
 40
1.570796326795
  9
$LOFTANG2
 40
1.570796326795
  9
$LOFTMAG1
 40
0.0
  9
$LOFTMAG2
 40
0.0
  9
$LOFTPARAM
 70
7
  9
$LOFTNORMALS
280
1
  9
$LATITUDE
 40
37.795
  9
$LONGITUDE
 40
-122.394
  9
$NORTHDIRECTION
 40
0.0
  9
$TIMEZONE
 70
-8000
  9
$LIGHTGLYPHDISPLAY
280
1
  9
$TILEMODELIGHTSYNCH
280
1
  9
$CMATERIAL
347
20
  9
$SOLIDHIST
280
0
  9
$SHOWHIST
280
1
  9
$DWFFRAME
280
2
  9
$DGNFRAME
280
2
  9
$REALWORLDSCALE
290
1
  9
$INTERFERECOLOR
 62
256
  9
$CSHADOW
280
0
  9
$SHADOWPLANELOCATION
 40
0.0
  0
ENDSEC
  0
SECTION
  2
CLASSES
  0
CLASS
  1
ACDBDICTIONARYWDFLT
  2
AcDbDictionaryWithDefault
  3
ObjectDBX Classes
 90
0
 91
0
280
0
281
0
  0
CLASS
  1
SUN
  2
AcDbSun
  3
SCENEOE
 90
1153
 91
0
280
0
281
0
  0
CLASS
  1
VISUALSTYLE
  2
AcDbVisualStyle
  3
ObjectDBX Classes
 90
4095
 91
0
280
0
281
0
  0
CLASS
  1
MATERIAL
  2
AcDbMaterial
  3
ObjectDBX Classes
 90
1153
 91
0
280
0
281
0
  0
CLASS
  1
SCALE
  2
AcDbScale
  3
ObjectDBX Classes
 90
1153
 91
0
280
0
281
0
  0
CLASS
  1
TABLESTYLE
  2
AcDbTableStyle
  3
ObjectDBX Classes
 90
4095
 91
0
280
0
281
0
  0
CLASS
  1
MLEADERSTYLE
  2
AcDbMLeaderStyle
  3
ACDB_MLEADERSTYLE_CLASS
 90
4095
 91
0
280
0
281
0
  0
CLASS
  1
DICTIONARYVAR
  2
AcDbDictionaryVar
  3
ObjectDBX Classes
 90
0
 91
0
280
0
281
0
  0
CLASS
  1
CELLSTYLEMAP
  2
AcDbCellStyleMap
  3
ObjectDBX Classes
 90
1152
 91
0
280
0
281
0
  0
CLASS
  1
MENTALRAYRENDERSETTINGS
  2
AcDbMentalRayRenderSettings
  3
SCENEOE
 90
1024
 91
0
280
0
281
0
  0
CLASS
  1
ACDBDETAILVIEWSTYLE
  2
AcDbDetailViewStyle
  3
ObjectDBX Classes
 90
1025
 91
0
280
0
281
0
  0
CLASS
  1
ACDBSECTIONVIEWSTYLE
  2
AcDbSectionViewStyle
  3
ObjectDBX Classes
 90
1025
 91
0
280
0
281
0
  0
CLASS
  1
RASTERVARIABLES
  2
AcDbRasterVariables
  3
ISM
 90
0
 91
0
280
0
281
0
  0
CLASS
  1
LAYOUT
  2
AcDbLayout
  3
ObjectDBX Classes
 90
0
 91
0
280
0
281
0
  0
CLASS
  1
ACDBPLACEHOLDER
  2
AcDbPlaceHolder
  3
ObjectDBX Classes
 90
0
 91
0
280
0
281
0
  0
ENDSEC
  0
SECTION
  2
TABLES
  0
TABLE
  2
VPORT
  5
8
330
0
100
AcDbSymbolTable
 70
1
  0
VPORT
  5
23
330
8
100
AcDbSymbolTableRecord
100
AcDbViewportTableRecord
  2
*Active
 70
0
 10
0.0
 20
0.0
 11
1.0
 21
1.0
 12
0.0
 22
0.0
 13
0.0
 23
0.0
 14
0.5
 24
0.5
 15
0.5
 25
0.5
 16
0.0
 26
0.0
 36
1.0
 17
0.0
 27
0.0
 37
0.0
 40
1000.0
 41
1.34
 42
50.0
 43
0.0
 44
0.0
 50
0.0
 51
0.0
 71
0
 72
1000
 73
1
 74
3
 75
0
 76
0
 77
0
 78
0
281
0
 65
0
146
0.0
  0
ENDTAB
  0
TABLE
  2
LTYPE
  5
2
330
0
100
AcDbSymbolTable
 70
21
  0
LTYPE
  5
24
330
2
100
AcDbSymbolTableRecord
100
AcDbLinetypeTableRecord
  2
ByBlock
 70
0
  3

 72
65
 73
0
 40
0.0
  0
LTYPE
  5
25
330
2
100
AcDbSymbolTableRecord
100
AcDbLinetypeTableRecord
  2
ByLayer
 70
0
  3

 72
65
 73
0
 40
0.0
  0
LTYPE
  5
26
330
2
100
AcDbSymbolTableRecord
100
AcDbLinetypeTableRecord
  2
Continuous
 70
0
  3

 72
65
 73
0
 40
0.0
  0
LTYPE
  5
2F
330
2
100
AcDbSymbolTableRecord
100
AcDbLinetypeTableRecord
  2
CENTER
 70
0
  3
Center ____ _ ____ _ ____ _ ____ _ ____ _ ____
 72
65
 73
4
 40
5.08
 49
3.175
 74
0
 49
-0.635
 74
0
 49
0.635
 74
0
 49
-0.635
 74
0
  0
LTYPE
  5
30
330
2
100
AcDbSymbolTableRecord
100
AcDbLinetypeTableRecord
  2
CENTERX2
 70
0
  3
Center (2x) ________  __  ________  __  ________
 72
65
 73
4
 40
8.89
 49
6.35
 74
0
 49
-0.635
 74
0
 49
1.27
 74
0
 49
-0.635
 74
0
  0
LTYPE
  5
31
330
2
100
AcDbSymbolTableRecord
100
AcDbLinetypeTableRecord
  2
CENTER2
 70
0
  3
Center (.5x) ____ _ ____ _ ____ _ ____ _ ____
 72
65
 73
4
 40
2.54
 49
1.587
 74
0
 49
-0.318
 74
0
 49
0.318
 74
0
 49
-0.318
 74
0
  0
LTYPE
  5
32
330
2
100
AcDbSymbolTableRecord
100
AcDbLinetypeTableRecord
  2
DASHED
 70
0
  3
Dashed __ __ __ __ __ __ __ __ __ __ __ __ __ _
 72
65
 73
2
 40
1.524
 49
1.27
 74
0
 49
-0.254
 74
0
  0
LTYPE
  5
33
330
2
100
AcDbSymbolTableRecord
100
AcDbLinetypeTableRecord
  2
DASHEDX2
 70
0
  3
Dashed (2x) ____  ____  ____  ____  ____  ____
 72
65
 73
2
 40
3.048
 49
2.54
 74
0
 49
-0.508
 74
0
  0
LTYPE
  5
34
330
2
100
AcDbSymbolTableRecord
100
AcDbLinetypeTableRecord
  2
DASHED2
 70
0
  3
Dashed (.5x) _ _ _ _ _ _ _ _ _ _ _ _ _ _
 72
65
 73
2
 40
0.762
 49
0.635
 74
0
 49
-0.127
 74
0
  0
LTYPE
  5
35
330
2
100
AcDbSymbolTableRecord
100
AcDbLinetypeTableRecord
  2
PHANTOM
 70
0
  3
Phantom ______  __  __  ______  __  __  ______
 72
65
 73
6
 40
6.35
 49
3.175
 74
0
 49
-0.635
 74
0
 49
0.635
 74
0
 49
-0.635
 74
0
 49
0.635
 74
0
 49
-0.635
 74
0
  0
LTYPE
  5
36
330
2
100
AcDbSymbolTableRecord
100
AcDbLinetypeTableRecord
  2
PHANTOMX2
 70
0
  3
Phantom (2x)____________    ____    ____    ____________
 72
65
 73
6
 40
10.795
 49
6.35
 74
0
 49
-0.635
 74
0
 49
1.27
 74
0
 49
-0.635
 74
0
 49
1.27
 74
0
 49
-0.635
 74
0
  0
LTYPE
  5
37
330
2
100
AcDbSymbolTableRecord
100
AcDbLinetypeTableRecord
  2
PHANTOM2
 70
0
  3
Phantom (.5x) ___ _ _ ___ _ _ ___ _ _ ___ _ _ ___
 72
65
 73
6
 40
3.175
 49
1.587
 74
0
 49
-0.318
 74
0
 49
0.318
 74
0
 49
-0.318
 74
0
 49
0.318
 74
0
 49
-0.318
 74
0
  0
LTYPE
  5
38
330
2
100
AcDbSymbolTableRecord
100
AcDbLinetypeTableRecord
  2
DASHDOT
 70
0
  3
Dash dot __ . __ . __ . __ . __ . __ . __ . __
 72
65
 73
4
 40
3.556
 49
2.54
 74
0
 49
-0.508
 74
0
 49
0.0
 74
0
 49
-0.508
 74
0
  0
LTYPE
  5
39
330
2
100
AcDbSymbolTableRecord
100
AcDbLinetypeTableRecord
  2
DASHDOTX2
 70
0
  3
Dash dot (2x) ____  .  ____  .  ____  .  ____
 72
65
 73
4
 40
6.096
 49
5.08
 74
0
 49
-0.508
 74
0
 49
0.0
 74
0
 49
-0.508
 74
0
  0
LTYPE
  5
3A
330
2
100
AcDbSymbolTableRecord
100
AcDbLinetypeTableRecord
  2
DASHDOT2
 70
0
  3
Dash dot (.5x) _ . _ . _ . _ . _ . _ . _ . _
 72
65
 73
4
 40
1.778
 49
1.27
 74
0
 49
-0.254
 74
0
 49
0.0
 74
0
 49
-0.254
 74
0
  0
LTYPE
  5
3B
330
2
100
AcDbSymbolTableRecord
100
AcDbLinetypeTableRecord
  2
DOT
 70
0
  3
Dot .  .  .  .  .  .  .  .  .  .  .  .  .  .  .  .
 72
65
 73
2
 40
0.508
 49
0.0
 74
0
 49
-0.508
 74
0
  0
LTYPE
  5
3C
330
2
100
AcDbSymbolTableRecord
100
AcDbLinetypeTableRecord
  2
DOTX2
 70
0
  3
Dot (2x) .    .    .    .    .    .    .    . 
 72
65
 73
2
 40
1.016
 49
0.0
 74
0
 49
-1.016
 74
0
  0
LTYPE
  5
3D
330
2
100
AcDbSymbolTableRecord
100
AcDbLinetypeTableRecord
  2
DOT2
 70
0
  3
Dot (.5) . . . . . . . . . . . . . . . . . . . 
 72
65
 73
2
 40
0.254
 49
0.0
 74
0
 49
-0.254
 74
0
  0
LTYPE
  5
3E
330
2
100
AcDbSymbolTableRecord
100
AcDbLinetypeTableRecord
  2
DIVIDE
 70
0
  3
Divide __ . . __ . . __ . . __ . . __ . . __
 72
65
 73
6
 40
4.064
 49
2.54
 74
0
 49
-0.508
 74
0
 49
0.0
 74
0
 49
-0.508
 74
0
 49
0.0
 74
0
 49
-0.508
 74
0
  0
LTYPE
  5
3F
330
2
100
AcDbSymbolTableRecord
100
AcDbLinetypeTableRecord
  2
DIVIDEX2
 70
0
  3
Divide (2x) ____  . .  ____  . .  ____  . .  ____
 72
65
 73
6
 40
6.604
 49
5.08
 74
0
 49
-0.508
 74
0
 49
0.0
 74
0
 49
-0.508
 74
0
 49
0.0
 74
0
 49
-0.508
 74
0
  0
LTYPE
  5
40
330
2
100
AcDbSymbolTableRecord
100
AcDbLinetypeTableRecord
  2
DIVIDE2
 70
0
  3
Divide(.5x) _ . _ . _ . _ . _ . _ . _ . _
 72
65
 73
6
 40
2.032
 49
1.27
 74
0
 49
-0.254
 74
0
 49
0.0
 74
0
 49
-0.254
 74
0
 49
0.0
 74
0
 49
-0.254
 74
0
  0
ENDTAB
  0
TABLE
  2
LAYER
  5
1
330
0
100
AcDbSymbolTable
 70
6
  0
LAYER
  5
27
330
1
100
AcDbSymbolTableRecord
100
AcDbLayerTableRecord
  2
0
 70
0
 62
7
  6
Continuous
370
-3
390
13
347
21
  0
LAYER
  5
28
330
1
100
AcDbSymbolTableRecord
100
AcDbLayerTableRecord
  2
Defpoints
 70
0
 62
7
  6
Continuous
290
0
370
-3
390
13
347
21
  0
LAYER
  5
2ED
330
1
100
AcDbSymbolTableRecord
100
AcDbLayerTableRecord
  2
45-COD-ESTRUCTURAS
 70
0
 62
8
  6
CONTINUOUS
370
5
390
13
347
21
  0
LAYER
  5
2EE
330
1
100
AcDbSymbolTableRecord
100
AcDbLayerTableRecord
  2
50-EST-PILOTE
 70
0
 62
33
  6
CONTINUOUS
370
18
390
13
347
21
  0
LAYER
  5
2EF
330
1
100
AcDbSymbolTableRecord
100
AcDbLayerTableRecord
  2
50-EST-MURO-EJE
 70
0
 62
32
  6
DASHED
370
25
390
13
347
21
  0
LAYER
  5
2F0
330
1
100
AcDbSymbolTableRecord
100
AcDbLayerTableRecord
  2
50-EST-MURO-CONTENCION
 70
0
 62
34
  6
CONTINUOUS
370
40
390
13
347
21
  0
ENDTAB
  0
TABLE
  2
STYLE
  5
5
330
0
100
AcDbSymbolTable
 70
26
  0
STYLE
  5
29
330
5
100
AcDbSymbolTableRecord
100
AcDbTextStyleTableRecord
  2
Standard
 70
0
 40
0.0
 41
1.0
 50
0.0
 71
0
 42
2.5
  3
txt
  4

  0
STYLE
  5
41
330
5
100
AcDbSymbolTableRecord
100
AcDbTextStyleTableRecord
  2
OpenSans-Light
 70
0
 40
0.0
 41
1.0
 50
0.0
 71
0
 42
2.5
  3
OpenSans-Light.ttf
  4

  0
STYLE
  5
42
330
5
100
AcDbSymbolTableRecord
100
AcDbTextStyleTableRecord
  2
OpenSans-Light-Italic
 70
0
 40
0.0
 41
1.0
 50
0.0
 71
0
 42
2.5
  3
OpenSans-LightItalic.ttf
  4

  0
STYLE
  5
43
330
5
100
AcDbSymbolTableRecord
100
AcDbTextStyleTableRecord
  2
OpenSans
 70
0
 40
0.0
 41
1.0
 50
0.0
 71
0
 42
2.5
  3
OpenSans-Regular.ttf
  4

  0
STYLE
  5
44
330
5
100
AcDbSymbolTableRecord
100
AcDbTextStyleTableRecord
  2
OpenSans-Italic
 70
0
 40
0.0
 41
1.0
 50
0.0
 71
0
 42
2.5
  3
OpenSans-Italic.ttf
  4

  0
STYLE
  5
45
330
5
100
AcDbSymbolTableRecord
100
AcDbTextStyleTableRecord
  2
OpenSans-SemiBold
 70
0
 40
0.0
 41
1.0
 50
0.0
 71
0
 42
2.5
  3
OpenSans-SemiBold.ttf
  4

  0
STYLE
  5
46
330
5
100
AcDbSymbolTableRecord
100
AcDbTextStyleTableRecord
  2
OpenSans-SemiBoldItalic
 70
0
 40
0.0
 41
1.0
 50
0.0
 71
0
 42
2.5
  3
OpenSans-SemiBoldItalic.ttf
  4

  0
STYLE
  5
47
330
5
100
AcDbSymbolTableRecord
100
AcDbTextStyleTableRecord
  2
OpenSans-Bold
 70
0
 40
0.0
 41
1.0
 50
0.0
 71
0
 42
2.5
  3
OpenSans-Bold.ttf
  4

  0
STYLE
  5
48
330
5
100
AcDbSymbolTableRecord
100
AcDbTextStyleTableRecord
  2
OpenSans-BoldItalic
 70
0
 40
0.0
 41
1.0
 50
0.0
 71
0
 42
2.5
  3
OpenSans-BoldItalic.ttf
  4

  0
STYLE
  5
49
330
5
100
AcDbSymbolTableRecord
100
AcDbTextStyleTableRecord
  2
OpenSans-ExtraBold
 70
0
 40
0.0
 41
1.0
 50
0.0
 71
0
 42
2.5
  3
OpenSans-ExtraBold.ttf
  4

  0
STYLE
  5
4A
330
5
100
AcDbSymbolTableRecord
100
AcDbTextStyleTableRecord
  2
OpenSans-ExtraBoldItalic
 70
0
 40
0.0
 41
1.0
 50
0.0
 71
0
 42
2.5
  3
OpenSans-ExtraBoldItalic.ttf
  4

  0
STYLE
  5
4B
330
5
100
AcDbSymbolTableRecord
100
AcDbTextStyleTableRecord
  2
OpenSansCondensed-Bold
 70
0
 40
0.0
 41
1.0
 50
0.0
 71
0
 42
2.5
  3
OpenSansCondensed-Bold.ttf
  4

  0
STYLE
  5
4C
330
5
100
AcDbSymbolTableRecord
100
AcDbTextStyleTableRecord
  2
OpenSansCondensed-Light
 70
0
 40
0.0
 41
1.0
 50
0.0
 71
0
 42
2.5
  3
OpenSansCondensed-Light.ttf
  4

  0
STYLE
  5
4D
330
5
100
AcDbSymbolTableRecord
100
AcDbTextStyleTableRecord
  2
OpenSansCondensed-Italic
 70
0
 40
0.0
 41
1.0
 50
0.0
 71
0
 42
2.5
  3
OpenSansCondensed-LightItalic.ttf
  4

  0
STYLE
  5
4E
330
5
100
AcDbSymbolTableRecord
100
AcDbTextStyleTableRecord
  2
LiberationSans
 70
0
 40
0.0
 41
1.0
 50
0.0
 71
0
 42
2.5
  3
LiberationSans-Regular.ttf
  4

  0
STYLE
  5
4F
330
5
100
AcDbSymbolTableRecord
100
AcDbTextStyleTableRecord
  2
LiberationSans-Bold
 70
0
 40
0.0
 41
1.0
 50
0.0
 71
0
 42
2.5
  3
LiberationSans-Bold.ttf
  4

  0
STYLE
  5
50
330
5
100
AcDbSymbolTableRecord
100
AcDbTextStyleTableRecord
  2
LiberationSans-BoldItalic
 70
0
 40
0.0
 41
1.0
 50
0.0
 71
0
 42
2.5
  3
LiberationSans-BoldItalic.ttf
  4

  0
STYLE
  5
51
330
5
100
AcDbSymbolTableRecord
100
AcDbTextStyleTableRecord
  2
LiberationSans-Italic
 70
0
 40
0.0
 41
1.0
 50
0.0
 71
0
 42
2.5
  3
LiberationSans-Italic.ttf
  4

  0
STYLE
  5
52
330
5
100
AcDbSymbolTableRecord
100
AcDbTextStyleTableRecord
  2
LiberationSerif
 70
0
 40
0.0
 41
1.0
 50
0.0
 71
0
 42
2.5
  3
LiberationSerif-Regular.ttf
  4

  0
STYLE
  5
53
330
5
100
AcDbSymbolTableRecord
100
AcDbTextStyleTableRecord
  2
LiberationSerif-Bold
 70
0
 40
0.0
 41
1.0
 50
0.0
 71
0
 42
2.5
  3
LiberationSerif-Bold.ttf
  4

  0
STYLE
  5
54
330
5
100
AcDbSymbolTableRecord
100
AcDbTextStyleTableRecord
  2
LiberationSerif-BoldItalic
 70
0
 40
0.0
 41
1.0
 50
0.0
 71
0
 42
2.5
  3
LiberationSerif-BoldItalic.ttf
  4

  0
STYLE
  5
55
330
5
100
AcDbSymbolTableRecord
100
AcDbTextStyleTableRecord
  2
LiberationSerif-Italic
 70
0
 40
0.0
 41
1.0
 50
0.0
 71
0
 42
2.5
  3
LiberationSerif-Italic.ttf
  4

  0
STYLE
  5
56
330
5
100
AcDbSymbolTableRecord
100
AcDbTextStyleTableRecord
  2
LiberationMono
 70
0
 40
0.0
 41
1.0
 50
0.0
 71
0
 42
2.5
  3
LiberationMono-Regular.ttf
  4

  0
STYLE
  5
57
330
5
100
AcDbSymbolTableRecord
100
AcDbTextStyleTableRecord
  2
LiberationMono-Bold
 70
0
 40
0.0
 41
1.0
 50
0.0
 71
0
 42
2.5
  3
LiberationMono-Bold.ttf
  4

  0
STYLE
  5
58
330
5
100
AcDbSymbolTableRecord
100
AcDbTextStyleTableRecord
  2
LiberationMono-BoldItalic
 70
0
 40
0.0
 41
1.0
 50
0.0
 71
0
 42
2.5
  3
LiberationMono-BoldItalic.ttf
  4

  0
STYLE
  5
59
330
5
100
AcDbSymbolTableRecord
100
AcDbTextStyleTableRecord
  2
LiberationMono-Italic
 70
0
 40
0.0
 41
1.0
 50
0.0
 71
0
 42
2.5
  3
LiberationMono-Italic.ttf
  4

  0
ENDTAB
  0
TABLE
  2
VIEW
  5
7
330
0
100
AcDbSymbolTable
 70
0
  0
ENDTAB
  0
TABLE
  2
UCS
  5
6
330
0
100
AcDbSymbolTable
 70
0
  0
ENDTAB
  0
TABLE
  2
APPID
  5
3
330
0
100
AcDbSymbolTable
 70
3
  0
APPID
  5
2A
330
3
100
AcDbSymbolTableRecord
100
AcDbRegAppTableRecord
  2
ACAD
 70
0
  0
APPID
  5
2F1
330
3
100
AcDbSymbolTableRecord
100
AcDbRegAppTableRecord
  2
HATCHBACKGROUNDCOLOR
 70
0
  0
APPID
  5
2F2
330
3
100
AcDbSymbolTableRecord
100
AcDbRegAppTableRecord
  2
EZDXF
 70
0
  0
ENDTAB
  0
TABLE
  2
DIMSTYLE
  5
4
330
0
100
AcDbSymbolTable
 70
12
100
AcDbDimStyleTable
  0
DIMSTYLE
105
2B
330
4
100
AcDbSymbolTableRecord
100
AcDbDimStyleTableRecord
  2
Standard
 70
0
 40
1.0
 41
2.5
 42
0.625
 43
3.75
 44
1.25
 45
0.0
 46
0.0
 47
0.0
 48
0.0
 49
2.5
140
2.5
141
2.5
142
0.0
143
0.03937007874
144
1.0
145
0.0
146
1.0
147
0.625
148
0.0
 69
0
 70
0
 71
0
 72
0
 73
0
 74
0
 75
0
 76
0
 77
1
 78
8
 79
3
170
0
171
3
172
1
173
0
174
0
175
0
176
0
177
0
178
0
179
2
271
2
272
2
273
2
274
3
275
0
276
0
277
2
278
44
279
0
280
0
281
0
282
0
283
0
284
8
285
0
286
0
288
0
289
3
290
0
371
-2
372
-2
  0
DIMSTYLE
105
73
330
4
100
AcDbSymbolTableRecord
100
AcDbDimStyleTableRecord
  2
EZDXF
 70
0
 40
1.0
 41
0.175
 42
0.125
 43
3.75
 44
0.375
 45
0.0
 46
0.0
 47
0.0
 48
0.0
 49
2.5
140
0.25
141
2.5
142
0.0
143
0.03937007874
144
100.0
145
0.0
146
0.5
147
0.1
148
0.0
 69
0
 70
0
 71
0
 72
0
 73
0
 74
0
 75
0
 76
0
 77
1
 78
12
 79
3
170
0
171
3
172
1
173
0
174
0
175
0
176
0
177
0
178
0
179
2
271
2
272
2
273
2
274
3
275
0
276
0
277
2
278
46
279
2
280
0
281
0
282
0
283
0
284
8
285
0
286
0
288
1
289
3
290
0
340
4C
342
74
371
-2
372
-2
  0
DIMSTYLE
105
7C
330
4
100
AcDbSymbolTableRecord
100
AcDbDimStyleTableRecord
  2
EZ_M_100_H25_CM
 70
0
 40
1.0
 41
0.25
 42
0.125
 43
3.75
 44
0.375
 45
0.0
 46
0.0
 47
0.0
 48
0.0
 49
2.5
140
0.25
141
2.5
142
0.125
143
0.03937007874
144
100.0
145
0.0
146
0.5
147
0.1
148
0.0
 69
0
 70
0
 71
0
 72
0
 73
0
 74
0
 75
0
 76
0
 77
1
 78
12
 79
3
170
0
171
3
172
1
173
0
174
0
175
0
176
0
177
0
178
0
179
2
271
2
272
2
273
2
274
3
275
0
276
0
277
2
278
46
279
2
280
0
281
0
282
0
283
0
284
8
285
0
286
0
288
1
289
3
290
0
340
4C
371
-2
372
-2
  0
DIMSTYLE
105
7D
330
4
100
AcDbSymbolTableRecord
100
AcDbDimStyleTableRecord
  2
EZ_M_50_H25_CM
 70
0
 40
1.0
 41
0.125
 42
0.0625
 43
3.75
 44
0.1875
 45
0.0
 46
0.0
 47
0.0
 48
0.0
 49
2.5
140
0.125
141
2.5
142
0.0625
143
0.03937007874
144
100.0
145
0.0
146
0.5
147
0.05
148
0.0
 69
0
 70
0
 71
0
 72
0
 73
0
 74
0
 75
0
 76
0
 77
1
 78
12
 79
3
170
0
171
3
172
1
173
0
174
0
175
0
176
0
177
0
178
0
179
2
271
2
272
2
273
2
274
3
275
0
276
0
277
2
278
46
279
2
280
0
281
0
282
0
283
0
284
8
285
0
286
0
288
1
289
3
290
0
340
4C
371
-2
372
-2
  0
DIMSTYLE
105
7E
330
4
100
AcDbSymbolTableRecord
100
AcDbDimStyleTableRecord
  2
EZ_M_25_H25_CM
 70
0
 40
1.0
 41
0.0625
 42
0.03125
 43
3.75
 44
0.09375
 45
0.0
 46
0.0
 47
0.0
 48
0.0
 49
2.5
140
0.0625
141
2.5
142
0.03125
143
0.03937007874
144
100.0
145
0.0
146
0.5
147
0.025
148
0.0
 69
0
 70
0
 71
0
 72
0
 73
0
 74
0
 75
0
 76
0
 77
1
 78
12
 79
3
170
0
171
3
172
1
173
0
174
0
175
0
176
0
177
0
178
0
179
2
271
2
272
2
273
2
274
3
275
0
276
0
277
2
278
46
279
2
280
0
281
0
282
0
283
0
284
8
285
0
286
0
288
1
289
3
290
0
340
4C
371
-2
372
-2
  0
DIMSTYLE
105
7F
330
4
100
AcDbSymbolTableRecord
100
AcDbDimStyleTableRecord
  2
EZ_M_20_H25_CM
 70
0
 40
1.0
 41
0.05
 42
0.025
 43
3.75
 44
0.07500000000000001
 45
0.0
 46
0.0
 47
0.0
 48
0.0
 49
2.5
140
0.05
141
2.5
142
0.025
143
0.03937007874
144
100.0
145
0.0
146
0.5
147
0.020000000000000004
148
0.0
 69
0
 70
0
 71
0
 72
0
 73
0
 74
0
 75
0
 76
0
 77
1
 78
12
 79
3
170
0
171
3
172
1
173
0
174
0
175
0
176
0
177
0
178
0
179
2
271
2
272
2
273
2
274
3
275
0
276
0
277
2
278
46
279
2
280
0
281
0
282
0
283
0
284
8
285
0
286
0
288
1
289
3
290
0
340
4C
371
-2
372
-2
  0
DIMSTYLE
105
80
330
4
100
AcDbSymbolTableRecord
100
AcDbDimStyleTableRecord
  2
EZ_M_10_H25_CM
 70
0
 40
1.0
 41
0.025
 42
0.0125
 43
3.75
 44
0.037500000000000006
 45
0.0
 46
0.0
 47
0.0
 48
0.0
 49
2.5
140
0.025
141
2.5
142
0.0125
143
0.03937007874
144
100.0
145
0.0
146
0.5
147
0.010000000000000002
148
0.0
 69
0
 70
0
 71
0
 72
0
 73
0
 74
0
 75
0
 76
0
 77
1
 78
12
 79
3
170
0
171
3
172
1
173
0
174
0
175
0
176
0
177
0
178
0
179
2
271
2
272
2
273
2
274
3
275
0
276
0
277
2
278
46
279
2
280
0
281
0
282
0
283
0
284
8
285
0
286
0
288
1
289
3
290
0
340
4C
371
-2
372
-2
  0
DIMSTYLE
105
81
330
4
100
AcDbSymbolTableRecord
100
AcDbDimStyleTableRecord
  2
EZ_M_5_H25_CM
 70
0
 40
1.0
 41
0.0125
 42
0.00625
 43
3.75
 44
0.018750000000000003
 45
0.0
 46
0.0
 47
0.0
 48
0.0
 49
2.5
140
0.0125
141
2.5
142
0.00625
143
0.03937007874
144
100.0
145
0.0
146
0.5
147
0.005000000000000001
148
0.0
 69
0
 70
0
 71
0
 72
0
 73
0
 74
0
 75
0
 76
0
 77
1
 78
12
 79
3
170
0
171
3
172
1
173
0
174
0
175
0
176
0
177
0
178
0
179
2
271
2
272
2
273
2
274
3
275
0
276
0
277
2
278
46
279
2
280
0
281
0
282
0
283
0
284
8
285
0
286
0
288
1
289
3
290
0
340
4C
371
-2
372
-2
  0
DIMSTYLE
105
82
330
4
100
AcDbSymbolTableRecord
100
AcDbDimStyleTableRecord
  2
EZ_M_1_H25_CM
 70
0
 40
1.0
 41
0.0025
 42
0.00125
 43
3.75
 44
0.00375
 45
0.0
 46
0.0
 47
0.0
 48
0.0
 49
2.5
140
0.0025
141
2.5
142
0.00125
143
0.03937007874
144
100.0
145
0.0
146
0.5
147
0.001
148
0.0
 69
0
 70
0
 71
0
 72
0
 73
0
 74
0
 75
0
 76
0
 77
1
 78
12
 79
3
170
0
171
3
172
1
173
0
174
0
175
0
176
0
177
0
178
0
179
2
271
2
272
2
273
2
274
3
275
0
276
0
277
2
278
46
279
2
280
0
281
0
282
0
283
0
284
8
285
0
286
0
288
1
289
3
290
0
340
4C
371
-2
372
-2
  0
DIMSTYLE
105
83
330
4
100
AcDbSymbolTableRecord
100
AcDbDimStyleTableRecord
  2
EZ_RADIUS
 70
0
 40
1.0
 41
0.25
 42
0.125
 43
3.75
 44
0.375
 45
0.0
 46
0.0
 47
0.0
 48
0.0
 49
2.5
140
0.25
141
0.0
142
0.0
143
0.03937007874
144
100.0
145
0.0
146
0.5
147
0.1
148
0.0
 69
0
 70
0
 71
0
 72
0
 73
0
 74
0
 75
0
 76
0
 77
1
 78
12
 79
3
170
0
171
3
172
0
173
0
174
0
175
0
176
0
177
0
178
0
179
2
271
2
272
2
273
2
274
3
275
0
276
0
277
2
278
46
279
1
280
0
281
0
282
0
283
0
284
8
285
0
286
0
288
1
289
3
290
0
340
4C
342
84
371
-2
372
-2
  0
DIMSTYLE
105
88
330
4
100
AcDbSymbolTableRecord
100
AcDbDimStyleTableRecord
  2
EZ_RADIUS_INSIDE
 70
0
 40
1.0
 41
0.25
 42
0.125
 43
3.75
 44
0.375
 45
0.0
 46
0.0
 47
0.0
 48
0.0
 49
2.5
140
0.25
141
0.0
142
0.0
143
0.03937007874
144
100.0
145
0.0
146
0.5
147
0.1
148
0.0
 69
0
 70
0
 71
0
 72
0
 73
0
 74
0
 75
0
 76
0
 77
0
 78
12
 79
3
170
0
171
3
172
0
173
0
174
1
175
0
176
0
177
0
178
0
179
2
271
2
272
2
273
2
274
3
275
0
276
0
277
2
278
46
279
0
280
0
281
0
282
0
283
0
284
8
285
0
286
0
288
1
289
0
290
0
340
4C
342
84
371
-2
372
-2
  0
DIMSTYLE
105
89
330
4
100
AcDbSymbolTableRecord
100
AcDbDimStyleTableRecord
  2
EZ_CURVED
 70
0
 40
1.0
 41
0.25
 42
0.125
 43
3.75
 44
0.375
 45
0.0
 46
0.0
 47
0.0
 48
0.0
 49
2.5
140
0.25
141
2.5
142
0.0
143
0.03937007874
144
100.0
145
0.0
146
0.5
147
0.1
148
0.0
 69
0
 70
0
 71
0
 72
0
 73
0
 74
0
 75
0
 76
0
 77
1
 78
12
 79
2
 90
2
170
0
171
3
172
1
173
0
174
0
175
0
176
0
177
0
178
0
179
2
271
2
272
2
273
2
274
3
275
0
276
0
277
2
278
46
279
2
280
0
281
0
282
0
283
0
284
8
285
0
286
0
288
1
289
3
290
0
340
4C
371
-2
372
-2
  0
ENDTAB
  0
TABLE
  2
BLOCK_RECORD
  5
9
330
0
100
AcDbSymbolTable
 70
6
  0
BLOCK_RECORD
  5
17
330
9
100
AcDbSymbolTableRecord
100
AcDbBlockTableRecord
  2
*Model_Space
340
1A
 70
0
280
1
281
0
  0
BLOCK_RECORD
  5
1B
330
9
100
AcDbSymbolTableRecord
100
AcDbBlockTableRecord
  2
*Paper_Space
340
1E
 70
0
280
1
281
0
  0
BLOCK_RECORD
  5
74
330
9
100
AcDbSymbolTableRecord
100
AcDbBlockTableRecord
  2
_ARCHTICK
340
0
 70
0
280
1
281
0
  0
BLOCK_RECORD
  5
78
330
9
100
AcDbSymbolTableRecord
100
AcDbBlockTableRecord
  2
_CLOSEDFILLED
340
0
 70
0
280
1
281
0
  0
BLOCK_RECORD
  5
84
330
9
100
AcDbSymbolTableRecord
100
AcDbBlockTableRecord
  2
_CLOSEDBLANK
340
0
 70
0
280
1
281
0
  0
BLOCK_RECORD
  5
2E7
330
9
100
AcDbSymbolTableRecord
100
AcDbBlockTableRecord
  2
PILOTE
340
0
 70
0
280
1
281
0
  0
ENDTAB
  0
ENDSEC
  0
SECTION
  2
BLOCKS
  0
BLOCK
  5
18
330
17
100
AcDbEntity
  8
0
100
AcDbBlockBegin
  2
*Model_Space
 70
0
 10
0.0
 20
0.0
 30
0.0
  3
*Model_Space
  1

  0
ENDBLK
  5
19
330
17
100
AcDbEntity
  8
0
100
AcDbBlockEnd
  0
BLOCK
  5
1C
330
1B
100
AcDbEntity
  8
0
100
AcDbBlockBegin
  2
*Paper_Space
 70
0
 10
0.0
 20
0.0
 30
0.0
  3
*Paper_Space
  1

  0
ENDBLK
  5
1D
330
1B
100
AcDbEntity
  8
0
100
AcDbBlockEnd
  0
BLOCK
  5
75
330
74
100
AcDbEntity
  8
0
100
AcDbBlockBegin
  2
_ARCHTICK
 70
0
 10
0.0
 20
0.0
 30
0.0
  3
_ARCHTICK
  1

  0
LWPOLYLINE
  5
77
330
74
100
AcDbEntity
  8
0
  6
BYBLOCK
 62
0
100
AcDbPolyline
 90
2
 70
0
 43
0.15
 10
-0.5
 20
-0.5
 10
0.5
 20
0.5
  0
ENDBLK
  5
76
330
74
100
AcDbEntity
  8
0
100
AcDbBlockEnd
  0
BLOCK
  5
79
330
78
100
AcDbEntity
  8
0
100
AcDbBlockBegin
  2
_CLOSEDFILLED
 70
0
 10
0.0
 20
0.0
 30
0.0
  3
_CLOSEDFILLED
  1

  0
SOLID
  5
7B
330
78
100
AcDbEntity
  8
0
  6
BYBLOCK
 62
0
100
AcDbTrace
 10
-1.0
 20
0.16439898372402537
 30
0.0
 11
0.0
 21
0.0
 31
0.0
 12
-1.0
 22
-0.16439898372402537
 32
0.0
 13
-1.0
 23
-0.16439898372402537
 33
0.0
  0
ENDBLK
  5
7A
330
78
100
AcDbEntity
  8
0
100
AcDbBlockEnd
  0
BLOCK
  5
85
330
84
100
AcDbEntity
  8
0
100
AcDbBlockBegin
  2
_CLOSEDBLANK
 70
0
 10
0.0
 20
0.0
 30
0.0
  3
_CLOSEDBLANK
  1

  0
LWPOLYLINE
  5
87
330
84
100
AcDbEntity
  8
0
  6
BYBLOCK
 62
0
100
AcDbPolyline
 90
3
 70
1
 10
-1.0
 20
0.16439898372402537
 10
0.0
 20
0.0
 10
-1.0
 20
-0.16439898372402537
  0
ENDBLK
  5
86
330
84
100
AcDbEntity
  8
0
100
AcDbBlockEnd
  0
BLOCK
  5
2E8
330
2E7
100
AcDbEntity
  8
0
100
AcDbBlockBegin
  2
PILOTE
 70
0
 10
0.0
 20
0.0
 30
0.0
  3
PILOTE
  1

  0
CIRCLE
  5
2EA
330
2E7
100
AcDbEntity
  8
0
100
AcDbCircle
 10
0.0
 20
0.0
 30
0.0
 40
0.5
  0
LINE
  5
2EB
330
2E7
100
AcDbEntity
  8
0
100
AcDbLine
 10
-0.35
 20
-0.35
 30
0.0
 11
0.35
 21
0.35
 31
0.0
  0
LINE
  5
2EC
330
2E7
100
AcDbEntity
  8
0
100
AcDbLine
 10
-0.35
 20
0.35
 30
0.0
 11
0.35
 21
-0.35
 31
0.0
  0
ENDBLK
  5
2E9
330
2E7
100
AcDbEntity
  8
0
100
AcDbBlockEnd
  0
ENDSEC
  0
SECTION
  2
ENTITIES
  0
LWPOLYLINE
  5
8A
330
17
100
AcDbEntity
  8
50-EST-MURO-CONTENCION
100
AcDbPolyline
 90
23
 70
1
 10
105440.256
 20
113155.2965
 10
105441.1012
 20
113153.7828
 10
105441.3096
 20
113152.4199
 10
105440.9653
 20
113141.6992
 10
105440.9109
 20
113140.1578
 10
105440.2175
 20
113131.2875
 10
105439.5222
 20
113121.7525
 10
105439.4809
 20
113121.1852
 10
105437.5771
 20
113111.9486
 10
105435.408
 20
113100.2367
 10
105434.9192
 20
113100.3537
 10
105434.9394
 20
113100.4523
 10
105437.0863
 20
113112.0446
 10
105438.9846
 20
113121.2541
 10
105439.0236
 20
113121.7889
 10
105439.7206
 20
113131.3484
 10
105439.7206
 20
113131.3484
 10
105440.4116
 20
113140.1862
 10
105440.4655
 20
113141.716
 10
105440.8084
 20
113152.3899
 10
105440.6206
 20
113153.6179
 10
105439.6756
 20
113155.3104
 10
105440.256
 20
113155.2965
  0
TEXT
  5
8B
330
17
100
AcDbEntity
  8
45-COD-ESTRUCTURAS
100
AcDbText
 10
105438.11439999999
 20
113127.77355
 30
0.0
 40
1.2
  1
MC-001
 72
1
 11
105438.11439999999
 21
113127.77355
 31
0.0
100
AcDbText
 73
2
  0
LWPOLYLINE
  5
8C
330
17
100
AcDbEntity
  8
50-EST-MURO-CONTENCION
100
AcDbPolyline
 90
22
 70
1
 10
105433.8859
 20
113100.6009
 10
105434.9192
 20
113100.3537
 10
105434.9394
 20
113100.4523
 10
105437.0863
 20
113112.0446
 10
105438.9846
 20
113121.2541
 10
105439.0236
 20
113121.7889
 10
105439.7206
 20
113131.3484
 10
105440.4116
 20
113140.1862
 10
105440.4655
 20
113141.716
 10
105440.8084
 20
113152.3899
 10
105440.6206
 20
113153.6179
 10
105439.6756
 20
113155.3104
 10
105438.4417
 20
113155.3398
 10
105439.5989
 20
113153.2674
 10
105439.7428
 20
113152.3261
 10
105439.4031
 20
113141.7518
 10
105439.35
 20
113140.2464
 10
105438.6606
 20
113131.4285
 10
105437.9634
 20
113121.8662
 10
105437.9294
 20
113121.4007
 10
105436.0431
 20
113112.2487
 10
105433.8859
 20
113100.6009
  0
TEXT
  5
8D
330
17
100
AcDbEntity
  8
45-COD-ESTRUCTURAS
100
AcDbText
 10
105437.34714999999
 20
113127.84675
 30
0.0
 40
1.2
  1
MC-002
 72
1
 11
105437.34714999999
 21
113127.84675
 31
0.0
100
AcDbText
 73
2
  0
LWPOLYLINE
  5
8E
330
17
100
AcDbEntity
  8
50-EST-MURO-CONTENCION
100
AcDbPolyline
 90
7
 70
1
 10
105435.6519
 20
113192.9059
 10
105435.4854
 20
113197.7543
 10
105435.4486
 20
113198.8065
 10
105438.8465
 20
113198.9252
 10
105438.8833
 20
113197.873
 10
105439.05
 20
113193.0197
 10
105435.6519
 20
113192.9059
  0
TEXT
  5
8F
330
17
100
AcDbEntity
  8
45-COD-ESTRUCTURAS
100
AcDbText
 10
105437.2493
 20
113195.91555
 30
0.0
 40
1.2
  1
MC-007
 72
1
 11
105437.2493
 21
113195.91555
 31
0.0
100
AcDbText
 73
2
  0
LWPOLYLINE
  5
90
330
17
100
AcDbEntity
  8
50-EST-MURO-CONTENCION
100
AcDbPolyline
 90
5
 70
1
 10
105436.0516
 20
113192.9193
 10
105435.6519
 20
113192.9059
 10
105435.4486
 20
113198.8065
 10
105435.8484
 20
113198.8202
 10
105436.0516
 20
113192.9193
  0
TEXT
  5
91
330
17
100
AcDbEntity
  8
45-COD-ESTRUCTURAS
100
AcDbText
 10
105435.7501
 20
113195.86305
 30
0.0
 40
1.2
  1
MC-008
 72
1
 11
105435.7501
 21
113195.86305
 31
0.0
100
AcDbText
 73
2
  0
LWPOLYLINE
  5
92
330
17
100
AcDbEntity
  8
50-EST-MURO-CONTENCION
100
AcDbPolyline
 90
5
 70
1
 10
105438.6446
 20
113193.0062
 10
105439.0499
 20
113193.0215
 10
105438.8465
 20
113198.9252
 10
105438.4467
 20
113198.9118
 10
105438.6446
 20
113193.0062
  0
TEXT
  5
93
330
17
100
AcDbEntity
  8
45-COD-ESTRUCTURAS
100
AcDbText
 10
105438.7483
 20
113195.9657
 30
0.0
 40
1.2
  1
MC-009
 72
1
 11
105438.7483
 21
113195.9657
 31
0.0
100
AcDbText
 73
2
  0
LWPOLYLINE
  5
94
330
17
100
AcDbEntity
  8
50-EST-MURO-CONTENCION
100
AcDbPolyline
 90
7
 70
1
 10
105435.4481
 20
113198.8208
 10
105435.2792
 20
113203.6691
 10
105435.242
 20
113204.7212
 10
105438.6398
 20
113204.8416
 10
105438.6771
 20
113203.7894
 10
105438.8461
 20
113198.9362
 10
105435.4481
 20
113198.8208
  0
TEXT
  5
95
330
17
100
AcDbEntity
  8
45-COD-ESTRUCTURAS
100
AcDbText
 10
105437.04405
 20
113201.8312
 30
0.0
 40
1.2
  1
MC-010
 72
1
 11
105437.04405
 21
113201.8312
 31
0.0
100
AcDbText
 73
2
  0
LWPOLYLINE
  5
96
330
17
100
AcDbEntity
  8
50-EST-MURO-CONTENCION
100
AcDbPolyline
 90
5
 70
1
 10
105435.8479
 20
113198.8344
 10
105435.4481
 20
113198.8208
 10
105435.242
 20
113204.7212
 10
105435.6417
 20
113204.7352
 10
105435.8479
 20
113198.8344
  0
TEXT
  5
97
330
17
100
AcDbEntity
  8
45-COD-ESTRUCTURAS
100
AcDbText
 10
105435.54495
 20
113201.77799999999
 30
0.0
 40
1.2
  1
MC-011
 72
1
 11
105435.54495
 21
113201.77799999999
 31
0.0
100
AcDbText
 73
2
  0
LWPOLYLINE
  5
98
330
17
100
AcDbEntity
  8
50-EST-MURO-CONTENCION
100
AcDbPolyline
 90
5
 70
1
 10
105438.4407
 20
113198.9225
 10
105438.8461
 20
113198.938
 10
105438.6398
 20
113204.8416
 10
105438.2401
 20
113204.828
 10
105438.4407
 20
113198.9225
  0
TEXT
  5
99
330
17
100
AcDbEntity
  8
45-COD-ESTRUCTURAS
100
AcDbText
 10
105438.5431
 20
113201.88205
 30
0.0
 40
1.2
  1
MC-012
 72
1
 11
105438.5431
 21
113201.88205
 31
0.0
100
AcDbText
 73
2
  0
LWPOLYLINE
  5
9A
330
17
100
AcDbEntity
  8
50-EST-MURO-CONTENCION
100
AcDbPolyline
 90
7
 70
1
 10
105435.0347
 20
113210.6536
 10
105434.8659
 20
113215.5018
 10
105434.8286
 20
113216.554
 10
105438.2265
 20
113216.6743
 10
105438.2638
 20
113215.6222
 10
105438.4328
 20
113210.769
 10
105435.0347
 20
113210.6536
  0
TEXT
  5
9B
330
17
100
AcDbEntity
  8
45-COD-ESTRUCTURAS
100
AcDbText
 10
105436.6307
 20
113213.66395
 30
0.0
 40
1.2
  1
MC-013
 72
1
 11
105436.6307
 21
113213.66395
 31
0.0
100
AcDbText
 73
2
  0
LWPOLYLINE
  5
9C
330
17
100
AcDbEntity
  8
50-EST-MURO-CONTENCION
100
AcDbPolyline
 90
5
 70
1
 10
105435.4345
 20
113210.6671
 10
105435.0347
 20
113210.6536
 10
105434.8286
 20
113216.554
 10
105435.2284
 20
113216.568
 10
105435.4345
 20
113210.6671
  0
TEXT
  5
9D
330
17
100
AcDbEntity
  8
45-COD-ESTRUCTURAS
100
AcDbText
 10
105435.13154999999
 20
113213.6108
 30
0.0
 40
1.2
  1
MC-014
 72
1
 11
105435.13154999999
 21
113213.6108
 31
0.0
100
AcDbText
 73
2
  0
LWPOLYLINE
  5
9E
330
17
100
AcDbEntity
  8
50-EST-MURO-CONTENCION
100
AcDbPolyline
 90
5
 70
1
 10
105438.0274
 20
113210.7552
 10
105438.4327
 20
113210.7708
 10
105438.2265
 20
113216.6743
 10
105437.8267
 20
113216.6608
 10
105438.0274
 20
113210.7552
  0
TEXT
  5
9F
330
17
100
AcDbEntity
  8
45-COD-ESTRUCTURAS
100
AcDbText
 10
105438.1297
 20
113213.71475
 30
0.0
 40
1.2
  1
MC-015
 72
1
 11
105438.1297
 21
113213.71475
 31
0.0
100
AcDbText
 73
2
  0
LWPOLYLINE
  5
A0
330
17
100
AcDbEntity
  8
50-EST-MURO-CONTENCION
100
AcDbPolyline
 90
7
 70
1
 10
105434.8281
 20
113216.5699
 10
105434.6592
 20
113221.4182
 10
105434.622
 20
113222.4704
 10
105438.0198
 20
113222.5907
 10
105438.0571
 20
113221.5386
 10
105438.2261
 20
113216.6854
 10
105434.8281
 20
113216.5699
  0
TEXT
  5
A1
330
17
100
AcDbEntity
  8
45-COD-ESTRUCTURAS
100
AcDbText
 10
105436.42405
 20
113219.5803
 30
0.0
 40
1.2
  1
MC-016
 72
1
 11
105436.42405
 21
113219.5803
 31
0.0
100
AcDbText
 73
2
  0
LWPOLYLINE
  5
A2
330
17
100
AcDbEntity
  8
50-EST-MURO-CONTENCION
100
AcDbPolyline
 90
5
 70
1
 10
105435.2278
 20
113216.5835
 10
105434.8281
 20
113216.5699
 10
105434.622
 20
113222.4704
 10
105435.0217
 20
113222.4844
 10
105435.2278
 20
113216.5835
  0
TEXT
  5
A3
330
17
100
AcDbEntity
  8
45-COD-ESTRUCTURAS
100
AcDbText
 10
105434.9249
 20
113219.52715000001
 30
0.0
 40
1.2
  1
MC-017
 72
1
 11
105434.9249
 21
113219.52715000001
 31
0.0
100
AcDbText
 73
2
  0
LWPOLYLINE
  5
A4
330
17
100
AcDbEntity
  8
50-EST-MURO-CONTENCION
100
AcDbPolyline
 90
5
 70
1
 10
105437.8207
 20
113216.6716
 10
105438.2261
 20
113216.6872
 10
105438.0198
 20
113222.5907
 10
105437.6201
 20
113222.5771
 10
105437.8207
 20
113216.6716
  0
TEXT
  5
A5
330
17
100
AcDbEntity
  8
45-COD-ESTRUCTURAS
100
AcDbText
 10
105437.9231
 20
113219.63115
 30
0.0
 40
1.2
  1
MC-018
 72
1
 11
105437.9231
 21
113219.63115
 31
0.0
100
AcDbText
 73
2
  0
LWPOLYLINE
  5
A6
330
17
100
AcDbEntity
  8
50-EST-MURO-CONTENCION
100
AcDbPolyline
 90
7
 70
1
 10
105434.6214
 20
113222.4863
 10
105434.4525
 20
113227.3346
 10
105434.4153
 20
113228.3868
 10
105437.8132
 20
113228.5071
 10
105437.8504
 20
113227.455
 10
105438.0194
 20
113222.6018
 10
105434.6214
 20
113222.4863
  0
TEXT
  5
A7
330
17
100
AcDbEntity
  8
45-COD-ESTRUCTURAS
100
AcDbText
 10
105436.21734999999
 20
113225.4967
 30
0.0
 40
1.2
  1
MC-019
 72
1
 11
105436.21734999999
 21
113225.4967
 31
0.0
100
AcDbText
 73
2
  0
LWPOLYLINE
  5
A8
330
17
100
AcDbEntity
  8
50-EST-MURO-CONTENCION
100
AcDbPolyline
 90
5
 70
1
 10
105435.0212
 20
113222.4999
 10
105434.6214
 20
113222.4863
 10
105434.4153
 20
113228.3868
 10
105434.815
 20
113228.4007
 10
105435.0212
 20
113222.4999
  0
TEXT
  5
A9
330
17
100
AcDbEntity
  8
45-COD-ESTRUCTURAS
100
AcDbText
 10
105434.71825
 20
113225.4435
 30
0.0
 40
1.2
  1
MC-020
 72
1
 11
105434.71825
 21
113225.4435
 31
0.0
100
AcDbText
 73
2
  0
LWPOLYLINE
  5
AA
330
17
100
AcDbEntity
  8
50-EST-MURO-CONTENCION
100
AcDbPolyline
 90
5
 70
1
 10
105437.614
 20
113222.588
 10
105438.0194
 20
113222.6036
 10
105437.8132
 20
113228.5071
 10
105437.4134
 20
113228.4935
 10
105437.614
 20
113222.588
  0
TEXT
  5
AB
330
17
100
AcDbEntity
  8
45-COD-ESTRUCTURAS
100
AcDbText
 10
105437.7164
 20
113225.54755
 30
0.0
 40
1.2
  1
MC-021
 72
1
 11
105437.7164
 21
113225.54755
 31
0.0
100
AcDbText
 73
2
  0
LWPOLYLINE
  5
AC
330
17
100
AcDbEntity
  8
50-EST-MURO-CONTENCION
100
AcDbPolyline
 90
7
 70
1
 10
105434.4147
 20
113228.4027
 10
105434.2459
 20
113233.251
 10
105434.2086
 20
113234.3032
 10
105437.6065
 20
113234.4235
 10
105437.6437
 20
113233.3714
 10
105437.8128
 20
113228.5182
 10
105434.4147
 20
113228.4027
  0
TEXT
  5
AD
330
17
100
AcDbEntity
  8
45-COD-ESTRUCTURAS
100
AcDbText
 10
105436.0107
 20
113231.4131
 30
0.0
 40
1.2
  1
MC-022
 72
1
 11
105436.0107
 21
113231.4131
 31
0.0
100
AcDbText
 73
2
  0
LWPOLYLINE
  5
AE
330
17
100
AcDbEntity
  8
50-EST-MURO-CONTENCION
100
AcDbPolyline
 90
5
 70
1
 10
105434.8145
 20
113228.4163
 10
105434.4147
 20
113228.4027
 10
105434.2086
 20
113234.3032
 10
105434.6084
 20
113234.3171
 10
105434.8145
 20
113228.4163
  0
TEXT
  5
AF
330
17
100
AcDbEntity
  8
45-COD-ESTRUCTURAS
100
AcDbText
 10
105434.51155
 20
113231.35990000001
 30
0.0
 40
1.2
  1
MC-023
 72
1
 11
105434.51155
 21
113231.35990000001
 31
0.0
100
AcDbText
 73
2
  0
LWPOLYLINE
  5
B0
330
17
100
AcDbEntity
  8
50-EST-MURO-CONTENCION
100
AcDbPolyline
 90
5
 70
1
 10
105437.4074
 20
113228.5044
 10
105437.8127
 20
113228.5199
 10
105437.6065
 20
113234.4235
 10
105437.2067
 20
113234.4099
 10
105437.4074
 20
113228.5044
  0
TEXT
  5
B1
330
17
100
AcDbEntity
  8
45-COD-ESTRUCTURAS
100
AcDbText
 10
105437.5097
 20
113231.46395
 30
0.0
 40
1.2
  1
MC-024
 72
1
 11
105437.5097
 21
113231.46395
 31
0.0
100
AcDbText
 73
2
  0
LWPOLYLINE
  5
B2
330
17
100
AcDbEntity
  8
50-EST-MURO-CONTENCION
100
AcDbPolyline
 90
7
 70
1
 10
105434.2081
 20
113234.3191
 10
105434.0392
 20
113239.1674
 10
105434.0019
 20
113240.2196
 10
105437.3998
 20
113240.3399
 10
105437.4371
 20
113239.2877
 10
105437.6061
 20
113234.4346
 10
105434.2081
 20
113234.3191
  0
TEXT
  5
B3
330
17
100
AcDbEntity
  8
45-COD-ESTRUCTURAS
100
AcDbText
 10
105435.804
 20
113237.32949999999
 30
0.0
 40
1.2
  1
MC-025
 72
1
 11
105435.804
 21
113237.32949999999
 31
0.0
100
AcDbText
 73
2
  0
LWPOLYLINE
  5
B4
330
17
100
AcDbEntity
  8
50-EST-MURO-CONTENCION
100
AcDbPolyline
 90
5
 70
1
 10
105434.6078
 20
113234.3327
 10
105434.2081
 20
113234.3191
 10
105434.0019
 20
113240.2196
 10
105434.4017
 20
113240.2335
 10
105434.6078
 20
113234.3327
  0
TEXT
  5
B5
330
17
100
AcDbEntity
  8
45-COD-ESTRUCTURAS
100
AcDbText
 10
105434.30485
 20
113237.2763
 30
0.0
 40
1.2
  1
MC-026
 72
1
 11
105434.30485
 21
113237.2763
 31
0.0
100
AcDbText
 73
2
  0
LWPOLYLINE
  5
B6
330
17
100
AcDbEntity
  8
50-EST-MURO-CONTENCION
100
AcDbPolyline
 90
5
 70
1
 10
105437.2007
 20
113234.4208
 10
105437.606
 20
113234.4363
 10
105437.3998
 20
113240.3399
 10
105437.0
 20
113240.3263
 10
105437.2007
 20
113234.4208
  0
TEXT
  5
B7
330
17
100
AcDbEntity
  8
45-COD-ESTRUCTURAS
100
AcDbText
 10
105437.303
 20
113237.38035
 30
0.0
 40
1.2
  1
MC-027
 72
1
 11
105437.303
 21
113237.38035
 31
0.0
100
AcDbText
 73
2
  0
LWPOLYLINE
  5
B8
330
17
100
AcDbEntity
  8
50-EST-MURO-CONTENCION
100
AcDbPolyline
 90
6
 70
1
 10
105437.1348
 20
113246.2546
 10
105437.3991
 20
113240.3599
 10
105437.3991
 20
113240.3599
 10
105436.9985
 20
113240.3425
 10
105436.7343
 20
113246.2367
 10
105437.1348
 20
113246.2546
  0
TEXT
  5
B9
330
17
100
AcDbEntity
  8
45-COD-ESTRUCTURAS
100
AcDbText
 10
105437.0667
 20
113243.29855
 30
0.0
 40
1.2
  1
MC-029
 72
1
 11
105437.0667
 21
113243.29855
 31
0.0
100
AcDbText
 73
2
  0
LWPOLYLINE
  5
BA
330
17
100
AcDbEntity
  8
50-EST-MURO-CONTENCION
100
AcDbPolyline
 90
5
 70
1
 10
105434.2374
 20
113246.1247
 10
105434.501
 20
113240.2303
 10
105436.9985
 20
113240.3425
 10
105436.7343
 20
113246.2367
 10
105434.2374
 20
113246.1247
  0
TEXT
  5
BB
330
17
100
AcDbEntity
  8
45-COD-ESTRUCTURAS
100
AcDbText
 10
105435.61795
 20
113243.2335
 30
0.0
 40
1.2
  1
MC-028
 72
1
 11
105435.61795
 21
113243.2335
 31
0.0
100
AcDbText
 73
2
  0
LWPOLYLINE
  5
BC
330
17
100
AcDbEntity
  8
50-EST-MURO-CONTENCION
100
AcDbPolyline
 90
6
 70
1
 10
105436.6047
 20
113258.0827
 10
105436.8689
 20
113252.188
 10
105436.8689
 20
113252.188
 10
105436.4683
 20
113252.1706
 10
105436.2042
 20
113258.0648
 10
105436.6047
 20
113258.0827
  0
TEXT
  5
BD
330
17
100
AcDbEntity
  8
45-COD-ESTRUCTURAS
100
AcDbText
 10
105436.53654999999
 20
113255.12664999999
 30
0.0
 40
1.2
  1
MC-033
 72
1
 11
105436.53654999999
 21
113255.12664999999
 31
0.0
100
AcDbText
 73
2
  0
LWPOLYLINE
  5
BE
330
17
100
AcDbEntity
  8
50-EST-MURO-CONTENCION
100
AcDbPolyline
 90
5
 70
1
 10
105433.7073
 20
113257.9529
 10
105433.9709
 20
113252.0584
 10
105436.4683
 20
113252.1706
 10
105436.2042
 20
113258.0648
 10
105433.7073
 20
113257.9529
  0
TEXT
  5
BF
330
17
100
AcDbEntity
  8
45-COD-ESTRUCTURAS
100
AcDbText
 10
105435.0878
 20
113255.06159999999
 30
0.0
 40
1.2
  1
MC-032
 72
1
 11
105435.0878
 21
113255.06159999999
 31
0.0
100
AcDbText
 73
2
  0
LWPOLYLINE
  5
C0
330
17
100
AcDbEntity
  8
50-EST-MURO-CONTENCION
100
AcDbPolyline
 90
6
 70
1
 10
105436.3396
 20
113263.9968
 10
105436.6038
 20
113258.1021
 10
105436.6038
 20
113258.1021
 10
105436.2032
 20
113258.0847
 10
105435.9391
 20
113263.9789
 10
105436.3396
 20
113263.9968
  0
TEXT
  5
C1
330
17
100
AcDbEntity
  8
45-COD-ESTRUCTURAS
100
AcDbText
 10
105436.27145
 20
113261.04075
 30
0.0
 40
1.2
  1
MC-035
 72
1
 11
105436.27145
 21
113261.04075
 31
0.0
100
AcDbText
 73
2
  0
LWPOLYLINE
  5
C2
330
17
100
AcDbEntity
  8
50-EST-MURO-CONTENCION
100
AcDbPolyline
 90
5
 70
1
 10
105433.4423
 20
113263.867
 10
105433.7057
 20
113257.9725
 10
105436.2032
 20
113258.0847
 10
105435.9392
 20
113263.9789
 10
105433.4423
 20
113263.867
  0
TEXT
  5
C3
330
17
100
AcDbEntity
  8
45-COD-ESTRUCTURAS
100
AcDbText
 10
105434.82274999999
 20
113260.97570000001
 30
0.0
 40
1.2
  1
MC-034
 72
1
 11
105434.82274999999
 21
113260.97570000001
 31
0.0
100
AcDbText
 73
2
  0
LWPOLYLINE
  5
C4
330
17
100
AcDbEntity
  8
50-EST-MURO-CONTENCION
100
AcDbPolyline
 90
6
 70
1
 10
105436.0746
 20
113269.9108
 10
105436.3388
 20
113264.0161
 10
105436.3388
 20
113264.0161
 10
105435.9381
 20
113263.9987
 10
105435.674
 20
113269.8929
 10
105436.0746
 20
113269.9108
  0
TEXT
  5
C5
330
17
100
AcDbEntity
  8
45-COD-ESTRUCTURAS
100
AcDbText
 10
105436.0064
 20
113266.95475
 30
0.0
 40
1.2
  1
MC-037
 72
1
 11
105436.0064
 21
113266.95475
 31
0.0
100
AcDbText
 73
2
  0
LWPOLYLINE
  5
C6
330
17
100
AcDbEntity
  8
50-EST-MURO-CONTENCION
100
AcDbPolyline
 90
5
 70
1
 10
105433.1772
 20
113269.781
 10
105433.4407
 20
113263.8866
 10
105435.9381
 20
113263.9987
 10
105435.6741
 20
113269.8929
 10
105433.1772
 20
113269.781
  0
TEXT
  5
C7
330
17
100
AcDbEntity
  8
45-COD-ESTRUCTURAS
100
AcDbText
 10
105434.55765
 20
113266.88975
 30
0.0
 40
1.2
  1
MC-036
 72
1
 11
105434.55765
 21
113266.88975
 31
0.0
100
AcDbText
 73
2
  0
LWPOLYLINE
  5
C8
330
17
100
AcDbEntity
  8
50-EST-MURO-CONTENCION
100
AcDbPolyline
 90
6
 70
1
 10
105436.9412
 20
113186.8023
 10
105433.3421
 20
113186.6902
 10
105433.4645
 20
113182.7598
 10
105437.0633
 20
113182.8561
 10
105437.0633
 20
113182.8561
 10
105436.9412
 20
113186.8023
  0
TEXT
  5
C9
330
17
100
AcDbEntity
  8
45-COD-ESTRUCTURAS
100
AcDbText
 10
105435.2027
 20
113184.78104999999
 30
0.0
 40
1.2
  1
MC-003
 72
1
 11
105435.2027
 21
113184.78104999999
 31
0.0
100
AcDbText
 73
2
  0
LWPOLYLINE
  5
CA
330
17
100
AcDbEntity
  8
50-EST-MURO-CONTENCION
100
AcDbPolyline
 90
6
 70
1
 10
105435.8418
 20
113186.768
 10
105436.1916
 20
113186.779
 10
105436.3129
 20
113182.8359
 10
105435.9631
 20
113182.8267
 10
105435.9631
 20
113182.8451
 10
105435.8418
 20
113186.768
  0
TEXT
  5
CB
330
17
100
AcDbEntity
  8
45-COD-ESTRUCTURAS
100
AcDbText
 10
105436.07735
 20
113184.80285000001
 30
0.0
 40
1.2
  1
MC-004
 72
1
 11
105436.07735
 21
113184.80285000001
 31
0.0
100
AcDbText
 73
2
  0
LWPOLYLINE
  5
CC
330
17
100
AcDbEntity
  8
50-EST-MURO-CONTENCION
100
AcDbPolyline
 90
5
 70
1
 10
105716.2693
 20
113828.4796
 10
105717.3941
 20
113834.4785
 10
105713.8519
 20
113835.1334
 10
105712.73
 20
113829.1433
 10
105716.2693
 20
113828.4796
  0
TEXT
  5
CD
330
17
100
AcDbEntity
  8
45-COD-ESTRUCTURAS
100
AcDbText
 10
105715.06205000001
 20
113831.8065
 30
0.0
 40
1.2
  1
MC-051
 72
1
 11
105715.06205000001
 21
113831.8065
 31
0.0
100
AcDbText
 73
2
  0
LWPOLYLINE
  5
CE
330
17
100
AcDbEntity
  8
50-EST-MURO-CONTENCION
100
AcDbPolyline
 90
5
 70
1
 10
105715.5321
 20
113828.6179
 10
105715.1881
 20
113828.6824
 10
105716.3125
 20
113834.6785
 10
105716.6566
 20
113834.6148
 10
105715.5321
 20
113828.6179
  0
TEXT
  5
CF
330
17
100
AcDbEntity
  8
45-COD-ESTRUCTURAS
100
AcDbText
 10
105715.92235000001
 20
113831.6482
 30
0.0
 40
1.2
  1
MC-052
 72
1
 11
105715.92235000001
 21
113831.6482
 31
0.0
100
AcDbText
 73
2
  0
LWPOLYLINE
  5
D0
330
17
100
AcDbEntity
  8
50-EST-MURO-CONTENCION
100
AcDbPolyline
 90
5
 70
1
 10
105714.7807
 20
113822.4965
 10
105716.2562
 20
113828.4188
 10
105712.7586
 20
113829.2809
 10
105711.2866
 20
113823.367
 10
105714.7807
 20
113822.4965
  0
TEXT
  5
D1
330
17
100
AcDbEntity
  8
45-COD-ESTRUCTURAS
100
AcDbText
 10
105713.7714
 20
113825.8887
 30
0.0
 40
1.2
  1
MC-049
 72
1
 11
105713.7714
 21
113825.8887
 31
0.0
100
AcDbText
 73
2
  0
LWPOLYLINE
  5
D2
330
17
100
AcDbEntity
  8
50-EST-MURO-CONTENCION
100
AcDbPolyline
 90
5
 70
1
 10
105714.0529
 20
113822.6778
 10
105713.7133
 20
113822.7624
 10
105715.1882
 20
113828.682
 10
105715.528
 20
113828.5983
 10
105714.0529
 20
113822.6778
  0
TEXT
  5
D3
330
17
100
AcDbEntity
  8
45-COD-ESTRUCTURAS
100
AcDbText
 10
105714.62065
 20
113825.6799
 30
0.0
 40
1.2
  1
MC-050
 72
1
 11
105714.62065
 21
113825.6799
 31
0.0
100
AcDbText
 73
2
  0
LWPOLYLINE
  5
D4
330
17
100
AcDbEntity
  8
50-EST-MURO-CONTENCION
100
AcDbPolyline
 90
5
 70
1
 10
105712.8976
 20
113816.6195
 10
105714.7636
 20
113822.4306
 10
105711.331
 20
113823.5233
 10
105709.4691
 20
113817.7205
 10
105712.8976
 20
113816.6195
  0
TEXT
  5
D5
330
17
100
AcDbEntity
  8
45-COD-ESTRUCTURAS
100
AcDbText
 10
105712.11635
 20
113820.0714
 30
0.0
 40
1.2
  1
MC-047
 72
1
 11
105712.11635
 21
113820.0714
 31
0.0
100
AcDbText
 73
2
  0
LWPOLYLINE
  5
D6
330
17
100
AcDbEntity
  8
50-EST-MURO-CONTENCION
100
AcDbPolyline
 90
5
 70
1
 10
105712.1835
 20
113816.8488
 10
105711.8502
 20
113816.9558
 10
105713.7154
 20
113822.7643
 10
105714.0489
 20
113822.6581
 10
105712.1835
 20
113816.8488
  0
TEXT
  5
D7
330
17
100
AcDbEntity
  8
45-COD-ESTRUCTURAS
100
AcDbText
 10
105712.94954999999
 20
113819.80655000001
 30
0.0
 40
1.2
  1
MC-048
 72
1
 11
105712.94954999999
 21
113819.80655000001
 31
0.0
100
AcDbText
 73
2
  0
LWPOLYLINE
  5
D8
330
17
100
AcDbEntity
  8
50-EST-MURO-CONTENCION
100
AcDbPolyline
 90
5
 70
1
 10
105710.8373
 20
113810.83
 10
105712.8863
 20
113816.5791
 10
105709.49
 20
113817.7799
 10
105707.4454
 20
113812.0388
 10
105710.8373
 20
113810.83
  0
TEXT
  5
D9
330
17
100
AcDbEntity
  8
45-COD-ESTRUCTURAS
100
AcDbText
 10
105710.16584999999
 20
113814.30494999999
 30
0.0
 40
1.2
  1
MC-045
 72
1
 11
105710.16584999999
 21
113814.30494999999
 31
0.0
100
AcDbText
 73
2
  0
LWPOLYLINE
  5
DA
330
17
100
AcDbEntity
  8
50-EST-MURO-CONTENCION
100
AcDbPolyline
 90
5
 70
1
 10
105710.1308
 20
113811.0817
 10
105709.8011
 20
113811.1992
 10
105711.8492
 20
113816.9458
 10
105712.1792
 20
113816.8291
 10
105710.1308
 20
113811.0817
  0
TEXT
  5
DB
330
17
100
AcDbEntity
  8
45-COD-ESTRUCTURAS
100
AcDbText
 10
105710.99015
 20
113814.01375
 30
0.0
 40
1.2
  1
MC-046
 72
1
 11
105710.99015
 21
113814.01375
 31
0.0
100
AcDbText
 73
2
  0
LWPOLYLINE
  5
DC
330
17
100
AcDbEntity
  8
50-EST-MURO-CONTENCION
100
AcDbPolyline
 90
5
 70
1
 10
105708.6794
 20
113805.0847
 10
105710.8248
 20
113810.7986
 10
105707.4491
 20
113812.0563
 10
105705.3082
 20
113806.3505
 10
105708.6794
 20
113805.0847
  0
TEXT
  5
DD
330
17
100
AcDbEntity
  8
45-COD-ESTRUCTURAS
100
AcDbText
 10
105708.0665
 20
113808.5705
 30
0.0
 40
1.2
  1
MC-043
 72
1
 11
105708.0665
 21
113808.5705
 31
0.0
100
AcDbText
 73
2
  0
LWPOLYLINE
  5
DE
330
17
100
AcDbEntity
  8
50-EST-MURO-CONTENCION
100
AcDbPolyline
 90
5
 70
1
 10
105707.9772
 20
113805.3483
 10
105707.6496
 20
113805.4714
 10
105709.794
 20
113811.1826
 10
105710.1219
 20
113811.0604
 10
105707.9772
 20
113805.3483
  0
TEXT
  5
DF
330
17
100
AcDbEntity
  8
45-COD-ESTRUCTURAS
100
AcDbText
 10
105708.88575
 20
113808.26545
 30
0.0
 40
1.2
  1
MC-044
 72
1
 11
105708.88575
 21
113808.26545
 31
0.0
100
AcDbText
 73
2
  0
LWPOLYLINE
  5
E0
330
17
100
AcDbEntity
  8
50-EST-MURO-CONTENCION
100
AcDbPolyline
 90
5
 70
1
 10
105705.9002
 20
113799.538
 10
105708.6394
 20
113804.9922
 10
105705.4162
 20
113806.6008
 10
105702.6824
 20
113801.1541
 10
105705.9002
 20
113799.538
  0
TEXT
  5
E1
330
17
100
AcDbEntity
  8
45-COD-ESTRUCTURAS
100
AcDbText
 10
105705.6609
 20
113803.06940000001
 30
0.0
 40
1.2
  1
MC-041
 72
1
 11
105705.6609
 21
113803.06940000001
 31
0.0
100
AcDbText
 73
2
  0
LWPOLYLINE
  5
E2
330
17
100
AcDbEntity
  8
50-EST-MURO-CONTENCION
100
AcDbPolyline
 90
5
 70
1
 10
105705.23
 20
113799.8746
 10
105704.9172
 20
113800.0317
 10
105707.6552
 20
113805.4834
 10
105707.9684
 20
113805.3271
 10
105705.23
 20
113799.8746
  0
TEXT
  5
E3
330
17
100
AcDbEntity
  8
45-COD-ESTRUCTURAS
100
AcDbText
 10
105706.44279999999
 20
113802.679
 30
0.0
 40
1.2
  1
MC-042
 72
1
 11
105706.44279999999
 21
113802.679
 31
0.0
100
AcDbText
 73
2
  0
LWPOLYLINE
  5
E4
330
17
100
AcDbEntity
  8
50-EST-MURO-CONTENCION
100
AcDbPolyline
 90
5
 70
1
 10
105707.15
 20
113794.0172
 10
105705.9571
 20
113800.0029
 10
105702.426
 20
113799.2899
 10
105703.6185
 20
113793.3134
 10
105707.15
 20
113794.0172
  0
TEXT
  5
E5
330
17
100
AcDbEntity
  8
45-COD-ESTRUCTURAS
100
AcDbText
 10
105704.788
 20
113796.65815
 30
0.0
 40
1.2
  1
MC-038
 72
1
 11
105704.788
 21
113796.65815
 31
0.0
100
AcDbText
 73
2
  0
LWPOLYLINE
  5
E6
330
17
100
AcDbEntity
  8
50-EST-MURO-CONTENCION
100
AcDbPolyline
 90
5
 70
1
 10
105706.4145
 20
113793.8706
 10
105706.0712
 20
113793.8022
 10
105704.8788
 20
113799.7852
 10
105705.2219
 20
113799.8544
 10
105706.4145
 20
113793.8706
  0
TEXT
  5
E7
330
17
100
AcDbEntity
  8
45-COD-ESTRUCTURAS
100
AcDbText
 10
105705.64665000001
 20
113796.8283
 30
0.0
 40
1.2
  1
MC-039
 72
1
 11
105705.64665000001
 21
113796.8283
 31
0.0
100
AcDbText
 73
2
  0
LWPOLYLINE
  5
E8
330
17
100
AcDbEntity
  8
50-EST-MURO-CONTENCION
100
AcDbPolyline
 90
5
 70
1
 10
105702.6824
 20
113801.1541
 10
105702.426
 20
113799.2899
 10
105705.2505
 20
113799.8602
 10
105705.2306
 20
113799.8743
 10
105702.6824
 20
113801.1541
  0
TEXT
  5
E9
330
17
100
AcDbEntity
  8
45-COD-ESTRUCTURAS
100
AcDbText
 10
105703.83825
 20
113800.22200000001
 30
0.0
 40
1.2
  1
MC-040
 72
1
 11
105703.83825
 21
113800.22200000001
 31
0.0
100
AcDbText
 73
2
  0
LWPOLYLINE
  5
EA
330
17
100
AcDbEntity
  8
50-EST-MURO-CONTENCION
100
AcDbPolyline
 90
5
 70
1
 10
105436.9406
 20
113186.8223
 10
105436.7519
 20
113192.9228
 10
105433.1516
 20
113192.8023
 10
105433.3414
 20
113186.711
 10
105436.9406
 20
113186.8223
  0
TEXT
  5
EB
330
17
100
AcDbEntity
  8
45-COD-ESTRUCTURAS
100
AcDbText
 10
105435.0461
 20
113189.8169
 30
0.0
 40
1.2
  1
MC-005
 72
1
 11
105435.0461
 21
113189.8169
 31
0.0
100
AcDbText
 73
2
  0
LWPOLYLINE
  5
EC
330
17
100
AcDbEntity
  8
50-EST-MURO-CONTENCION
100
AcDbPolyline
 90
5
 70
1
 10
105436.191
 20
113186.7991
 10
105435.8411
 20
113186.7883
 10
105435.6525
 20
113192.886
 10
105436.0023
 20
113192.8977
 10
105436.191
 20
113186.7991
  0
TEXT
  5
ED
330
17
100
AcDbEntity
  8
45-COD-ESTRUCTURAS
100
AcDbText
 10
105435.92175000001
 20
113189.843
 30
0.0
 40
1.2
  1
MC-006
 72
1
 11
105435.92175000001
 21
113189.843
 31
0.0
100
AcDbText
 73
2
  0
LWPOLYLINE
  5
EE
330
17
100
AcDbEntity
  8
50-EST-MURO-CONTENCION
100
AcDbPolyline
 90
25
 70
1
 10
106142.2033
 20
116010.8938
 10
106142.6751
 20
116010.7283
 10
106143.1508
 20
116012.0664
 10
106144.8408
 20
116017.1951
 10
106155.0377
 20
116026.023
 10
106154.9143
 20
116027.6511
 10
106155.2849
 20
116031.4088
 10
106157.0097
 20
116048.3164
 10
106157.2782
 20
116068.9016
 10
106157.1733
 20
116074.7185
 10
106156.7216
 20
116088.9849
 10
106157.0297
 20
116099.0699
 10
106157.1447
 20
116102.8322
 10
106156.6446
 20
116102.8351
 10
106156.53
 20
116099.0851
 10
106156.2213
 20
116088.9846
 10
106156.6734
 20
116074.7061
 10
106156.7781
 20
116068.9004
 10
106156.51
 20
116048.3451
 10
106154.7874
 20
116031.4587
 10
106154.4124
 20
116027.6568
 10
106154.5201
 20
116026.2363
 10
106144.4091
 20
116017.4827
 10
106142.6777
 20
116012.2284
 10
106142.2033
 20
116010.8938
  0
TEXT
  5
EF
330
17
100
AcDbEntity
  8
45-COD-ESTRUCTURAS
100
AcDbText
 10
106149.74075
 20
116056.78169999999
 30
0.0
 40
1.2
  1
MC-056
 72
1
 11
106149.74075
 21
116056.78169999999
 31
0.0
100
AcDbText
 73
2
  0
LWPOLYLINE
  5
F0
330
17
100
AcDbEntity
  8
50-EST-MURO-CONTENCION
100
AcDbPolyline
 90
9
 70
1
 10
106120.626
 20
115954.4038
 10
106132.166
 20
115980.7068
 10
106132.2842
 20
115981.1484
 10
106132.785
 20
115981.8433
 10
106132.3083
 20
115982.037
 10
106131.8249
 20
115981.3663
 10
106131.6928
 20
115980.8728
 10
106120.1626
 20
115954.592
 10
106120.626
 20
115954.4038
  0
TEXT
  5
F1
330
17
100
AcDbEntity
  8
45-COD-ESTRUCTURAS
100
AcDbText
 10
106126.4738
 20
115968.22039999999
 30
0.0
 40
1.2
  1
MC-055
 72
1
 11
106126.4738
 21
115968.22039999999
 31
0.0
100
AcDbText
 73
2
  0
LWPOLYLINE
  5
F2
330
17
100
AcDbEntity
  8
50-EST-MURO-CONTENCION
100
AcDbPolyline
 90
13
 70
1
 10
106154.9343
 20
116282.8483
 10
106155.4397
 20
116282.8453
 10
106155.2627
 20
116284.0946
 10
106155.7592
 20
116293.8448
 10
106157.5752
 20
116298.8442
 10
106157.4307
 20
116307.2928
 10
106157.1427
 20
116312.8163
 10
106156.642
 20
116312.8163
 10
106156.931
 20
116307.2755
 10
106157.0737
 20
116298.9281
 10
106155.2636
 20
116293.9451
 10
106154.7609
 20
116284.072
 10
106154.9343
 20
116282.8483
  0
TEXT
  5
F3
330
17
100
AcDbEntity
  8
45-COD-ESTRUCTURAS
100
AcDbText
 10
106156.16805000001
 20
116297.8308
 30
0.0
 40
1.2
  1
MC-058
 72
1
 11
106156.16805000001
 21
116297.8308
 31
0.0
100
AcDbText
 73
2
  0
LWPOLYLINE
  5
F4
330
17
100
AcDbEntity
  8
50-EST-MURO-CONTENCION
100
AcDbPolyline
 90
33
 70
1
 10
106142.2033
 20
116010.8938
 10
106141.9293
 20
116010.9898
 10
106142.2516
 20
116011.915
 10
106142.5794
 20
116012.8696
 10
106142.9034
 20
116013.8274
 10
106143.2234
 20
116014.7882
 10
106143.5391
 20
116015.7523
 10
106143.8503
 20
116016.7196
 10
106144.157
 20
116017.6902
 10
106144.4547
 20
116018.6512
 10
106144.5738
 20
116019.0405
 10
106153.4124
 20
116026.6926
 10
106153.3384
 20
116027.669
 10
106153.7227
 20
116031.5655
 10
106155.4407
 20
116048.4065
 10
106155.708
 20
116068.8977
 10
106155.6037
 20
116074.6795
 10
106155.1508
 20
116088.984
 10
106155.4605
 20
116099.1178
 10
106155.5751
 20
116102.8678
 10
106156.6446
 20
116102.8351
 10
106156.53
 20
116099.0851
 10
106156.2213
 20
116088.9846
 10
106156.6734
 20
116074.7061
 10
106156.7781
 20
116068.9004
 10
106156.51
 20
116048.3451
 10
106154.7874
 20
116031.4587
 10
106154.4124
 20
116027.6568
 10
106154.5201
 20
116026.2363
 10
106144.4091
 20
116017.4827
 10
106142.6777
 20
116012.2284
 10
106142.2033
 20
116010.8937
 10
106142.2033
 20
116010.8938
  0
TEXT
  5
F5
330
17
100
AcDbEntity
  8
45-COD-ESTRUCTURAS
100
AcDbText
 10
106149.3537
 20
116056.88075000001
 30
0.0
 40
1.2
  1
MC-057
 72
1
 11
106149.3537
 21
116056.88075000001
 31
0.0
100
AcDbText
 73
2
  0
LWPOLYLINE
  5
F6
330
17
100
AcDbEntity
  8
50-EST-MURO-CONTENCION
100
AcDbPolyline
 90
13
 70
1
 10
106154.9343
 20
116282.8483
 10
106154.7609
 20
116284.072
 10
106155.2636
 20
116293.9451
 10
106157.0737
 20
116298.9281
 10
106156.931
 20
116307.2755
 10
106156.642
 20
116312.8163
 10
106154.9388
 20
116312.8324
 10
106155.2317
 20
116307.2167
 10
106155.3686
 20
116299.2132
 10
106153.5788
 20
116294.286
 10
106153.0548
 20
116283.9953
 10
106153.2159
 20
116282.8583
 10
106154.9343
 20
116282.8483
  0
TEXT
  5
F7
330
17
100
AcDbEntity
  8
45-COD-ESTRUCTURAS
100
AcDbText
 10
106155.06425
 20
116297.84035
 30
0.0
 40
1.2
  1
MC-059
 72
1
 11
106155.06425
 21
116297.84035
 31
0.0
100
AcDbText
 73
2
  0
LWPOLYLINE
  5
F8
330
17
100
AcDbEntity
  8
50-EST-MURO-CONTENCION
100
AcDbPolyline
 90
5
 70
1
 10
106160.5188
 20
116393.1097
 10
106160.2048
 20
116392.0387
 10
106163.5983
 20
116391.6563
 10
106160.967
 20
116392.8983
 10
106160.5188
 20
116393.1097
  0
TEXT
  5
F9
330
17
100
AcDbEntity
  8
45-COD-ESTRUCTURAS
100
AcDbText
 10
106161.90155000001
 20
116392.383
 30
0.0
 40
1.2
  1
MC-060
 72
1
 11
106161.90155000001
 21
116392.383
 31
0.0
100
AcDbText
 73
2
  0
LWPOLYLINE
  5
FA
330
17
100
AcDbEntity
  8
50-EST-MURO-CONTENCION
100
AcDbPolyline
 90
4
 70
1
 10
106163.3115
 20
116421.0008
 10
106163.4306
 20
116419.9904
 10
106166.7156
 20
116420.9096
 10
106163.3115
 20
116421.0008
  0
TEXT
  5
FB
330
17
100
AcDbEntity
  8
45-COD-ESTRUCTURAS
100
AcDbText
 10
106165.01355
 20
116420.4956
 30
0.0
 40
1.2
  1
MC-061
 72
1
 11
106165.01355
 21
116420.4956
 31
0.0
100
AcDbText
 73
2
  0
LWPOLYLINE
  5
FC
330
17
100
AcDbEntity
  8
50-EST-MURO-CONTENCION
100
AcDbPolyline
 90
4
 70
1
 10
106102.0963
 20
116726.5621
 10
106102.0577
 20
116724.1454
 10
106104.6945
 20
116725.3261
 10
106102.0963
 20
116726.5621
  0
TEXT
  5
FD
330
17
100
AcDbEntity
  8
45-COD-ESTRUCTURAS
100
AcDbText
 10
106103.3761
 20
116725.35375
 30
0.0
 40
1.2
  1
MC-062
 72
1
 11
106103.3761
 21
116725.35375
 31
0.0
100
AcDbText
 73
2
  0
LWPOLYLINE
  5
FE
330
17
100
AcDbEntity
  8
50-EST-MURO-CONTENCION
100
AcDbPolyline
 90
5
 70
1
 10
105930.2261
 20
117195.384
 10
105931.1885
 20
117189.4992
 10
105931.3859
 20
117189.5315
 10
105930.4241
 20
117195.4123
 10
105930.2261
 20
117195.384
  0
TEXT
  5
FF
330
17
100
AcDbEntity
  8
45-COD-ESTRUCTURAS
100
AcDbText
 10
105930.806
 20
117192.45575
 30
0.0
 40
1.2
  1
MC-067
 72
1
 11
105930.806
 21
117192.45575
 31
0.0
100
AcDbText
 73
2
  0
LWPOLYLINE
  5
100
330
17
100
AcDbEntity
  8
50-EST-MURO-CONTENCION
100
AcDbPolyline
 90
5
 70
1
 10
105930.2855
 20
117195.3927
 10
105931.2478
 20
117189.5089
 10
105931.3267
 20
117189.5218
 10
105930.3647
 20
117195.4036
 10
105930.2855
 20
117195.3927
  0
TEXT
  5
101
330
17
100
AcDbEntity
  8
45-COD-ESTRUCTURAS
100
AcDbText
 10
105930.8061
 20
117192.45625
 30
0.0
 40
1.2
  1
MC-068
 72
1
 11
105930.8061
 21
117192.45625
 31
0.0
100
AcDbText
 73
2
  0
LWPOLYLINE
  5
102
330
17
100
AcDbEntity
  8
50-EST-MURO-CONTENCION
100
AcDbPolyline
 90
4
 70
1
 10
105892.123
 20
117649.0561
 10
105894.5884
 20
117650.6113
 10
105891.7662
 20
117649.8946
 10
105892.123
 20
117649.0561
  0
TEXT
  5
103
330
17
100
AcDbEntity
  8
45-COD-ESTRUCTURAS
100
AcDbText
 10
105893.1773
 20
117649.8337
 30
0.0
 40
1.2
  1
MC-071
 72
1
 11
105893.1773
 21
117649.8337
 31
0.0
100
AcDbText
 73
2
  0
LWPOLYLINE
  5
104
330
17
100
AcDbEntity
  8
50-EST-MURO-CONTENCION
100
AcDbPolyline
 90
9
 70
1
 10
105859.4498
 20
117773.3953
 10
105860.0249
 20
117771.9387
 10
105858.1369
 20
117771.136
 10
105859.0435
 20
117768.8246
 10
105859.3689
 20
117768.9535
 10
105858.587
 20
117770.947
 10
105860.4757
 20
117771.75
 10
105859.7756
 20
117773.5231
 10
105859.4498
 20
117773.3953
  0
TEXT
  5
105
330
17
100
AcDbEntity
  8
45-COD-ESTRUCTURAS
100
AcDbText
 10
105859.3063
 20
117771.17385
 30
0.0
 40
1.2
  1
MC-075
 72
1
 11
105859.3063
 21
117771.17385
 31
0.0
100
AcDbText
 73
2
  0
LWPOLYLINE
  5
106
330
17
100
AcDbEntity
  8
50-EST-MURO-CONTENCION
100
AcDbPolyline
 90
7
 70
1
 10
105855.2166
 20
117771.7349
 10
105856.719
 20
117767.9044
 10
105860.0663
 20
117769.2295
 10
105859.5515
 20
117770.5421
 10
105861.4416
 20
117771.3458
 10
105860.4738
 20
117773.7969
 10
105855.2166
 20
117771.7349
  0
TEXT
  5
107
330
17
100
AcDbEntity
  8
45-COD-ESTRUCTURAS
100
AcDbText
 10
105858.3291
 20
117770.85065000001
 30
0.0
 40
1.2
  1
MC-074
 72
1
 11
105858.3291
 21
117770.85065000001
 31
0.0
100
AcDbText
 73
2
  0
LWPOLYLINE
  5
108
330
17
100
AcDbEntity
  8
50-EST-MURO-CONTENCION
100
AcDbPolyline
 90
9
 70
1
 10
105860.4665
 20
117773.8155
 10
105859.0407
 20
117777.4264
 10
105858.6245
 20
117778.4805
 10
105858.2256
 20
117779.4908
 10
105854.8771
 20
117778.1687
 10
105855.2761
 20
117777.1584
 10
105855.6923
 20
117776.1043
 10
105857.115
 20
117772.501
 10
105860.4665
 20
117773.8155
  0
TEXT
  5
109
330
17
100
AcDbEntity
  8
45-COD-ESTRUCTURAS
100
AcDbText
 10
105857.6718
 20
117775.99590000001
 30
0.0
 40
1.2
  1
MC-076
 72
1
 11
105857.6718
 21
117775.99590000001
 31
0.0
100
AcDbText
 73
2
  0
LWPOLYLINE
  5
10A
330
17
100
AcDbEntity
  8
50-EST-MURO-CONTENCION
100
AcDbPolyline
 90
10
 70
1
 10
105854.8698
 20
117778.1873
 10
105858.2182
 20
117779.5094
 10
105857.7123
 20
117780.7907
 10
105856.8163
 20
117783.0601
 10
105854.8878
 20
117782.3446
 10
105854.7831
 20
117782.5894
 10
105851.473
 20
117781.1741
 10
105852.9256
 20
117777.7768
 10
105854.7628
 20
117778.4584
 10
105854.8698
 20
117778.1873
  0
TEXT
  5
10B
330
17
100
AcDbEntity
  8
45-COD-ESTRUCTURAS
100
AcDbText
 10
105854.8456
 20
117780.41845
 30
0.0
 40
1.2
  1
MC-078
 72
1
 11
105854.8456
 21
117780.41845
 31
0.0
100
AcDbText
 73
2
  0
LWPOLYLINE
  5
10C
330
17
100
AcDbEntity
  8
50-EST-MURO-CONTENCION
100
AcDbPolyline
 90
9
 70
1
 10
105857.2024
 20
117779.0869
 10
105857.528
 20
117779.2154
 10
105857.9269
 20
117778.2051
 10
105858.3431
 20
117777.1509
 10
105859.7682
 20
117773.5417
 10
105859.4424
 20
117773.4139
 10
105858.0176
 20
117777.0224
 10
105857.6014
 20
117778.0766
 10
105857.2024
 20
117779.0869
  0
TEXT
  5
10D
330
17
100
AcDbEntity
  8
45-COD-ESTRUCTURAS
100
AcDbText
 10
105858.4853
 20
117776.31465
 30
0.0
 40
1.2
  1
MC-077
 72
1
 11
105858.4853
 21
117776.31465
 31
0.0
100
AcDbText
 73
2
  0
LWPOLYLINE
  5
10E
330
17
100
AcDbEntity
  8
50-EST-MURO-CONTENCION
100
AcDbPolyline
 90
11
 70
1
 10
105853.7717
 20
117782.157
 10
105854.0935
 20
117782.2946
 10
105854.479
 20
117781.393
 10
105856.3884
 20
117782.1014
 10
105857.0147
 20
117780.5152
 10
105857.5206
 20
117779.234
 10
105857.1951
 20
117779.1055
 10
105856.6892
 20
117780.3867
 10
105856.1888
 20
117781.6541
 10
105854.2882
 20
117780.9489
 10
105853.7717
 20
117782.157
  0
TEXT
  5
10F
330
17
100
AcDbEntity
  8
45-COD-ESTRUCTURAS
100
AcDbText
 10
105855.64615
 20
117780.70005
 30
0.0
 40
1.2
  1
MC-079
 72
1
 11
105855.64615
 21
117780.70005
 31
0.0
100
AcDbText
 73
2
  0
LWPOLYLINE
  5
110
330
17
100
AcDbEntity
  8
50-EST-MURO-CONTENCION
100
AcDbPolyline
 90
6
 70
1
 10
105436.8698
 20
113252.1687
 10
105437.1339
 20
113246.274
 10
105437.1339
 20
113246.274
 10
105436.7333
 20
113246.2566
 10
105436.4693
 20
113252.1507
 10
105436.8698
 20
113252.1687
  0
TEXT
  5
111
330
17
100
AcDbEntity
  8
45-COD-ESTRUCTURAS
100
AcDbText
 10
105436.8016
 20
113249.21265
 30
0.0
 40
1.2
  1
MC-031
 72
1
 11
105436.8016
 21
113249.21265
 31
0.0
100
AcDbText
 73
2
  0
LWPOLYLINE
  5
112
330
17
100
AcDbEntity
  8
50-EST-MURO-CONTENCION
100
AcDbPolyline
 90
5
 70
1
 10
105433.9724
 20
113252.0389
 10
105434.2359
 20
113246.1444
 10
105436.7333
 20
113246.2566
 10
105436.4693
 20
113252.1507
 10
105433.9724
 20
113252.0389
  0
TEXT
  5
113
330
17
100
AcDbEntity
  8
45-COD-ESTRUCTURAS
100
AcDbText
 10
105435.35285
 20
113249.14755
 30
0.0
 40
1.2
  1
MC-030
 72
1
 11
105435.35285
 21
113249.14755
 31
0.0
100
AcDbText
 73
2
  0
LWPOLYLINE
  5
114
330
17
100
AcDbEntity
  8
50-EST-MURO-CONTENCION
100
AcDbPolyline
 90
27
 70
1
 10
105742.7782
 20
118036.8743
 10
105738.3709
 20
118034.8393
 10
105736.4052
 20
118033.8315
 10
105734.3307
 20
118033.0245
 10
105732.9855
 20
118032.4466
 10
105724.7168
 20
118049.2891
 10
105721.1344
 20
118056.5422
 10
105720.6459
 20
118057.5313
 10
105715.1346
 20
118069.5027
 10
105709.4648
 20
118083.6748
 10
105709.1095
 20
118084.739
 10
105707.2098
 20
118090.4292
 10
105706.1235
 20
118094.0052
 10
105706.602
 20
118094.1505
 10
105707.6862
 20
118090.5811
 10
105709.5837
 20
118084.8974
 10
105709.9344
 20
118083.847
 10
105715.5941
 20
118069.7002
 10
105721.0972
 20
118057.7466
 10
105721.5827
 20
118056.7636
 10
105725.1654
 20
118049.51
 10
105733.2249
 20
118033.0936
 10
105734.1413
 20
118033.4873
 10
105736.1999
 20
118034.2881
 10
105738.152
 20
118035.289
 10
105742.5668
 20
118037.3211
 10
105742.7782
 20
118036.8743
  0
TEXT
  5
115
330
17
100
AcDbEntity
  8
45-COD-ESTRUCTURAS
100
AcDbText
 10
105724.45085
 20
118063.29855
 30
0.0
 40
1.2
  1
MC-080
 72
1
 11
105724.45085
 21
118063.29855
 31
0.0
100
AcDbText
 73
2
  0
LWPOLYLINE
  5
116
330
17
100
AcDbEntity
  8
50-EST-MURO-CONTENCION
100
AcDbPolyline
 90
5
 70
1
 10
105947.7536
 20
114698.938
 10
105949.3342
 20
114704.8331
 10
105945.8525
 20
114705.7572
 10
105944.2756
 20
114699.8705
 10
105947.7536
 20
114698.938
  0
TEXT
  5
117
330
17
100
AcDbEntity
  8
45-COD-ESTRUCTURAS
100
AcDbText
 10
105946.80489999999
 20
114702.3476
 30
0.0
 40
1.2
  1
MC-053
 72
1
 11
105946.80489999999
 21
114702.3476
 31
0.0
100
AcDbText
 73
2
  0
LWPOLYLINE
  5
118
330
17
100
AcDbEntity
  8
50-EST-MURO-CONTENCION
100
AcDbPolyline
 90
5
 70
1
 10
105947.0292
 20
114699.1322
 10
105946.6912
 20
114699.2228
 10
105948.2711
 20
114705.1153
 10
105948.6093
 20
114705.0255
 10
105947.0292
 20
114699.1322
  0
TEXT
  5
119
330
17
100
AcDbEntity
  8
45-COD-ESTRUCTURAS
100
AcDbText
 10
105947.65025
 20
114702.12375
 30
0.0
 40
1.2
  1
MC-054
 72
1
 11
105947.65025
 21
114702.12375
 31
0.0
100
AcDbText
 73
2
  0
LWPOLYLINE
  5
11A
330
17
100
AcDbEntity
  8
50-EST-MURO-CONTENCION
100
AcDbPolyline
 90
5
 70
1
 10
106034.4682
 20
116916.3035
 10
106032.2829
 20
116922.0023
 10
106028.9227
 20
116920.704
 10
106031.106
 20
116915.0143
 10
106034.4682
 20
116916.3035
  0
TEXT
  5
11B
330
17
100
AcDbEntity
  8
45-COD-ESTRUCTURAS
100
AcDbText
 10
106031.69545
 20
116918.50829999999
 30
0.0
 40
1.2
  1
MC-063
 72
1
 11
106031.69545
 21
116918.50829999999
 31
0.0
100
AcDbText
 73
2
  0
LWPOLYLINE
  5
11C
330
17
100
AcDbEntity
  8
50-EST-MURO-CONTENCION
100
AcDbPolyline
 90
5
 70
1
 10
106033.7679
 20
116916.035
 10
106033.4411
 20
116915.9097
 10
106031.2568
 20
116921.6059
 10
106031.5833
 20
116921.732
 10
106033.7679
 20
116916.035
  0
TEXT
  5
11D
330
17
100
AcDbEntity
  8
45-COD-ESTRUCTURAS
100
AcDbText
 10
106032.51235
 20
116918.82085
 30
0.0
 40
1.2
  1
MC-064
 72
1
 11
106032.51235
 21
116918.82085
 31
0.0
100
AcDbText
 73
2
  0
LWPOLYLINE
  5
11E
330
17
100
AcDbEntity
  8
50-EST-MURO-CONTENCION
100
AcDbPolyline
 90
5
 70
1
 10
105935.2746
 20
117166.9256
 10
105933.6099
 20
117172.7976
 10
105930.1502
 20
117171.8073
 10
105931.8137
 20
117165.9445
 10
105935.2746
 20
117166.9256
  0
TEXT
  5
11F
330
17
100
AcDbEntity
  8
45-COD-ESTRUCTURAS
100
AcDbText
 10
105932.7124
 20
117169.37105
 30
0.0
 40
1.2
  1
MC-065
 72
1
 11
105932.7124
 21
117169.37105
 31
0.0
100
AcDbText
 73
2
  0
LWPOLYLINE
  5
120
330
17
100
AcDbEntity
  8
50-EST-MURO-CONTENCION
100
AcDbPolyline
 90
5
 70
1
 10
105934.5577
 20
117166.7224
 10
105934.221
 20
117166.6269
 10
105932.5571
 20
117172.4962
 10
105932.8936
 20
117172.5925
 10
105934.5577
 20
117166.7224
  0
TEXT
  5
121
330
17
100
AcDbEntity
  8
45-COD-ESTRUCTURAS
100
AcDbText
 10
105933.5574
 20
117169.6097
 30
0.0
 40
1.2
  1
MC-066
 72
1
 11
105933.5574
 21
117169.6097
 31
0.0
100
AcDbText
 73
2
  0
LWPOLYLINE
  5
122
330
17
100
AcDbEntity
  8
50-EST-MURO-CONTENCION
100
AcDbPolyline
 90
5
 70
1
 10
105898.4144
 20
117645.8088
 10
105895.1709
 20
117650.979
 10
105892.123
 20
117649.0561
 10
105895.3629
 20
117643.8944
 10
105898.4144
 20
117645.8088
  0
TEXT
  5
123
330
17
100
AcDbEntity
  8
45-COD-ESTRUCTURAS
100
AcDbText
 10
105895.2687
 20
117647.4367
 30
0.0
 40
1.2
  1
MC-069
 72
1
 11
105895.2687
 21
117647.4367
 31
0.0
100
AcDbText
 73
2
  0
LWPOLYLINE
  5
124
330
17
100
AcDbEntity
  8
50-EST-MURO-CONTENCION
100
AcDbPolyline
 90
5
 70
1
 10
105897.7813
 20
117645.4116
 10
105897.4848
 20
117645.2256
 10
105894.2427
 20
117650.3934
 10
105894.5387
 20
117650.5801
 10
105897.7813
 20
117645.4116
  0
TEXT
  5
125
330
17
100
AcDbEntity
  8
45-COD-ESTRUCTURAS
100
AcDbText
 10
105896.012
 20
117647.90285000001
 30
0.0
 40
1.2
  1
MC-070
 72
1
 11
105896.012
 21
117647.90285000001
 31
0.0
100
AcDbText
 73
2
  0
LWPOLYLINE
  5
126
330
17
100
AcDbEntity
  8
50-EST-MURO-CONTENCION
100
AcDbPolyline
 90
5
 70
1
 10
105866.7913
 20
117752.1097
 10
105864.5591
 20
117757.7903
 10
105861.2099
 20
117756.4644
 10
105863.4401
 20
117750.7928
 10
105866.7913
 20
117752.1097
  0
TEXT
  5
127
330
17
100
AcDbEntity
  8
45-COD-ESTRUCTURAS
100
AcDbText
 10
105864.0006
 20
117754.29155
 30
0.0
 40
1.2
  1
MC-072
 72
1
 11
105864.0006
 21
117754.29155
 31
0.0
100
AcDbText
 73
2
  0
LWPOLYLINE
  5
128
330
17
100
AcDbEntity
  8
50-EST-MURO-CONTENCION
100
AcDbPolyline
 90
5
 70
1
 10
105866.0932
 20
117751.8354
 10
105865.7674
 20
117751.7074
 10
105863.5362
 20
117757.3853
 10
105863.8616
 20
117757.5141
 10
105866.0932
 20
117751.8354
  0
TEXT
  5
129
330
17
100
AcDbEntity
  8
45-COD-ESTRUCTURAS
100
AcDbText
 10
105864.8147
 20
117754.61074999999
 30
0.0
 40
1.2
  1
MC-073
 72
1
 11
105864.8147
 21
117754.61074999999
 31
0.0
100
AcDbText
 73
2
  0
LWPOLYLINE
  5
12A
330
17
100
AcDbEntity
  8
50-EST-MURO-CONTENCION
100
AcDbPolyline
 90
6
 70
1
 10
105704.8869
 20
118099.7964
 10
105706.602
 20
118094.1505
 10
105706.602
 20
118094.1505
 10
105706.2181
 20
118094.0345
 10
105704.5033
 20
118099.6799
 10
105704.8869
 20
118099.7964
  0
TEXT
  5
12B
330
17
100
AcDbEntity
  8
45-COD-ESTRUCTURAS
100
AcDbText
 10
105705.55265
 20
118096.91545
 30
0.0
 40
1.2
  1
MC-082
 72
1
 11
105705.55265
 21
118096.91545
 31
0.0
100
AcDbText
 73
2
  0
LWPOLYLINE
  5
12C
330
17
100
AcDbEntity
  8
50-EST-MURO-CONTENCION
100
AcDbPolyline
 90
5
 70
1
 10
105702.1119
 20
118098.9535
 10
105703.8261
 20
118093.3076
 10
105706.2181
 20
118094.0345
 10
105704.5034
 20
118099.6799
 10
105702.1119
 20
118098.9535
  0
TEXT
  5
12D
330
17
100
AcDbEntity
  8
45-COD-ESTRUCTURAS
100
AcDbText
 10
105704.16500000001
 20
118096.49375
 30
0.0
 40
1.2
  1
MC-081
 72
1
 11
105704.16500000001
 21
118096.49375
 31
0.0
100
AcDbText
 73
2
  0
LWPOLYLINE
  5
12E
330
17
100
AcDbEntity
  8
50-EST-MURO-EJE
100
AcDbPolyline
 90
5
 70
0
 10
105753.2825
 20
117998.6231
 10
105748.7121
 20
117996.321
 10
105749.946
 20
117994.0042
 10
105754.4512
 20
117996.3294
 10
105753.2708
 20
117998.6171
  0
LWPOLYLINE
  5
12F
330
17
100
AcDbEntity
  8
50-EST-MURO-EJE
100
AcDbPolyline
 90
3
 70
0
 10
105748.58
 20
117996.571
 10
105756.0365
 20
118000.5816
 10
105753.6167
 20
118005.5165
  0
LWPOLYLINE
  5
130
330
17
100
AcDbEntity
  8
50-EST-MURO-EJE
100
AcDbPolyline
 90
3
 70
0
 10
105736.6808
 20
118032.3522
 10
105739.2471
 20
118033.6963
 10
105753.5875
 20
118005.574
  0
LWPOLYLINE
  5
131
330
17
100
AcDbEntity
  8
50-EST-MURO-EJE
100
AcDbPolyline
 90
3
 70
0
 10
105439.0499
 20
113193.0215
 10
105438.6501
 20
113193.008
 10
105436.0516
 20
113192.9193
  0
LWPOLYLINE
  5
132
330
17
100
AcDbEntity
  8
50-EST-MURO-EJE
100
AcDbPolyline
 90
3
 70
0
 10
105438.8461
 20
113198.938
 10
105438.4463
 20
113198.9243
 10
105435.8479
 20
113198.8344
  0
LWPOLYLINE
  5
133
330
17
100
AcDbEntity
  8
50-EST-MURO-EJE
100
AcDbPolyline
 90
3
 70
0
 10
105438.4327
 20
113210.7708
 10
105438.033
 20
113210.7571
 10
105435.4345
 20
113210.6671
  0
LWPOLYLINE
  5
134
330
17
100
AcDbEntity
  8
50-EST-MURO-EJE
100
AcDbPolyline
 90
3
 70
0
 10
105438.2261
 20
113216.6872
 10
105437.8263
 20
113216.6735
 10
105435.2278
 20
113216.5835
  0
LWPOLYLINE
  5
135
330
17
100
AcDbEntity
  8
50-EST-MURO-EJE
100
AcDbPolyline
 90
3
 70
0
 10
105438.0194
 20
113222.6036
 10
105437.6196
 20
113222.5899
 10
105435.0212
 20
113222.4999
  0
LWPOLYLINE
  5
136
330
17
100
AcDbEntity
  8
50-EST-MURO-EJE
100
AcDbPolyline
 90
3
 70
0
 10
105437.8127
 20
113228.5199
 10
105437.4129
 20
113228.5062
 10
105434.8145
 20
113228.4163
  0
LWPOLYLINE
  5
137
330
17
100
AcDbEntity
  8
50-EST-MURO-EJE
100
AcDbPolyline
 90
3
 70
0
 10
105437.606
 20
113234.4363
 10
105437.2063
 20
113234.4226
 10
105434.6078
 20
113234.3327
  0
LWPOLYLINE
  5
138
330
17
100
AcDbEntity
  8
50-EST-MURO-EJE
100
AcDbPolyline
 90
2
 70
0
 10
105437.0633
 20
113182.8561
 10
105436.9412
 20
113186.8023
  0
LWPOLYLINE
  5
139
330
17
100
AcDbEntity
  8
50-EST-MURO-EJE
100
AcDbPolyline
 90
5
 70
0
 10
105433.4147
 20
113318.7393
 10
105436.3105
 20
113318.8956
 10
105436.6284
 20
113313.0042
 10
105433.7326
 20
113312.8479
 10
105433.4147
 20
113318.7393
  0
LWPOLYLINE
  5
13A
330
17
100
AcDbEntity
  8
50-EST-MURO-EJE
100
AcDbPolyline
 90
2
 70
0
 10
105436.229
 20
113312.9826
 10
105435.9111
 20
113318.874
  0
LWPOLYLINE
  5
13B
330
17
100
AcDbEntity
  8
50-EST-MURO-EJE
100
AcDbPolyline
 90
5
 70
0
 10
105433.0154
 20
113324.6049
 10
105435.9087
 20
113324.8019
 10
105436.3095
 20
113318.9156
 10
105433.4162
 20
113318.7186
 10
105433.0154
 20
113324.6049
  0
LWPOLYLINE
  5
13C
330
17
100
AcDbEntity
  8
50-EST-MURO-EJE
100
AcDbPolyline
 90
2
 70
0
 10
105435.9104
 20
113318.8884
 10
105435.5096
 20
113324.7748
  0
LWPOLYLINE
  5
13D
330
17
100
AcDbEntity
  8
50-EST-MURO-EJE
100
AcDbPolyline
 90
5
 70
0
 10
105432.5986
 20
113330.5026
 10
105435.4914
 20
113330.7072
 10
105435.9076
 20
113324.8219
 10
105433.0149
 20
113324.6173
 10
105432.5986
 20
113330.5026
  0
LWPOLYLINE
  5
13E
330
17
100
AcDbEntity
  8
50-EST-MURO-EJE
100
AcDbPolyline
 90
2
 70
0
 10
105435.5086
 20
113324.7937
 10
105435.0924
 20
113330.679
  0
LWPOLYLINE
  5
13F
330
17
100
AcDbEntity
  8
50-EST-MURO-EJE
100
AcDbPolyline
 90
5
 70
0
 10
105432.0556
 20
113336.3334
 10
105434.9432
 20
113336.6017
 10
105435.4891
 20
113330.727
 10
105432.6015
 20
113330.4587
 10
105432.0556
 20
113336.3334
  0
LWPOLYLINE
  5
140
330
17
100
AcDbEntity
  8
50-EST-MURO-EJE
100
AcDbPolyline
 90
2
 70
0
 10
105435.0908
 20
113330.69
 10
105434.5449
 20
113336.5647
  0
LWPOLYLINE
  5
141
330
17
100
AcDbEntity
  8
50-EST-MURO-EJE
100
AcDbPolyline
 90
5
 70
0
 10
105431.8785
 20
113342.439
 10
105434.7774
 20
113342.5193
 10
105434.9408
 20
113336.6216
 10
105432.0419
 20
113336.5412
 10
105431.8785
 20
113342.439
  0
LWPOLYLINE
  5
142
330
17
100
AcDbEntity
  8
50-EST-MURO-EJE
100
AcDbPolyline
 90
2
 70
0
 10
105434.541
 20
113336.6105
 10
105434.3775
 20
113342.5082
  0
LWPOLYLINE
  5
143
330
17
100
AcDbEntity
  8
50-EST-MURO-EJE
100
AcDbPolyline
 90
5
 70
0
 10
105431.7807
 20
113348.3908
 10
105434.6803
 20
113348.4384
 10
105434.777
 20
113342.5392
 10
105431.8774
 20
113342.4916
 10
105431.7807
 20
113348.3908
  0
LWPOLYLINE
  5
144
330
17
100
AcDbEntity
  8
50-EST-MURO-EJE
100
AcDbPolyline
 90
2
 70
0
 10
105434.3771
 20
113342.5326
 10
105434.2803
 20
113348.4318
  0
LWPOLYLINE
  5
145
330
17
100
AcDbEntity
  8
50-EST-MURO-EJE
100
AcDbPolyline
 90
5
 70
0
 10
105431.7883
 20
113354.3623
 10
105434.6883
 20
113354.3583
 10
105434.68
 20
113348.4583
 10
105431.78
 20
113348.4624
 10
105431.7883
 20
113354.3623
  0
LWPOLYLINE
  5
146
330
17
100
AcDbEntity
  8
50-EST-MURO-EJE
100
AcDbPolyline
 90
2
 70
0
 10
105434.28
 20
113348.4588
 10
105434.2883
 20
113354.3588
  0
LWPOLYLINE
  5
147
330
17
100
AcDbEntity
  8
50-EST-MURO-EJE
100
AcDbPolyline
 90
5
 70
0
 10
105431.9395
 20
113360.3501
 10
105434.8385
 20
113360.2762
 10
105434.6883
 20
113354.3781
 10
105431.7892
 20
113354.452
 10
105431.9395
 20
113360.3501
  0
LWPOLYLINE
  5
148
330
17
100
AcDbEntity
  8
50-EST-MURO-EJE
100
AcDbPolyline
 90
2
 70
0
 10
105434.2884
 20
113354.3883
 10
105434.4386
 20
113360.2864
  0
LWPOLYLINE
  5
149
330
17
100
AcDbEntity
  8
50-EST-MURO-EJE
100
AcDbPolyline
 90
5
 70
0
 10
105432.2727
 20
113366.3458
 10
105435.1682
 20
113366.1838
 10
105434.8385
 20
113360.293
 10
105431.9431
 20
113360.455
 10
105432.2727
 20
113366.3458
  0
LWPOLYLINE
  5
14A
330
17
100
AcDbEntity
  8
50-EST-MURO-EJE
100
AcDbPolyline
 90
2
 70
0
 10
105434.4391
 20
113360.3153
 10
105434.7688
 20
113366.2061
  0
LWPOLYLINE
  5
14B
330
17
100
AcDbEntity
  8
50-EST-MURO-EJE
100
AcDbPolyline
 90
5
 70
0
 10
105432.8359
 20
113372.3464
 10
105435.7231
 20
113372.0745
 10
105435.1697
 20
113366.2005
 10
105432.2825
 20
113366.4725
 10
105432.8359
 20
113372.3464
  0
LWPOLYLINE
  5
14C
330
17
100
AcDbEntity
  8
50-EST-MURO-EJE
100
AcDbPolyline
 90
2
 70
0
 10
105434.7715
 20
113366.238
 10
105435.3248
 20
113372.112
  0
LWPOLYLINE
  5
14D
330
17
100
AcDbEntity
  8
50-EST-MURO-EJE
100
AcDbPolyline
 90
5
 70
0
 10
105433.6702
 20
113378.3355
 10
105436.5423
 20
113377.9342
 10
105435.7258
 20
113372.091
 10
105432.8537
 20
113372.4923
 10
105433.6702
 20
113378.3355
  0
LWPOLYLINE
  5
14E
330
17
100
AcDbEntity
  8
50-EST-MURO-EJE
100
AcDbPolyline
 90
2
 70
0
 10
105435.3297
 20
113372.1464
 10
105436.1461
 20
113377.9896
  0
LWPOLYLINE
  5
14F
330
17
100
AcDbEntity
  8
50-EST-MURO-EJE
100
AcDbPolyline
 90
5
 70
0
 10
105434.7506
 20
113384.2753
 10
105437.6036
 20
113383.755
 10
105436.5449
 20
113377.9507
 10
105433.692
 20
113378.4711
 10
105434.7506
 20
113384.2753
  0
LWPOLYLINE
  5
150
330
17
100
AcDbEntity
  8
50-EST-MURO-EJE
100
AcDbPolyline
 90
2
 70
0
 10
105436.1514
 20
113378.0225
 10
105437.2101
 20
113383.8268
  0
LWPOLYLINE
  5
151
330
17
100
AcDbEntity
  8
50-EST-MURO-EJE
100
AcDbPolyline
 90
7
 70
0
 10
106119.5282
 20
115954.8496
 10
106130.8149
 20
115982.6437
 10
106132.785
 20
115981.8433
 10
106132.2842
 20
115981.1484
 10
106132.166
 20
115980.7068
 10
106120.626
 20
115954.4038
 10
106119.5285
 20
115954.8494
  0
LWPOLYLINE
  5
152
330
17
100
AcDbEntity
  8
50-EST-MURO-EJE
100
AcDbPolyline
 90
4
 70
0
 10
106107.9699
 20
116730.5268
 10
106108.023
 20
116731.0661
 10
106107.2709
 20
116730.8572
 10
106107.9699
 20
116730.5268
  0
LWPOLYLINE
  5
153
330
17
100
AcDbEntity
  8
50-EST-MURO-EJE
100
AcDbPolyline
 90
2
 70
0
 10
105854.0857
 20
117782.3129
 10
105851.6875
 20
117787.9218
  0
LWPOLYLINE
  5
154
330
17
100
AcDbEntity
  8
50-EST-MURO-EJE
100
AcDbPolyline
 90
2
 70
0
 10
105851.4651
 20
117781.1925
 10
105854.7753
 20
117782.6078
  0
LWPOLYLINE
  5
155
330
17
100
AcDbEntity
  8
50-EST-MURO-EJE
100
AcDbPolyline
 90
2
 70
0
 10
105853.7638
 20
117782.1753
 10
105850.5969
 20
117789.582
  0
LWPOLYLINE
  5
156
330
17
100
AcDbEntity
  8
50-EST-MURO-EJE
100
AcDbPolyline
 90
27
 70
0
 10
105743.0349
 20
118036.332
 10
105742.7782
 20
118036.8743
 10
105738.3709
 20
118034.8393
 10
105736.4052
 20
118033.8315
 10
105734.3307
 20
118033.0245
 10
105732.9855
 20
118032.4466
 10
105724.7168
 20
118049.2891
 10
105721.1344
 20
118056.5422
 10
105720.6459
 20
118057.5313
 10
105715.1346
 20
118069.5027
 10
105709.4648
 20
118083.6748
 10
105709.1095
 20
118084.739
 10
105707.2098
 20
118090.4292
 10
105706.1234
 20
118094.0057
 10
105705.5493
 20
118093.8313
 10
105706.6381
 20
118090.247
 10
105708.5403
 20
118084.549
 10
105708.9012
 20
118083.4682
 10
105714.5832
 20
118069.2656
 10
105720.1043
 20
118057.2729
 10
105720.5965
 20
118056.2765
 10
105724.1785
 20
118049.0241
 10
105732.6983
 20
118031.6701
 10
105734.558
 20
118032.4691
 10
105736.6515
 20
118033.2835
 10
105738.6336
 20
118034.2998
 10
105743.0349
 20
118036.332
  0
INSERT
  5
157
330
17
100
AcDbEntity
  8
50-EST-PILOTE
100
AcDbBlockReference
  2
PILOTE
 10
105436.5761
 20
113193.6525
 30
0.0
 50
92.0
  0
INSERT
  5
159
330
17
100
AcDbEntity
  8
50-EST-PILOTE
100
AcDbBlockReference
  2
PILOTE
 10
105438.0752
 20
113193.704
 30
0.0
 50
92.0
  0
INSERT
  5
15B
330
17
100
AcDbEntity
  8
50-EST-PILOTE
100
AcDbBlockReference
  2
PILOTE
 10
105436.5246
 20
113195.1517
 30
0.0
 50
92.0
  0
INSERT
  5
15D
330
17
100
AcDbEntity
  8
50-EST-PILOTE
100
AcDbBlockReference
  2
PILOTE
 10
105436.4731
 20
113196.6508
 30
0.0
 50
92.0
  0
INSERT
  5
15F
330
17
100
AcDbEntity
  8
50-EST-PILOTE
100
AcDbBlockReference
  2
PILOTE
 10
105436.4217
 20
113198.1499
 30
0.0
 50
92.0
  0
INSERT
  5
161
330
17
100
AcDbEntity
  8
50-EST-PILOTE
100
AcDbBlockReference
  2
PILOTE
 10
105438.0237
 20
113195.2031
 30
0.0
 50
272.0
  0
INSERT
  5
163
330
17
100
AcDbEntity
  8
50-EST-PILOTE
100
AcDbBlockReference
  2
PILOTE
 10
105437.9723
 20
113196.7022
 30
0.0
 50
272.0
  0
INSERT
  5
165
330
17
100
AcDbEntity
  8
50-EST-PILOTE
100
AcDbBlockReference
  2
PILOTE
 10
105437.9208
 20
113198.2013
 30
0.0
 50
272.0
  0
INSERT
  5
167
330
17
100
AcDbEntity
  8
50-EST-PILOTE
100
AcDbBlockReference
  2
PILOTE
 10
105436.3719
 20
113199.5678
 30
0.0
 50
92.0
  0
INSERT
  5
169
330
17
100
AcDbEntity
  8
50-EST-PILOTE
100
AcDbBlockReference
  2
PILOTE
 10
105437.871
 20
113199.62
 30
0.0
 50
92.0
  0
INSERT
  5
16B
330
17
100
AcDbEntity
  8
50-EST-PILOTE
100
AcDbBlockReference
  2
PILOTE
 10
105436.3197
 20
113201.0669
 30
0.0
 50
92.0
  0
INSERT
  5
16D
330
17
100
AcDbEntity
  8
50-EST-PILOTE
100
AcDbBlockReference
  2
PILOTE
 10
105436.2676
 20
113202.566
 30
0.0
 50
92.0
  0
INSERT
  5
16F
330
17
100
AcDbEntity
  8
50-EST-PILOTE
100
AcDbBlockReference
  2
PILOTE
 10
105436.2154
 20
113204.0651
 30
0.0
 50
92.0
  0
INSERT
  5
171
330
17
100
AcDbEntity
  8
50-EST-PILOTE
100
AcDbBlockReference
  2
PILOTE
 10
105437.8188
 20
113201.1191
 30
0.0
 50
272.0
  0
INSERT
  5
173
330
17
100
AcDbEntity
  8
50-EST-PILOTE
100
AcDbBlockReference
  2
PILOTE
 10
105437.7667
 20
113202.6182
 30
0.0
 50
272.0
  0
INSERT
  5
175
330
17
100
AcDbEntity
  8
50-EST-PILOTE
100
AcDbBlockReference
  2
PILOTE
 10
105437.7145
 20
113204.1173
 30
0.0
 50
272.0
  0
INSERT
  5
177
330
17
100
AcDbEntity
  8
50-EST-PILOTE
100
AcDbBlockReference
  2
PILOTE
 10
105435.9586
 20
113211.4006
 30
0.0
 50
92.0
  0
INSERT
  5
179
330
17
100
AcDbEntity
  8
50-EST-PILOTE
100
AcDbBlockReference
  2
PILOTE
 10
105437.4577
 20
113211.4528
 30
0.0
 50
92.0
  0
INSERT
  5
17B
330
17
100
AcDbEntity
  8
50-EST-PILOTE
100
AcDbBlockReference
  2
PILOTE
 10
105435.9064
 20
113212.8997
 30
0.0
 50
92.0
  0
INSERT
  5
17D
330
17
100
AcDbEntity
  8
50-EST-PILOTE
100
AcDbBlockReference
  2
PILOTE
 10
105435.8542
 20
113214.3988
 30
0.0
 50
92.0
  0
INSERT
  5
17F
330
17
100
AcDbEntity
  8
50-EST-PILOTE
100
AcDbBlockReference
  2
PILOTE
 10
105435.802
 20
113215.8979
 30
0.0
 50
92.0
  0
INSERT
  5
181
330
17
100
AcDbEntity
  8
50-EST-PILOTE
100
AcDbBlockReference
  2
PILOTE
 10
105437.4055
 20
113212.9519
 30
0.0
 50
272.0
  0
INSERT
  5
183
330
17
100
AcDbEntity
  8
50-EST-PILOTE
100
AcDbBlockReference
  2
PILOTE
 10
105437.3533
 20
113214.451
 30
0.0
 50
272.0
  0
INSERT
  5
185
330
17
100
AcDbEntity
  8
50-EST-PILOTE
100
AcDbBlockReference
  2
PILOTE
 10
105437.3011
 20
113215.9501
 30
0.0
 50
272.0
  0
INSERT
  5
187
330
17
100
AcDbEntity
  8
50-EST-PILOTE
100
AcDbBlockReference
  2
PILOTE
 10
105435.7519
 20
113217.317
 30
0.0
 50
92.0
  0
INSERT
  5
189
330
17
100
AcDbEntity
  8
50-EST-PILOTE
100
AcDbBlockReference
  2
PILOTE
 10
105437.251
 20
113217.3692
 30
0.0
 50
92.0
  0
INSERT
  5
18B
330
17
100
AcDbEntity
  8
50-EST-PILOTE
100
AcDbBlockReference
  2
PILOTE
 10
105435.6997
 20
113218.8161
 30
0.0
 50
92.0
  0
INSERT
  5
18D
330
17
100
AcDbEntity
  8
50-EST-PILOTE
100
AcDbBlockReference
  2
PILOTE
 10
105435.6475
 20
113220.3152
 30
0.0
 50
92.0
  0
INSERT
  5
18F
330
17
100
AcDbEntity
  8
50-EST-PILOTE
100
AcDbBlockReference
  2
PILOTE
 10
105435.5954
 20
113221.8143
 30
0.0
 50
92.0
  0
INSERT
  5
191
330
17
100
AcDbEntity
  8
50-EST-PILOTE
100
AcDbBlockReference
  2
PILOTE
 10
105437.1988
 20
113218.8683
 30
0.0
 50
272.0
  0
INSERT
  5
193
330
17
100
AcDbEntity
  8
50-EST-PILOTE
100
AcDbBlockReference
  2
PILOTE
 10
105437.1466
 20
113220.3674
 30
0.0
 50
272.0
  0
INSERT
  5
195
330
17
100
AcDbEntity
  8
50-EST-PILOTE
100
AcDbBlockReference
  2
PILOTE
 10
105437.0945
 20
113221.8665
 30
0.0
 50
272.0
  0
INSERT
  5
197
330
17
100
AcDbEntity
  8
50-EST-PILOTE
100
AcDbBlockReference
  2
PILOTE
 10
105435.5452
 20
113223.2334
 30
0.0
 50
92.0
  0
INSERT
  5
199
330
17
100
AcDbEntity
  8
50-EST-PILOTE
100
AcDbBlockReference
  2
PILOTE
 10
105437.0443
 20
113223.2856
 30
0.0
 50
92.0
  0
INSERT
  5
19B
330
17
100
AcDbEntity
  8
50-EST-PILOTE
100
AcDbBlockReference
  2
PILOTE
 10
105435.4931
 20
113224.7325
 30
0.0
 50
92.0
  0
INSERT
  5
19D
330
17
100
AcDbEntity
  8
50-EST-PILOTE
100
AcDbBlockReference
  2
PILOTE
 10
105435.4409
 20
113226.2316
 30
0.0
 50
92.0
  0
INSERT
  5
19F
330
17
100
AcDbEntity
  8
50-EST-PILOTE
100
AcDbBlockReference
  2
PILOTE
 10
105435.3887
 20
113227.7307
 30
0.0
 50
92.0
  0
INSERT
  5
1A1
330
17
100
AcDbEntity
  8
50-EST-PILOTE
100
AcDbBlockReference
  2
PILOTE
 10
105436.9921
 20
113224.7847
 30
0.0
 50
272.0
  0
INSERT
  5
1A3
330
17
100
AcDbEntity
  8
50-EST-PILOTE
100
AcDbBlockReference
  2
PILOTE
 10
105436.94
 20
113226.2838
 30
0.0
 50
272.0
  0
INSERT
  5
1A5
330
17
100
AcDbEntity
  8
50-EST-PILOTE
100
AcDbBlockReference
  2
PILOTE
 10
105436.8878
 20
113227.7828
 30
0.0
 50
272.0
  0
INSERT
  5
1A7
330
17
100
AcDbEntity
  8
50-EST-PILOTE
100
AcDbBlockReference
  2
PILOTE
 10
105435.3386
 20
113229.1498
 30
0.0
 50
92.0
  0
INSERT
  5
1A9
330
17
100
AcDbEntity
  8
50-EST-PILOTE
100
AcDbBlockReference
  2
PILOTE
 10
105436.8377
 20
113229.202
 30
0.0
 50
92.0
  0
INSERT
  5
1AB
330
17
100
AcDbEntity
  8
50-EST-PILOTE
100
AcDbBlockReference
  2
PILOTE
 10
105435.2864
 20
113230.6489
 30
0.0
 50
92.0
  0
INSERT
  5
1AD
330
17
100
AcDbEntity
  8
50-EST-PILOTE
100
AcDbBlockReference
  2
PILOTE
 10
105435.2342
 20
113232.148
 30
0.0
 50
92.0
  0
INSERT
  5
1AF
330
17
100
AcDbEntity
  8
50-EST-PILOTE
100
AcDbBlockReference
  2
PILOTE
 10
105435.182
 20
113233.6471
 30
0.0
 50
92.0
  0
INSERT
  5
1B1
330
17
100
AcDbEntity
  8
50-EST-PILOTE
100
AcDbBlockReference
  2
PILOTE
 10
105436.7855
 20
113230.7011
 30
0.0
 50
272.0
  0
INSERT
  5
1B3
330
17
100
AcDbEntity
  8
50-EST-PILOTE
100
AcDbBlockReference
  2
PILOTE
 10
105436.7333
 20
113232.2001
 30
0.0
 50
272.0
  0
INSERT
  5
1B5
330
17
100
AcDbEntity
  8
50-EST-PILOTE
100
AcDbBlockReference
  2
PILOTE
 10
105436.6811
 20
113233.6992
 30
0.0
 50
272.0
  0
INSERT
  5
1B7
330
17
100
AcDbEntity
  8
50-EST-PILOTE
100
AcDbBlockReference
  2
PILOTE
 10
105435.1319
 20
113235.0662
 30
0.0
 50
92.0
  0
INSERT
  5
1B9
330
17
100
AcDbEntity
  8
50-EST-PILOTE
100
AcDbBlockReference
  2
PILOTE
 10
105436.631
 20
113235.1184
 30
0.0
 50
92.0
  0
INSERT
  5
1BB
330
17
100
AcDbEntity
  8
50-EST-PILOTE
100
AcDbBlockReference
  2
PILOTE
 10
105435.0797
 20
113236.5653
 30
0.0
 50
92.0
  0
INSERT
  5
1BD
330
17
100
AcDbEntity
  8
50-EST-PILOTE
100
AcDbBlockReference
  2
PILOTE
 10
105435.0275
 20
113238.0644
 30
0.0
 50
92.0
  0
INSERT
  5
1BF
330
17
100
AcDbEntity
  8
50-EST-PILOTE
100
AcDbBlockReference
  2
PILOTE
 10
105434.9753
 20
113239.5635
 30
0.0
 50
92.0
  0
INSERT
  5
1C1
330
17
100
AcDbEntity
  8
50-EST-PILOTE
100
AcDbBlockReference
  2
PILOTE
 10
105436.5788
 20
113236.6174
 30
0.0
 50
272.0
  0
INSERT
  5
1C3
330
17
100
AcDbEntity
  8
50-EST-PILOTE
100
AcDbBlockReference
  2
PILOTE
 10
105436.5266
 20
113238.1165
 30
0.0
 50
272.0
  0
INSERT
  5
1C5
330
17
100
AcDbEntity
  8
50-EST-PILOTE
100
AcDbBlockReference
  2
PILOTE
 10
105436.4744
 20
113239.6156
 30
0.0
 50
272.0
  0
INSERT
  5
1C7
330
17
100
AcDbEntity
  8
50-EST-PILOTE
100
AcDbBlockReference
  2
PILOTE
 10
105435.1674
 20
113240.9612
 30
0.0
 50
92.6
  0
INSERT
  5
1C9
330
17
100
AcDbEntity
  8
50-EST-PILOTE
100
AcDbBlockReference
  2
PILOTE
 10
105436.6659
 20
113241.0284
 30
0.0
 50
92.6
  0
INSERT
  5
1CB
330
17
100
AcDbEntity
  8
50-EST-PILOTE
100
AcDbBlockReference
  2
PILOTE
 10
105435.1003
 20
113242.4597
 30
0.0
 50
92.6
  0
INSERT
  5
1CD
330
17
100
AcDbEntity
  8
50-EST-PILOTE
100
AcDbBlockReference
  2
PILOTE
 10
105435.0331
 20
113243.9582
 30
0.0
 50
92.6
  0
INSERT
  5
1CF
330
17
100
AcDbEntity
  8
50-EST-PILOTE
100
AcDbBlockReference
  2
PILOTE
 10
105434.9659
 20
113245.4567
 30
0.0
 50
92.6
  0
INSERT
  5
1D1
330
17
100
AcDbEntity
  8
50-EST-PILOTE
100
AcDbBlockReference
  2
PILOTE
 10
105436.5988
 20
113242.5269
 30
0.0
 50
272.6
  0
INSERT
  5
1D3
330
17
100
AcDbEntity
  8
50-EST-PILOTE
100
AcDbBlockReference
  2
PILOTE
 10
105436.5316
 20
113244.0254
 30
0.0
 50
272.6
  0
INSERT
  5
1D5
330
17
100
AcDbEntity
  8
50-EST-PILOTE
100
AcDbBlockReference
  2
PILOTE
 10
105436.4644
 20
113245.5239
 30
0.0
 50
272.6
  0
INSERT
  5
1D7
330
17
100
AcDbEntity
  8
50-EST-PILOTE
100
AcDbBlockReference
  2
PILOTE
 10
105434.6373
 20
113252.7893
 30
0.0
 50
92.6
  0
INSERT
  5
1D9
330
17
100
AcDbEntity
  8
50-EST-PILOTE
100
AcDbBlockReference
  2
PILOTE
 10
105436.1358
 20
113252.8565
 30
0.0
 50
92.6
  0
INSERT
  5
1DB
330
17
100
AcDbEntity
  8
50-EST-PILOTE
100
AcDbBlockReference
  2
PILOTE
 10
105434.5701
 20
113254.2878
 30
0.0
 50
92.6
  0
INSERT
  5
1DD
330
17
100
AcDbEntity
  8
50-EST-PILOTE
100
AcDbBlockReference
  2
PILOTE
 10
105434.503
 20
113255.7863
 30
0.0
 50
92.6
  0
INSERT
  5
1DF
330
17
100
AcDbEntity
  8
50-EST-PILOTE
100
AcDbBlockReference
  2
PILOTE
 10
105434.4358
 20
113257.2848
 30
0.0
 50
92.6
  0
INSERT
  5
1E1
330
17
100
AcDbEntity
  8
50-EST-PILOTE
100
AcDbBlockReference
  2
PILOTE
 10
105436.0686
 20
113254.355
 30
0.0
 50
272.6
  0
INSERT
  5
1E3
330
17
100
AcDbEntity
  8
50-EST-PILOTE
100
AcDbBlockReference
  2
PILOTE
 10
105436.0014
 20
113255.8535
 30
0.0
 50
272.6
  0
INSERT
  5
1E5
330
17
100
AcDbEntity
  8
50-EST-PILOTE
100
AcDbBlockReference
  2
PILOTE
 10
105435.9343
 20
113257.352
 30
0.0
 50
272.6
  0
INSERT
  5
1E7
330
17
100
AcDbEntity
  8
50-EST-PILOTE
100
AcDbBlockReference
  2
PILOTE
 10
105434.3721
 20
113258.7034
 30
0.0
 50
92.6
  0
INSERT
  5
1E9
330
17
100
AcDbEntity
  8
50-EST-PILOTE
100
AcDbBlockReference
  2
PILOTE
 10
105435.8706
 20
113258.7706
 30
0.0
 50
92.6
  0
INSERT
  5
1EB
330
17
100
AcDbEntity
  8
50-EST-PILOTE
100
AcDbBlockReference
  2
PILOTE
 10
105434.305
 20
113260.2019
 30
0.0
 50
92.6
  0
INSERT
  5
1ED
330
17
100
AcDbEntity
  8
50-EST-PILOTE
100
AcDbBlockReference
  2
PILOTE
 10
105434.2379
 20
113261.7004
 30
0.0
 50
92.6
  0
INSERT
  5
1EF
330
17
100
AcDbEntity
  8
50-EST-PILOTE
100
AcDbBlockReference
  2
PILOTE
 10
105434.1707
 20
113263.1989
 30
0.0
 50
92.6
  0
INSERT
  5
1F1
330
17
100
AcDbEntity
  8
50-EST-PILOTE
100
AcDbBlockReference
  2
PILOTE
 10
105435.8035
 20
113260.2691
 30
0.0
 50
272.6
  0
INSERT
  5
1F3
330
17
100
AcDbEntity
  8
50-EST-PILOTE
100
AcDbBlockReference
  2
PILOTE
 10
105435.7364
 20
113261.7676
 30
0.0
 50
272.6
  0
INSERT
  5
1F5
330
17
100
AcDbEntity
  8
50-EST-PILOTE
100
AcDbBlockReference
  2
PILOTE
 10
105435.6692
 20
113263.2661
 30
0.0
 50
272.6
  0
INSERT
  5
1F7
330
17
100
AcDbEntity
  8
50-EST-PILOTE
100
AcDbBlockReference
  2
PILOTE
 10
105434.1071
 20
113264.6175
 30
0.0
 50
92.6
  0
INSERT
  5
1F9
330
17
100
AcDbEntity
  8
50-EST-PILOTE
100
AcDbBlockReference
  2
PILOTE
 10
105435.6056
 20
113264.6846
 30
0.0
 50
92.6
  0
INSERT
  5
1FB
330
17
100
AcDbEntity
  8
50-EST-PILOTE
100
AcDbBlockReference
  2
PILOTE
 10
105434.04
 20
113266.116
 30
0.0
 50
92.6
  0
INSERT
  5
1FD
330
17
100
AcDbEntity
  8
50-EST-PILOTE
100
AcDbBlockReference
  2
PILOTE
 10
105433.9728
 20
113267.6145
 30
0.0
 50
92.6
  0
INSERT
  5
1FF
330
17
100
AcDbEntity
  8
50-EST-PILOTE
100
AcDbBlockReference
  2
PILOTE
 10
105433.9057
 20
113269.113
 30
0.0
 50
92.6
  0
INSERT
  5
201
330
17
100
AcDbEntity
  8
50-EST-PILOTE
100
AcDbBlockReference
  2
PILOTE
 10
105435.5385
 20
113266.1831
 30
0.0
 50
272.6
  0
INSERT
  5
203
330
17
100
AcDbEntity
  8
50-EST-PILOTE
100
AcDbBlockReference
  2
PILOTE
 10
105435.4713
 20
113267.6816
 30
0.0
 50
272.6
  0
INSERT
  5
205
330
17
100
AcDbEntity
  8
50-EST-PILOTE
100
AcDbBlockReference
  2
PILOTE
 10
105435.4042
 20
113269.1801
 30
0.0
 50
272.6
  0
INSERT
  5
207
330
17
100
AcDbEntity
  8
50-EST-PILOTE
100
AcDbBlockReference
  2
PILOTE
 10
105434.3939
 20
113313.5846
 30
0.0
 50
93.1
  0
INSERT
  5
209
330
17
100
AcDbEntity
  8
50-EST-PILOTE
100
AcDbBlockReference
  2
PILOTE
 10
105435.8917
 20
113313.6654
 30
0.0
 50
93.1
  0
INSERT
  5
20B
330
17
100
AcDbEntity
  8
50-EST-PILOTE
100
AcDbBlockReference
  2
PILOTE
 10
105434.3131
 20
113315.0824
 30
0.0
 50
93.1
  0
INSERT
  5
20D
330
17
100
AcDbEntity
  8
50-EST-PILOTE
100
AcDbBlockReference
  2
PILOTE
 10
105434.2322
 20
113316.5802
 30
0.0
 50
93.1
  0
INSERT
  5
20F
330
17
100
AcDbEntity
  8
50-EST-PILOTE
100
AcDbBlockReference
  2
PILOTE
 10
105434.1514
 20
113318.078
 30
0.0
 50
93.1
  0
INSERT
  5
211
330
17
100
AcDbEntity
  8
50-EST-PILOTE
100
AcDbBlockReference
  2
PILOTE
 10
105435.8109
 20
113315.1632
 30
0.0
 50
273.1
  0
INSERT
  5
213
330
17
100
AcDbEntity
  8
50-EST-PILOTE
100
AcDbBlockReference
  2
PILOTE
 10
105435.7301
 20
113316.6611
 30
0.0
 50
273.1
  0
INSERT
  5
215
330
17
100
AcDbEntity
  8
50-EST-PILOTE
100
AcDbBlockReference
  2
PILOTE
 10
105435.6492
 20
113318.1589
 30
0.0
 50
273.1
  0
INSERT
  5
217
330
17
100
AcDbEntity
  8
50-EST-PILOTE
100
AcDbBlockReference
  2
PILOTE
 10
105434.067
 20
113319.4645
 30
0.0
 50
93.9
  0
INSERT
  5
219
330
17
100
AcDbEntity
  8
50-EST-PILOTE
100
AcDbBlockReference
  2
PILOTE
 10
105435.5636
 20
113319.5664
 30
0.0
 50
93.9
  0
INSERT
  5
21B
330
17
100
AcDbEntity
  8
50-EST-PILOTE
100
AcDbBlockReference
  2
PILOTE
 10
105433.9651
 20
113320.961
 30
0.0
 50
93.9
  0
INSERT
  5
21D
330
17
100
AcDbEntity
  8
50-EST-PILOTE
100
AcDbBlockReference
  2
PILOTE
 10
105433.8632
 20
113322.4576
 30
0.0
 50
93.9
  0
INSERT
  5
21F
330
17
100
AcDbEntity
  8
50-EST-PILOTE
100
AcDbBlockReference
  2
PILOTE
 10
105433.7613
 20
113323.9541
 30
0.0
 50
93.9
  0
INSERT
  5
221
330
17
100
AcDbEntity
  8
50-EST-PILOTE
100
AcDbBlockReference
  2
PILOTE
 10
105435.4617
 20
113321.0629
 30
0.0
 50
273.9
  0
INSERT
  5
223
330
17
100
AcDbEntity
  8
50-EST-PILOTE
100
AcDbBlockReference
  2
PILOTE
 10
105435.3598
 20
113322.5595
 30
0.0
 50
273.9
  0
INSERT
  5
225
330
17
100
AcDbEntity
  8
50-EST-PILOTE
100
AcDbBlockReference
  2
PILOTE
 10
105435.2579
 20
113324.056
 30
0.0
 50
273.9
  0
INSERT
  5
227
330
17
100
AcDbEntity
  8
50-EST-PILOTE
100
AcDbBlockReference
  2
PILOTE
 10
105433.6637
 20
113325.3649
 30
0.0
 50
94.0
  0
INSERT
  5
229
330
17
100
AcDbEntity
  8
50-EST-PILOTE
100
AcDbBlockReference
  2
PILOTE
 10
105435.16
 20
113325.4708
 30
0.0
 50
94.0
  0
INSERT
  5
22B
330
17
100
AcDbEntity
  8
50-EST-PILOTE
100
AcDbBlockReference
  2
PILOTE
 10
105433.5579
 20
113326.8612
 30
0.0
 50
94.0
  0
INSERT
  5
22D
330
17
100
AcDbEntity
  8
50-EST-PILOTE
100
AcDbBlockReference
  2
PILOTE
 10
105433.4521
 20
113328.3575
 30
0.0
 50
94.0
  0
INSERT
  5
22F
330
17
100
AcDbEntity
  8
50-EST-PILOTE
100
AcDbBlockReference
  2
PILOTE
 10
105433.3462
 20
113329.8537
 30
0.0
 50
94.0
  0
INSERT
  5
231
330
17
100
AcDbEntity
  8
50-EST-PILOTE
100
AcDbBlockReference
  2
PILOTE
 10
105435.0542
 20
113326.967
 30
0.0
 50
274.0
  0
INSERT
  5
233
330
17
100
AcDbEntity
  8
50-EST-PILOTE
100
AcDbBlockReference
  2
PILOTE
 10
105434.9483
 20
113328.4633
 30
0.0
 50
274.0
  0
INSERT
  5
235
330
17
100
AcDbEntity
  8
50-EST-PILOTE
100
AcDbBlockReference
  2
PILOTE
 10
105434.8425
 20
113329.9596
 30
0.0
 50
274.0
  0
INSERT
  5
237
330
17
100
AcDbEntity
  8
50-EST-PILOTE
100
AcDbBlockReference
  2
PILOTE
 10
105433.2338
 20
113331.2205
 30
0.0
 50
95.3
  0
INSERT
  5
239
330
17
100
AcDbEntity
  8
50-EST-PILOTE
100
AcDbBlockReference
  2
PILOTE
 10
105434.7273
 20
113331.3593
 30
0.0
 50
95.3
  0
INSERT
  5
23B
330
17
100
AcDbEntity
  8
50-EST-PILOTE
100
AcDbBlockReference
  2
PILOTE
 10
105433.095
 20
113332.714
 30
0.0
 50
95.3
  0
INSERT
  5
23D
330
17
100
AcDbEntity
  8
50-EST-PILOTE
100
AcDbBlockReference
  2
PILOTE
 10
105432.9562
 20
113334.2076
 30
0.0
 50
95.3
  0
INSERT
  5
23F
330
17
100
AcDbEntity
  8
50-EST-PILOTE
100
AcDbBlockReference
  2
PILOTE
 10
105432.8174
 20
113335.7012
 30
0.0
 50
95.3
  0
INSERT
  5
241
330
17
100
AcDbEntity
  8
50-EST-PILOTE
100
AcDbBlockReference
  2
PILOTE
 10
105434.5885
 20
113332.8528
 30
0.0
 50
275.3
  0
INSERT
  5
243
330
17
100
AcDbEntity
  8
50-EST-PILOTE
100
AcDbBlockReference
  2
PILOTE
 10
105434.4497
 20
113334.3464
 30
0.0
 50
275.3
  0
INSERT
  5
245
330
17
100
AcDbEntity
  8
50-EST-PILOTE
100
AcDbBlockReference
  2
PILOTE
 10
105434.311
 20
113335.84
 30
0.0
 50
275.3
  0
INSERT
  5
247
330
17
100
AcDbEntity
  8
50-EST-PILOTE
100
AcDbBlockReference
  2
PILOTE
 10
105432.7223
 20
113337.2603
 30
0.0
 50
91.6
  0
INSERT
  5
249
330
17
100
AcDbEntity
  8
50-EST-PILOTE
100
AcDbBlockReference
  2
PILOTE
 10
105434.2217
 20
113337.3019
 30
0.0
 50
91.6
  0
INSERT
  5
24B
330
17
100
AcDbEntity
  8
50-EST-PILOTE
100
AcDbBlockReference
  2
PILOTE
 10
105432.6807
 20
113338.7598
 30
0.0
 50
91.6
  0
INSERT
  5
24D
330
17
100
AcDbEntity
  8
50-EST-PILOTE
100
AcDbBlockReference
  2
PILOTE
 10
105432.6391
 20
113340.2592
 30
0.0
 50
91.6
  0
INSERT
  5
24F
330
17
100
AcDbEntity
  8
50-EST-PILOTE
100
AcDbBlockReference
  2
PILOTE
 10
105432.5976
 20
113341.7586
 30
0.0
 50
91.6
  0
INSERT
  5
251
330
17
100
AcDbEntity
  8
50-EST-PILOTE
100
AcDbBlockReference
  2
PILOTE
 10
105434.1801
 20
113338.8013
 30
0.0
 50
271.6
  0
INSERT
  5
253
330
17
100
AcDbEntity
  8
50-EST-PILOTE
100
AcDbBlockReference
  2
PILOTE
 10
105434.1386
 20
113340.3008
 30
0.0
 50
271.6
  0
INSERT
  5
255
330
17
100
AcDbEntity
  8
50-EST-PILOTE
100
AcDbBlockReference
  2
PILOTE
 10
105434.097
 20
113341.8002
 30
0.0
 50
271.6
  0
INSERT
  5
257
330
17
100
AcDbEntity
  8
50-EST-PILOTE
100
AcDbBlockReference
  2
PILOTE
 10
105432.5658
 20
113343.203
 30
0.0
 50
90.9
  0
INSERT
  5
259
330
17
100
AcDbEntity
  8
50-EST-PILOTE
100
AcDbBlockReference
  2
PILOTE
 10
105434.0656
 20
113343.2276
 30
0.0
 50
90.9
  0
INSERT
  5
25B
330
17
100
AcDbEntity
  8
50-EST-PILOTE
100
AcDbBlockReference
  2
PILOTE
 10
105432.5412
 20
113344.7028
 30
0.0
 50
90.9
  0
INSERT
  5
25D
330
17
100
AcDbEntity
  8
50-EST-PILOTE
100
AcDbBlockReference
  2
PILOTE
 10
105432.5166
 20
113346.2026
 30
0.0
 50
90.9
  0
INSERT
  5
25F
330
17
100
AcDbEntity
  8
50-EST-PILOTE
100
AcDbBlockReference
  2
PILOTE
 10
105432.4921
 20
113347.7024
 30
0.0
 50
90.9
  0
INSERT
  5
261
330
17
100
AcDbEntity
  8
50-EST-PILOTE
100
AcDbBlockReference
  2
PILOTE
 10
105434.041
 20
113344.7274
 30
0.0
 50
270.9
  0
INSERT
  5
263
330
17
100
AcDbEntity
  8
50-EST-PILOTE
100
AcDbBlockReference
  2
PILOTE
 10
105434.0164
 20
113346.2272
 30
0.0
 50
270.9
  0
INSERT
  5
265
330
17
100
AcDbEntity
  8
50-EST-PILOTE
100
AcDbBlockReference
  2
PILOTE
 10
105433.9919
 20
113347.727
 30
0.0
 50
270.9
  0
INSERT
  5
267
330
17
100
AcDbEntity
  8
50-EST-PILOTE
100
AcDbBlockReference
  2
PILOTE
 10
105432.4809
 20
113349.1614
 30
0.0
 50
89.9
  0
INSERT
  5
269
330
17
100
AcDbEntity
  8
50-EST-PILOTE
100
AcDbBlockReference
  2
PILOTE
 10
105433.9809
 20
113349.1593
 30
0.0
 50
89.9
  0
INSERT
  5
26B
330
17
100
AcDbEntity
  8
50-EST-PILOTE
100
AcDbBlockReference
  2
PILOTE
 10
105432.4831
 20
113350.6614
 30
0.0
 50
89.9
  0
INSERT
  5
26D
330
17
100
AcDbEntity
  8
50-EST-PILOTE
100
AcDbBlockReference
  2
PILOTE
 10
105432.4852
 20
113352.1614
 30
0.0
 50
89.9
  0
INSERT
  5
26F
330
17
100
AcDbEntity
  8
50-EST-PILOTE
100
AcDbBlockReference
  2
PILOTE
 10
105432.4873
 20
113353.6614
 30
0.0
 50
89.9
  0
INSERT
  5
271
330
17
100
AcDbEntity
  8
50-EST-PILOTE
100
AcDbBlockReference
  2
PILOTE
 10
105433.9831
 20
113350.6592
 30
0.0
 50
269.9
  0
INSERT
  5
273
330
17
100
AcDbEntity
  8
50-EST-PILOTE
100
AcDbBlockReference
  2
PILOTE
 10
105433.9852
 20
113352.1592
 30
0.0
 50
269.9
  0
INSERT
  5
275
330
17
100
AcDbEntity
  8
50-EST-PILOTE
100
AcDbBlockReference
  2
PILOTE
 10
105433.9873
 20
113353.6592
 30
0.0
 50
269.9
  0
INSERT
  5
277
330
17
100
AcDbEntity
  8
50-EST-PILOTE
100
AcDbBlockReference
  2
PILOTE
 10
105432.5068
 20
113355.1339
 30
0.0
 50
88.5
  0
INSERT
  5
279
330
17
100
AcDbEntity
  8
50-EST-PILOTE
100
AcDbBlockReference
  2
PILOTE
 10
105434.0063
 20
113355.0957
 30
0.0
 50
88.5
  0
INSERT
  5
27B
330
17
100
AcDbEntity
  8
50-EST-PILOTE
100
AcDbBlockReference
  2
PILOTE
 10
105432.545
 20
113356.6334
 30
0.0
 50
88.5
  0
INSERT
  5
27D
330
17
100
AcDbEntity
  8
50-EST-PILOTE
100
AcDbBlockReference
  2
PILOTE
 10
105432.5832
 20
113358.133
 30
0.0
 50
88.5
  0
INSERT
  5
27F
330
17
100
AcDbEntity
  8
50-EST-PILOTE
100
AcDbBlockReference
  2
PILOTE
 10
105432.6214
 20
113359.6325
 30
0.0
 50
88.5
  0
INSERT
  5
281
330
17
100
AcDbEntity
  8
50-EST-PILOTE
100
AcDbBlockReference
  2
PILOTE
 10
105434.0445
 20
113356.5952
 30
0.0
 50
268.5
  0
INSERT
  5
283
330
17
100
AcDbEntity
  8
50-EST-PILOTE
100
AcDbBlockReference
  2
PILOTE
 10
105434.0827
 20
113358.0948
 30
0.0
 50
268.5
  0
INSERT
  5
285
330
17
100
AcDbEntity
  8
50-EST-PILOTE
100
AcDbBlockReference
  2
PILOTE
 10
105434.1209
 20
113359.5943
 30
0.0
 50
268.5
  0
INSERT
  5
287
330
17
100
AcDbEntity
  8
50-EST-PILOTE
100
AcDbBlockReference
  2
PILOTE
 10
105432.6811
 20
113361.1148
 30
0.0
 50
86.8
  0
INSERT
  5
289
330
17
100
AcDbEntity
  8
50-EST-PILOTE
100
AcDbBlockReference
  2
PILOTE
 10
105434.1787
 20
113361.031
 30
0.0
 50
86.8
  0
INSERT
  5
28B
330
17
100
AcDbEntity
  8
50-EST-PILOTE
100
AcDbBlockReference
  2
PILOTE
 10
105432.7649
 20
113362.6125
 30
0.0
 50
86.8
  0
INSERT
  5
28D
330
17
100
AcDbEntity
  8
50-EST-PILOTE
100
AcDbBlockReference
  2
PILOTE
 10
105432.8487
 20
113364.1101
 30
0.0
 50
86.8
  0
INSERT
  5
28F
330
17
100
AcDbEntity
  8
50-EST-PILOTE
100
AcDbBlockReference
  2
PILOTE
 10
105432.9325
 20
113365.6078
 30
0.0
 50
86.8
  0
INSERT
  5
291
330
17
100
AcDbEntity
  8
50-EST-PILOTE
100
AcDbBlockReference
  2
PILOTE
 10
105434.2625
 20
113362.5287
 30
0.0
 50
266.8
  0
INSERT
  5
293
330
17
100
AcDbEntity
  8
50-EST-PILOTE
100
AcDbBlockReference
  2
PILOTE
 10
105434.3463
 20
113364.0263
 30
0.0
 50
266.8
  0
INSERT
  5
295
330
17
100
AcDbEntity
  8
50-EST-PILOTE
100
AcDbBlockReference
  2
PILOTE
 10
105434.4301
 20
113365.524
 30
0.0
 50
266.8
  0
INSERT
  5
297
330
17
100
AcDbEntity
  8
50-EST-PILOTE
100
AcDbBlockReference
  2
PILOTE
 10
105433.0451
 20
113367.1037
 30
0.0
 50
84.6
  0
INSERT
  5
299
330
17
100
AcDbEntity
  8
50-EST-PILOTE
100
AcDbBlockReference
  2
PILOTE
 10
105434.5385
 20
113366.963
 30
0.0
 50
84.6
  0
INSERT
  5
29B
330
17
100
AcDbEntity
  8
50-EST-PILOTE
100
AcDbBlockReference
  2
PILOTE
 10
105433.1858
 20
113368.5971
 30
0.0
 50
84.6
  0
INSERT
  5
29D
330
17
100
AcDbEntity
  8
50-EST-PILOTE
100
AcDbBlockReference
  2
PILOTE
 10
105433.3264
 20
113370.0905
 30
0.0
 50
84.6
  0
INSERT
  5
29F
330
17
100
AcDbEntity
  8
50-EST-PILOTE
100
AcDbBlockReference
  2
PILOTE
 10
105433.4671
 20
113371.5839
 30
0.0
 50
84.6
  0
INSERT
  5
2A1
330
17
100
AcDbEntity
  8
50-EST-PILOTE
100
AcDbBlockReference
  2
PILOTE
 10
105434.6791
 20
113368.4564
 30
0.0
 50
264.6
  0
INSERT
  5
2A3
330
17
100
AcDbEntity
  8
50-EST-PILOTE
100
AcDbBlockReference
  2
PILOTE
 10
105434.8198
 20
113369.9498
 30
0.0
 50
264.6
  0
INSERT
  5
2A5
330
17
100
AcDbEntity
  8
50-EST-PILOTE
100
AcDbBlockReference
  2
PILOTE
 10
105434.9605
 20
113371.4432
 30
0.0
 50
264.6
  0
INSERT
  5
2A7
330
17
100
AcDbEntity
  8
50-EST-PILOTE
100
AcDbBlockReference
  2
PILOTE
 10
105433.6439
 20
113373.0887
 30
0.0
 50
82.0
  0
INSERT
  5
2A9
330
17
100
AcDbEntity
  8
50-EST-PILOTE
100
AcDbBlockReference
  2
PILOTE
 10
105435.1294
 20
113372.8811
 30
0.0
 50
82.0
  0
INSERT
  5
2AB
330
17
100
AcDbEntity
  8
50-EST-PILOTE
100
AcDbBlockReference
  2
PILOTE
 10
105433.8514
 20
113374.5743
 30
0.0
 50
82.0
  0
INSERT
  5
2AD
330
17
100
AcDbEntity
  8
50-EST-PILOTE
100
AcDbBlockReference
  2
PILOTE
 10
105434.059
 20
113376.0598
 30
0.0
 50
82.0
  0
INSERT
  5
2AF
330
17
100
AcDbEntity
  8
50-EST-PILOTE
100
AcDbBlockReference
  2
PILOTE
 10
105434.2666
 20
113377.5454
 30
0.0
 50
82.0
  0
INSERT
  5
2B1
330
17
100
AcDbEntity
  8
50-EST-PILOTE
100
AcDbBlockReference
  2
PILOTE
 10
105435.337
 20
113374.3667
 30
0.0
 50
262.0
  0
INSERT
  5
2B3
330
17
100
AcDbEntity
  8
50-EST-PILOTE
100
AcDbBlockReference
  2
PILOTE
 10
105435.5446
 20
113375.8523
 30
0.0
 50
262.0
  0
INSERT
  5
2B5
330
17
100
AcDbEntity
  8
50-EST-PILOTE
100
AcDbBlockReference
  2
PILOTE
 10
105435.7522
 20
113377.3378
 30
0.0
 50
262.0
  0
INSERT
  5
2B7
330
17
100
AcDbEntity
  8
50-EST-PILOTE
100
AcDbBlockReference
  2
PILOTE
 10
105434.5062
 20
113379.0341
 30
0.0
 50
79.7
  0
INSERT
  5
2B9
330
17
100
AcDbEntity
  8
50-EST-PILOTE
100
AcDbBlockReference
  2
PILOTE
 10
105435.9819
 20
113378.765
 30
0.0
 50
79.7
  0
INSERT
  5
2BB
330
17
100
AcDbEntity
  8
50-EST-PILOTE
100
AcDbBlockReference
  2
PILOTE
 10
105434.7754
 20
113380.5098
 30
0.0
 50
79.7
  0
INSERT
  5
2BD
330
17
100
AcDbEntity
  8
50-EST-PILOTE
100
AcDbBlockReference
  2
PILOTE
 10
105435.0445
 20
113381.9854
 30
0.0
 50
79.7
  0
INSERT
  5
2BF
330
17
100
AcDbEntity
  8
50-EST-PILOTE
100
AcDbBlockReference
  2
PILOTE
 10
105435.3137
 20
113383.4611
 30
0.0
 50
79.7
  0
INSERT
  5
2C1
330
17
100
AcDbEntity
  8
50-EST-PILOTE
100
AcDbBlockReference
  2
PILOTE
 10
105436.251
 20
113380.2406
 30
0.0
 50
259.7
  0
INSERT
  5
2C3
330
17
100
AcDbEntity
  8
50-EST-PILOTE
100
AcDbBlockReference
  2
PILOTE
 10
105436.5202
 20
113381.7163
 30
0.0
 50
259.7
  0
INSERT
  5
2C5
330
17
100
AcDbEntity
  8
50-EST-PILOTE
100
AcDbBlockReference
  2
PILOTE
 10
105436.7893
 20
113383.1919
 30
0.0
 50
259.7
  0
INSERT
  5
2C7
330
17
100
AcDbEntity
  8
50-EST-PILOTE
100
AcDbBlockReference
  2
PILOTE
 10
105434.9023
 20
113246.8753
 30
0.0
 50
92.6
  0
INSERT
  5
2C9
330
17
100
AcDbEntity
  8
50-EST-PILOTE
100
AcDbBlockReference
  2
PILOTE
 10
105436.4008
 20
113246.9424
 30
0.0
 50
92.6
  0
INSERT
  5
2CB
330
17
100
AcDbEntity
  8
50-EST-PILOTE
100
AcDbBlockReference
  2
PILOTE
 10
105434.8352
 20
113248.3738
 30
0.0
 50
92.6
  0
INSERT
  5
2CD
330
17
100
AcDbEntity
  8
50-EST-PILOTE
100
AcDbBlockReference
  2
PILOTE
 10
105434.768
 20
113249.8723
 30
0.0
 50
92.6
  0
INSERT
  5
2CF
330
17
100
AcDbEntity
  8
50-EST-PILOTE
100
AcDbBlockReference
  2
PILOTE
 10
105434.7009
 20
113251.3708
 30
0.0
 50
92.6
  0
INSERT
  5
2D1
330
17
100
AcDbEntity
  8
50-EST-PILOTE
100
AcDbBlockReference
  2
PILOTE
 10
105436.3337
 20
113248.4409
 30
0.0
 50
272.6
  0
INSERT
  5
2D3
330
17
100
AcDbEntity
  8
50-EST-PILOTE
100
AcDbBlockReference
  2
PILOTE
 10
105436.2665
 20
113249.9394
 30
0.0
 50
272.6
  0
INSERT
  5
2D5
330
17
100
AcDbEntity
  8
50-EST-PILOTE
100
AcDbBlockReference
  2
PILOTE
 10
105436.1994
 20
113251.4379
 30
0.0
 50
272.6
  0
INSERT
  5
2D7
330
17
100
AcDbEntity
  8
50-EST-PILOTE
100
AcDbBlockReference
  2
PILOTE
 10
105704.2909
 20
118094.1808
 30
0.0
 50
106.9
  0
INSERT
  5
2D9
330
17
100
AcDbEntity
  8
50-EST-PILOTE
100
AcDbBlockReference
  2
PILOTE
 10
105705.7261
 20
118094.6167
 30
0.0
 50
106.9
  0
INSERT
  5
2DB
330
17
100
AcDbEntity
  8
50-EST-PILOTE
100
AcDbBlockReference
  2
PILOTE
 10
105703.8549
 20
118095.616
 30
0.0
 50
106.9
  0
INSERT
  5
2DD
330
17
100
AcDbEntity
  8
50-EST-PILOTE
100
AcDbBlockReference
  2
PILOTE
 10
105703.419
 20
118097.0513
 30
0.0
 50
106.9
  0
INSERT
  5
2DF
330
17
100
AcDbEntity
  8
50-EST-PILOTE
100
AcDbBlockReference
  2
PILOTE
 10
105702.983
 20
118098.4865
 30
0.0
 50
106.9
  0
INSERT
  5
2E1
330
17
100
AcDbEntity
  8
50-EST-PILOTE
100
AcDbBlockReference
  2
PILOTE
 10
105705.2902
 20
118096.052
 30
0.0
 50
286.9
  0
INSERT
  5
2E3
330
17
100
AcDbEntity
  8
50-EST-PILOTE
100
AcDbBlockReference
  2
PILOTE
 10
105704.8542
 20
118097.4872
 30
0.0
 50
286.9
  0
INSERT
  5
2E5
330
17
100
AcDbEntity
  8
50-EST-PILOTE
100
AcDbBlockReference
  2
PILOTE
 10
105704.4183
 20
118098.9225
 30
0.0
 50
286.9
  0
ENDSEC
  0
SECTION
  2
OBJECTS
  0
DICTIONARY
  5
A
330
0
100
AcDbDictionary
281
1
  3
ACAD_COLOR
350
B
  3
ACAD_GROUP
350
C
  3
ACAD_LAYOUT
350
D
  3
ACAD_MATERIAL
350
E
  3
ACAD_MLEADERSTYLE
350
F
  3
ACAD_MLINESTYLE
350
10
  3
ACAD_PLOTSETTINGS
350
11
  3
ACAD_PLOTSTYLENAME
350
12
  3
ACAD_SCALELIST
350
14
  3
ACAD_TABLESTYLE
350
15
  3
ACAD_VISUALSTYLE
350
16
  3
EZDXF_META
350
2D
  0
DICTIONARY
  5
B
330
A
100
AcDbDictionary
281
1
  0
DICTIONARY
  5
C
330
A
100
AcDbDictionary
281
1
  0
DICTIONARY
  5
D
330
A
100
AcDbDictionary
281
1
  3
Model
350
1A
  3
Layout1
350
1E
  0
DICTIONARY
  5
E
330
A
100
AcDbDictionary
281
1
  3
ByBlock
350
1F
  3
ByLayer
350
20
  3
Global
350
21
  0
DICTIONARY
  5
F
330
A
100
AcDbDictionary
281
1
  3
Standard
350
2C
  0
DICTIONARY
  5
10
330
A
100
AcDbDictionary
281
1
  3
Standard
350
22
  0
DICTIONARY
  5
11
330
A
100
AcDbDictionary
281
1
  0
ACDBDICTIONARYWDFLT
  5
12
330
A
100
AcDbDictionary
281
1
  3
Normal
350
13
100
AcDbDictionaryWithDefault
340
13
  0
ACDBPLACEHOLDER
  5
13
330
12
  0
DICTIONARY
  5
14
330
A
100
AcDbDictionary
281
1
  0
DICTIONARY
  5
15
330
A
100
AcDbDictionary
281
1
  0
DICTIONARY
  5
16
330
A
100
AcDbDictionary
281
1
  3
2dWireframe
350
5A
  3
Basic
350
5B
  3
Brighten
350
5C
  3
ColorChange
350
5D
  3
Conceptual
350
5E
  3
Dim
350
5F
  3
EdgeColorOff
350
60
  3
Facepattern
350
61
  3
Flat
350
62
  3
FlatWithEdges
350
63
  3
Gouraud
350
64
  3
GouraudWithEdges
350
65
  3
Hidden
350
66
  3
JitterOff
350
67
  3
Linepattern
350
68
  3
Modeling
350
69
  3
OverhangOff
350
6A
  3
Realistic
350
6B
  3
Shaded
350
6C
  3
Shaded with edges
350
6D
  3
Shades of Gray
350
6E
  3
Sketchy
350
6F
  3
Thicken
350
70
  3
Wireframe
350
71
  3
X-Ray
350
72
  0
LAYOUT
  5
1A
330
D
100
AcDbPlotSettings
  1

  4
A3
  6

 40
7.5
 41
20.0
 42
7.5
 43
20.0
 44
420.0
 45
297.0
 46
0.0
 47
0.0
 48
0.0
 49
0.0
140
0.0
141
0.0
142
1.0
143
1.0
 70
1024
 72
1
 73
0
 74
5
  7

 75
16
 76
0
 77
2
 78
300
147
1.0
148
0.0
149
0.0
100
AcDbLayout
  1
Model
 70
1
 71
0
 10
0.0
 20
0.0
 11
420.0
 21
297.0
 12
0.0
 22
0.0
 32
0.0
 14
1e+20
 24
1e+20
 34
1e+20
 15
-1e+20
 25
-1e+20
 35
-1e+20
146
0.0
 13
0.0
 23
0.0
 33
0.0
 16
1.0
 26
0.0
 36
0.0
 17
0.0
 27
1.0
 37
0.0
 76
1
330
17
  0
LAYOUT
  5
1E
330
D
100
AcDbPlotSettings
  1

  4
A3
  6

 40
7.5
 41
20.0
 42
7.5
 43
20.0
 44
420.0
 45
297.0
 46
0.0
 47
0.0
 48
0.0
 49
0.0
140
0.0
141
0.0
142
1.0
143
1.0
 70
0
 72
1
 73
0
 74
5
  7

 75
16
 76
0
 77
2
 78
300
147
1.0
148
0.0
149
0.0
100
AcDbLayout
  1
Layout1
 70
1
 71
1
 10
0.0
 20
0.0
 11
420.0
 21
297.0
 12
0.0
 22
0.0
 32
0.0
 14
1e+20
 24
1e+20
 34
1e+20
 15
-1e+20
 25
-1e+20
 35
-1e+20
146
0.0
 13
0.0
 23
0.0
 33
0.0
 16
1.0
 26
0.0
 36
0.0
 17
0.0
 27
1.0
 37
0.0
 76
1
330
1B
  0
MATERIAL
  5
1F
102
{ACAD_REACTORS
330
E
102
}
330
E
100
AcDbMaterial
  1
ByBlock
  2

 70
0
 40
1.0
 71
1
 41
1.0
 91
-1023410177
 42
1.0
 72
1
  3

 73
1
 74
1
 75
1
 44
0.5
 73
0
 45
1.0
 46
1.0
 77
1
  4

 78
1
 79
1
170
1
 48
1.0
171
1
  6

172
1
173
1
174
1
140
1.0
141
1.0
175
1
  7

176
1
177
1
178
1
143
1.0
179
1
  8

270
1
271
1
272
1
145
1.0
146
1.0
273
1
  9

274
1
275
1
276
1
 42
1.0
 72
1
  3

 73
1
 74
1
 75
1
 94
63
  0
MATERIAL
  5
20
102
{ACAD_REACTORS
330
E
102
}
330
E
100
AcDbMaterial
  1
ByLayer
  2

 70
0
 40
1.0
 71
1
 41
1.0
 91
-1023410177
 42
1.0
 72
1
  3

 73
1
 74
1
 75
1
 44
0.5
 73
0
 45
1.0
 46
1.0
 77
1
  4

 78
1
 79
1
170
1
 48
1.0
171
1
  6

172
1
173
1
174
1
140
1.0
141
1.0
175
1
  7

176
1
177
1
178
1
143
1.0
179
1
  8

270
1
271
1
272
1
145
1.0
146
1.0
273
1
  9

274
1
275
1
276
1
 42
1.0
 72
1
  3

 73
1
 74
1
 75
1
 94
63
  0
MATERIAL
  5
21
102
{ACAD_REACTORS
330
E
102
}
330
E
100
AcDbMaterial
  1
Global
  2

 70
0
 40
1.0
 71
1
 41
1.0
 91
-1023410177
 42
1.0
 72
1
  3

 73
1
 74
1
 75
1
 44
0.5
 73
0
 45
1.0
 46
1.0
 77
1
  4

 78
1
 79
1
170
1
 48
1.0
171
1
  6

172
1
173
1
174
1
140
1.0
141
1.0
175
1
  7

176
1
177
1
178
1
143
1.0
179
1
  8

270
1
271
1
272
1
145
1.0
146
1.0
273
1
  9

274
1
275
1
276
1
 42
1.0
 72
1
  3

 73
1
 74
1
 75
1
 94
63
  0
MLINESTYLE
  5
22
102
{ACAD_REACTORS
330
10
102
}
330
10
100
AcDbMlineStyle
  2
Standard
 70
0
  3

 62
256
 51
90.0
 52
90.0
 71
2
 49
0.5
 62
256
  6
BYLAYER
 49
-0.5
 62
256
  6
BYLAYER
  0
MLEADERSTYLE
  5
2C
102
{ACAD_REACTORS
330
F
102
}
330
F
100
AcDbMLeaderStyle
179
2
170
2
171
1
172
0
 90
2
 40
0.0
 41
0.0
173
1
 91
-1056964608
 92
-2
290
1
 42
2.0
291
1
 43
8.0
  3
Standard
 44
4.0
300

342
29
174
1
175
1
176
0
178
1
 93
-1056964608
 45
4.0
292
0
297
0
 46
4.0
 94
-1056964608
 47
1.0
 49
1.0
140
1.0
294
1
141
0.0
177
0
142
1.0
295
0
296
0
143
3.75
271
0
272
9
273
9
  0
DICTIONARY
  5
2D
330
A
100
AcDbDictionary
280
1
281
1
  3
CREATED_BY_EZDXF
350
2E
  3
WRITTEN_BY_EZDXF
350
2F3
  0
DICTIONARYVAR
  5
2E
330
2D
100
DictionaryVariables
280
0
  1
1.4.4 @ 2026-07-22T21:10:47.205191+00:00
  0
VISUALSTYLE
  5
5A
102
{ACAD_REACTORS
330
16
102
}
330
16
100
AcDbVisualStyle
  2
2dWireframe
 70
4
 90
0
 40
0.6
 62
7
290
0
291
0
  0
VISUALSTYLE
  5
5B
102
{ACAD_REACTORS
330
16
102
}
330
16
100
AcDbVisualStyle
  2
Basic
 70
7
 90
1
 40
0.6
 62
7
290
0
291
1
  0
VISUALSTYLE
  5
5C
102
{ACAD_REACTORS
330
16
102
}
330
16
100
AcDbVisualStyle
  2
Brighten
 70
12
 90
2
 40
0.6
 62
7
290
0
291
1
  0
VISUALSTYLE
  5
5D
102
{ACAD_REACTORS
330
16
102
}
330
16
100
AcDbVisualStyle
  2
ColorChange
 70
16
 90
2
 40
0.6
 62
8
290
0
291
1
  0
VISUALSTYLE
  5
5E
102
{ACAD_REACTORS
330
16
102
}
330
16
100
AcDbVisualStyle
  2
Conceptual
 70
9
 90
3
 40
0.6
 62
7
290
0
291
0
  0
VISUALSTYLE
  5
5F
102
{ACAD_REACTORS
330
16
102
}
330
16
100
AcDbVisualStyle
  2
Dim
 70
11
 90
2
 40
0.6
 62
7
290
0
291
1
  0
VISUALSTYLE
  5
60
102
{ACAD_REACTORS
330
16
102
}
330
16
100
AcDbVisualStyle
  2
EdgeColorOff
 70
22
 90
2
 40
0.6
 62
7
290
0
291
1
  0
VISUALSTYLE
  5
61
102
{ACAD_REACTORS
330
16
102
}
330
16
100
AcDbVisualStyle
  2
Facepattern
 70
15
 90
2
 40
0.6
 62
7
290
0
291
1
  0
VISUALSTYLE
  5
62
102
{ACAD_REACTORS
330
16
102
}
330
16
100
AcDbVisualStyle
  2
Flat
 70
0
 90
2
 40
0.6
 62
7
290
0
291
1
  0
VISUALSTYLE
  5
63
102
{ACAD_REACTORS
330
16
102
}
330
16
100
AcDbVisualStyle
  2
FlatWithEdges
 70
1
 90
2
 40
0.6
 62
7
290
0
291
1
  0
VISUALSTYLE
  5
64
102
{ACAD_REACTORS
330
16
102
}
330
16
100
AcDbVisualStyle
  2
Gouraud
 70
2
 90
2
 40
0.6
 62
7
290
0
291
1
  0
VISUALSTYLE
  5
65
102
{ACAD_REACTORS
330
16
102
}
330
16
100
AcDbVisualStyle
  2
GouraudWithEdges
 70
3
 90
2
 40
0.6
 62
7
290
0
291
1
  0
VISUALSTYLE
  5
66
102
{ACAD_REACTORS
330
16
102
}
330
16
100
AcDbVisualStyle
  2
Hidden
 70
6
 90
1
 40
0.6
 62
7
290
0
291
0
  0
VISUALSTYLE
  5
67
102
{ACAD_REACTORS
330
16
102
}
330
16
100
AcDbVisualStyle
  2
JitterOff
 70
20
 90
2
 40
0.6
 62
7
290
0
291
1
  0
VISUALSTYLE
  5
68
102
{ACAD_REACTORS
330
16
102
}
330
16
100
AcDbVisualStyle
  2
Linepattern
 70
14
 90
2
 40
0.6
 62
7
290
0
291
1
  0
VISUALSTYLE
  5
69
102
{ACAD_REACTORS
330
16
102
}
330
16
100
AcDbVisualStyle
  2
Modeling
 70
10
 90
2
 40
0.6
 62
7
290
0
291
0
  0
VISUALSTYLE
  5
6A
102
{ACAD_REACTORS
330
16
102
}
330
16
100
AcDbVisualStyle
  2
OverhangOff
 70
21
 90
2
 40
0.6
 62
7
290
0
291
1
  0
VISUALSTYLE
  5
6B
102
{ACAD_REACTORS
330
16
102
}
330
16
100
AcDbVisualStyle
  2
Realistic
 70
8
 90
2
 40
0.6
 62
7
290
0
291
0
  0
VISUALSTYLE
  5
6C
102
{ACAD_REACTORS
330
16
102
}
330
16
100
AcDbVisualStyle
  2
Shaded
 70
27
 90
2
 40
0.6
 62
7
290
0
291
0
  0
VISUALSTYLE
  5
6D
102
{ACAD_REACTORS
330
16
102
}
330
16
100
AcDbVisualStyle
  2
Shaded with edges
 70
26
 90
2
 40
0.6
 62
7
290
0
291
0
  0
VISUALSTYLE
  5
6E
102
{ACAD_REACTORS
330
16
102
}
330
16
100
AcDbVisualStyle
  2
Shades of Gray
 70
23
 90
2
 40
0.6
 62
7
290
0
291
0
  0
VISUALSTYLE
  5
6F
102
{ACAD_REACTORS
330
16
102
}
330
16
100
AcDbVisualStyle
  2
Sketchy
 70
24
 90
1
 40
0.6
 62
7
290
0
291
0
  0
VISUALSTYLE
  5
70
102
{ACAD_REACTORS
330
16
102
}
330
16
100
AcDbVisualStyle
  2
Thicken
 70
13
 90
2
 40
0.6
 62
7
290
0
291
1
  0
VISUALSTYLE
  5
71
102
{ACAD_REACTORS
330
16
102
}
330
16
100
AcDbVisualStyle
  2
Wireframe
 70
5
 90
0
 40
0.6
 62
7
290
0
291
0
  0
VISUALSTYLE
  5
72
102
{ACAD_REACTORS
330
16
102
}
330
16
100
AcDbVisualStyle
  2
X-Ray
 70
25
 90
2
 40
0.5
 62
7
290
0
291
0
  0
DICTIONARYVAR
  5
2F3
330
2D
100
DictionaryVariables
280
0
  1
1.4.4 @ 2026-07-22T21:10:47.391200+00:00
  0
ENDSEC
  0
EOF
