  0
SECTION
  2
HEADER
  9
$ACADVER
  1
AC1024
  9
$ACADMAINTVER
 70
6
  9
$DWGCODEPAGE
  3
ANSI_1252
  9
$LASTSAVEDBY
  1
ezdxf
  9
$INSBASE
 10
0.0
 20
0.0
 30
0.0
  9
$EXTMIN
 10
1e+20
 20
1e+20
 30
1e+20
  9
$EXTMAX
 10
-1e+20
 20
-1e+20
 30
-1e+20
  9
$LIMMIN
 10
0.0
 20
0.0
  9
$LIMMAX
 10
420.0
 20
297.0
  9
$ORTHOMODE
 70
0
  9
$REGENMODE
 70
1
  9
$FILLMODE
 70
1
  9
$QTEXTMODE
 70
0
  9
$MIRRTEXT
 70
1
  9
$LTSCALE
 40
1.0
  9
$ATTMODE
 70
1
  9
$TEXTSIZE
 40
2.5
  9
$TRACEWID
 40
1.0
  9
$TEXTSTYLE
  7
OpenSans
  9
$CLAYER
  8
0
  9
$CELTYPE
  6
ByLayer
  9
$CECOLOR
 62
256
  9
$CELTSCALE
 40
1.0
  9
$DISPSILH
 70
0
  9
$DIMSCALE
 40
1.0
  9
$DIMASZ
 40
0.175
  9
$DIMEXO
 40
0.125
  9
$DIMDLI
 40
3.75
  9
$DIMRND
 40
0.0
  9
$DIMDLE
 40
0.0
  9
$DIMEXE
 40
0.375
  9
$DIMTP
 40
0.0
  9
$DIMTM
 40
0.0
  9
$DIMTXT
 40
0.25
  9
$DIMCEN
 40
2.5
  9
$DIMTSZ
 40
0.0
  9
$DIMTOL
 70
0
  9
$DIMLIM
 70
0
  9
$DIMTIH
 70
0
  9
$DIMTOH
 70
0
  9
$DIMSE1
 70
0
  9
$DIMSE2
 70
0
  9
$DIMTAD
 70
1
  9
$DIMZIN
 70
12
  9
$DIMBLK
  1
ARCHTICK
  9
$DIMASO
 70
1
  9
$DIMSHO
 70
1
  9
$DIMPOST
  1

  9
$DIMAPOST
  1

  9
$DIMALT
 70
0
  9
$DIMALTD
 70
3
  9
$DIMALTF
 40
0.03937007874
  9
$DIMLFAC
 40
100.0
  9
$DIMTOFL
 70
1
  9
$DIMTVP
 40
0.0
  9
$DIMTIX
 70
0
  9
$DIMSOXD
 70
0
  9
$DIMSAH
 70
0
  9
$DIMBLK1
  1

  9
$DIMBLK2
  1

  9
$DIMSTYLE
  2
EZDXF
  9
$DIMCLRD
 70
0
  9
$DIMCLRE
 70
0
  9
$DIMCLRT
 70
0
  9
$DIMTFAC
 40
0.5
  9
$DIMGAP
 40
0.1
  9
$DIMJUST
 70
0
  9
$DIMSD1
 70
0
  9
$DIMSD2
 70
0
  9
$DIMTOLJ
 70
0
  9
$DIMTZIN
 70
8
  9
$DIMALTZ
 70
0
  9
$DIMALTTZ
 70
0
  9
$DIMUPT
 70
1
  9
$DIMDEC
 70
2
  9
$DIMTDEC
 70
2
  9
$DIMALTU
 70
2
  9
$DIMALTTD
 70
3
  9
$DIMTXSTY
  7
OpenSansCondensed-Light
  9
$DIMAUNIT
 70
0
  9
$DIMADEC
 70
2
  9
$DIMALTRND
 40
0.0
  9
$DIMAZIN
 70
3
  9
$DIMDSEP
 70
46
  9
$DIMATFIT
 70
3
  9
$DIMFRAC
 70
0
  9
$DIMLDRBLK
  1

  9
$DIMLUNIT
 70
2
  9
$DIMLWD
 70
-2
  9
$DIMLWE
 70
-2
  9
$DIMTMOVE
 70
2
  9
$DIMFXL
 40
1.0
  9
$DIMFXLON
 70
0
  9
$DIMJOGANG
 40
0.785398163397
  9
$DIMTFILL
 70
0
  9
$DIMTFILLCLR
 70
0
  9
$DIMARCSYM
 70
0
  9
$DIMLTYPE
  6

  9
$DIMLTEX1
  6

  9
$DIMLTEX2
  6

  9
$DIMTXTDIRECTION
 70
0
  9
$LUNITS
 70
2
  9
$LUPREC
 70
4
  9
$SKETCHINC
 40
1.0
  9
$FILLETRAD
 40
10.0
  9
$AUNITS
 70
0
  9
$AUPREC
 70
2
  9
$MENU
  1
.
  9
$ELEVATION
 40
0.0
  9
$PELEVATION
 40
0.0
  9
$THICKNESS
 40
0.0
  9
$LIMCHECK
 70
0
  9
$CHAMFERA
 40
0.0
  9
$CHAMFERB
 40
0.0
  9
$CHAMFERC
 40
0.0
  9
$CHAMFERD
 40
0.0
  9
$SKPOLY
 70
0
  9
$TDCREATE
 40
2461241.751087963
  9
$TDUCREATE
 40
2458532.153996898
  9
$TDUPDATE
 40
2461241.751087963
  9
$TDUUPDATE
 40
2458532.1544311
  9
$TDINDWG
 40
0.0
  9
$TDUSRTIMER
 40
0.0
  9
$USRTIMER
 70
1
  9
$ANGBASE
 50
0.0
  9
$ANGDIR
 70
0
  9
$PDMODE
 70
0
  9
$PDSIZE
 40
0.0
  9
$PLINEWID
 40
0.0
  9
$SPLFRAME
 70
0
  9
$SPLINETYPE
 70
6
  9
$SPLINESEGS
 70
8
  9
$HANDSEED
  5
4E9
  9
$SURFTAB1
 70
6
  9
$SURFTAB2
 70
6
  9
$SURFTYPE
 70
6
  9
$SURFU
 70
6
  9
$SURFV
 70
6
  9
$UCSBASE
  2

  9
$UCSNAME
  2

  9
$UCSORG
 10
0.0
 20
0.0
 30
0.0
  9
$UCSXDIR
 10
1.0
 20
0.0
 30
0.0
  9
$UCSYDIR
 10
0.0
 20
1.0
 30
0.0
  9
$UCSORTHOREF
  2

  9
$UCSORTHOVIEW
 70
0
  9
$UCSORGTOP
 10
0.0
 20
0.0
 30
0.0
  9
$UCSORGBOTTOM
 10
0.0
 20
0.0
 30
0.0
  9
$UCSORGLEFT
 10
0.0
 20
0.0
 30
0.0
  9
$UCSORGRIGHT
 10
0.0
 20
0.0
 30
0.0
  9
$UCSORGFRONT
 10
0.0
 20
0.0
 30
0.0
  9
$UCSORGBACK
 10
0.0
 20
0.0
 30
0.0
  9
$PUCSBASE
  2

  9
$PUCSNAME
  2

  9
$PUCSORG
 10
0.0
 20
0.0
 30
0.0
  9
$PUCSXDIR
 10
1.0
 20
0.0
 30
0.0
  9
$PUCSYDIR
 10
0.0
 20
1.0
 30
0.0
  9
$PUCSORTHOREF
  2

  9
$PUCSORTHOVIEW
 70
0
  9
$PUCSORGTOP
 10
0.0
 20
0.0
 30
0.0
  9
$PUCSORGBOTTOM
 10
0.0
 20
0.0
 30
0.0
  9
$PUCSORGLEFT
 10
0.0
 20
0.0
 30
0.0
  9
$PUCSORGRIGHT
 10
0.0
 20
0.0
 30
0.0
  9
$PUCSORGFRONT
 10
0.0
 20
0.0
 30
0.0
  9
$PUCSORGBACK
 10
0.0
 20
0.0
 30
0.0
  9
$USERI1
 70
0
  9
$USERI2
 70
0
  9
$USERI3
 70
0
  9
$USERI4
 70
0
  9
$USERI5
 70
0
  9
$USERR1
 40
0.0
  9
$USERR2
 40
0.0
  9
$USERR3
 40
0.0
  9
$USERR4
 40
0.0
  9
$USERR5
 40
0.0
  9
$WORLDVIEW
 70
1
  9
$SHADEDGE
 70
3
  9
$SHADEDIF
 70
70
  9
$TILEMODE
 70
1
  9
$MAXACTVP
 70
64
  9
$PINSBASE
 10
0.0
 20
0.0
 30
0.0
  9
$PLIMCHECK
 70
0
  9
$PEXTMIN
 10
1e+20
 20
1e+20
 30
1e+20
  9
$PEXTMAX
 10
-1e+20
 20
-1e+20
 30
-1e+20
  9
$PLIMMIN
 10
0.0
 20
0.0
  9
$PLIMMAX
 10
420.0
 20
297.0
  9
$UNITMODE
 70
0
  9
$VISRETAIN
 70
1
  9
$PLINEGEN
 70
0
  9
$PSLTSCALE
 70
1
  9
$TREEDEPTH
 70
3020
  9
$CMLSTYLE
  2
Standard
  9
$CMLJUST
 70
0
  9
$CMLSCALE
 40
20.0
  9
$PROXYGRAPHICS
 70
1
  9
$MEASUREMENT
 70
1
  9
$CELWEIGHT
370
-1
  9
$ENDCAPS
280
0
  9
$JOINSTYLE
280
0
  9
$LWDISPLAY
290
0
  9
$INSUNITS
 70
6
  9
$HYPERLINKBASE
  1

  9
$STYLESHEET
  1

  9
$XEDIT
290
1
  9
$CEPSNTYPE
380
0
  9
$PSTYLEMODE
290
1
  9
$FINGERPRINTGUID
  2
{6B3C3AA3-0489-4256-B33E-EE3DA892D58F}
  9
$VERSIONGUID
  2
{831C3AE5-7AE2-4292-B43B-CAA8F573BC60}
  9
$EXTNAMES
290
1
  9
$PSVPSCALE
 40
0.0
  9
$OLESTARTUP
290
0
  9
$SORTENTS
280
127
  9
$INDEXCTL
280
0
  9
$HIDETEXT
280
1
  9
$XCLIPFRAME
280
1
  9
$HALOGAP
280
0
  9
$OBSCOLOR
 70
257
  9
$OBSLTYPE
280
0
  9
$INTERSECTIONDISPLAY
280
0
  9
$INTERSECTIONCOLOR
 70
257
  9
$DIMASSOC
280
2
  9
$PROJECTNAME
  1

  9
$CAMERADISPLAY
290
0
  9
$LENSLENGTH
 40
50.0
  9
$CAMERAHEIGHT
 40
0.0
  9
$STEPSPERSEC
 40
24.0
  9
$STEPSIZE
 40
100.0
  9
$3DDWFPREC
 40
2.0
  9
$PSOLWIDTH
 40
0.005
  9
$PSOLHEIGHT
 40
0.08
  9
$LOFTANG1
 40
1.570796326795
  9
$LOFTANG2
 40
1.570796326795
  9
$LOFTMAG1
 40
0.0
  9
$LOFTMAG2
 40
0.0
  9
$LOFTPARAM
 70
7
  9
$LOFTNORMALS
280
1
  9
$LATITUDE
 40
37.795
  9
$LONGITUDE
 40
-122.394
  9
$NORTHDIRECTION
 40
0.0
  9
$TIMEZONE
 70
-8000
  9
$LIGHTGLYPHDISPLAY
280
1
  9
$TILEMODELIGHTSYNCH
280
1
  9
$CMATERIAL
347
20
  9
$SOLIDHIST
280
0
  9
$SHOWHIST
280
1
  9
$DWFFRAME
280
2
  9
$DGNFRAME
280
2
  9
$REALWORLDSCALE
290
1
  9
$INTERFERECOLOR
 62
256
  9
$CSHADOW
280
0
  9
$SHADOWPLANELOCATION
 40
0.0
  0
ENDSEC
  0
SECTION
  2
CLASSES
  0
CLASS
  1
ACDBDICTIONARYWDFLT
  2
AcDbDictionaryWithDefault
  3
ObjectDBX Classes
 90
0
 91
0
280
0
281
0
  0
CLASS
  1
SUN
  2
AcDbSun
  3
SCENEOE
 90
1153
 91
0
280
0
281
0
  0
CLASS
  1
VISUALSTYLE
  2
AcDbVisualStyle
  3
ObjectDBX Classes
 90
4095
 91
0
280
0
281
0
  0
CLASS
  1
MATERIAL
  2
AcDbMaterial
  3
ObjectDBX Classes
 90
1153
 91
0
280
0
281
0
  0
CLASS
  1
SCALE
  2
AcDbScale
  3
ObjectDBX Classes
 90
1153
 91
0
280
0
281
0
  0
CLASS
  1
TABLESTYLE
  2
AcDbTableStyle
  3
ObjectDBX Classes
 90
4095
 91
0
280
0
281
0
  0
CLASS
  1
MLEADERSTYLE
  2
AcDbMLeaderStyle
  3
ACDB_MLEADERSTYLE_CLASS
 90
4095
 91
0
280
0
281
0
  0
CLASS
  1
DICTIONARYVAR
  2
AcDbDictionaryVar
  3
ObjectDBX Classes
 90
0
 91
0
280
0
281
0
  0
CLASS
  1
CELLSTYLEMAP
  2
AcDbCellStyleMap
  3
ObjectDBX Classes
 90
1152
 91
0
280
0
281
0
  0
CLASS
  1
MENTALRAYRENDERSETTINGS
  2
AcDbMentalRayRenderSettings
  3
SCENEOE
 90
1024
 91
0
280
0
281
0
  0
CLASS
  1
ACDBDETAILVIEWSTYLE
  2
AcDbDetailViewStyle
  3
ObjectDBX Classes
 90
1025
 91
0
280
0
281
0
  0
CLASS
  1
ACDBSECTIONVIEWSTYLE
  2
AcDbSectionViewStyle
  3
ObjectDBX Classes
 90
1025
 91
0
280
0
281
0
  0
CLASS
  1
RASTERVARIABLES
  2
AcDbRasterVariables
  3
ISM
 90
0
 91
0
280
0
281
0
  0
CLASS
  1
ACDBPLACEHOLDER
  2
AcDbPlaceHolder
  3
ObjectDBX Classes
 90
0
 91
0
280
0
281
0
  0
CLASS
  1
LAYOUT
  2
AcDbLayout
  3
ObjectDBX Classes
 90
0
 91
0
280
0
281
0
  0
ENDSEC
  0
SECTION
  2
TABLES
  0
TABLE
  2
VPORT
  5
8
330
0
100
AcDbSymbolTable
 70
1
  0
VPORT
  5
23
330
8
100
AcDbSymbolTableRecord
100
AcDbViewportTableRecord
  2
*Active
 70
0
 10
0.0
 20
0.0
 11
1.0
 21
1.0
 12
0.0
 22
0.0
 13
0.0
 23
0.0
 14
0.5
 24
0.5
 15
0.5
 25
0.5
 16
0.0
 26
0.0
 36
1.0
 17
0.0
 27
0.0
 37
0.0
 40
1000.0
 41
1.34
 42
50.0
 43
0.0
 44
0.0
 50
0.0
 51
0.0
 71
0
 72
1000
 73
1
 74
3
 75
0
 76
0
 77
0
 78
0
281
0
 65
0
146
0.0
  0
ENDTAB
  0
TABLE
  2
LTYPE
  5
2
330
0
100
AcDbSymbolTable
 70
21
  0
LTYPE
  5
24
330
2
100
AcDbSymbolTableRecord
100
AcDbLinetypeTableRecord
  2
ByBlock
 70
0
  3

 72
65
 73
0
 40
0.0
  0
LTYPE
  5
25
330
2
100
AcDbSymbolTableRecord
100
AcDbLinetypeTableRecord
  2
ByLayer
 70
0
  3

 72
65
 73
0
 40
0.0
  0
LTYPE
  5
26
330
2
100
AcDbSymbolTableRecord
100
AcDbLinetypeTableRecord
  2
Continuous
 70
0
  3

 72
65
 73
0
 40
0.0
  0
LTYPE
  5
2F
330
2
100
AcDbSymbolTableRecord
100
AcDbLinetypeTableRecord
  2
CENTER
 70
0
  3
Center ____ _ ____ _ ____ _ ____ _ ____ _ ____
 72
65
 73
4
 40
5.08
 49
3.175
 74
0
 49
-0.635
 74
0
 49
0.635
 74
0
 49
-0.635
 74
0
  0
LTYPE
  5
30
330
2
100
AcDbSymbolTableRecord
100
AcDbLinetypeTableRecord
  2
CENTERX2
 70
0
  3
Center (2x) ________  __  ________  __  ________
 72
65
 73
4
 40
8.89
 49
6.35
 74
0
 49
-0.635
 74
0
 49
1.27
 74
0
 49
-0.635
 74
0
  0
LTYPE
  5
31
330
2
100
AcDbSymbolTableRecord
100
AcDbLinetypeTableRecord
  2
CENTER2
 70
0
  3
Center (.5x) ____ _ ____ _ ____ _ ____ _ ____
 72
65
 73
4
 40
2.54
 49
1.587
 74
0
 49
-0.318
 74
0
 49
0.318
 74
0
 49
-0.318
 74
0
  0
LTYPE
  5
32
330
2
100
AcDbSymbolTableRecord
100
AcDbLinetypeTableRecord
  2
DASHED
 70
0
  3
Dashed __ __ __ __ __ __ __ __ __ __ __ __ __ _
 72
65
 73
2
 40
1.524
 49
1.27
 74
0
 49
-0.254
 74
0
  0
LTYPE
  5
33
330
2
100
AcDbSymbolTableRecord
100
AcDbLinetypeTableRecord
  2
DASHEDX2
 70
0
  3
Dashed (2x) ____  ____  ____  ____  ____  ____
 72
65
 73
2
 40
3.048
 49
2.54
 74
0
 49
-0.508
 74
0
  0
LTYPE
  5
34
330
2
100
AcDbSymbolTableRecord
100
AcDbLinetypeTableRecord
  2
DASHED2
 70
0
  3
Dashed (.5x) _ _ _ _ _ _ _ _ _ _ _ _ _ _
 72
65
 73
2
 40
0.762
 49
0.635
 74
0
 49
-0.127
 74
0
  0
LTYPE
  5
35
330
2
100
AcDbSymbolTableRecord
100
AcDbLinetypeTableRecord
  2
PHANTOM
 70
0
  3
Phantom ______  __  __  ______  __  __  ______
 72
65
 73
6
 40
6.35
 49
3.175
 74
0
 49
-0.635
 74
0
 49
0.635
 74
0
 49
-0.635
 74
0
 49
0.635
 74
0
 49
-0.635
 74
0
  0
LTYPE
  5
36
330
2
100
AcDbSymbolTableRecord
100
AcDbLinetypeTableRecord
  2
PHANTOMX2
 70
0
  3
Phantom (2x)____________    ____    ____    ____________
 72
65
 73
6
 40
10.795
 49
6.35
 74
0
 49
-0.635
 74
0
 49
1.27
 74
0
 49
-0.635
 74
0
 49
1.27
 74
0
 49
-0.635
 74
0
  0
LTYPE
  5
37
330
2
100
AcDbSymbolTableRecord
100
AcDbLinetypeTableRecord
  2
PHANTOM2
 70
0
  3
Phantom (.5x) ___ _ _ ___ _ _ ___ _ _ ___ _ _ ___
 72
65
 73
6
 40
3.175
 49
1.587
 74
0
 49
-0.318
 74
0
 49
0.318
 74
0
 49
-0.318
 74
0
 49
0.318
 74
0
 49
-0.318
 74
0
  0
LTYPE
  5
38
330
2
100
AcDbSymbolTableRecord
100
AcDbLinetypeTableRecord
  2
DASHDOT
 70
0
  3
Dash dot __ . __ . __ . __ . __ . __ . __ . __
 72
65
 73
4
 40
3.556
 49
2.54
 74
0
 49
-0.508
 74
0
 49
0.0
 74
0
 49
-0.508
 74
0
  0
LTYPE
  5
39
330
2
100
AcDbSymbolTableRecord
100
AcDbLinetypeTableRecord
  2
DASHDOTX2
 70
0
  3
Dash dot (2x) ____  .  ____  .  ____  .  ____
 72
65
 73
4
 40
6.096
 49
5.08
 74
0
 49
-0.508
 74
0
 49
0.0
 74
0
 49
-0.508
 74
0
  0
LTYPE
  5
3A
330
2
100
AcDbSymbolTableRecord
100
AcDbLinetypeTableRecord
  2
DASHDOT2
 70
0
  3
Dash dot (.5x) _ . _ . _ . _ . _ . _ . _ . _
 72
65
 73
4
 40
1.778
 49
1.27
 74
0
 49
-0.254
 74
0
 49
0.0
 74
0
 49
-0.254
 74
0
  0
LTYPE
  5
3B
330
2
100
AcDbSymbolTableRecord
100
AcDbLinetypeTableRecord
  2
DOT
 70
0
  3
Dot .  .  .  .  .  .  .  .  .  .  .  .  .  .  .  .
 72
65
 73
2
 40
0.508
 49
0.0
 74
0
 49
-0.508
 74
0
  0
LTYPE
  5
3C
330
2
100
AcDbSymbolTableRecord
100
AcDbLinetypeTableRecord
  2
DOTX2
 70
0
  3
Dot (2x) .    .    .    .    .    .    .    . 
 72
65
 73
2
 40
1.016
 49
0.0
 74
0
 49
-1.016
 74
0
  0
LTYPE
  5
3D
330
2
100
AcDbSymbolTableRecord
100
AcDbLinetypeTableRecord
  2
DOT2
 70
0
  3
Dot (.5) . . . . . . . . . . . . . . . . . . . 
 72
65
 73
2
 40
0.254
 49
0.0
 74
0
 49
-0.254
 74
0
  0
LTYPE
  5
3E
330
2
100
AcDbSymbolTableRecord
100
AcDbLinetypeTableRecord
  2
DIVIDE
 70
0
  3
Divide __ . . __ . . __ . . __ . . __ . . __
 72
65
 73
6
 40
4.064
 49
2.54
 74
0
 49
-0.508
 74
0
 49
0.0
 74
0
 49
-0.508
 74
0
 49
0.0
 74
0
 49
-0.508
 74
0
  0
LTYPE
  5
3F
330
2
100
AcDbSymbolTableRecord
100
AcDbLinetypeTableRecord
  2
DIVIDEX2
 70
0
  3
Divide (2x) ____  . .  ____  . .  ____  . .  ____
 72
65
 73
6
 40
6.604
 49
5.08
 74
0
 49
-0.508
 74
0
 49
0.0
 74
0
 49
-0.508
 74
0
 49
0.0
 74
0
 49
-0.508
 74
0
  0
LTYPE
  5
40
330
2
100
AcDbSymbolTableRecord
100
AcDbLinetypeTableRecord
  2
DIVIDE2
 70
0
  3
Divide(.5x) _ . _ . _ . _ . _ . _ . _ . _
 72
65
 73
6
 40
2.032
 49
1.27
 74
0
 49
-0.254
 74
0
 49
0.0
 74
0
 49
-0.254
 74
0
 49
0.0
 74
0
 49
-0.254
 74
0
  0
ENDTAB
  0
TABLE
  2
LAYER
  5
1
330
0
100
AcDbSymbolTable
 70
4
  0
LAYER
  5
27
330
1
100
AcDbSymbolTableRecord
100
AcDbLayerTableRecord
  2
0
 70
0
 62
7
  6
Continuous
370
-3
390
13
347
21
  0
LAYER
  5
28
330
1
100
AcDbSymbolTableRecord
100
AcDbLayerTableRecord
  2
Defpoints
 70
0
 62
7
  6
Continuous
290
0
370
-3
390
13
347
21
  0
LAYER
  5
4E4
330
1
100
AcDbSymbolTableRecord
100
AcDbLayerTableRecord
  2
36-RH-SAN-COLECTOR-PROY
 70
0
 62
6
  6
DASHED
370
35
390
13
347
21
  0
LAYER
  5
4E5
330
1
100
AcDbSymbolTableRecord
100
AcDbLayerTableRecord
  2
36-RH-SAN-POZOS
 70
0
 62
216
  6
CONTINUOUS
370
13
390
13
347
21
  0
ENDTAB
  0
TABLE
  2
STYLE
  5
5
330
0
100
AcDbSymbolTable
 70
26
  0
STYLE
  5
29
330
5
100
AcDbSymbolTableRecord
100
AcDbTextStyleTableRecord
  2
Standard
 70
0
 40
0.0
 41
1.0
 50
0.0
 71
0
 42
2.5
  3
txt
  4

  0
STYLE
  5
41
330
5
100
AcDbSymbolTableRecord
100
AcDbTextStyleTableRecord
  2
OpenSans-Light
 70
0
 40
0.0
 41
1.0
 50
0.0
 71
0
 42
2.5
  3
OpenSans-Light.ttf
  4

  0
STYLE
  5
42
330
5
100
AcDbSymbolTableRecord
100
AcDbTextStyleTableRecord
  2
OpenSans-Light-Italic
 70
0
 40
0.0
 41
1.0
 50
0.0
 71
0
 42
2.5
  3
OpenSans-LightItalic.ttf
  4

  0
STYLE
  5
43
330
5
100
AcDbSymbolTableRecord
100
AcDbTextStyleTableRecord
  2
OpenSans
 70
0
 40
0.0
 41
1.0
 50
0.0
 71
0
 42
2.5
  3
OpenSans-Regular.ttf
  4

  0
STYLE
  5
44
330
5
100
AcDbSymbolTableRecord
100
AcDbTextStyleTableRecord
  2
OpenSans-Italic
 70
0
 40
0.0
 41
1.0
 50
0.0
 71
0
 42
2.5
  3
OpenSans-Italic.ttf
  4

  0
STYLE
  5
45
330
5
100
AcDbSymbolTableRecord
100
AcDbTextStyleTableRecord
  2
OpenSans-SemiBold
 70
0
 40
0.0
 41
1.0
 50
0.0
 71
0
 42
2.5
  3
OpenSans-SemiBold.ttf
  4

  0
STYLE
  5
46
330
5
100
AcDbSymbolTableRecord
100
AcDbTextStyleTableRecord
  2
OpenSans-SemiBoldItalic
 70
0
 40
0.0
 41
1.0
 50
0.0
 71
0
 42
2.5
  3
OpenSans-SemiBoldItalic.ttf
  4

  0
STYLE
  5
47
330
5
100
AcDbSymbolTableRecord
100
AcDbTextStyleTableRecord
  2
OpenSans-Bold
 70
0
 40
0.0
 41
1.0
 50
0.0
 71
0
 42
2.5
  3
OpenSans-Bold.ttf
  4

  0
STYLE
  5
48
330
5
100
AcDbSymbolTableRecord
100
AcDbTextStyleTableRecord
  2
OpenSans-BoldItalic
 70
0
 40
0.0
 41
1.0
 50
0.0
 71
0
 42
2.5
  3
OpenSans-BoldItalic.ttf
  4

  0
STYLE
  5
49
330
5
100
AcDbSymbolTableRecord
100
AcDbTextStyleTableRecord
  2
OpenSans-ExtraBold
 70
0
 40
0.0
 41
1.0
 50
0.0
 71
0
 42
2.5
  3
OpenSans-ExtraBold.ttf
  4

  0
STYLE
  5
4A
330
5
100
AcDbSymbolTableRecord
100
AcDbTextStyleTableRecord
  2
OpenSans-ExtraBoldItalic
 70
0
 40
0.0
 41
1.0
 50
0.0
 71
0
 42
2.5
  3
OpenSans-ExtraBoldItalic.ttf
  4

  0
STYLE
  5
4B
330
5
100
AcDbSymbolTableRecord
100
AcDbTextStyleTableRecord
  2
OpenSansCondensed-Bold
 70
0
 40
0.0
 41
1.0
 50
0.0
 71
0
 42
2.5
  3
OpenSansCondensed-Bold.ttf
  4

  0
STYLE
  5
4C
330
5
100
AcDbSymbolTableRecord
100
AcDbTextStyleTableRecord
  2
OpenSansCondensed-Light
 70
0
 40
0.0
 41
1.0
 50
0.0
 71
0
 42
2.5
  3
OpenSansCondensed-Light.ttf
  4

  0
STYLE
  5
4D
330
5
100
AcDbSymbolTableRecord
100
AcDbTextStyleTableRecord
  2
OpenSansCondensed-Italic
 70
0
 40
0.0
 41
1.0
 50
0.0
 71
0
 42
2.5
  3
OpenSansCondensed-LightItalic.ttf
  4

  0
STYLE
  5
4E
330
5
100
AcDbSymbolTableRecord
100
AcDbTextStyleTableRecord
  2
LiberationSans
 70
0
 40
0.0
 41
1.0
 50
0.0
 71
0
 42
2.5
  3
LiberationSans-Regular.ttf
  4

  0
STYLE
  5
4F
330
5
100
AcDbSymbolTableRecord
100
AcDbTextStyleTableRecord
  2
LiberationSans-Bold
 70
0
 40
0.0
 41
1.0
 50
0.0
 71
0
 42
2.5
  3
LiberationSans-Bold.ttf
  4

  0
STYLE
  5
50
330
5
100
AcDbSymbolTableRecord
100
AcDbTextStyleTableRecord
  2
LiberationSans-BoldItalic
 70
0
 40
0.0
 41
1.0
 50
0.0
 71
0
 42
2.5
  3
LiberationSans-BoldItalic.ttf
  4

  0
STYLE
  5
51
330
5
100
AcDbSymbolTableRecord
100
AcDbTextStyleTableRecord
  2
LiberationSans-Italic
 70
0
 40
0.0
 41
1.0
 50
0.0
 71
0
 42
2.5
  3
LiberationSans-Italic.ttf
  4

  0
STYLE
  5
52
330
5
100
AcDbSymbolTableRecord
100
AcDbTextStyleTableRecord
  2
LiberationSerif
 70
0
 40
0.0
 41
1.0
 50
0.0
 71
0
 42
2.5
  3
LiberationSerif-Regular.ttf
  4

  0
STYLE
  5
53
330
5
100
AcDbSymbolTableRecord
100
AcDbTextStyleTableRecord
  2
LiberationSerif-Bold
 70
0
 40
0.0
 41
1.0
 50
0.0
 71
0
 42
2.5
  3
LiberationSerif-Bold.ttf
  4

  0
STYLE
  5
54
330
5
100
AcDbSymbolTableRecord
100
AcDbTextStyleTableRecord
  2
LiberationSerif-BoldItalic
 70
0
 40
0.0
 41
1.0
 50
0.0
 71
0
 42
2.5
  3
LiberationSerif-BoldItalic.ttf
  4

  0
STYLE
  5
55
330
5
100
AcDbSymbolTableRecord
100
AcDbTextStyleTableRecord
  2
LiberationSerif-Italic
 70
0
 40
0.0
 41
1.0
 50
0.0
 71
0
 42
2.5
  3
LiberationSerif-Italic.ttf
  4

  0
STYLE
  5
56
330
5
100
AcDbSymbolTableRecord
100
AcDbTextStyleTableRecord
  2
LiberationMono
 70
0
 40
0.0
 41
1.0
 50
0.0
 71
0
 42
2.5
  3
LiberationMono-Regular.ttf
  4

  0
STYLE
  5
57
330
5
100
AcDbSymbolTableRecord
100
AcDbTextStyleTableRecord
  2
LiberationMono-Bold
 70
0
 40
0.0
 41
1.0
 50
0.0
 71
0
 42
2.5
  3
LiberationMono-Bold.ttf
  4

  0
STYLE
  5
58
330
5
100
AcDbSymbolTableRecord
100
AcDbTextStyleTableRecord
  2
LiberationMono-BoldItalic
 70
0
 40
0.0
 41
1.0
 50
0.0
 71
0
 42
2.5
  3
LiberationMono-BoldItalic.ttf
  4

  0
STYLE
  5
59
330
5
100
AcDbSymbolTableRecord
100
AcDbTextStyleTableRecord
  2
LiberationMono-Italic
 70
0
 40
0.0
 41
1.0
 50
0.0
 71
0
 42
2.5
  3
LiberationMono-Italic.ttf
  4

  0
ENDTAB
  0
TABLE
  2
VIEW
  5
7
330
0
100
AcDbSymbolTable
 70
0
  0
ENDTAB
  0
TABLE
  2
UCS
  5
6
330
0
100
AcDbSymbolTable
 70
0
  0
ENDTAB
  0
TABLE
  2
APPID
  5
3
330
0
100
AcDbSymbolTable
 70
3
  0
APPID
  5
2A
330
3
100
AcDbSymbolTableRecord
100
AcDbRegAppTableRecord
  2
ACAD
 70
0
  0
APPID
  5
4E6
330
3
100
AcDbSymbolTableRecord
100
AcDbRegAppTableRecord
  2
HATCHBACKGROUNDCOLOR
 70
0
  0
APPID
  5
4E7
330
3
100
AcDbSymbolTableRecord
100
AcDbRegAppTableRecord
  2
EZDXF
 70
0
  0
ENDTAB
  0
TABLE
  2
DIMSTYLE
  5
4
330
0
100
AcDbSymbolTable
 70
12
100
AcDbDimStyleTable
  0
DIMSTYLE
105
2B
330
4
100
AcDbSymbolTableRecord
100
AcDbDimStyleTableRecord
  2
Standard
 70
0
 40
1.0
 41
2.5
 42
0.625
 43
3.75
 44
1.25
 45
0.0
 46
0.0
 47
0.0
 48
0.0
 49
2.5
140
2.5
141
2.5
142
0.0
143
0.03937007874
144
1.0
145
0.0
146
1.0
147
0.625
148
0.0
 69
0
 70
0
 71
0
 72
0
 73
0
 74
0
 75
0
 76
0
 77
1
 78
8
 79
3
170
0
171
3
172
1
173
0
174
0
175
0
176
0
177
0
178
0
179
2
271
2
272
2
273
2
274
3
275
0
276
0
277
2
278
44
279
0
280
0
281
0
282
0
283
0
284
8
285
0
286
0
288
0
289
3
290
0
371
-2
372
-2
  0
DIMSTYLE
105
73
330
4
100
AcDbSymbolTableRecord
100
AcDbDimStyleTableRecord
  2
EZDXF
 70
0
 40
1.0
 41
0.175
 42
0.125
 43
3.75
 44
0.375
 45
0.0
 46
0.0
 47
0.0
 48
0.0
 49
2.5
140
0.25
141
2.5
142
0.0
143
0.03937007874
144
100.0
145
0.0
146
0.5
147
0.1
148
0.0
 69
0
 70
0
 71
0
 72
0
 73
0
 74
0
 75
0
 76
0
 77
1
 78
12
 79
3
170
0
171
3
172
1
173
0
174
0
175
0
176
0
177
0
178
0
179
2
271
2
272
2
273
2
274
3
275
0
276
0
277
2
278
46
279
2
280
0
281
0
282
0
283
0
284
8
285
0
286
0
288
1
289
3
290
0
340
4C
342
74
371
-2
372
-2
  0
DIMSTYLE
105
7C
330
4
100
AcDbSymbolTableRecord
100
AcDbDimStyleTableRecord
  2
EZ_M_100_H25_CM
 70
0
 40
1.0
 41
0.25
 42
0.125
 43
3.75
 44
0.375
 45
0.0
 46
0.0
 47
0.0
 48
0.0
 49
2.5
140
0.25
141
2.5
142
0.125
143
0.03937007874
144
100.0
145
0.0
146
0.5
147
0.1
148
0.0
 69
0
 70
0
 71
0
 72
0
 73
0
 74
0
 75
0
 76
0
 77
1
 78
12
 79
3
170
0
171
3
172
1
173
0
174
0
175
0
176
0
177
0
178
0
179
2
271
2
272
2
273
2
274
3
275
0
276
0
277
2
278
46
279
2
280
0
281
0
282
0
283
0
284
8
285
0
286
0
288
1
289
3
290
0
340
4C
371
-2
372
-2
  0
DIMSTYLE
105
7D
330
4
100
AcDbSymbolTableRecord
100
AcDbDimStyleTableRecord
  2
EZ_M_50_H25_CM
 70
0
 40
1.0
 41
0.125
 42
0.0625
 43
3.75
 44
0.1875
 45
0.0
 46
0.0
 47
0.0
 48
0.0
 49
2.5
140
0.125
141
2.5
142
0.0625
143
0.03937007874
144
100.0
145
0.0
146
0.5
147
0.05
148
0.0
 69
0
 70
0
 71
0
 72
0
 73
0
 74
0
 75
0
 76
0
 77
1
 78
12
 79
3
170
0
171
3
172
1
173
0
174
0
175
0
176
0
177
0
178
0
179
2
271
2
272
2
273
2
274
3
275
0
276
0
277
2
278
46
279
2
280
0
281
0
282
0
283
0
284
8
285
0
286
0
288
1
289
3
290
0
340
4C
371
-2
372
-2
  0
DIMSTYLE
105
7E
330
4
100
AcDbSymbolTableRecord
100
AcDbDimStyleTableRecord
  2
EZ_M_25_H25_CM
 70
0
 40
1.0
 41
0.0625
 42
0.03125
 43
3.75
 44
0.09375
 45
0.0
 46
0.0
 47
0.0
 48
0.0
 49
2.5
140
0.0625
141
2.5
142
0.03125
143
0.03937007874
144
100.0
145
0.0
146
0.5
147
0.025
148
0.0
 69
0
 70
0
 71
0
 72
0
 73
0
 74
0
 75
0
 76
0
 77
1
 78
12
 79
3
170
0
171
3
172
1
173
0
174
0
175
0
176
0
177
0
178
0
179
2
271
2
272
2
273
2
274
3
275
0
276
0
277
2
278
46
279
2
280
0
281
0
282
0
283
0
284
8
285
0
286
0
288
1
289
3
290
0
340
4C
371
-2
372
-2
  0
DIMSTYLE
105
7F
330
4
100
AcDbSymbolTableRecord
100
AcDbDimStyleTableRecord
  2
EZ_M_20_H25_CM
 70
0
 40
1.0
 41
0.05
 42
0.025
 43
3.75
 44
0.07500000000000001
 45
0.0
 46
0.0
 47
0.0
 48
0.0
 49
2.5
140
0.05
141
2.5
142
0.025
143
0.03937007874
144
100.0
145
0.0
146
0.5
147
0.020000000000000004
148
0.0
 69
0
 70
0
 71
0
 72
0
 73
0
 74
0
 75
0
 76
0
 77
1
 78
12
 79
3
170
0
171
3
172
1
173
0
174
0
175
0
176
0
177
0
178
0
179
2
271
2
272
2
273
2
274
3
275
0
276
0
277
2
278
46
279
2
280
0
281
0
282
0
283
0
284
8
285
0
286
0
288
1
289
3
290
0
340
4C
371
-2
372
-2
  0
DIMSTYLE
105
80
330
4
100
AcDbSymbolTableRecord
100
AcDbDimStyleTableRecord
  2
EZ_M_10_H25_CM
 70
0
 40
1.0
 41
0.025
 42
0.0125
 43
3.75
 44
0.037500000000000006
 45
0.0
 46
0.0
 47
0.0
 48
0.0
 49
2.5
140
0.025
141
2.5
142
0.0125
143
0.03937007874
144
100.0
145
0.0
146
0.5
147
0.010000000000000002
148
0.0
 69
0
 70
0
 71
0
 72
0
 73
0
 74
0
 75
0
 76
0
 77
1
 78
12
 79
3
170
0
171
3
172
1
173
0
174
0
175
0
176
0
177
0
178
0
179
2
271
2
272
2
273
2
274
3
275
0
276
0
277
2
278
46
279
2
280
0
281
0
282
0
283
0
284
8
285
0
286
0
288
1
289
3
290
0
340
4C
371
-2
372
-2
  0
DIMSTYLE
105
81
330
4
100
AcDbSymbolTableRecord
100
AcDbDimStyleTableRecord
  2
EZ_M_5_H25_CM
 70
0
 40
1.0
 41
0.0125
 42
0.00625
 43
3.75
 44
0.018750000000000003
 45
0.0
 46
0.0
 47
0.0
 48
0.0
 49
2.5
140
0.0125
141
2.5
142
0.00625
143
0.03937007874
144
100.0
145
0.0
146
0.5
147
0.005000000000000001
148
0.0
 69
0
 70
0
 71
0
 72
0
 73
0
 74
0
 75
0
 76
0
 77
1
 78
12
 79
3
170
0
171
3
172
1
173
0
174
0
175
0
176
0
177
0
178
0
179
2
271
2
272
2
273
2
274
3
275
0
276
0
277
2
278
46
279
2
280
0
281
0
282
0
283
0
284
8
285
0
286
0
288
1
289
3
290
0
340
4C
371
-2
372
-2
  0
DIMSTYLE
105
82
330
4
100
AcDbSymbolTableRecord
100
AcDbDimStyleTableRecord
  2
EZ_M_1_H25_CM
 70
0
 40
1.0
 41
0.0025
 42
0.00125
 43
3.75
 44
0.00375
 45
0.0
 46
0.0
 47
0.0
 48
0.0
 49
2.5
140
0.0025
141
2.5
142
0.00125
143
0.03937007874
144
100.0
145
0.0
146
0.5
147
0.001
148
0.0
 69
0
 70
0
 71
0
 72
0
 73
0
 74
0
 75
0
 76
0
 77
1
 78
12
 79
3
170
0
171
3
172
1
173
0
174
0
175
0
176
0
177
0
178
0
179
2
271
2
272
2
273
2
274
3
275
0
276
0
277
2
278
46
279
2
280
0
281
0
282
0
283
0
284
8
285
0
286
0
288
1
289
3
290
0
340
4C
371
-2
372
-2
  0
DIMSTYLE
105
83
330
4
100
AcDbSymbolTableRecord
100
AcDbDimStyleTableRecord
  2
EZ_RADIUS
 70
0
 40
1.0
 41
0.25
 42
0.125
 43
3.75
 44
0.375
 45
0.0
 46
0.0
 47
0.0
 48
0.0
 49
2.5
140
0.25
141
0.0
142
0.0
143
0.03937007874
144
100.0
145
0.0
146
0.5
147
0.1
148
0.0
 69
0
 70
0
 71
0
 72
0
 73
0
 74
0
 75
0
 76
0
 77
1
 78
12
 79
3
170
0
171
3
172
0
173
0
174
0
175
0
176
0
177
0
178
0
179
2
271
2
272
2
273
2
274
3
275
0
276
0
277
2
278
46
279
1
280
0
281
0
282
0
283
0
284
8
285
0
286
0
288
1
289
3
290
0
340
4C
342
84
371
-2
372
-2
  0
DIMSTYLE
105
88
330
4
100
AcDbSymbolTableRecord
100
AcDbDimStyleTableRecord
  2
EZ_RADIUS_INSIDE
 70
0
 40
1.0
 41
0.25
 42
0.125
 43
3.75
 44
0.375
 45
0.0
 46
0.0
 47
0.0
 48
0.0
 49
2.5
140
0.25
141
0.0
142
0.0
143
0.03937007874
144
100.0
145
0.0
146
0.5
147
0.1
148
0.0
 69
0
 70
0
 71
0
 72
0
 73
0
 74
0
 75
0
 76
0
 77
0
 78
12
 79
3
170
0
171
3
172
0
173
0
174
1
175
0
176
0
177
0
178
0
179
2
271
2
272
2
273
2
274
3
275
0
276
0
277
2
278
46
279
0
280
0
281
0
282
0
283
0
284
8
285
0
286
0
288
1
289
0
290
0
340
4C
342
84
371
-2
372
-2
  0
DIMSTYLE
105
89
330
4
100
AcDbSymbolTableRecord
100
AcDbDimStyleTableRecord
  2
EZ_CURVED
 70
0
 40
1.0
 41
0.25
 42
0.125
 43
3.75
 44
0.375
 45
0.0
 46
0.0
 47
0.0
 48
0.0
 49
2.5
140
0.25
141
2.5
142
0.0
143
0.03937007874
144
100.0
145
0.0
146
0.5
147
0.1
148
0.0
 69
0
 70
0
 71
0
 72
0
 73
0
 74
0
 75
0
 76
0
 77
1
 78
12
 79
2
 90
2
170
0
171
3
172
1
173
0
174
0
175
0
176
0
177
0
178
0
179
2
271
2
272
2
273
2
274
3
275
0
276
0
277
2
278
46
279
2
280
0
281
0
282
0
283
0
284
8
285
0
286
0
288
1
289
3
290
0
340
4C
371
-2
372
-2
  0
ENDTAB
  0
TABLE
  2
BLOCK_RECORD
  5
9
330
0
100
AcDbSymbolTable
 70
6
  0
BLOCK_RECORD
  5
17
330
9
100
AcDbSymbolTableRecord
100
AcDbBlockTableRecord
  2
*Model_Space
340
1A
 70
0
280
1
281
0
  0
BLOCK_RECORD
  5
1B
330
9
100
AcDbSymbolTableRecord
100
AcDbBlockTableRecord
  2
*Paper_Space
340
1E
 70
0
280
1
281
0
  0
BLOCK_RECORD
  5
74
330
9
100
AcDbSymbolTableRecord
100
AcDbBlockTableRecord
  2
_ARCHTICK
340
0
 70
0
280
1
281
0
  0
BLOCK_RECORD
  5
78
330
9
100
AcDbSymbolTableRecord
100
AcDbBlockTableRecord
  2
_CLOSEDFILLED
340
0
 70
0
280
1
281
0
  0
BLOCK_RECORD
  5
84
330
9
100
AcDbSymbolTableRecord
100
AcDbBlockTableRecord
  2
_CLOSEDBLANK
340
0
 70
0
280
1
281
0
  0
BLOCK_RECORD
  5
4DE
330
9
100
AcDbSymbolTableRecord
100
AcDbBlockTableRecord
  2
POZO_SAN
340
0
 70
0
280
1
281
0
  0
ENDTAB
  0
ENDSEC
  0
SECTION
  2
BLOCKS
  0
BLOCK
  5
18
330
17
100
AcDbEntity
  8
0
100
AcDbBlockBegin
  2
*Model_Space
 70
0
 10
0.0
 20
0.0
 30
0.0
  3
*Model_Space
  1

  0
ENDBLK
  5
19
330
17
100
AcDbEntity
  8
0
100
AcDbBlockEnd
  0
BLOCK
  5
1C
330
1B
100
AcDbEntity
  8
0
100
AcDbBlockBegin
  2
*Paper_Space
 70
0
 10
0.0
 20
0.0
 30
0.0
  3
*Paper_Space
  1

  0
ENDBLK
  5
1D
330
1B
100
AcDbEntity
  8
0
100
AcDbBlockEnd
  0
BLOCK
  5
75
330
74
100
AcDbEntity
  8
0
100
AcDbBlockBegin
  2
_ARCHTICK
 70
0
 10
0.0
 20
0.0
 30
0.0
  3
_ARCHTICK
  1

  0
LWPOLYLINE
  5
77
330
74
100
AcDbEntity
  8
0
  6
BYBLOCK
 62
0
100
AcDbPolyline
 90
2
 70
0
 43
0.15
 10
-0.5
 20
-0.5
 10
0.5
 20
0.5
  0
ENDBLK
  5
76
330
74
100
AcDbEntity
  8
0
100
AcDbBlockEnd
  0
BLOCK
  5
79
330
78
100
AcDbEntity
  8
0
100
AcDbBlockBegin
  2
_CLOSEDFILLED
 70
0
 10
0.0
 20
0.0
 30
0.0
  3
_CLOSEDFILLED
  1

  0
SOLID
  5
7B
330
78
100
AcDbEntity
  8
0
  6
BYBLOCK
 62
0
100
AcDbTrace
 10
-1.0
 20
0.16439898372402537
 30
0.0
 11
0.0
 21
0.0
 31
0.0
 12
-1.0
 22
-0.16439898372402537
 32
0.0
 13
-1.0
 23
-0.16439898372402537
 33
0.0
  0
ENDBLK
  5
7A
330
78
100
AcDbEntity
  8
0
100
AcDbBlockEnd
  0
BLOCK
  5
85
330
84
100
AcDbEntity
  8
0
100
AcDbBlockBegin
  2
_CLOSEDBLANK
 70
0
 10
0.0
 20
0.0
 30
0.0
  3
_CLOSEDBLANK
  1

  0
LWPOLYLINE
  5
87
330
84
100
AcDbEntity
  8
0
  6
BYBLOCK
 62
0
100
AcDbPolyline
 90
3
 70
1
 10
-1.0
 20
0.16439898372402537
 10
0.0
 20
0.0
 10
-1.0
 20
-0.16439898372402537
  0
ENDBLK
  5
86
330
84
100
AcDbEntity
  8
0
100
AcDbBlockEnd
  0
BLOCK
  5
4DF
330
4DE
100
AcDbEntity
  8
0
100
AcDbBlockBegin
  2
POZO_SAN
 70
0
 10
0.0
 20
0.0
 30
0.0
  3
POZO_SAN
  1

  0
CIRCLE
  5
4E1
330
4DE
100
AcDbEntity
  8
0
100
AcDbCircle
 10
0.0
 20
0.0
 30
0.0
 40
0.7
  0
LINE
  5
4E2
330
4DE
100
AcDbEntity
  8
0
100
AcDbLine
 10
-0.5
 20
0.0
 30
0.0
 11
0.5
 21
0.0
 31
0.0
  0
LINE
  5
4E3
330
4DE
100
AcDbEntity
  8
0
100
AcDbLine
 10
0.0
 20
-0.5
 30
0.0
 11
0.0
 21
0.5
 31
0.0
  0
ENDBLK
  5
4E0
330
4DE
100
AcDbEntity
  8
0
100
AcDbBlockEnd
  0
ENDSEC
  0
SECTION
  2
ENTITIES
  0
LWPOLYLINE
  5
8A
330
17
100
AcDbEntity
  8
36-RH-SAN-COLECTOR-PROY
100
AcDbPolyline
 90
2
 70
0
 10
105445.9121
 20
111893.1804
 10
105435.972
 20
111891.5274
  0
LWPOLYLINE
  5
8B
330
17
100
AcDbEntity
  8
36-RH-SAN-COLECTOR-PROY
100
AcDbPolyline
 90
2
 70
0
 10
105425.4782
 20
112321.0752
 10
105422.0126
 20
112330.9557
  0
LWPOLYLINE
  5
8C
330
17
100
AcDbEntity
  8
36-RH-SAN-COLECTOR-PROY
100
AcDbPolyline
 90
2
 70
0
 10
105410.9829
 20
111844.6244
 10
105412.1152
 20
111814.4076
  0
LWPOLYLINE
  5
8D
330
17
100
AcDbEntity
  8
36-RH-SAN-COLECTOR-PROY
100
AcDbPolyline
 90
2
 70
0
 10
105380.9164
 20
112787.7739
 10
105389.8464
 20
112750.4267
  0
LWPOLYLINE
  5
8E
330
17
100
AcDbEntity
  8
36-RH-SAN-COLECTOR-PROY
100
AcDbPolyline
 90
2
 70
0
 10
105460.9233
 20
112089.8619
 10
105450.1
 20
112083.38
  0
LWPOLYLINE
  5
8F
330
17
100
AcDbEntity
  8
36-RH-SAN-COLECTOR-PROY
100
AcDbPolyline
 90
2
 70
0
 10
105450.1
 20
112083.38
 10
105443.4677
 20
112005.1378
  0
LWPOLYLINE
  5
90
330
17
100
AcDbEntity
  8
36-RH-SAN-COLECTOR-PROY
100
AcDbPolyline
 90
2
 70
0
 10
105460.2048
 20
112003.8309
 10
105443.4815
 20
112005.1365
  0
LWPOLYLINE
  5
91
330
17
100
AcDbEntity
  8
36-RH-SAN-COLECTOR-PROY
100
AcDbPolyline
 90
2
 70
0
 10
105443.4677
 20
112005.1378
 10
105438.34
 20
111934.27
  0
LWPOLYLINE
  5
92
330
17
100
AcDbEntity
  8
36-RH-SAN-COLECTOR-PROY
100
AcDbPolyline
 90
2
 70
0
 10
105438.34
 20
111934.27
 10
105435.972
 20
111891.5274
  0
LWPOLYLINE
  5
93
330
17
100
AcDbEntity
  8
36-RH-SAN-COLECTOR-PROY
100
AcDbPolyline
 90
2
 70
0
 10
105435.9663
 20
111891.5615
 10
105434.74
 20
111848.4
  0
LWPOLYLINE
  5
94
330
17
100
AcDbEntity
  8
36-RH-SAN-COLECTOR-PROY
100
AcDbPolyline
 90
2
 70
0
 10
105434.74
 20
111848.4
 10
105437.16
 20
111783.15
  0
LWPOLYLINE
  5
95
330
17
100
AcDbEntity
  8
36-RH-SAN-COLECTOR-PROY
100
AcDbPolyline
 90
2
 70
0
 10
105425.0288
 20
112041.8424
 10
105419.943
 20
111997.6755
  0
LWPOLYLINE
  5
96
330
17
100
AcDbEntity
  8
36-RH-SAN-COLECTOR-PROY
100
AcDbPolyline
 90
2
 70
0
 10
105419.943
 20
111997.6755
 10
105418.274
 20
111956.448
  0
LWPOLYLINE
  5
97
330
17
100
AcDbEntity
  8
36-RH-SAN-COLECTOR-PROY
100
AcDbPolyline
 90
2
 70
0
 10
105418.274
 20
111956.448
 10
105412.699
 20
111881.5046
  0
LWPOLYLINE
  5
98
330
17
100
AcDbEntity
  8
36-RH-SAN-COLECTOR-PROY
100
AcDbPolyline
 90
2
 70
0
 10
105428.37
 20
112089.31
 10
105432.95
 20
112152.81
  0
LWPOLYLINE
  5
99
330
17
100
AcDbEntity
  8
36-RH-SAN-COLECTOR-PROY
100
AcDbPolyline
 90
2
 70
0
 10
105432.95
 20
112152.81
 10
105395.3412
 20
112156.7572
  0
LWPOLYLINE
  5
9A
330
17
100
AcDbEntity
  8
36-RH-SAN-COLECTOR-PROY
100
AcDbPolyline
 90
2
 70
0
 10
105455.6663
 20
112163.41
 10
105432.948
 20
112152.81
  0
LWPOLYLINE
  5
9B
330
17
100
AcDbEntity
  8
36-RH-SAN-COLECTOR-PROY
100
AcDbPolyline
 90
2
 70
0
 10
105432.7357
 20
112232.0865
 10
105431.7973
 20
112262.934
  0
LWPOLYLINE
  5
9C
330
17
100
AcDbEntity
  8
36-RH-SAN-COLECTOR-PROY
100
AcDbPolyline
 90
2
 70
0
 10
105431.7973
 20
112262.934
 10
105407.4339
 20
112269.9486
  0
LWPOLYLINE
  5
9D
330
17
100
AcDbEntity
  8
36-RH-SAN-COLECTOR-PROY
100
AcDbPolyline
 90
2
 70
0
 10
105429.7478
 20
112290.9275
 10
105425.4782
 20
112321.0752
  0
LWPOLYLINE
  5
9E
330
17
100
AcDbEntity
  8
36-RH-SAN-COLECTOR-PROY
100
AcDbPolyline
 90
2
 70
0
 10
105387.1317
 20
112671.5264
 10
105397.63
 20
112623.5
  0
LWPOLYLINE
  5
9F
330
17
100
AcDbEntity
  8
36-RH-SAN-COLECTOR-PROY
100
AcDbPolyline
 90
2
 70
0
 10
105397.63
 20
112623.5
 10
105400.19
 20
112601.45
  0
LWPOLYLINE
  5
A0
330
17
100
AcDbEntity
  8
36-RH-SAN-COLECTOR-PROY
100
AcDbPolyline
 90
2
 70
0
 10
105454.86
 20
112245.16
 10
105452.1992
 20
112298.344
  0
LWPOLYLINE
  5
A1
330
17
100
AcDbEntity
  8
36-RH-SAN-COLECTOR-PROY
100
AcDbPolyline
 90
2
 70
0
 10
105452.1992
 20
112298.344
 10
105448.92
 20
112368.45
  0
LWPOLYLINE
  5
A2
330
17
100
AcDbEntity
  8
36-RH-SAN-COLECTOR-PROY
100
AcDbPolyline
 90
2
 70
0
 10
105448.92
 20
112368.45
 10
105444.1766
 20
112440.0635
  0
LWPOLYLINE
  5
A3
330
17
100
AcDbEntity
  8
36-RH-SAN-COLECTOR-PROY
100
AcDbPolyline
 90
2
 70
0
 10
105438.1
 20
112524.28
 10
105433.4516
 20
112577.9311
  0
LWPOLYLINE
  5
A4
330
17
100
AcDbEntity
  8
36-RH-SAN-COLECTOR-PROY
100
AcDbPolyline
 90
2
 70
0
 10
105452.1992
 20
112298.344
 10
105448.92
 20
112368.45
  0
LWPOLYLINE
  5
A5
330
17
100
AcDbEntity
  8
36-RH-SAN-COLECTOR-PROY
100
AcDbPolyline
 90
2
 70
0
 10
105444.1766
 20
112440.0635
 10
105438.1
 20
112524.28
  0
LWPOLYLINE
  5
A6
330
17
100
AcDbEntity
  8
36-RH-SAN-COLECTOR-PROY
100
AcDbPolyline
 90
2
 70
0
 10
105433.4516
 20
112577.9311
 10
105416.573
 20
112647.5737
  0
LWPOLYLINE
  5
A7
330
17
100
AcDbEntity
  8
36-RH-SAN-COLECTOR-PROY
100
AcDbPolyline
 90
2
 70
0
 10
105401.8114
 20
112704.7075
 10
105389.8464
 20
112750.4267
  0
LWPOLYLINE
  5
A8
330
17
100
AcDbEntity
  8
36-RH-SAN-COLECTOR-PROY
100
AcDbPolyline
 90
2
 70
0
 10
105331.5667
 20
112768.9395
 10
105255.2034
 20
112792.7856
  0
LWPOLYLINE
  5
A9
330
17
100
AcDbEntity
  8
36-RH-SAN-COLECTOR-PROY
100
AcDbPolyline
 90
2
 70
0
 10
105255.2034
 20
112792.7856
 10
105210.3752
 20
112807.83
  0
LWPOLYLINE
  5
AA
330
17
100
AcDbEntity
  8
36-RH-SAN-COLECTOR-PROY
100
AcDbPolyline
 90
2
 70
0
 10
105255.818
 20
112785.167
 10
105255.2034
 20
112792.7856
  0
LWPOLYLINE
  5
AB
330
17
100
AcDbEntity
  8
36-RH-SAN-COLECTOR-PROY
100
AcDbPolyline
 90
2
 70
0
 10
105437.6396
 20
113164.7995
 10
105434.1025
 20
113159.1992
  0
LWPOLYLINE
  5
AC
330
17
100
AcDbEntity
  8
36-RH-SAN-COLECTOR-PROY
100
AcDbPolyline
 90
2
 70
0
 10
105434.1
 20
113159.2
 10
105432.2357
 20
113125.8703
  0
LWPOLYLINE
  5
AD
330
17
100
AcDbEntity
  8
36-RH-SAN-COLECTOR-PROY
100
AcDbPolyline
 90
2
 70
0
 10
105432.2357
 20
113125.8703
 10
105427.7572
 20
113103.9318
  0
LWPOLYLINE
  5
AE
330
17
100
AcDbEntity
  8
36-RH-SAN-COLECTOR-PROY
100
AcDbPolyline
 90
2
 70
0
 10
105427.7572
 20
113103.9318
 10
105417.6421
 20
113066.3354
  0
LWPOLYLINE
  5
AF
330
17
100
AcDbEntity
  8
36-RH-SAN-COLECTOR-PROY
100
AcDbPolyline
 90
2
 70
0
 10
105417.6421
 20
113066.3354
 10
105399.2465
 20
113003.2088
  0
LWPOLYLINE
  5
B0
330
17
100
AcDbEntity
  8
36-RH-SAN-COLECTOR-PROY
100
AcDbPolyline
 90
2
 70
0
 10
105399.2465
 20
113003.2088
 10
105388.4454
 20
112969.232
  0
LWPOLYLINE
  5
B1
330
17
100
AcDbEntity
  8
36-RH-SAN-COLECTOR-PROY
100
AcDbPolyline
 90
2
 70
0
 10
105379.5286
 20
112941.2799
 10
105342.4865
 20
112926.5772
  0
LWPOLYLINE
  5
B2
330
17
100
AcDbEntity
  8
36-RH-SAN-COLECTOR-PROY
100
AcDbPolyline
 90
2
 70
0
 10
105342.4865
 20
112926.5772
 10
105325.3363
 20
112915.6234
  0
LWPOLYLINE
  5
B3
330
17
100
AcDbEntity
  8
36-RH-SAN-COLECTOR-PROY
100
AcDbPolyline
 90
2
 70
0
 10
105299.6522
 20
112897.637
 10
105261.8515
 20
112870.863
  0
LWPOLYLINE
  5
B4
330
17
100
AcDbEntity
  8
36-RH-SAN-COLECTOR-PROY
100
AcDbPolyline
 90
2
 70
0
 10
105261.8515
 20
112870.863
 10
105216.7942
 20
112839.8859
  0
LWPOLYLINE
  5
B5
330
17
100
AcDbEntity
  8
36-RH-SAN-COLECTOR-PROY
100
AcDbPolyline
 90
2
 70
0
 10
105216.7942
 20
112839.8859
 10
105203.5462
 20
112834.0028
  0
LWPOLYLINE
  5
B6
330
17
100
AcDbEntity
  8
36-RH-SAN-COLECTOR-PROY
100
AcDbPolyline
 90
2
 70
0
 10
105399.9213
 20
113137.2222
 10
105401.7265
 20
113162.0905
  0
LWPOLYLINE
  5
B7
330
17
100
AcDbEntity
  8
36-RH-SAN-COLECTOR-PROY
100
AcDbPolyline
 90
2
 70
0
 10
105400.99
 20
113212.37
 10
105400.4407
 20
113258.7813
  0
LWPOLYLINE
  5
B8
330
17
100
AcDbEntity
  8
36-RH-SAN-COLECTOR-PROY
100
AcDbPolyline
 90
2
 70
0
 10
105399.1713
 20
113302.8173
 10
105398.2181
 20
113352.9403
  0
LWPOLYLINE
  5
B9
330
17
100
AcDbEntity
  8
36-RH-SAN-COLECTOR-PROY
100
AcDbPolyline
 90
2
 70
0
 10
105398.2181
 20
113352.9403
 10
105402.618
 20
113392.4003
  0
LWPOLYLINE
  5
BA
330
17
100
AcDbEntity
  8
36-RH-SAN-COLECTOR-PROY
100
AcDbPolyline
 90
2
 70
0
 10
105402.62
 20
113392.4
 10
105382.5942
 20
113405.5199
  0
LWPOLYLINE
  5
BB
330
17
100
AcDbEntity
  8
36-RH-SAN-COLECTOR-PROY
100
AcDbPolyline
 90
2
 70
0
 10
105412.4202
 20
111877.6647
 10
105410.9829
 20
111844.6244
  0
LWPOLYLINE
  5
BC
330
17
100
AcDbEntity
  8
36-RH-SAN-COLECTOR-PROY
100
AcDbPolyline
 90
2
 70
0
 10
105325.3363
 20
112915.6234
 10
105299.6522
 20
112897.637
  0
LWPOLYLINE
  5
BD
330
17
100
AcDbEntity
  8
36-RH-SAN-COLECTOR-PROY
100
AcDbPolyline
 90
2
 70
0
 10
105388.5278
 20
113272.5991
 10
105400.4407
 20
113258.7813
  0
LWPOLYLINE
  5
BE
330
17
100
AcDbEntity
  8
36-RH-SAN-COLECTOR-PROY
100
AcDbPolyline
 90
2
 70
0
 10
105417.0383
 20
112645.8082
 10
105401.8114
 20
112704.7075
  0
LWPOLYLINE
  5
BF
330
17
100
AcDbEntity
  8
36-RH-SAN-COLECTOR-PROY
100
AcDbPolyline
 90
2
 70
0
 10
105390.2383
 20
112750.5299
 10
105331.5667
 20
112768.9395
  0
LWPOLYLINE
  5
C0
330
17
100
AcDbEntity
  8
36-RH-SAN-COLECTOR-PROY
100
AcDbPolyline
 90
2
 70
0
 10
105401.7265
 20
113162.0905
 10
105400.99
 20
113212.37
  0
LWPOLYLINE
  5
C1
330
17
100
AcDbEntity
  8
36-RH-SAN-COLECTOR-PROY
100
AcDbPolyline
 90
2
 70
0
 10
105400.19
 20
112601.45
 10
105377.2773
 20
112605.657
  0
LWPOLYLINE
  5
C2
330
17
100
AcDbEntity
  8
36-RH-SAN-COLECTOR-PROY
100
AcDbPolyline
 90
2
 70
0
 10
105369.011
 20
113280.4952
 10
105388.5278
 20
113272.5991
  0
LWPOLYLINE
  5
C3
330
17
100
AcDbEntity
  8
36-RH-SAN-COLECTOR-PROY
100
AcDbPolyline
 90
2
 70
0
 10
105462.7379
 20
112161.9073
 10
105455.6663
 20
112163.41
  0
LWPOLYLINE
  5
C4
330
17
100
AcDbEntity
  8
36-RH-SAN-COLECTOR-PROY
100
AcDbPolyline
 90
2
 70
0
 10
105425.758
 20
113069.708
 10
105417.6421
 20
113066.3354
  0
LWPOLYLINE
  5
C5
330
17
100
AcDbEntity
  8
36-RH-SAN-COLECTOR-PROY
100
AcDbPolyline
 90
2
 70
0
 10
105894.1681
 20
114647.9396
 10
105877.5832
 20
114654.1758
  0
LWPOLYLINE
  5
C6
330
17
100
AcDbEntity
  8
36-RH-SAN-COLECTOR-PROY
100
AcDbPolyline
 90
2
 70
0
 10
105898.6744
 20
114538.1909
 10
105894.7185
 20
114546.0147
  0
LWPOLYLINE
  5
C7
330
17
100
AcDbEntity
  8
36-RH-SAN-COLECTOR-PROY
100
AcDbPolyline
 90
2
 70
0
 10
105898.6744
 20
114538.1909
 10
105889.0703
 20
114528.012
  0
LWPOLYLINE
  5
C8
330
17
100
AcDbEntity
  8
36-RH-SAN-COLECTOR-PROY
100
AcDbPolyline
 90
2
 70
0
 10
105949.3507
 20
114715.125
 10
105936.1581
 20
114669.8462
  0
LWPOLYLINE
  5
C9
330
17
100
AcDbEntity
  8
36-RH-SAN-COLECTOR-PROY
100
AcDbPolyline
 90
2
 70
0
 10
105928.9109
 20
114648.8732
 10
105917.6875
 20
114616.3969
  0
LWPOLYLINE
  5
CA
330
17
100
AcDbEntity
  8
36-RH-SAN-COLECTOR-PROY
100
AcDbPolyline
 90
2
 70
0
 10
105909.9728
 20
114692.8224
 10
105894.1315
 20
114647.9218
  0
LWPOLYLINE
  5
CB
330
17
100
AcDbEntity
  8
36-RH-SAN-COLECTOR-PROY
100
AcDbPolyline
 90
2
 70
0
 10
105923.5604
 20
114746.7466
 10
105921.239
 20
114731.1996
  0
LWPOLYLINE
  5
CC
330
17
100
AcDbEntity
  8
36-RH-SAN-COLECTOR-PROY
100
AcDbPolyline
 90
2
 70
0
 10
105927.4074
 20
114805.6809
 10
105926.2872
 20
114771.1332
  0
LWPOLYLINE
  5
CD
330
17
100
AcDbEntity
  8
36-RH-SAN-COLECTOR-PROY
100
AcDbPolyline
 90
2
 70
0
 10
105921.239
 20
114731.1996
 10
105909.9728
 20
114692.8224
  0
LWPOLYLINE
  5
CE
330
17
100
AcDbEntity
  8
36-RH-SAN-COLECTOR-PROY
100
AcDbPolyline
 90
2
 70
0
 10
105926.2872
 20
114771.1332
 10
105923.5656
 20
114746.7546
  0
LWPOLYLINE
  5
CF
330
17
100
AcDbEntity
  8
36-RH-SAN-COLECTOR-PROY
100
AcDbPolyline
 90
2
 70
0
 10
105936.1581
 20
114669.8462
 10
105928.9109
 20
114648.8732
  0
LWPOLYLINE
  5
D0
330
17
100
AcDbEntity
  8
36-RH-SAN-COLECTOR-PROY
100
AcDbPolyline
 90
2
 70
0
 10
105949.3507
 20
114715.125
 10
105921.239
 20
114731.1996
  0
LWPOLYLINE
  5
D1
330
17
100
AcDbEntity
  8
36-RH-SAN-COLECTOR-PROY
100
AcDbPolyline
 90
2
 70
0
 10
105861.8882
 20
114555.15
 10
105851.4936
 20
114560.9865
  0
LWPOLYLINE
  5
D2
330
17
100
AcDbEntity
  8
36-RH-SAN-COLECTOR-PROY
100
AcDbPolyline
 90
2
 70
0
 10
105900.1988
 20
114754.7726
 10
105909.8748
 20
114750.2713
  0
LWPOLYLINE
  5
D3
330
17
100
AcDbEntity
  8
36-RH-SAN-COLECTOR-PROY
100
AcDbPolyline
 90
2
 70
0
 10
105894.7185
 20
114546.0147
 10
105861.8882
 20
114555.15
  0
LWPOLYLINE
  5
D4
330
17
100
AcDbEntity
  8
36-RH-SAN-COLECTOR-PROY
100
AcDbPolyline
 90
2
 70
0
 10
105871.0017
 20
114581.1069
 10
105894.1398
 20
114647.9483
  0
LWPOLYLINE
  5
D5
330
17
100
AcDbEntity
  8
36-RH-SAN-COLECTOR-PROY
100
AcDbPolyline
 90
2
 70
0
 10
105509.7912
 20
113559.3894
 10
105524.6682
 20
113586.7637
  0
LWPOLYLINE
  5
D6
330
17
100
AcDbEntity
  8
36-RH-SAN-COLECTOR-PROY
100
AcDbPolyline
 90
2
 70
0
 10
105414.1662
 20
113415.7516
 10
105427.6471
 20
113439.3916
  0
LWPOLYLINE
  5
D7
330
17
100
AcDbEntity
  8
36-RH-SAN-COLECTOR-PROY
100
AcDbPolyline
 90
2
 70
0
 10
105477.28
 20
113510.5
 10
105447.27
 20
113466.14
  0
LWPOLYLINE
  5
D8
330
17
100
AcDbEntity
  8
36-RH-SAN-COLECTOR-PROY
100
AcDbPolyline
 90
2
 70
0
 10
105538.6852
 20
113615.5815
 10
105524.6682
 20
113586.7637
  0
LWPOLYLINE
  5
D9
330
17
100
AcDbEntity
  8
36-RH-SAN-COLECTOR-PROY
100
AcDbPolyline
 90
2
 70
0
 10
105509.7912
 20
113559.3894
 10
105477.28
 20
113510.5
  0
LWPOLYLINE
  5
DA
330
17
100
AcDbEntity
  8
36-RH-SAN-COLECTOR-PROY
100
AcDbPolyline
 90
2
 70
0
 10
105477.28
 20
113510.5
 10
105447.27
 20
113466.14
  0
LWPOLYLINE
  5
DB
330
17
100
AcDbEntity
  8
36-RH-SAN-COLECTOR-PROY
100
AcDbPolyline
 90
2
 70
0
 10
105447.27
 20
113466.14
 10
105427.6471
 20
113439.3916
  0
LWPOLYLINE
  5
DC
330
17
100
AcDbEntity
  8
36-RH-SAN-COLECTOR-PROY
100
AcDbPolyline
 90
2
 70
0
 10
105427.6471
 20
113439.3916
 10
105404.1855
 20
113451.9698
  0
LWPOLYLINE
  5
DD
330
17
100
AcDbEntity
  8
36-RH-SAN-COLECTOR-PROY
100
AcDbPolyline
 90
2
 70
0
 10
105558.5294
 20
113657.481
 10
105545.5655
 20
113632.8785
  0
LWPOLYLINE
  5
DE
330
17
100
AcDbEntity
  8
36-RH-SAN-COLECTOR-PROY
100
AcDbPolyline
 90
2
 70
0
 10
105545.7179
 20
113633.21
 10
105526.8158
 20
113641.8876
  0
LWPOLYLINE
  5
DF
330
17
100
AcDbEntity
  8
36-RH-SAN-COLECTOR-PROY
100
AcDbPolyline
 90
2
 70
0
 10
105588.8137
 20
113716.3643
 10
105573.0604
 20
113727.6312
  0
LWPOLYLINE
  5
E0
330
17
100
AcDbEntity
  8
36-RH-SAN-COLECTOR-PROY
100
AcDbPolyline
 90
2
 70
0
 10
105560.6606
 20
113663.1738
 10
105588.8137
 20
113716.3643
  0
LWPOLYLINE
  5
E1
330
17
100
AcDbEntity
  8
36-RH-SAN-COLECTOR-PROY
100
AcDbPolyline
 90
2
 70
0
 10
105613.3133
 20
113741.1
 10
105653.2958
 20
113785.9306
  0
LWPOLYLINE
  5
E2
330
17
100
AcDbEntity
  8
36-RH-SAN-COLECTOR-PROY
100
AcDbPolyline
 90
2
 70
0
 10
105653.2958
 20
113785.9306
 10
105667.6129
 20
113806.9352
  0
LWPOLYLINE
  5
E3
330
17
100
AcDbEntity
  8
36-RH-SAN-COLECTOR-PROY
100
AcDbPolyline
 90
2
 70
0
 10
105667.6129
 20
113806.9352
 10
105675.8474
 20
113827.7926
  0
LWPOLYLINE
  5
E4
330
17
100
AcDbEntity
  8
36-RH-SAN-COLECTOR-PROY
100
AcDbPolyline
 90
2
 70
0
 10
105675.8474
 20
113827.7926
 10
105680.9228
 20
113841.6324
  0
LWPOLYLINE
  5
E5
330
17
100
AcDbEntity
  8
36-RH-SAN-COLECTOR-PROY
100
AcDbPolyline
 90
2
 70
0
 10
105680.9228
 20
113841.6324
 10
105689.3405
 20
113909.7153
  0
LWPOLYLINE
  5
E6
330
17
100
AcDbEntity
  8
36-RH-SAN-COLECTOR-PROY
100
AcDbPolyline
 90
2
 70
0
 10
105689.3376
 20
113909.6837
 10
105691.9377
 20
113948.4747
  0
LWPOLYLINE
  5
E7
330
17
100
AcDbEntity
  8
36-RH-SAN-COLECTOR-PROY
100
AcDbPolyline
 90
2
 70
0
 10
105856.6563
 20
114322.4194
 10
105854.65
 20
114301.26
  0
LWPOLYLINE
  5
E8
330
17
100
AcDbEntity
  8
36-RH-SAN-COLECTOR-PROY
100
AcDbPolyline
 90
2
 70
0
 10
105848.1965
 20
114282.7112
 10
105835.0842
 20
114252.2886
  0
LWPOLYLINE
  5
E9
330
17
100
AcDbEntity
  8
36-RH-SAN-COLECTOR-PROY
100
AcDbPolyline
 90
2
 70
0
 10
105832.5332
 20
114239.009
 10
105826.7206
 20
114239.0477
  0
LWPOLYLINE
  5
EA
330
17
100
AcDbEntity
  8
36-RH-SAN-COLECTOR-PROY
100
AcDbPolyline
 90
2
 70
0
 10
105827.22
 20
114294.31
 10
105832.3
 20
114321.67
  0
LWPOLYLINE
  5
EB
330
17
100
AcDbEntity
  8
36-RH-SAN-COLECTOR-PROY
100
AcDbPolyline
 90
2
 70
0
 10
105832.3
 20
114321.67
 10
105834.96
 20
114352.53
  0
LWPOLYLINE
  5
EC
330
17
100
AcDbEntity
  8
36-RH-SAN-COLECTOR-PROY
100
AcDbPolyline
 90
2
 70
0
 10
105834.96
 20
114352.53
 10
105839.7584
 20
114421.3018
  0
LWPOLYLINE
  5
ED
330
17
100
AcDbEntity
  8
36-RH-SAN-COLECTOR-PROY
100
AcDbPolyline
 90
2
 70
0
 10
105839.7584
 20
114421.3018
 10
105812.3153
 20
114434.195
  0
LWPOLYLINE
  5
EE
330
17
100
AcDbEntity
  8
36-RH-SAN-COLECTOR-PROY
100
AcDbPolyline
 90
2
 70
0
 10
105823.6897
 20
114281.6028
 10
105802.4548
 20
114244.8903
  0
LWPOLYLINE
  5
EF
330
17
100
AcDbEntity
  8
36-RH-SAN-COLECTOR-PROY
100
AcDbPolyline
 90
2
 70
0
 10
105802.4548
 20
114244.8903
 10
105775.3761
 20
114201.992
  0
LWPOLYLINE
  5
F0
330
17
100
AcDbEntity
  8
36-RH-SAN-COLECTOR-PROY
100
AcDbPolyline
 90
2
 70
0
 10
105775.3761
 20
114201.992
 10
105741.5577
 20
114146.8396
  0
LWPOLYLINE
  5
F1
330
17
100
AcDbEntity
  8
36-RH-SAN-COLECTOR-PROY
100
AcDbPolyline
 90
2
 70
0
 10
105741.5577
 20
114146.8396
 10
105712.3493
 20
114094.1761
  0
LWPOLYLINE
  5
F2
330
17
100
AcDbEntity
  8
36-RH-SAN-COLECTOR-PROY
100
AcDbPolyline
 90
2
 70
0
 10
105854.654
 20
114301.255
 10
105848.1965
 20
114282.7112
  0
LWPOLYLINE
  5
F3
330
17
100
AcDbEntity
  8
36-RH-SAN-COLECTOR-PROY
100
AcDbPolyline
 90
2
 70
0
 10
105711.2221
 20
114092.0741
 10
105709.3928
 20
114085.5297
  0
LWPOLYLINE
  5
F4
330
17
100
AcDbEntity
  8
36-RH-SAN-COLECTOR-PROY
100
AcDbPolyline
 90
2
 70
0
 10
105652.6353
 20
113837.9013
 10
105675.849
 20
113827.7964
  0
LWPOLYLINE
  5
F5
330
17
100
AcDbEntity
  8
36-RH-SAN-COLECTOR-PROY
100
AcDbPolyline
 90
2
 70
0
 10
105753.67
 20
114121.09
 10
105739.532
 20
114092.8123
  0
LWPOLYLINE
  5
F6
330
17
100
AcDbEntity
  8
36-RH-SAN-COLECTOR-PROY
100
AcDbPolyline
 90
2
 70
0
 10
105481.0984
 20
113479.0947
 10
105508.2695
 20
113517.3153
  0
LWPOLYLINE
  5
F7
330
17
100
AcDbEntity
  8
36-RH-SAN-COLECTOR-PROY
100
AcDbPolyline
 90
2
 70
0
 10
105508.2695
 20
113517.3153
 10
105535.2245
 20
113560.293
  0
LWPOLYLINE
  5
F8
330
17
100
AcDbEntity
  8
36-RH-SAN-COLECTOR-PROY
100
AcDbPolyline
 90
2
 70
0
 10
105556.4097
 20
113602.7171
 10
105575.65
 20
113646.8
  0
LWPOLYLINE
  5
F9
330
17
100
AcDbEntity
  8
36-RH-SAN-COLECTOR-PROY
100
AcDbPolyline
 90
2
 70
0
 10
105481.0984
 20
113479.0947
 10
105484.3873
 20
113469.7659
  0
LWPOLYLINE
  5
FA
330
17
100
AcDbEntity
  8
36-RH-SAN-COLECTOR-PROY
100
AcDbPolyline
 90
2
 70
0
 10
105535.2245
 20
113560.293
 10
105556.4097
 20
113602.7171
  0
LWPOLYLINE
  5
FB
330
17
100
AcDbEntity
  8
36-RH-SAN-COLECTOR-PROY
100
AcDbPolyline
 90
2
 70
0
 10
105575.65
 20
113646.8
 10
105592.6543
 20
113680.2102
  0
LWPOLYLINE
  5
FC
330
17
100
AcDbEntity
  8
36-RH-SAN-COLECTOR-PROY
100
AcDbPolyline
 90
2
 70
0
 10
105592.6543
 20
113680.2102
 10
105607.2408
 20
113702.0388
  0
LWPOLYLINE
  5
FD
330
17
100
AcDbEntity
  8
36-RH-SAN-COLECTOR-PROY
100
AcDbPolyline
 90
2
 70
0
 10
105607.2408
 20
113702.0388
 10
105624.6044
 20
113721.9072
  0
LWPOLYLINE
  5
FE
330
17
100
AcDbEntity
  8
36-RH-SAN-COLECTOR-PROY
100
AcDbPolyline
 90
2
 70
0
 10
105624.6044
 20
113721.9072
 10
105672.7398
 20
113767.1755
  0
LWPOLYLINE
  5
FF
330
17
100
AcDbEntity
  8
36-RH-SAN-COLECTOR-PROY
100
AcDbPolyline
 90
2
 70
0
 10
105672.7398
 20
113767.1755
 10
105684.9032
 20
113781.2084
  0
LWPOLYLINE
  5
100
330
17
100
AcDbEntity
  8
36-RH-SAN-COLECTOR-PROY
100
AcDbPolyline
 90
2
 70
0
 10
105697.1418
 20
113795.4714
 10
105705.9173
 20
113813.3054
  0
LWPOLYLINE
  5
101
330
17
100
AcDbEntity
  8
36-RH-SAN-COLECTOR-PROY
100
AcDbPolyline
 90
2
 70
0
 10
105710.37
 20
113829.38
 10
105716.4667
 20
113870.4904
  0
LWPOLYLINE
  5
102
330
17
100
AcDbEntity
  8
36-RH-SAN-COLECTOR-PROY
100
AcDbPolyline
 90
2
 70
0
 10
105716.4667
 20
113870.4904
 10
105721.75
 20
113921.41
  0
LWPOLYLINE
  5
103
330
17
100
AcDbEntity
  8
36-RH-SAN-COLECTOR-PROY
100
AcDbPolyline
 90
2
 70
0
 10
105721.75
 20
113921.41
 10
105726.2618
 20
113990.1802
  0
LWPOLYLINE
  5
104
330
17
100
AcDbEntity
  8
36-RH-SAN-COLECTOR-PROY
100
AcDbPolyline
 90
2
 70
0
 10
105726.2618
 20
113990.1802
 10
105684.1834
 20
114005.4052
  0
LWPOLYLINE
  5
105
330
17
100
AcDbEntity
  8
36-RH-SAN-COLECTOR-PROY
100
AcDbPolyline
 90
2
 70
0
 10
105705.9173
 20
113813.3054
 10
105710.37
 20
113829.38
  0
LWPOLYLINE
  5
106
330
17
100
AcDbEntity
  8
36-RH-SAN-COLECTOR-PROY
100
AcDbPolyline
 90
2
 70
0
 10
105689.8164
 20
113778.0145
 10
105685.6885
 20
113780.5672
  0
LWPOLYLINE
  5
107
330
17
100
AcDbEntity
  8
36-RH-SAN-COLECTOR-PROY
100
AcDbPolyline
 90
2
 70
0
 10
105575.646
 20
113646.801
 10
105580.886
 20
113641.102
  0
LWPOLYLINE
  5
108
330
17
100
AcDbEntity
  8
36-RH-SAN-COLECTOR-PROY
100
AcDbPolyline
 90
2
 70
0
 10
105727.4599
 20
114006.5371
 10
105731.2818
 20
114060.3264
  0
LWPOLYLINE
  5
109
330
17
100
AcDbEntity
  8
36-RH-SAN-COLECTOR-PROY
100
AcDbPolyline
 90
2
 70
0
 10
105655.3525
 20
114022.7837
 10
105676.9782
 20
114015.209
  0
LWPOLYLINE
  5
10A
330
17
100
AcDbEntity
  8
36-RH-SAN-COLECTOR-PROY
100
AcDbPolyline
 90
2
 70
0
 10
105693.6832
 20
114003.3772
 10
105727.4599
 20
114006.5371
  0
LWPOLYLINE
  5
10B
330
17
100
AcDbEntity
  8
36-RH-SAN-COLECTOR-PROY
100
AcDbPolyline
 90
2
 70
0
 10
105693.6832
 20
114003.3772
 10
105653.1672
 20
114017.9651
  0
LWPOLYLINE
  5
10C
330
17
100
AcDbEntity
  8
36-RH-SAN-COLECTOR-PROY
100
AcDbPolyline
 90
2
 70
0
 10
105688.907
 20
113995.8054
 10
105650.7418
 20
114012.6711
  0
LWPOLYLINE
  5
10D
330
17
100
AcDbEntity
  8
36-RH-SAN-COLECTOR-PROY
100
AcDbPolyline
 90
2
 70
0
 10
105684.9032
 20
113781.2084
 10
105697.1418
 20
113795.4714
  0
LWPOLYLINE
  5
10E
330
17
100
AcDbEntity
  8
36-RH-SAN-COLECTOR-PROY
100
AcDbPolyline
 90
2
 70
0
 10
105731.2818
 20
114060.3264
 10
105739.532
 20
114092.8123
  0
LWPOLYLINE
  5
10F
330
17
100
AcDbEntity
  8
36-RH-SAN-COLECTOR-PROY
100
AcDbPolyline
 90
2
 70
0
 10
105779.2389
 20
114163.7227
 10
105753.67
 20
114121.09
  0
LWPOLYLINE
  5
110
330
17
100
AcDbEntity
  8
36-RH-SAN-COLECTOR-PROY
100
AcDbPolyline
 90
2
 70
0
 10
105759.4077
 20
114120.0941
 10
105753.67
 20
114121.09
  0
LWPOLYLINE
  5
111
330
17
100
AcDbEntity
  8
36-RH-SAN-COLECTOR-PROY
100
AcDbPolyline
 90
2
 70
0
 10
105826.7206
 20
114239.0477
 10
105799.8283
 20
114196.4505
  0
LWPOLYLINE
  5
112
330
17
100
AcDbEntity
  8
36-RH-SAN-COLECTOR-PROY
100
AcDbPolyline
 90
2
 70
0
 10
105803.2895
 20
114193.7697
 10
105799.8283
 20
114196.4505
  0
LWPOLYLINE
  5
113
330
17
100
AcDbEntity
  8
36-RH-SAN-COLECTOR-PROY
100
AcDbPolyline
 90
2
 70
0
 10
105799.8283
 20
114196.4505
 10
105775.3761
 20
114201.992
  0
LWPOLYLINE
  5
114
330
17
100
AcDbEntity
  8
36-RH-SAN-COLECTOR-PROY
100
AcDbPolyline
 90
2
 70
0
 10
105858.6774
 20
114350.9935
 10
105856.6563
 20
114322.4194
  0
LWPOLYLINE
  5
115
330
17
100
AcDbEntity
  8
36-RH-SAN-COLECTOR-PROY
100
AcDbPolyline
 90
2
 70
0
 10
105857.8087
 20
114287.8888
 10
105848.1965
 20
114282.7112
  0
LWPOLYLINE
  5
116
330
17
100
AcDbEntity
  8
36-RH-SAN-COLECTOR-PROY
100
AcDbPolyline
 90
2
 70
0
 10
105843.6
 20
114441.3434
 10
105854.6985
 20
114518.8454
  0
LWPOLYLINE
  5
117
330
17
100
AcDbEntity
  8
36-RH-SAN-COLECTOR-PROY
100
AcDbPolyline
 90
2
 70
0
 10
105535.603
 20
113544.692
 10
105535.2245
 20
113560.293
  0
LWPOLYLINE
  5
118
330
17
100
AcDbEntity
  8
36-RH-SAN-COLECTOR-PROY
100
AcDbPolyline
 90
2
 70
0
 10
105868.1398
 20
114353.5623
 10
105858.6774
 20
114350.9935
  0
LWPOLYLINE
  5
119
330
17
100
AcDbEntity
  8
36-RH-SAN-COLECTOR-PROY
100
AcDbPolyline
 90
2
 70
0
 10
105689.9057
 20
114101.5528
 10
105711.2184
 20
114092.0761
  0
LWPOLYLINE
  5
11A
330
17
100
AcDbEntity
  8
36-RH-SAN-COLECTOR-PROY
100
AcDbPolyline
 90
2
 70
0
 10
106083.1122
 20
116025.6645
 10
106009.647
 20
116039.356
  0
LWPOLYLINE
  5
11B
330
17
100
AcDbEntity
  8
36-RH-SAN-COLECTOR-PROY
100
AcDbPolyline
 90
2
 70
0
 10
106048.3419
 20
115584.3288
 10
106062.4
 20
115579.38
  0
LWPOLYLINE
  5
11C
330
17
100
AcDbEntity
  8
36-RH-SAN-COLECTOR-PROY
100
AcDbPolyline
 90
2
 70
0
 10
106048.3419
 20
115584.3288
 10
106013.46
 20
115548.25
  0
LWPOLYLINE
  5
11D
330
17
100
AcDbEntity
  8
36-RH-SAN-COLECTOR-PROY
100
AcDbPolyline
 90
2
 70
0
 10
105927.18
 20
115310.59
 10
105926.77
 20
115232.09
  0
LWPOLYLINE
  5
11E
330
17
100
AcDbEntity
  8
36-RH-SAN-COLECTOR-PROY
100
AcDbPolyline
 90
2
 70
0
 10
106080.7939
 20
116674.9701
 10
106064.6083
 20
116673.5701
  0
LWPOLYLINE
  5
11F
330
17
100
AcDbEntity
  8
36-RH-SAN-COLECTOR-PROY
100
AcDbPolyline
 90
2
 70
0
 10
105933.1
 20
114932.5
 10
105937.5928
 20
114978.315
  0
LWPOLYLINE
  5
120
330
17
100
AcDbEntity
  8
36-RH-SAN-COLECTOR-PROY
100
AcDbPolyline
 90
2
 70
0
 10
105868.1814
 20
117341.9293
 10
105889.894
 20
117339.912
  0
LWPOLYLINE
  5
121
330
17
100
AcDbEntity
  8
36-RH-SAN-COLECTOR-PROY
100
AcDbPolyline
 90
2
 70
0
 10
105823.1505
 20
117692.3971
 10
105819.0435
 20
117689.0964
  0
LWPOLYLINE
  5
122
330
17
100
AcDbEntity
  8
36-RH-SAN-COLECTOR-PROY
100
AcDbPolyline
 90
2
 70
0
 10
105918.7738
 20
117631.4806
 10
105892.5246
 20
117629.8569
  0
LWPOLYLINE
  5
123
330
17
100
AcDbEntity
  8
36-RH-SAN-COLECTOR-PROY
100
AcDbPolyline
 90
2
 70
0
 10
105902.75
 20
117195.42
 10
105899.5262
 20
117230.7712
  0
LWPOLYLINE
  5
124
330
17
100
AcDbEntity
  8
36-RH-SAN-COLECTOR-PROY
100
AcDbPolyline
 90
2
 70
0
 10
105747.013
 20
117990.718
 10
105742.651
 20
117996.185
  0
LWPOLYLINE
  5
125
330
17
100
AcDbEntity
  8
36-RH-SAN-COLECTOR-PROY
100
AcDbPolyline
 90
2
 70
0
 10
105742.651
 20
117996.185
 10
105723.2099
 20
117992.7562
  0
LWPOLYLINE
  5
126
330
17
100
AcDbEntity
  8
36-RH-SAN-COLECTOR-PROY
100
AcDbPolyline
 90
2
 70
0
 10
105723.2099
 20
117992.7562
 10
105686.783
 20
117992.2797
  0
LWPOLYLINE
  5
127
330
17
100
AcDbEntity
  8
36-RH-SAN-COLECTOR-PROY
100
AcDbPolyline
 90
2
 70
0
 10
106032.07
 20
116905.17
 10
106023.5404
 20
116928.2002
  0
LWPOLYLINE
  5
128
330
17
100
AcDbEntity
  8
36-RH-SAN-COLECTOR-PROY
100
AcDbPolyline
 90
2
 70
0
 10
105892.5246
 20
117629.8569
 10
105878.9323
 20
117691.4166
  0
LWPOLYLINE
  5
129
330
17
100
AcDbEntity
  8
36-RH-SAN-COLECTOR-PROY
100
AcDbPolyline
 90
2
 70
0
 10
105878.9323
 20
117691.4166
 10
105870.1455
 20
117727.3934
  0
LWPOLYLINE
  5
12A
330
17
100
AcDbEntity
  8
36-RH-SAN-COLECTOR-PROY
100
AcDbPolyline
 90
2
 70
0
 10
106023.5404
 20
116928.2002
 10
106031.0519
 20
116930.2591
  0
LWPOLYLINE
  5
12B
330
17
100
AcDbEntity
  8
36-RH-SAN-COLECTOR-PROY
100
AcDbPolyline
 90
2
 70
0
 10
105909.3368
 20
117449.974
 10
105932.815
 20
117445.7477
  0
LWPOLYLINE
  5
12C
330
17
100
AcDbEntity
  8
36-RH-SAN-COLECTOR-PROY
100
AcDbPolyline
 90
2
 70
0
 10
106086.79
 20
116752.233
 10
106073.0451
 20
116790.416
  0
LWPOLYLINE
  5
12D
330
17
100
AcDbEntity
  8
36-RH-SAN-COLECTOR-PROY
100
AcDbPolyline
 90
2
 70
0
 10
105955.6719
 20
114876.8624
 10
105960.8238
 20
114924.6413
  0
LWPOLYLINE
  5
12E
330
17
100
AcDbEntity
  8
36-RH-SAN-COLECTOR-PROY
100
AcDbPolyline
 90
2
 70
0
 10
105960.8238
 20
114924.6413
 10
105965.8542
 20
114973.2659
  0
LWPOLYLINE
  5
12F
330
17
100
AcDbEntity
  8
36-RH-SAN-COLECTOR-PROY
100
AcDbPolyline
 90
2
 70
0
 10
105965.8631
 20
114973.2535
 10
105937.5928
 20
114978.315
  0
LWPOLYLINE
  5
130
330
17
100
AcDbEntity
  8
36-RH-SAN-COLECTOR-PROY
100
AcDbPolyline
 90
2
 70
0
 10
105943.5207
 20
115128.9392
 10
105915.2285
 20
115130.9086
  0
LWPOLYLINE
  5
131
330
17
100
AcDbEntity
  8
36-RH-SAN-COLECTOR-PROY
100
AcDbPolyline
 90
2
 70
0
 10
105915.2285
 20
115130.9086
 10
105895.6469
 20
115134.5387
  0
LWPOLYLINE
  5
132
330
17
100
AcDbEntity
  8
36-RH-SAN-COLECTOR-PROY
100
AcDbPolyline
 90
2
 70
0
 10
105939.51
 20
114995.53
 10
105939.7411
 20
115029.4518
  0
LWPOLYLINE
  5
133
330
17
100
AcDbEntity
  8
36-RH-SAN-COLECTOR-PROY
100
AcDbPolyline
 90
2
 70
0
 10
105939.7411
 20
115029.4518
 10
105934.1276
 20
115059.38
  0
LWPOLYLINE
  5
134
330
17
100
AcDbEntity
  8
36-RH-SAN-COLECTOR-PROY
100
AcDbPolyline
 90
2
 70
0
 10
105934.1276
 20
115059.38
 10
105915.2285
 20
115130.9086
  0
LWPOLYLINE
  5
135
330
17
100
AcDbEntity
  8
36-RH-SAN-COLECTOR-PROY
100
AcDbPolyline
 90
2
 70
0
 10
105927.91
 20
114837.1536
 10
105929.0796
 20
114877.9953
  0
LWPOLYLINE
  5
136
330
17
100
AcDbEntity
  8
36-RH-SAN-COLECTOR-PROY
100
AcDbPolyline
 90
2
 70
0
 10
105929.0796
 20
114877.9953
 10
105933.1
 20
114932.5
  0
LWPOLYLINE
  5
137
330
17
100
AcDbEntity
  8
36-RH-SAN-COLECTOR-PROY
100
AcDbPolyline
 90
2
 70
0
 10
105967.175
 20
115005.6679
 10
105963.42
 20
115033.86
  0
LWPOLYLINE
  5
138
330
17
100
AcDbEntity
  8
36-RH-SAN-COLECTOR-PROY
100
AcDbPolyline
 90
2
 70
0
 10
105963.42
 20
115033.86
 10
105954.2215
 20
115081.6637
  0
LWPOLYLINE
  5
139
330
17
100
AcDbEntity
  8
36-RH-SAN-COLECTOR-PROY
100
AcDbPolyline
 90
2
 70
0
 10
105954.2215
 20
115081.6637
 10
105943.5207
 20
115128.9392
  0
LWPOLYLINE
  5
13A
330
17
100
AcDbEntity
  8
36-RH-SAN-COLECTOR-PROY
100
AcDbPolyline
 90
2
 70
0
 10
105954.502
 20
114862.7823
 10
105955.6719
 20
114876.8624
  0
LWPOLYLINE
  5
13B
330
17
100
AcDbEntity
  8
36-RH-SAN-COLECTOR-PROY
100
AcDbPolyline
 90
2
 70
0
 10
106102.63
 20
116587.76
 10
106098.468
 20
116614.0637
  0
LWPOLYLINE
  5
13C
330
17
100
AcDbEntity
  8
36-RH-SAN-COLECTOR-PROY
100
AcDbPolyline
 90
2
 70
0
 10
106098.468
 20
116614.0637
 10
106089.5376
 20
116648.0967
  0
LWPOLYLINE
  5
13D
330
17
100
AcDbEntity
  8
36-RH-SAN-COLECTOR-PROY
100
AcDbPolyline
 90
2
 70
0
 10
106089.5376
 20
116648.0967
 10
106080.7939
 20
116674.9701
  0
LWPOLYLINE
  5
13E
330
17
100
AcDbEntity
  8
36-RH-SAN-COLECTOR-PROY
100
AcDbPolyline
 90
2
 70
0
 10
106065.0051
 20
116673.6197
 10
105976.221
 20
116657.31
  0
LWPOLYLINE
  5
13F
330
17
100
AcDbEntity
  8
36-RH-SAN-COLECTOR-PROY
100
AcDbPolyline
 90
2
 70
0
 10
106120.382
 20
116662.9203
 10
106124.3289
 20
116639.5738
  0
LWPOLYLINE
  5
140
330
17
100
AcDbEntity
  8
36-RH-SAN-COLECTOR-PROY
100
AcDbPolyline
 90
2
 70
0
 10
106124.3289
 20
116639.5738
 10
106089.5376
 20
116648.0967
  0
LWPOLYLINE
  5
141
330
17
100
AcDbEntity
  8
36-RH-SAN-COLECTOR-PROY
100
AcDbPolyline
 90
2
 70
0
 10
106137.16
 20
116552.81
 10
106132.7954
 20
116580.0573
  0
LWPOLYLINE
  5
142
330
17
100
AcDbEntity
  8
36-RH-SAN-COLECTOR-PROY
100
AcDbPolyline
 90
2
 70
0
 10
106132.7954
 20
116580.0573
 10
106124.3289
 20
116639.5738
  0
LWPOLYLINE
  5
143
330
17
100
AcDbEntity
  8
36-RH-SAN-COLECTOR-PROY
100
AcDbPolyline
 90
2
 70
0
 10
106061.78
 20
115657.99
 10
106054.1354
 20
115635.753
  0
LWPOLYLINE
  5
144
330
17
100
AcDbEntity
  8
36-RH-SAN-COLECTOR-PROY
100
AcDbPolyline
 90
2
 70
0
 10
106054.1354
 20
115635.753
 10
106032.5491
 20
115646.163
  0
LWPOLYLINE
  5
145
330
17
100
AcDbEntity
  8
36-RH-SAN-COLECTOR-PROY
100
AcDbPolyline
 90
2
 70
0
 10
106041.0443
 20
115614.93
 10
106054.1354
 20
115635.753
  0
LWPOLYLINE
  5
146
330
17
100
AcDbEntity
  8
36-RH-SAN-COLECTOR-PROY
100
AcDbPolyline
 90
2
 70
0
 10
106038.8793
 20
115612.6553
 10
106017.3946
 20
115589.4712
  0
LWPOLYLINE
  5
147
330
17
100
AcDbEntity
  8
36-RH-SAN-COLECTOR-PROY
100
AcDbPolyline
 90
2
 70
0
 10
106017.3946
 20
115589.4712
 10
105997.0293
 20
115569.1218
  0
LWPOLYLINE
  5
148
330
17
100
AcDbEntity
  8
36-RH-SAN-COLECTOR-PROY
100
AcDbPolyline
 90
2
 70
0
 10
106013.46
 20
115548.25
 10
105997.0293
 20
115569.1218
  0
LWPOLYLINE
  5
149
330
17
100
AcDbEntity
  8
36-RH-SAN-COLECTOR-PROY
100
AcDbPolyline
 90
2
 70
0
 10
105981.5816
 20
115518.2573
 10
105959.8861
 20
115495.8913
  0
LWPOLYLINE
  5
14A
330
17
100
AcDbEntity
  8
36-RH-SAN-COLECTOR-PROY
100
AcDbPolyline
 90
2
 70
0
 10
105959.89
 20
115495.89
 10
105944.8492
 20
115475.0767
  0
LWPOLYLINE
  5
14B
330
17
100
AcDbEntity
  8
36-RH-SAN-COLECTOR-PROY
100
AcDbPolyline
 90
2
 70
0
 10
105944.8492
 20
115475.0767
 10
105915.5936
 20
115485.08
  0
LWPOLYLINE
  5
14C
330
17
100
AcDbEntity
  8
36-RH-SAN-COLECTOR-PROY
100
AcDbPolyline
 90
2
 70
0
 10
105927.18
 20
115310.59
 10
105927.8059
 20
115394.348
  0
LWPOLYLINE
  5
14D
330
17
100
AcDbEntity
  8
36-RH-SAN-COLECTOR-PROY
100
AcDbPolyline
 90
2
 70
0
 10
105927.8059
 20
115394.348
 10
105928.2788
 20
115421.6311
  0
LWPOLYLINE
  5
14E
330
17
100
AcDbEntity
  8
36-RH-SAN-COLECTOR-PROY
100
AcDbPolyline
 90
2
 70
0
 10
105931.2389
 20
115444.8006
 10
105944.8492
 20
115475.0767
  0
LWPOLYLINE
  5
14F
330
17
100
AcDbEntity
  8
36-RH-SAN-COLECTOR-PROY
100
AcDbPolyline
 90
2
 70
0
 10
106149.1994
 20
116249.5608
 10
106149.5691
 20
116300.1645
  0
LWPOLYLINE
  5
150
330
17
100
AcDbEntity
  8
36-RH-SAN-COLECTOR-PROY
100
AcDbPolyline
 90
2
 70
0
 10
106149.5691
 20
116300.1645
 10
106149.7834
 20
116325.0708
  0
LWPOLYLINE
  5
151
330
17
100
AcDbEntity
  8
36-RH-SAN-COLECTOR-PROY
100
AcDbPolyline
 90
2
 70
0
 10
106157.0161
 20
116396.7476
 10
106160.19
 20
116432.9
  0
LWPOLYLINE
  5
152
330
17
100
AcDbEntity
  8
36-RH-SAN-COLECTOR-PROY
100
AcDbPolyline
 90
2
 70
0
 10
106160.19
 20
116432.9
 10
106102.5311
 20
116437.7489
  0
LWPOLYLINE
  5
153
330
17
100
AcDbEntity
  8
36-RH-SAN-COLECTOR-PROY
100
AcDbPolyline
 90
2
 70
0
 10
106149.0361
 20
116129.8303
 10
106146.93
 20
116050.11
  0
LWPOLYLINE
  5
154
330
17
100
AcDbEntity
  8
36-RH-SAN-COLECTOR-PROY
100
AcDbPolyline
 90
2
 70
0
 10
106138.14
 20
116014.39
 10
106113.9896
 20
116019.3649
  0
LWPOLYLINE
  5
155
330
17
100
AcDbEntity
  8
36-RH-SAN-COLECTOR-PROY
100
AcDbPolyline
 90
2
 70
0
 10
106065.9885
 20
115610.1773
 10
106081.4038
 20
115643.0485
  0
LWPOLYLINE
  5
156
330
17
100
AcDbEntity
  8
36-RH-SAN-COLECTOR-PROY
100
AcDbPolyline
 90
2
 70
0
 10
106081.4038
 20
115643.0485
 10
106088.9433
 20
115667.3519
  0
LWPOLYLINE
  5
157
330
17
100
AcDbEntity
  8
36-RH-SAN-COLECTOR-PROY
100
AcDbPolyline
 90
2
 70
0
 10
106088.9433
 20
115667.3519
 10
106091.7744
 20
115684.1571
  0
LWPOLYLINE
  5
158
330
17
100
AcDbEntity
  8
36-RH-SAN-COLECTOR-PROY
100
AcDbPolyline
 90
2
 70
0
 10
106128.18
 20
115657.67
 10
106091.7744
 20
115684.1571
  0
LWPOLYLINE
  5
159
330
17
100
AcDbEntity
  8
36-RH-SAN-COLECTOR-PROY
100
AcDbPolyline
 90
2
 70
0
 10
106106.3019
 20
115782.2262
 10
106101.52
 20
115801.63
  0
LWPOLYLINE
  5
15A
330
17
100
AcDbEntity
  8
36-RH-SAN-COLECTOR-PROY
100
AcDbPolyline
 90
2
 70
0
 10
106101.52
 20
115801.63
 10
106096.54
 20
115799.47
  0
LWPOLYLINE
  5
15B
330
17
100
AcDbEntity
  8
36-RH-SAN-COLECTOR-PROY
100
AcDbPolyline
 90
2
 70
0
 10
106094.4805
 20
115706.7176
 10
106091.7744
 20
115684.1571
  0
LWPOLYLINE
  5
15C
330
17
100
AcDbEntity
  8
36-RH-SAN-COLECTOR-PROY
100
AcDbPolyline
 90
2
 70
0
 10
106112.7003
 20
115807.5132
 10
106101.52
 20
115801.63
  0
LWPOLYLINE
  5
15D
330
17
100
AcDbEntity
  8
36-RH-SAN-COLECTOR-PROY
100
AcDbPolyline
 90
2
 70
0
 10
105983.034
 20
115555.7393
 10
105945.1478
 20
115519.4249
  0
LWPOLYLINE
  5
15E
330
17
100
AcDbEntity
  8
36-RH-SAN-COLECTOR-PROY
100
AcDbPolyline
 90
2
 70
0
 10
105942.4096
 20
115516.705
 10
105915.5936
 20
115485.08
  0
LWPOLYLINE
  5
15F
330
17
100
AcDbEntity
  8
36-RH-SAN-COLECTOR-PROY
100
AcDbPolyline
 90
2
 70
0
 10
105928.2788
 20
115421.6311
 10
105931.2389
 20
115444.8006
  0
LWPOLYLINE
  5
160
330
17
100
AcDbEntity
  8
36-RH-SAN-COLECTOR-PROY
100
AcDbPolyline
 90
2
 70
0
 10
106052.3891
 20
115589.7211
 10
106065.9885
 20
115610.1773
  0
LWPOLYLINE
  5
161
330
17
100
AcDbEntity
  8
36-RH-SAN-COLECTOR-PROY
100
AcDbPolyline
 90
2
 70
0
 10
106064.83
 20
115672.91
 10
106061.78
 20
115657.99
  0
LWPOLYLINE
  5
162
330
17
100
AcDbEntity
  8
36-RH-SAN-COLECTOR-PROY
100
AcDbPolyline
 90
2
 70
0
 10
106094.4805
 20
115706.7176
 10
106095.5054
 20
115752.9892
  0
LWPOLYLINE
  5
163
330
17
100
AcDbEntity
  8
36-RH-SAN-COLECTOR-PROY
100
AcDbPolyline
 90
2
 70
0
 10
106143.7917
 20
116031.3653
 10
106138.14
 20
116014.39
  0
LWPOLYLINE
  5
164
330
17
100
AcDbEntity
  8
36-RH-SAN-COLECTOR-PROY
100
AcDbPolyline
 90
2
 70
0
 10
105915.5936
 20
115485.08
 10
105899.4208
 20
115488.5809
  0
LWPOLYLINE
  5
165
330
17
100
AcDbEntity
  8
36-RH-SAN-COLECTOR-PROY
100
AcDbPolyline
 90
2
 70
0
 10
106063.4678
 20
115716.1699
 10
106091.7744
 20
115684.1571
  0
LWPOLYLINE
  5
166
330
17
100
AcDbEntity
  8
36-RH-SAN-COLECTOR-PROY
100
AcDbPolyline
 90
2
 70
0
 10
106104.1322
 20
115722.9784
 10
106094.4805
 20
115706.7176
  0
LWPOLYLINE
  5
167
330
17
100
AcDbEntity
  8
36-RH-SAN-COLECTOR-PROY
100
AcDbPolyline
 90
2
 70
0
 10
106052.3891
 20
115589.7211
 10
106070.9425
 20
115581.7739
  0
LWPOLYLINE
  5
168
330
17
100
AcDbEntity
  8
36-RH-SAN-COLECTOR-PROY
100
AcDbPolyline
 90
2
 70
0
 10
106095.5054
 20
115752.9892
 10
106096.535
 20
115799.468
  0
LWPOLYLINE
  5
169
330
17
100
AcDbEntity
  8
36-RH-SAN-COLECTOR-PROY
100
AcDbPolyline
 90
2
 70
0
 10
105981.58
 20
115518.26
 10
105986.24
 20
115513.11
  0
LWPOLYLINE
  5
16A
330
17
100
AcDbEntity
  8
36-RH-SAN-COLECTOR-PROY
100
AcDbPolyline
 90
2
 70
0
 10
105851.9626
 20
117774.1736
 10
105870.1499
 20
117727.3634
  0
LWPOLYLINE
  5
16B
330
17
100
AcDbEntity
  8
36-RH-SAN-COLECTOR-PROY
100
AcDbPolyline
 90
2
 70
0
 10
105806.9394
 20
117867.6064
 10
105786.2309
 20
117910.2313
  0
LWPOLYLINE
  5
16C
330
17
100
AcDbEntity
  8
36-RH-SAN-COLECTOR-PROY
100
AcDbPolyline
 90
2
 70
0
 10
105937.7048
 20
117208.8838
 10
105925.26
 20
117208.23
  0
LWPOLYLINE
  5
16D
330
17
100
AcDbEntity
  8
36-RH-SAN-COLECTOR-PROY
100
AcDbPolyline
 90
2
 70
0
 10
105925.26
 20
117208.23
 10
105899.3061
 20
117233.2313
  0
LWPOLYLINE
  5
16E
330
17
100
AcDbEntity
  8
36-RH-SAN-COLECTOR-PROY
100
AcDbPolyline
 90
2
 70
0
 10
105893.9164
 20
117286.1855
 10
105889.894
 20
117339.912
  0
LWPOLYLINE
  5
16F
330
17
100
AcDbEntity
  8
36-RH-SAN-COLECTOR-PROY
100
AcDbPolyline
 90
2
 70
0
 10
105899.3061
 20
117233.2313
 10
105893.9164
 20
117286.1855
  0
LWPOLYLINE
  5
170
330
17
100
AcDbEntity
  8
36-RH-SAN-COLECTOR-PROY
100
AcDbPolyline
 90
2
 70
0
 10
105927.81
 20
117290.92
 10
105919.18
 20
117290.05
  0
LWPOLYLINE
  5
171
330
17
100
AcDbEntity
  8
36-RH-SAN-COLECTOR-PROY
100
AcDbPolyline
 90
2
 70
0
 10
105878.9323
 20
117691.4166
 10
105823.1505
 20
117692.3971
  0
LWPOLYLINE
  5
172
330
17
100
AcDbEntity
  8
36-RH-SAN-COLECTOR-PROY
100
AcDbPolyline
 90
2
 70
0
 10
106090.4363
 20
116753.3812
 10
106086.79
 20
116752.23
  0
LWPOLYLINE
  5
173
330
17
100
AcDbEntity
  8
36-RH-SAN-COLECTOR-PROY
100
AcDbPolyline
 90
2
 70
0
 10
106073.0451
 20
116790.416
 10
106054.87
 20
116840.91
  0
LWPOLYLINE
  5
174
330
17
100
AcDbEntity
  8
36-RH-SAN-COLECTOR-PROY
100
AcDbPolyline
 90
2
 70
0
 10
106054.87
 20
116840.91
 10
106032.07
 20
116905.17
  0
LWPOLYLINE
  5
175
330
17
100
AcDbEntity
  8
36-RH-SAN-COLECTOR-PROY
100
AcDbPolyline
 90
2
 70
0
 10
106023.5404
 20
116928.2002
 10
106007.5
 20
116970.42
  0
LWPOLYLINE
  5
176
330
17
100
AcDbEntity
  8
36-RH-SAN-COLECTOR-PROY
100
AcDbPolyline
 90
2
 70
0
 10
106007.617
 20
116969.8502
 10
105986.6864
 20
117022.8907
  0
LWPOLYLINE
  5
177
330
17
100
AcDbEntity
  8
36-RH-SAN-COLECTOR-PROY
100
AcDbPolyline
 90
2
 70
0
 10
105986.6864
 20
117022.8907
 10
105958.581
 20
117098.6341
  0
LWPOLYLINE
  5
178
330
17
100
AcDbEntity
  8
36-RH-SAN-COLECTOR-PROY
100
AcDbPolyline
 90
2
 70
0
 10
105958.581
 20
117098.6341
 10
105931.6303
 20
117170.7655
  0
LWPOLYLINE
  5
179
330
17
100
AcDbEntity
  8
36-RH-SAN-COLECTOR-PROY
100
AcDbPolyline
 90
2
 70
0
 10
105931.6303
 20
117170.7655
 10
105925.26
 20
117208.23
  0
LWPOLYLINE
  5
17A
330
17
100
AcDbEntity
  8
36-RH-SAN-COLECTOR-PROY
100
AcDbPolyline
 90
2
 70
0
 10
105909.3368
 20
117449.974
 10
105906.22
 20
117500.82
  0
LWPOLYLINE
  5
17B
330
17
100
AcDbEntity
  8
36-RH-SAN-COLECTOR-PROY
100
AcDbPolyline
 90
2
 70
0
 10
105906.22
 20
117500.82
 10
105902.3176
 20
117561.8592
  0
LWPOLYLINE
  5
17C
330
17
100
AcDbEntity
  8
36-RH-SAN-COLECTOR-PROY
100
AcDbPolyline
 90
2
 70
0
 10
105902.3176
 20
117561.8592
 10
105899.577
 20
117595.5492
  0
LWPOLYLINE
  5
17D
330
17
100
AcDbEntity
  8
36-RH-SAN-COLECTOR-PROY
100
AcDbPolyline
 90
2
 70
0
 10
105899.577
 20
117595.5492
 10
105892.5246
 20
117629.8569
  0
LWPOLYLINE
  5
17E
330
17
100
AcDbEntity
  8
36-RH-SAN-COLECTOR-PROY
100
AcDbPolyline
 90
2
 70
0
 10
106107.8677
 20
116699.9529
 10
106086.79
 20
116752.23
  0
LWPOLYLINE
  5
17F
330
17
100
AcDbEntity
  8
36-RH-SAN-COLECTOR-PROY
100
AcDbPolyline
 90
2
 70
0
 10
105912.7104
 20
117398.4432
 10
105916.1
 20
117347.49
  0
LWPOLYLINE
  5
180
330
17
100
AcDbEntity
  8
36-RH-SAN-COLECTOR-PROY
100
AcDbPolyline
 90
2
 70
0
 10
105916.1
 20
117347.49
 10
105919.18
 20
117290.05
  0
LWPOLYLINE
  5
181
330
17
100
AcDbEntity
  8
36-RH-SAN-COLECTOR-PROY
100
AcDbPolyline
 90
2
 70
0
 10
105997.0651
 20
117023.1379
 10
105986.6892
 20
117022.8949
  0
LWPOLYLINE
  5
182
330
17
100
AcDbEntity
  8
36-RH-SAN-COLECTOR-PROY
100
AcDbPolyline
 90
2
 70
0
 10
106145.6356
 20
116551.6703
 10
106137.164
 20
116552.814
  0
LWPOLYLINE
  5
183
330
17
100
AcDbEntity
  8
36-RH-SAN-COLECTOR-PROY
100
AcDbPolyline
 90
2
 70
0
 10
105912.7104
 20
117398.4432
 10
105909.3368
 20
117449.974
  0
LWPOLYLINE
  5
184
330
17
100
AcDbEntity
  8
36-RH-SAN-COLECTOR-PROY
100
AcDbPolyline
 90
2
 70
0
 10
106158.5505
 20
116251.8707
 10
106147.4908
 20
116239.5669
  0
LWPOLYLINE
  5
185
330
17
100
AcDbEntity
  8
36-RH-SAN-COLECTOR-PROY
100
AcDbPolyline
 90
2
 70
0
 10
106121.2979
 20
116271.8053
 10
106121.763
 20
116326.2031
  0
LWPOLYLINE
  5
186
330
17
100
AcDbEntity
  8
36-RH-SAN-COLECTOR-PROY
100
AcDbPolyline
 90
2
 70
0
 10
106121.763
 20
116326.2031
 10
106149.7834
 20
116325.0708
  0
LWPOLYLINE
  5
187
330
17
100
AcDbEntity
  8
36-RH-SAN-COLECTOR-PROY
100
AcDbPolyline
 90
2
 70
0
 10
105946.5326
 20
117043.4878
 10
105922.5138
 20
117109.3979
  0
LWPOLYLINE
  5
188
330
17
100
AcDbEntity
  8
36-RH-SAN-COLECTOR-PROY
100
AcDbPolyline
 90
2
 70
0
 10
105928.701
 20
117036.2579
 10
105946.5326
 20
117043.4878
  0
LWPOLYLINE
  5
189
330
17
100
AcDbEntity
  8
36-RH-SAN-COLECTOR-PROY
100
AcDbPolyline
 90
2
 70
0
 10
105997.0293
 20
115569.1218
 10
105988.2691
 20
115585.8765
  0
LWPOLYLINE
  5
18A
330
17
100
AcDbEntity
  8
36-RH-SAN-COLECTOR-PROY
100
AcDbPolyline
 90
2
 70
0
 10
105937.5928
 20
114978.315
 10
105921.5318
 20
114980.716
  0
LWPOLYLINE
  5
18B
330
17
100
AcDbEntity
  8
36-RH-SAN-COLECTOR-PROY
100
AcDbPolyline
 90
2
 70
0
 10
105899.4225
 20
115488.5795
 10
105892.741
 20
115495.198
  0
LWPOLYLINE
  5
18C
330
17
100
AcDbEntity
  8
36-RH-SAN-COLECTOR-PROY
100
AcDbPolyline
 90
2
 70
0
 10
106035.197
 20
116903.483
 10
106032.07
 20
116905.17
  0
LWPOLYLINE
  5
18D
330
17
100
AcDbEntity
  8
36-RH-SAN-COLECTOR-PROY
100
AcDbPolyline
 90
2
 70
0
 10
106111.6798
 20
116256.5796
 10
106121.2979
 20
116271.8053
  0
LWPOLYLINE
  5
18E
330
17
100
AcDbEntity
  8
36-RH-SAN-COLECTOR-PROY
100
AcDbPolyline
 90
2
 70
0
 10
106044.3957
 20
115721.0619
 10
106063.4678
 20
115716.1699
  0
LWPOLYLINE
  5
18F
330
17
100
AcDbEntity
  8
36-RH-SAN-COLECTOR-PROY
100
AcDbPolyline
 90
2
 70
0
 10
106062.4
 20
115579.38
 10
106084.0424
 20
115571.6749
  0
LWPOLYLINE
  5
190
330
17
100
AcDbEntity
  8
36-RH-SAN-COLECTOR-PROY
100
AcDbPolyline
 90
2
 70
0
 10
105965.4059
 20
114872.2898
 10
105964.2217
 20
114861.7442
  0
LWPOLYLINE
  5
191
330
17
100
AcDbEntity
  8
36-RH-SAN-COLECTOR-PROY
100
AcDbPolyline
 90
2
 70
0
 10
106097.4531
 20
115641.9641
 10
106070.9425
 20
115581.7739
  0
LWPOLYLINE
  5
192
330
17
100
AcDbEntity
  8
36-RH-SAN-COLECTOR-PROY
100
AcDbPolyline
 90
2
 70
0
 10
105689.8164
 20
113778.0145
 10
105713.987
 20
113787.302
  0
LWPOLYLINE
  5
193
330
17
100
AcDbEntity
  8
36-RH-SAN-COLECTOR-PROY
100
AcDbPolyline
 90
2
 70
0
 10
106149.1994
 20
116249.5608
 10
106147.4908
 20
116239.5669
  0
LWPOLYLINE
  5
194
330
17
100
AcDbEntity
  8
36-RH-SAN-COLECTOR-PROY
100
AcDbPolyline
 90
2
 70
0
 10
106105.5021
 20
115637.4971
 10
106097.4531
 20
115641.9641
  0
LWPOLYLINE
  5
195
330
17
100
AcDbEntity
  8
36-RH-SAN-COLECTOR-PROY
100
AcDbPolyline
 90
2
 70
0
 10
106120.2525
 20
116062.6105
 10
106118.8084
 20
116039.7606
  0
LWPOLYLINE
  5
196
330
17
100
AcDbEntity
  8
36-RH-SAN-COLECTOR-PROY
100
AcDbPolyline
 90
2
 70
0
 10
106118.8084
 20
116039.7606
 10
106113.9896
 20
116019.3649
  0
LWPOLYLINE
  5
197
330
17
100
AcDbEntity
  8
36-RH-SAN-COLECTOR-PROY
100
AcDbPolyline
 90
2
 70
0
 10
106113.9896
 20
116019.3649
 10
106083.1122
 20
116025.6645
  0
LWPOLYLINE
  5
198
330
17
100
AcDbEntity
  8
36-RH-SAN-COLECTOR-PROY
100
AcDbPolyline
 90
2
 70
0
 10
105835.079
 20
114252.287
 10
105826.7206
 20
114239.0477
  0
LWPOLYLINE
  5
199
330
17
100
AcDbEntity
  8
36-RH-SAN-COLECTOR-PROY
100
AcDbPolyline
 90
2
 70
0
 10
105683.6875
 20
114005.5585
 10
105653.7978
 20
114016.3546
  0
LWPOLYLINE
  5
19A
330
17
100
AcDbEntity
  8
36-RH-SAN-COLECTOR-PROY
100
AcDbPolyline
 90
2
 70
0
 10
106146.925
 20
116050.113
 10
106143.7917
 20
116031.3653
  0
LWPOLYLINE
  5
19B
330
17
100
AcDbEntity
  8
36-RH-SAN-COLECTOR-PROY
100
AcDbPolyline
 90
2
 70
0
 10
106070.9165
 20
115581.7642
 10
106075.338
 20
115578.746
  0
LWPOLYLINE
  5
19C
330
17
100
AcDbEntity
  8
36-RH-SAN-COLECTOR-PROY
100
AcDbPolyline
 90
2
 70
0
 10
105693.1503
 20
118040.8311
 10
105685.0107
 20
118055.2362
  0
LWPOLYLINE
  5
19D
330
17
100
AcDbEntity
  8
36-RH-SAN-COLECTOR-PROY
100
AcDbPolyline
 90
2
 70
0
 10
105685.0107
 20
118055.2362
 10
105668.9646
 20
118052.3699
  0
LWPOLYLINE
  5
19E
330
17
100
AcDbEntity
  8
36-RH-SAN-COLECTOR-PROY
100
AcDbPolyline
 90
2
 70
0
 10
106067.3915
 20
116845.1222
 10
106054.869
 20
116840.907
  0
LWPOLYLINE
  5
19F
330
17
100
AcDbEntity
  8
36-RH-SAN-COLECTOR-PROY
100
AcDbPolyline
 90
2
 70
0
 10
106097.7529
 20
116526.1466
 10
106086.8135
 20
116527.0584
  0
LWPOLYLINE
  5
1A0
330
17
100
AcDbEntity
  8
36-RH-SAN-COLECTOR-PROY
100
AcDbPolyline
 90
2
 70
0
 10
106107.8677
 20
116699.9529
 10
106120.7059
 20
116700.8944
  0
LWPOLYLINE
  5
1A1
330
17
100
AcDbEntity
  8
36-RH-SAN-COLECTOR-PROY
100
AcDbPolyline
 90
2
 70
0
 10
105991.3432
 20
115572.5844
 10
105978.796
 20
115577.7718
  0
LWPOLYLINE
  5
1A2
330
17
100
AcDbEntity
  8
36-RH-SAN-COLECTOR-PROY
100
AcDbPolyline
 90
2
 70
0
 10
105854.6985
 20
114518.8454
 10
105838.1742
 20
114526.6244
  0
LWPOLYLINE
  5
1A3
330
17
100
AcDbEntity
  8
36-RH-SAN-COLECTOR-PROY
100
AcDbPolyline
 90
2
 70
0
 10
105917.6877
 20
114616.3968
 10
105928.601
 20
114612.9582
  0
LWPOLYLINE
  5
1A4
330
17
100
AcDbEntity
  8
36-RH-SAN-COLECTOR-PROY
100
AcDbPolyline
 90
2
 70
0
 10
105422.0108
 20
112330.9599
 10
105394.4225
 20
112336.0644
  0
LWPOLYLINE
  5
1A5
330
17
100
AcDbEntity
  8
36-RH-SAN-COLECTOR-PROY
100
AcDbPolyline
 90
2
 70
0
 10
105203.5462
 20
112834.0028
 10
105154.9963
 20
112849.4318
  0
LWPOLYLINE
  5
1A6
330
17
100
AcDbEntity
  8
36-RH-SAN-COLECTOR-PROY
100
AcDbPolyline
 90
2
 70
0
 10
105933.9485
 20
115373.0449
 10
105927.8059
 20
115394.348
  0
LWPOLYLINE
  5
1A7
330
17
100
AcDbEntity
  8
36-RH-SAN-COLECTOR-PROY
100
AcDbPolyline
 90
2
 70
0
 10
105934.1308
 20
115231.3642
 10
105926.77
 20
115232.09
  0
LWPOLYLINE
  5
1A8
330
17
100
AcDbEntity
  8
36-RH-SAN-COLECTOR-PROY
100
AcDbPolyline
 90
2
 70
0
 10
105672.4698
 20
118083.801
 10
105661.1597
 20
118123.1168
  0
LWPOLYLINE
  5
1A9
330
17
100
AcDbEntity
  8
36-RH-SAN-COLECTOR-PROY
100
AcDbPolyline
 90
2
 70
0
 10
105685.0107
 20
118055.2362
 10
105672.4698
 20
118083.801
  0
LWPOLYLINE
  5
1AA
330
17
100
AcDbEntity
  8
36-RH-SAN-COLECTOR-PROY
100
AcDbPolyline
 90
2
 70
0
 10
105828.7576
 20
117822.6179
 10
105851.9626
 20
117774.1736
  0
LWPOLYLINE
  5
1AB
330
17
100
AcDbEntity
  8
36-RH-SAN-COLECTOR-PROY
100
AcDbPolyline
 90
2
 70
0
 10
105828.7576
 20
117822.6179
 10
105806.9394
 20
117867.6064
  0
LWPOLYLINE
  5
1AC
330
17
100
AcDbEntity
  8
36-RH-SAN-COLECTOR-PROY
100
AcDbPolyline
 90
2
 70
0
 10
105747.2294
 20
114098.5244
 10
105739.5334
 20
114092.8111
  0
LWPOLYLINE
  5
1AD
330
17
100
AcDbEntity
  8
36-RH-SAN-COLECTOR-PROY
100
AcDbPolyline
 90
2
 70
0
 10
105210.3752
 20
112807.83
 10
105160.8385
 20
112824.4546
  0
LWPOLYLINE
  5
1AE
330
17
100
AcDbEntity
  8
36-RH-SAN-COLECTOR-PROY
100
AcDbPolyline
 90
2
 70
0
 10
105160.8385
 20
112824.4546
 10
105154.439
 20
112820.918
  0
LWPOLYLINE
  5
1AF
330
17
100
AcDbEntity
  8
36-RH-SAN-COLECTOR-PROY
100
AcDbPolyline
 90
2
 70
0
 10
105409.4502
 20
112957.1481
 10
105400.259
 20
112949.6005
  0
LWPOLYLINE
  5
1B0
330
17
100
AcDbEntity
  8
36-RH-SAN-COLECTOR-PROY
100
AcDbPolyline
 90
2
 70
0
 10
105391.7735
 20
112968.2574
 10
105400.259
 20
112949.6005
  0
LWPOLYLINE
  5
1B1
330
17
100
AcDbEntity
  8
36-RH-SAN-COLECTOR-PROY
100
AcDbPolyline
 90
2
 70
0
 10
105388.4454
 20
112969.232
 10
105391.7735
 20
112968.2574
  0
LWPOLYLINE
  5
1B2
330
17
100
AcDbEntity
  8
36-RH-SAN-COLECTOR-PROY
100
AcDbPolyline
 90
2
 70
0
 10
105388.4454
 20
112969.232
 10
105379.5286
 20
112941.2799
  0
LWPOLYLINE
  5
1B3
330
17
100
AcDbEntity
  8
36-RH-SAN-COLECTOR-PROY
100
AcDbPolyline
 90
2
 70
0
 10
105653.0165
 20
114016.6893
 10
105641.9894
 20
114021.4252
  0
INSERT
  5
1B4
330
17
100
AcDbEntity
  8
36-RH-SAN-POZOS
100
AcDbBlockReference
  2
POZO_SAN
 10
105428.37
 20
112089.31
 30
0.0
 50
357.9
  0
INSERT
  5
1B6
330
17
100
AcDbEntity
  8
36-RH-SAN-POZOS
100
AcDbBlockReference
  2
POZO_SAN
 10
105425.0288
 20
112041.8424
 30
0.0
 50
173.6
  0
INSERT
  5
1B8
330
17
100
AcDbEntity
  8
36-RH-SAN-POZOS
100
AcDbBlockReference
  2
POZO_SAN
 10
105432.7357
 20
112232.0865
 30
0.0
 50
1.8
  0
INSERT
  5
1BA
330
17
100
AcDbEntity
  8
36-RH-SAN-POZOS
100
AcDbBlockReference
  2
POZO_SAN
 10
105454.8559
 20
112245.1607
 30
0.0
 50
2.5
  0
INSERT
  5
1BC
330
17
100
AcDbEntity
  8
36-RH-SAN-POZOS
100
AcDbBlockReference
  2
POZO_SAN
 10
105522.9825
 20
112823.674
 30
0.0
 50
164.7
  0
INSERT
  5
1BE
330
17
100
AcDbEntity
  8
36-RH-SAN-POZOS
100
AcDbBlockReference
  2
POZO_SAN
 10
105399.9213
 20
113137.2222
 30
0.0
 50
356.0
  0
INSERT
  5
1C0
330
17
100
AcDbEntity
  8
36-RH-SAN-POZOS
100
AcDbBlockReference
  2
POZO_SAN
 10
105399.1713
 20
113302.8525
 30
0.0
 50
0.6
  0
INSERT
  5
1C2
330
17
100
AcDbEntity
  8
36-RH-SAN-POZOS
100
AcDbBlockReference
  2
POZO_SAN
 10
105429.7478
 20
112290.9275
 30
0.0
 50
8.3
  0
INSERT
  5
1C4
330
17
100
AcDbEntity
  8
36-RH-SAN-POZOS
100
AcDbBlockReference
  2
POZO_SAN
 10
105394.2312
 20
112403.4042
 30
0.0
 50
79.4
  0
INSERT
  5
1C6
330
17
100
AcDbEntity
  8
36-RH-SAN-POZOS
100
AcDbBlockReference
  2
POZO_SAN
 10
105452.1992
 20
112298.344
 30
0.0
 50
270.0
  0
INSERT
  5
1C8
330
17
100
AcDbEntity
  8
36-RH-SAN-POZOS
100
AcDbBlockReference
  2
POZO_SAN
 10
105522.976
 20
112823.676
 30
0.0
 50
340.0
  0
INSERT
  5
1CA
330
17
100
AcDbEntity
  8
36-RH-SAN-POZOS
100
AcDbBlockReference
  2
POZO_SAN
 10
105519.72
 20
112811.7
 30
0.0
 50
340.0
  0
INSERT
  5
1CC
330
17
100
AcDbEntity
  8
36-RH-SAN-POZOS
100
AcDbBlockReference
  2
POZO_SAN
 10
105462.6
 20
112806.86
 30
0.0
 50
340.0
  0
INSERT
  5
1CE
330
17
100
AcDbEntity
  8
36-RH-SAN-POZOS
100
AcDbBlockReference
  2
POZO_SAN
 10
105416.15
 20
112821.03
 30
0.0
 50
340.0
  0
INSERT
  5
1D0
330
17
100
AcDbEntity
  8
36-RH-SAN-POZOS
100
AcDbBlockReference
  2
POZO_SAN
 10
105390.54
 20
112810.3
 30
0.0
 50
340.0
  0
INSERT
  5
1D2
330
17
100
AcDbEntity
  8
36-RH-SAN-POZOS
100
AcDbBlockReference
  2
POZO_SAN
 10
105380.9164
 20
112787.7739
 30
0.0
 50
340.0
  0
INSERT
  5
1D4
330
17
100
AcDbEntity
  8
36-RH-SAN-POZOS
100
AcDbBlockReference
  2
POZO_SAN
 10
105450.104
 20
112083.378
 30
0.0
 50
270.0
  0
INSERT
  5
1D6
330
17
100
AcDbEntity
  8
36-RH-SAN-POZOS
100
AcDbBlockReference
  2
POZO_SAN
 10
105438.341
 20
111934.268
 30
0.0
 50
270.0
  0
INSERT
  5
1D8
330
17
100
AcDbEntity
  8
36-RH-SAN-POZOS
100
AcDbBlockReference
  2
POZO_SAN
 10
105425.0288
 20
112041.8424
 30
0.0
 50
270.0
  0
INSERT
  5
1DA
330
17
100
AcDbEntity
  8
36-RH-SAN-POZOS
100
AcDbBlockReference
  2
POZO_SAN
 10
105412.4202
 20
111877.6647
 30
0.0
 50
270.0
  0
INSERT
  5
1DC
330
17
100
AcDbEntity
  8
36-RH-SAN-POZOS
100
AcDbBlockReference
  2
POZO_SAN
 10
105428.365
 20
112089.31
 30
0.0
 50
270.0
  0
INSERT
  5
1DE
330
17
100
AcDbEntity
  8
36-RH-SAN-POZOS
100
AcDbBlockReference
  2
POZO_SAN
 10
105455.6663
 20
112163.41
 30
0.0
 50
270.0
  0
INSERT
  5
1E0
330
17
100
AcDbEntity
  8
36-RH-SAN-POZOS
100
AcDbBlockReference
  2
POZO_SAN
 10
105432.7357
 20
112232.0865
 30
0.0
 50
270.0
  0
INSERT
  5
1E2
330
17
100
AcDbEntity
  8
36-RH-SAN-POZOS
100
AcDbBlockReference
  2
POZO_SAN
 10
105431.7973
 20
112262.934
 30
0.0
 50
270.0
  0
INSERT
  5
1E4
330
17
100
AcDbEntity
  8
36-RH-SAN-POZOS
100
AcDbBlockReference
  2
POZO_SAN
 10
105429.7478
 20
112290.9275
 30
0.0
 50
270.0
  0
INSERT
  5
1E6
330
17
100
AcDbEntity
  8
36-RH-SAN-POZOS
100
AcDbBlockReference
  2
POZO_SAN
 10
105454.856
 20
112245.161
 30
0.0
 50
270.0
  0
INSERT
  5
1E8
330
17
100
AcDbEntity
  8
36-RH-SAN-POZOS
100
AcDbBlockReference
  2
POZO_SAN
 10
105448.924
 20
112368.453
 30
0.0
 50
290.0
  0
INSERT
  5
1EA
330
17
100
AcDbEntity
  8
36-RH-SAN-POZOS
100
AcDbBlockReference
  2
POZO_SAN
 10
105444.1766
 20
112440.0635
 30
0.0
 50
290.0
  0
INSERT
  5
1EC
330
17
100
AcDbEntity
  8
36-RH-SAN-POZOS
100
AcDbBlockReference
  2
POZO_SAN
 10
105438.1
 20
112524.28
 30
0.0
 50
290.0
  0
INSERT
  5
1EE
330
17
100
AcDbEntity
  8
36-RH-SAN-POZOS
100
AcDbBlockReference
  2
POZO_SAN
 10
105389.8464
 20
112750.4267
 30
0.0
 50
340.0
  0
INSERT
  5
1F0
330
17
100
AcDbEntity
  8
36-RH-SAN-POZOS
100
AcDbBlockReference
  2
POZO_SAN
 10
105434.099
 20
113159.203
 30
0.0
 50
279.0
  0
INSERT
  5
1F2
330
17
100
AcDbEntity
  8
36-RH-SAN-POZOS
100
AcDbBlockReference
  2
POZO_SAN
 10
105432.2357
 20
113125.8703
 30
0.0
 50
279.0
  0
INSERT
  5
1F4
330
17
100
AcDbEntity
  8
36-RH-SAN-POZOS
100
AcDbBlockReference
  2
POZO_SAN
 10
105427.7572
 20
113103.9318
 30
0.0
 50
279.0
  0
INSERT
  5
1F6
330
17
100
AcDbEntity
  8
36-RH-SAN-POZOS
100
AcDbBlockReference
  2
POZO_SAN
 10
105342.4865
 20
112926.5772
 30
0.0
 50
340.0
  0
INSERT
  5
1F8
330
17
100
AcDbEntity
  8
36-RH-SAN-POZOS
100
AcDbBlockReference
  2
POZO_SAN
 10
105399.9213
 20
113137.2222
 30
0.0
 50
279.0
  0
INSERT
  5
1FA
330
17
100
AcDbEntity
  8
36-RH-SAN-POZOS
100
AcDbBlockReference
  2
POZO_SAN
 10
105401.7265
 20
113162.0905
 30
0.0
 50
279.0
  0
INSERT
  5
1FC
330
17
100
AcDbEntity
  8
36-RH-SAN-POZOS
100
AcDbBlockReference
  2
POZO_SAN
 10
105399.1713
 20
113302.8525
 30
0.0
 50
279.0
  0
INSERT
  5
1FE
330
17
100
AcDbEntity
  8
36-RH-SAN-POZOS
100
AcDbBlockReference
  2
POZO_SAN
 10
105410.9829
 20
111844.6244
 30
0.0
 50
270.0
  0
INSERT
  5
200
330
17
100
AcDbEntity
  8
36-RH-SAN-POZOS
100
AcDbBlockReference
  2
POZO_SAN
 10
105434.74
 20
111848.4
 30
0.0
 50
270.0
  0
INSERT
  5
202
330
17
100
AcDbEntity
  8
36-RH-SAN-POZOS
100
AcDbBlockReference
  2
POZO_SAN
 10
105443.4815
 20
112005.1365
 30
0.0
 50
270.0
  0
INSERT
  5
204
330
17
100
AcDbEntity
  8
36-RH-SAN-POZOS
100
AcDbBlockReference
  2
POZO_SAN
 10
105255.2034
 20
112792.7856
 30
0.0
 50
340.0
  0
INSERT
  5
206
330
17
100
AcDbEntity
  8
36-RH-SAN-POZOS
100
AcDbBlockReference
  2
POZO_SAN
 10
105216.7942
 20
112839.8859
 30
0.0
 50
340.0
  0
INSERT
  5
208
330
17
100
AcDbEntity
  8
36-RH-SAN-POZOS
100
AcDbBlockReference
  2
POZO_SAN
 10
105261.8515
 20
112870.863
 30
0.0
 50
340.0
  0
INSERT
  5
20A
330
17
100
AcDbEntity
  8
36-RH-SAN-POZOS
100
AcDbBlockReference
  2
POZO_SAN
 10
105299.6522
 20
112897.637
 30
0.0
 50
340.0
  0
INSERT
  5
20C
330
17
100
AcDbEntity
  8
36-RH-SAN-POZOS
100
AcDbBlockReference
  2
POZO_SAN
 10
105325.3363
 20
112915.6234
 30
0.0
 50
340.0
  0
INSERT
  5
20E
330
17
100
AcDbEntity
  8
36-RH-SAN-POZOS
100
AcDbBlockReference
  2
POZO_SAN
 10
105402.62
 20
113392.4
 30
0.0
 50
279.0
  0
INSERT
  5
210
330
17
100
AcDbEntity
  8
36-RH-SAN-POZOS
100
AcDbBlockReference
  2
POZO_SAN
 10
105417.0383
 20
112645.8082
 30
0.0
 50
290.0
  0
INSERT
  5
212
330
17
100
AcDbEntity
  8
36-RH-SAN-POZOS
100
AcDbBlockReference
  2
POZO_SAN
 10
105331.5667
 20
112768.9395
 30
0.0
 50
340.0
  0
INSERT
  5
214
330
17
100
AcDbEntity
  8
36-RH-SAN-POZOS
100
AcDbBlockReference
  2
POZO_SAN
 10
105400.4407
 20
113258.7813
 30
0.0
 50
279.0
  0
INSERT
  5
216
330
17
100
AcDbEntity
  8
36-RH-SAN-POZOS
100
AcDbBlockReference
  2
POZO_SAN
 10
105400.99
 20
113212.37
 30
0.0
 50
279.0
  0
INSERT
  5
218
330
17
100
AcDbEntity
  8
36-RH-SAN-POZOS
100
AcDbBlockReference
  2
POZO_SAN
 10
105398.2181
 20
113352.9403
 30
0.0
 50
279.0
  0
INSERT
  5
21A
330
17
100
AcDbEntity
  8
36-RH-SAN-POZOS
100
AcDbBlockReference
  2
POZO_SAN
 10
105419.943
 20
111997.6755
 30
0.0
 50
270.0
  0
INSERT
  5
21C
330
17
100
AcDbEntity
  8
36-RH-SAN-POZOS
100
AcDbBlockReference
  2
POZO_SAN
 10
105418.274
 20
111956.448
 30
0.0
 50
270.0
  0
INSERT
  5
21E
330
17
100
AcDbEntity
  8
36-RH-SAN-POZOS
100
AcDbBlockReference
  2
POZO_SAN
 10
105397.626
 20
112623.497
 30
0.0
 50
285.0
  0
INSERT
  5
220
330
17
100
AcDbEntity
  8
36-RH-SAN-POZOS
100
AcDbBlockReference
  2
POZO_SAN
 10
105400.19
 20
112601.45
 30
0.0
 50
290.0
  0
INSERT
  5
222
330
17
100
AcDbEntity
  8
36-RH-SAN-POZOS
100
AcDbBlockReference
  2
POZO_SAN
 10
105160.8385
 20
112824.4546
 30
0.0
 50
340.0
  0
INSERT
  5
224
330
17
100
AcDbEntity
  8
36-RH-SAN-POZOS
100
AcDbBlockReference
  2
POZO_SAN
 10
105379.5286
 20
112941.2799
 30
0.0
 50
340.0
  0
INSERT
  5
226
330
17
100
AcDbEntity
  8
36-RH-SAN-POZOS
100
AcDbBlockReference
  2
POZO_SAN
 10
105399.2465
 20
113003.2088
 30
0.0
 50
340.0
  0
INSERT
  5
228
330
17
100
AcDbEntity
  8
36-RH-SAN-POZOS
100
AcDbBlockReference
  2
POZO_SAN
 10
105407.4339
 20
112269.9486
 30
0.0
 50
270.0
  0
INSERT
  5
22A
330
17
100
AcDbEntity
  8
36-RH-SAN-POZOS
100
AcDbBlockReference
  2
POZO_SAN
 10
105394.2312
 20
112403.4042
 30
0.0
 50
270.0
  0
INSERT
  5
22C
330
17
100
AcDbEntity
  8
36-RH-SAN-POZOS
100
AcDbBlockReference
  2
POZO_SAN
 10
105401.8114
 20
112704.7075
 30
0.0
 50
340.0
  0
INSERT
  5
22E
330
17
100
AcDbEntity
  8
36-RH-SAN-POZOS
100
AcDbBlockReference
  2
POZO_SAN
 10
105437.16
 20
111783.15
 30
0.0
 50
270.0
  0
INSERT
  5
230
330
17
100
AcDbEntity
  8
36-RH-SAN-POZOS
100
AcDbBlockReference
  2
POZO_SAN
 10
105425.4782
 20
112321.0752
 30
0.0
 50
285.0
  0
INSERT
  5
232
330
17
100
AcDbEntity
  8
36-RH-SAN-POZOS
100
AcDbBlockReference
  2
POZO_SAN
 10
105412.1152
 20
111814.4076
 30
0.0
 50
270.0
  0
INSERT
  5
234
330
17
100
AcDbEntity
  8
36-RH-SAN-POZOS
100
AcDbBlockReference
  2
POZO_SAN
 10
105387.1317
 20
112671.5264
 30
0.0
 50
290.0
  0
INSERT
  5
236
330
17
100
AcDbEntity
  8
36-RH-SAN-POZOS
100
AcDbBlockReference
  2
POZO_SAN
 10
105369.011
 20
113280.4952
 30
0.0
 50
279.0
  0
INSERT
  5
238
330
17
100
AcDbEntity
  8
36-RH-SAN-POZOS
100
AcDbBlockReference
  2
POZO_SAN
 10
105417.6421
 20
113066.3354
 30
0.0
 50
279.0
  0
INSERT
  5
23A
330
17
100
AcDbEntity
  8
36-RH-SAN-POZOS
100
AcDbBlockReference
  2
POZO_SAN
 10
105433.4516
 20
112577.9311
 30
0.0
 50
290.0
  0
INSERT
  5
23C
330
17
100
AcDbEntity
  8
36-RH-SAN-POZOS
100
AcDbBlockReference
  2
POZO_SAN
 10
105435.972
 20
111891.5274
 30
0.0
 50
270.0
  0
INSERT
  5
23E
330
17
100
AcDbEntity
  8
36-RH-SAN-POZOS
100
AcDbBlockReference
  2
POZO_SAN
 10
105432.948
 20
112152.81
 30
0.0
 50
270.0
  0
INSERT
  5
240
330
17
100
AcDbEntity
  8
36-RH-SAN-POZOS
100
AcDbBlockReference
  2
POZO_SAN
 10
105513.43
 20
112804.77
 30
0.0
 50
340.0
  0
INSERT
  5
242
330
17
100
AcDbEntity
  8
36-RH-SAN-POZOS
100
AcDbBlockReference
  2
POZO_SAN
 10
105388.5278
 20
113272.5991
 30
0.0
 50
279.0
  0
INSERT
  5
244
330
17
100
AcDbEntity
  8
36-RH-SAN-POZOS
100
AcDbBlockReference
  2
POZO_SAN
 10
105871.0017
 20
114581.1069
 30
0.0
 50
341.1
  0
INSERT
  5
246
330
17
100
AcDbEntity
  8
36-RH-SAN-POZOS
100
AcDbBlockReference
  2
POZO_SAN
 10
105927.4074
 20
114805.6809
 30
0.0
 50
177.6
  0
INSERT
  5
248
330
17
100
AcDbEntity
  8
36-RH-SAN-POZOS
100
AcDbBlockReference
  2
POZO_SAN
 10
105925.2
 20
114746.287
 30
0.0
 50
74.0
  0
INSERT
  5
24A
330
17
100
AcDbEntity
  8
36-RH-SAN-POZOS
100
AcDbBlockReference
  2
POZO_SAN
 10
105881.3322
 20
114618.943
 30
0.0
 50
250.7
  0
INSERT
  5
24C
330
17
100
AcDbEntity
  8
36-RH-SAN-POZOS
100
AcDbBlockReference
  2
POZO_SAN
 10
105414.1662
 20
113415.7516
 30
0.0
 50
328.6
  0
INSERT
  5
24E
330
17
100
AcDbEntity
  8
36-RH-SAN-POZOS
100
AcDbBlockReference
  2
POZO_SAN
 10
105538.6817
 20
113615.5873
 30
0.0
 50
154.8
  0
INSERT
  5
250
330
17
100
AcDbEntity
  8
36-RH-SAN-POZOS
100
AcDbBlockReference
  2
POZO_SAN
 10
105560.6606
 20
113663.1738
 30
0.0
 50
334.5
  0
INSERT
  5
252
330
17
100
AcDbEntity
  8
36-RH-SAN-POZOS
100
AcDbBlockReference
  2
POZO_SAN
 10
105558.5294
 20
113657.481
 30
0.0
 50
152.4
  0
INSERT
  5
254
330
17
100
AcDbEntity
  8
36-RH-SAN-POZOS
100
AcDbBlockReference
  2
POZO_SAN
 10
105827.222
 20
114294.309
 30
0.0
 50
349.5
  0
INSERT
  5
256
330
17
100
AcDbEntity
  8
36-RH-SAN-POZOS
100
AcDbBlockReference
  2
POZO_SAN
 10
105823.6897
 20
114281.6028
 30
0.0
 50
150.6
  0
INSERT
  5
258
330
17
100
AcDbEntity
  8
36-RH-SAN-POZOS
100
AcDbBlockReference
  2
POZO_SAN
 10
105613.3133
 20
113741.1
 30
0.0
 50
321.4
  0
INSERT
  5
25A
330
17
100
AcDbEntity
  8
36-RH-SAN-POZOS
100
AcDbBlockReference
  2
POZO_SAN
 10
105691.8623
 20
113948.5131
 30
0.0
 50
179.9
  0
INSERT
  5
25C
330
17
100
AcDbEntity
  8
36-RH-SAN-POZOS
100
AcDbBlockReference
  2
POZO_SAN
 10
105709.3928
 20
114085.5297
 30
0.0
 50
342.2
  0
INSERT
  5
25E
330
17
100
AcDbEntity
  8
36-RH-SAN-POZOS
100
AcDbBlockReference
  2
POZO_SAN
 10
105676.9782
 20
114015.209
 30
0.0
 50
72.7
  0
INSERT
  5
260
330
17
100
AcDbEntity
  8
36-RH-SAN-POZOS
100
AcDbBlockReference
  2
POZO_SAN
 10
105843.6
 20
114441.3434
 30
0.0
 50
352.7
  0
INSERT
  5
262
330
17
100
AcDbEntity
  8
36-RH-SAN-POZOS
100
AcDbBlockReference
  2
POZO_SAN
 10
105779.2389
 20
114163.7227
 30
0.0
 50
151.5
  0
INSERT
  5
264
330
17
100
AcDbEntity
  8
36-RH-SAN-POZOS
100
AcDbBlockReference
  2
POZO_SAN
 10
105917.67
 20
114616.4037
 30
0.0
 50
264.0
  0
INSERT
  5
266
330
17
100
AcDbEntity
  8
36-RH-SAN-POZOS
100
AcDbBlockReference
  2
POZO_SAN
 10
105861.8882
 20
114555.15
 30
0.0
 50
264.0
  0
INSERT
  5
268
330
17
100
AcDbEntity
  8
36-RH-SAN-POZOS
100
AcDbBlockReference
  2
POZO_SAN
 10
105949.3507
 20
114715.125
 30
0.0
 50
264.0
  0
INSERT
  5
26A
330
17
100
AcDbEntity
  8
36-RH-SAN-POZOS
100
AcDbBlockReference
  2
POZO_SAN
 10
105936.1581
 20
114669.8462
 30
0.0
 50
264.0
  0
INSERT
  5
26C
330
17
100
AcDbEntity
  8
36-RH-SAN-POZOS
100
AcDbBlockReference
  2
POZO_SAN
 10
105923.5604
 20
114746.7466
 30
0.0
 50
264.0
  0
INSERT
  5
26E
330
17
100
AcDbEntity
  8
36-RH-SAN-POZOS
100
AcDbBlockReference
  2
POZO_SAN
 10
105909.9728
 20
114692.8224
 30
0.0
 50
264.0
  0
INSERT
  5
270
330
17
100
AcDbEntity
  8
36-RH-SAN-POZOS
100
AcDbBlockReference
  2
POZO_SAN
 10
105926.2872
 20
114771.1332
 30
0.0
 50
264.0
  0
INSERT
  5
272
330
17
100
AcDbEntity
  8
36-RH-SAN-POZOS
100
AcDbBlockReference
  2
POZO_SAN
 10
105928.9109
 20
114648.8732
 30
0.0
 50
264.0
  0
INSERT
  5
274
330
17
100
AcDbEntity
  8
36-RH-SAN-POZOS
100
AcDbBlockReference
  2
POZO_SAN
 10
105871.0017
 20
114581.1069
 30
0.0
 50
264.0
  0
INSERT
  5
276
330
17
100
AcDbEntity
  8
36-RH-SAN-POZOS
100
AcDbBlockReference
  2
POZO_SAN
 10
105909.8748
 20
114750.2713
 30
0.0
 50
264.0
  0
INSERT
  5
278
330
17
100
AcDbEntity
  8
36-RH-SAN-POZOS
100
AcDbBlockReference
  2
POZO_SAN
 10
105900.1988
 20
114754.7726
 30
0.0
 50
264.0
  0
INSERT
  5
27A
330
17
100
AcDbEntity
  8
36-RH-SAN-POZOS
100
AcDbBlockReference
  2
POZO_SAN
 10
105538.6852
 20
113615.5815
 30
0.0
 50
243.0
  0
INSERT
  5
27C
330
17
100
AcDbEntity
  8
36-RH-SAN-POZOS
100
AcDbBlockReference
  2
POZO_SAN
 10
105509.7912
 20
113559.3894
 30
0.0
 50
243.0
  0
INSERT
  5
27E
330
17
100
AcDbEntity
  8
36-RH-SAN-POZOS
100
AcDbBlockReference
  2
POZO_SAN
 10
105477.281
 20
113510.497
 30
0.0
 50
243.0
  0
INSERT
  5
280
330
17
100
AcDbEntity
  8
36-RH-SAN-POZOS
100
AcDbBlockReference
  2
POZO_SAN
 10
105447.274
 20
113466.142
 30
0.0
 50
243.0
  0
INSERT
  5
282
330
17
100
AcDbEntity
  8
36-RH-SAN-POZOS
100
AcDbBlockReference
  2
POZO_SAN
 10
105427.6471
 20
113439.3916
 30
0.0
 50
279.0
  0
INSERT
  5
284
330
17
100
AcDbEntity
  8
36-RH-SAN-POZOS
100
AcDbBlockReference
  2
POZO_SAN
 10
105524.6682
 20
113586.7637
 30
0.0
 50
243.0
  0
INSERT
  5
286
330
17
100
AcDbEntity
  8
36-RH-SAN-POZOS
100
AcDbBlockReference
  2
POZO_SAN
 10
105560.6606
 20
113663.1738
 30
0.0
 50
243.0
  0
INSERT
  5
288
330
17
100
AcDbEntity
  8
36-RH-SAN-POZOS
100
AcDbBlockReference
  2
POZO_SAN
 10
105414.1662
 20
113415.7516
 30
0.0
 50
279.0
  0
INSERT
  5
28A
330
17
100
AcDbEntity
  8
36-RH-SAN-POZOS
100
AcDbBlockReference
  2
POZO_SAN
 10
105545.7179
 20
113633.21
 30
0.0
 50
243.0
  0
INSERT
  5
28C
330
17
100
AcDbEntity
  8
36-RH-SAN-POZOS
100
AcDbBlockReference
  2
POZO_SAN
 10
105558.5294
 20
113657.481
 30
0.0
 50
243.0
  0
INSERT
  5
28E
330
17
100
AcDbEntity
  8
36-RH-SAN-POZOS
100
AcDbBlockReference
  2
POZO_SAN
 10
105653.2958
 20
113785.9306
 30
0.0
 50
243.0
  0
INSERT
  5
290
330
17
100
AcDbEntity
  8
36-RH-SAN-POZOS
100
AcDbBlockReference
  2
POZO_SAN
 10
105667.6129
 20
113806.9352
 30
0.0
 50
243.0
  0
INSERT
  5
292
330
17
100
AcDbEntity
  8
36-RH-SAN-POZOS
100
AcDbBlockReference
  2
POZO_SAN
 10
105680.9228
 20
113841.6324
 30
0.0
 50
257.0
  0
INSERT
  5
294
330
17
100
AcDbEntity
  8
36-RH-SAN-POZOS
100
AcDbBlockReference
  2
POZO_SAN
 10
105689.3376
 20
113909.6837
 30
0.0
 50
257.0
  0
INSERT
  5
296
330
17
100
AcDbEntity
  8
36-RH-SAN-POZOS
100
AcDbBlockReference
  2
POZO_SAN
 10
105691.9377
 20
113948.4747
 30
0.0
 50
257.0
  0
INSERT
  5
298
330
17
100
AcDbEntity
  8
36-RH-SAN-POZOS
100
AcDbBlockReference
  2
POZO_SAN
 10
105613.3133
 20
113741.1
 30
0.0
 50
243.0
  0
INSERT
  5
29A
330
17
100
AcDbEntity
  8
36-RH-SAN-POZOS
100
AcDbBlockReference
  2
POZO_SAN
 10
105854.654
 20
114301.255
 30
0.0
 50
250.0
  0
INSERT
  5
29C
330
17
100
AcDbEntity
  8
36-RH-SAN-POZOS
100
AcDbBlockReference
  2
POZO_SAN
 10
105835.079
 20
114252.287
 30
0.0
 50
250.0
  0
INSERT
  5
29E
330
17
100
AcDbEntity
  8
36-RH-SAN-POZOS
100
AcDbBlockReference
  2
POZO_SAN
 10
105827.222
 20
114294.309
 30
0.0
 50
250.0
  0
INSERT
  5
2A0
330
17
100
AcDbEntity
  8
36-RH-SAN-POZOS
100
AcDbBlockReference
  2
POZO_SAN
 10
105832.3
 20
114321.67
 30
0.0
 50
250.0
  0
INSERT
  5
2A2
330
17
100
AcDbEntity
  8
36-RH-SAN-POZOS
100
AcDbBlockReference
  2
POZO_SAN
 10
105823.6897
 20
114281.6028
 30
0.0
 50
250.0
  0
INSERT
  5
2A4
330
17
100
AcDbEntity
  8
36-RH-SAN-POZOS
100
AcDbBlockReference
  2
POZO_SAN
 10
105856.6563
 20
114322.4194
 30
0.0
 50
250.0
  0
INSERT
  5
2A6
330
17
100
AcDbEntity
  8
36-RH-SAN-POZOS
100
AcDbBlockReference
  2
POZO_SAN
 10
105404.1855
 20
113451.9698
 30
0.0
 50
279.0
  0
INSERT
  5
2A8
330
17
100
AcDbEntity
  8
36-RH-SAN-POZOS
100
AcDbBlockReference
  2
POZO_SAN
 10
105709.3928
 20
114085.5297
 30
0.0
 50
250.0
  0
INSERT
  5
2AA
330
17
100
AcDbEntity
  8
36-RH-SAN-POZOS
100
AcDbBlockReference
  2
POZO_SAN
 10
105739.532
 20
114092.8123
 30
0.0
 50
250.0
  0
INSERT
  5
2AC
330
17
100
AcDbEntity
  8
36-RH-SAN-POZOS
100
AcDbBlockReference
  2
POZO_SAN
 10
105481.0984
 20
113479.0947
 30
0.0
 50
243.0
  0
INSERT
  5
2AE
330
17
100
AcDbEntity
  8
36-RH-SAN-POZOS
100
AcDbBlockReference
  2
POZO_SAN
 10
105508.2695
 20
113517.3153
 30
0.0
 50
243.0
  0
INSERT
  5
2B0
330
17
100
AcDbEntity
  8
36-RH-SAN-POZOS
100
AcDbBlockReference
  2
POZO_SAN
 10
105592.6543
 20
113680.2102
 30
0.0
 50
243.0
  0
INSERT
  5
2B2
330
17
100
AcDbEntity
  8
36-RH-SAN-POZOS
100
AcDbBlockReference
  2
POZO_SAN
 10
105624.6044
 20
113721.9072
 30
0.0
 50
243.0
  0
INSERT
  5
2B4
330
17
100
AcDbEntity
  8
36-RH-SAN-POZOS
100
AcDbBlockReference
  2
POZO_SAN
 10
105710.365
 20
113829.375
 30
0.0
 50
257.0
  0
INSERT
  5
2B6
330
17
100
AcDbEntity
  8
36-RH-SAN-POZOS
100
AcDbBlockReference
  2
POZO_SAN
 10
105716.4667
 20
113870.4904
 30
0.0
 50
257.0
  0
INSERT
  5
2B8
330
17
100
AcDbEntity
  8
36-RH-SAN-POZOS
100
AcDbBlockReference
  2
POZO_SAN
 10
105721.747
 20
113921.412
 30
0.0
 50
257.0
  0
INSERT
  5
2BA
330
17
100
AcDbEntity
  8
36-RH-SAN-POZOS
100
AcDbBlockReference
  2
POZO_SAN
 10
105697.1418
 20
113795.4714
 30
0.0
 50
243.0
  0
INSERT
  5
2BC
330
17
100
AcDbEntity
  8
36-RH-SAN-POZOS
100
AcDbBlockReference
  2
POZO_SAN
 10
105575.646
 20
113646.801
 30
0.0
 50
243.0
  0
INSERT
  5
2BE
330
17
100
AcDbEntity
  8
36-RH-SAN-POZOS
100
AcDbBlockReference
  2
POZO_SAN
 10
105672.7398
 20
113767.1755
 30
0.0
 50
243.0
  0
INSERT
  5
2C0
330
17
100
AcDbEntity
  8
36-RH-SAN-POZOS
100
AcDbBlockReference
  2
POZO_SAN
 10
105607.2408
 20
113702.0388
 30
0.0
 50
243.0
  0
INSERT
  5
2C2
330
17
100
AcDbEntity
  8
36-RH-SAN-POZOS
100
AcDbBlockReference
  2
POZO_SAN
 10
105726.2618
 20
113990.1802
 30
0.0
 50
257.0
  0
INSERT
  5
2C4
330
17
100
AcDbEntity
  8
36-RH-SAN-POZOS
100
AcDbBlockReference
  2
POZO_SAN
 10
105653.1645
 20
114017.966
 30
0.0
 50
257.0
  0
INSERT
  5
2C6
330
17
100
AcDbEntity
  8
36-RH-SAN-POZOS
100
AcDbBlockReference
  2
POZO_SAN
 10
105653.7978
 20
114016.3546
 30
0.0
 50
257.0
  0
INSERT
  5
2C8
330
17
100
AcDbEntity
  8
36-RH-SAN-POZOS
100
AcDbBlockReference
  2
POZO_SAN
 10
105650.7418
 20
114012.6711
 30
0.0
 50
257.0
  0
INSERT
  5
2CA
330
17
100
AcDbEntity
  8
36-RH-SAN-POZOS
100
AcDbBlockReference
  2
POZO_SAN
 10
105676.9782
 20
114015.209
 30
0.0
 50
257.0
  0
INSERT
  5
2CC
330
17
100
AcDbEntity
  8
36-RH-SAN-POZOS
100
AcDbBlockReference
  2
POZO_SAN
 10
105655.3679
 20
114022.7825
 30
0.0
 50
257.0
  0
INSERT
  5
2CE
330
17
100
AcDbEntity
  8
36-RH-SAN-POZOS
100
AcDbBlockReference
  2
POZO_SAN
 10
105693.6832
 20
114003.3772
 30
0.0
 50
257.0
  0
INSERT
  5
2D0
330
17
100
AcDbEntity
  8
36-RH-SAN-POZOS
100
AcDbBlockReference
  2
POZO_SAN
 10
105727.4599
 20
114006.5371
 30
0.0
 50
257.0
  0
INSERT
  5
2D2
330
17
100
AcDbEntity
  8
36-RH-SAN-POZOS
100
AcDbBlockReference
  2
POZO_SAN
 10
105684.9032
 20
113781.2084
 30
0.0
 50
243.0
  0
INSERT
  5
2D4
330
17
100
AcDbEntity
  8
36-RH-SAN-POZOS
100
AcDbBlockReference
  2
POZO_SAN
 10
105731.2818
 20
114060.3264
 30
0.0
 50
250.0
  0
INSERT
  5
2D6
330
17
100
AcDbEntity
  8
36-RH-SAN-POZOS
100
AcDbBlockReference
  2
POZO_SAN
 10
105779.2389
 20
114163.7227
 30
0.0
 50
250.0
  0
INSERT
  5
2D8
330
17
100
AcDbEntity
  8
36-RH-SAN-POZOS
100
AcDbBlockReference
  2
POZO_SAN
 10
105775.3761
 20
114201.992
 30
0.0
 50
250.0
  0
INSERT
  5
2DA
330
17
100
AcDbEntity
  8
36-RH-SAN-POZOS
100
AcDbBlockReference
  2
POZO_SAN
 10
105802.4548
 20
114244.8903
 30
0.0
 50
250.0
  0
INSERT
  5
2DC
330
17
100
AcDbEntity
  8
36-RH-SAN-POZOS
100
AcDbBlockReference
  2
POZO_SAN
 10
105843.6
 20
114441.3434
 30
0.0
 50
264.0
  0
INSERT
  5
2DE
330
17
100
AcDbEntity
  8
36-RH-SAN-POZOS
100
AcDbBlockReference
  2
POZO_SAN
 10
105535.2245
 20
113560.293
 30
0.0
 50
243.0
  0
INSERT
  5
2E0
330
17
100
AcDbEntity
  8
36-RH-SAN-POZOS
100
AcDbBlockReference
  2
POZO_SAN
 10
105556.4097
 20
113602.7171
 30
0.0
 50
243.0
  0
INSERT
  5
2E2
330
17
100
AcDbEntity
  8
36-RH-SAN-POZOS
100
AcDbBlockReference
  2
POZO_SAN
 10
105652.7167
 20
113837.8658
 30
0.0
 50
257.0
  0
INSERT
  5
2E4
330
17
100
AcDbEntity
  8
36-RH-SAN-POZOS
100
AcDbBlockReference
  2
POZO_SAN
 10
105834.9483
 20
114352.5224
 30
0.0
 50
250.0
  0
INSERT
  5
2E6
330
17
100
AcDbEntity
  8
36-RH-SAN-POZOS
100
AcDbBlockReference
  2
POZO_SAN
 10
105675.849
 20
113827.7964
 30
0.0
 50
257.0
  0
INSERT
  5
2E8
330
17
100
AcDbEntity
  8
36-RH-SAN-POZOS
100
AcDbBlockReference
  2
POZO_SAN
 10
105894.7185
 20
114546.0147
 30
0.0
 50
264.0
  0
INSERT
  5
2EA
330
17
100
AcDbEntity
  8
36-RH-SAN-POZOS
100
AcDbBlockReference
  2
POZO_SAN
 10
105826.7206
 20
114239.0477
 30
0.0
 50
250.0
  0
INSERT
  5
2EC
330
17
100
AcDbEntity
  8
36-RH-SAN-POZOS
100
AcDbBlockReference
  2
POZO_SAN
 10
105854.6985
 20
114518.8454
 30
0.0
 50
264.0
  0
INSERT
  5
2EE
330
17
100
AcDbEntity
  8
36-RH-SAN-POZOS
100
AcDbBlockReference
  2
POZO_SAN
 10
105753.67
 20
114121.09
 30
0.0
 50
250.0
  0
INSERT
  5
2F0
330
17
100
AcDbEntity
  8
36-RH-SAN-POZOS
100
AcDbBlockReference
  2
POZO_SAN
 10
105741.5577
 20
114146.8396
 30
0.0
 50
250.0
  0
INSERT
  5
2F2
330
17
100
AcDbEntity
  8
36-RH-SAN-POZOS
100
AcDbBlockReference
  2
POZO_SAN
 10
105799.8283
 20
114196.4505
 30
0.0
 50
250.0
  0
INSERT
  5
2F4
330
17
100
AcDbEntity
  8
36-RH-SAN-POZOS
100
AcDbBlockReference
  2
POZO_SAN
 10
105848.1965
 20
114282.7112
 30
0.0
 50
250.0
  0
INSERT
  5
2F6
330
17
100
AcDbEntity
  8
36-RH-SAN-POZOS
100
AcDbBlockReference
  2
POZO_SAN
 10
105927.4074
 20
114805.6809
 30
0.0
 50
264.0
  0
INSERT
  5
2F8
330
17
100
AcDbEntity
  8
36-RH-SAN-POZOS
100
AcDbBlockReference
  2
POZO_SAN
 10
105877.5831
 20
114654.1758
 30
0.0
 50
264.0
  0
INSERT
  5
2FA
330
17
100
AcDbEntity
  8
36-RH-SAN-POZOS
100
AcDbBlockReference
  2
POZO_SAN
 10
105894.1398
 20
114647.9483
 30
0.0
 50
264.0
  0
INSERT
  5
2FC
330
17
100
AcDbEntity
  8
36-RH-SAN-POZOS
100
AcDbBlockReference
  2
POZO_SAN
 10
105711.2184
 20
114092.0761
 30
0.0
 50
250.0
  0
INSERT
  5
2FE
330
17
100
AcDbEntity
  8
36-RH-SAN-POZOS
100
AcDbBlockReference
  2
POZO_SAN
 10
105689.9057
 20
114101.5528
 30
0.0
 50
250.0
  0
INSERT
  5
300
330
17
100
AcDbEntity
  8
36-RH-SAN-POZOS
100
AcDbBlockReference
  2
POZO_SAN
 10
105939.505
 20
114995.534
 30
0.0
 50
358.9
  0
INSERT
  5
302
330
17
100
AcDbEntity
  8
36-RH-SAN-POZOS
100
AcDbBlockReference
  2
POZO_SAN
 10
105954.4964
 20
114862.7849
 30
0.0
 50
356.3
  0
INSERT
  5
304
330
17
100
AcDbEntity
  8
36-RH-SAN-POZOS
100
AcDbBlockReference
  2
POZO_SAN
 10
105927.91
 20
114837.1536
 30
0.0
 50
358.5
  0
INSERT
  5
306
330
17
100
AcDbEntity
  8
36-RH-SAN-POZOS
100
AcDbBlockReference
  2
POZO_SAN
 10
106102.632
 20
116587.761
 30
0.0
 50
6.0
  0
INSERT
  5
308
330
17
100
AcDbEntity
  8
36-RH-SAN-POZOS
100
AcDbBlockReference
  2
POZO_SAN
 10
106064.9481
 20
115672.8621
 30
0.0
 50
168.0
  0
INSERT
  5
30A
330
17
100
AcDbEntity
  8
36-RH-SAN-POZOS
100
AcDbBlockReference
  2
POZO_SAN
 10
106149.0361
 20
116129.8303
 30
0.0
 50
178.9
  0
INSERT
  5
30C
330
17
100
AcDbEntity
  8
36-RH-SAN-POZOS
100
AcDbBlockReference
  2
POZO_SAN
 10
105983.034
 20
115555.7393
 30
0.0
 50
132.5
  0
INSERT
  5
30E
330
17
100
AcDbEntity
  8
36-RH-SAN-POZOS
100
AcDbBlockReference
  2
POZO_SAN
 10
106149.0361
 20
116129.8303
 30
0.0
 50
178.9
  0
INSERT
  5
310
330
17
100
AcDbEntity
  8
36-RH-SAN-POZOS
100
AcDbBlockReference
  2
POZO_SAN
 10
105983.034
 20
115555.7393
 30
0.0
 50
132.5
  0
INSERT
  5
312
330
17
100
AcDbEntity
  8
36-RH-SAN-POZOS
100
AcDbBlockReference
  2
POZO_SAN
 10
106149.0361
 20
116129.8303
 30
0.0
 50
178.9
  0
INSERT
  5
314
330
17
100
AcDbEntity
  8
36-RH-SAN-POZOS
100
AcDbBlockReference
  2
POZO_SAN
 10
105983.034
 20
115555.7393
 30
0.0
 50
132.5
  0
INSERT
  5
316
330
17
100
AcDbEntity
  8
36-RH-SAN-POZOS
100
AcDbBlockReference
  2
POZO_SAN
 10
106041.0443
 20
115614.93
 30
0.0
 50
326.1
  0
INSERT
  5
318
330
17
100
AcDbEntity
  8
36-RH-SAN-POZOS
100
AcDbBlockReference
  2
POZO_SAN
 10
106038.8793
 20
115612.6553
 30
0.0
 50
132.0
  0
INSERT
  5
31A
330
17
100
AcDbEntity
  8
36-RH-SAN-POZOS
100
AcDbBlockReference
  2
POZO_SAN
 10
106149.0361
 20
116129.8303
 30
0.0
 50
178.9
  0
INSERT
  5
31C
330
17
100
AcDbEntity
  8
36-RH-SAN-POZOS
100
AcDbBlockReference
  2
POZO_SAN
 10
105983.034
 20
115555.7393
 30
0.0
 50
132.5
  0
INSERT
  5
31E
330
17
100
AcDbEntity
  8
36-RH-SAN-POZOS
100
AcDbBlockReference
  2
POZO_SAN
 10
105986.24
 20
115513.11
 30
0.0
 50
40.0
  0
INSERT
  5
320
330
17
100
AcDbEntity
  8
36-RH-SAN-POZOS
100
AcDbBlockReference
  2
POZO_SAN
 10
105902.746
 20
117195.416
 30
0.0
 50
4.7
  0
INSERT
  5
322
330
17
100
AcDbEntity
  8
36-RH-SAN-POZOS
100
AcDbBlockReference
  2
POZO_SAN
 10
105902.746
 20
117195.416
 30
0.0
 50
4.7
  0
INSERT
  5
324
330
17
100
AcDbEntity
  8
36-RH-SAN-POZOS
100
AcDbBlockReference
  2
POZO_SAN
 10
105902.746
 20
117195.416
 30
0.0
 50
4.7
  0
INSERT
  5
326
330
17
100
AcDbEntity
  8
36-RH-SAN-POZOS
100
AcDbBlockReference
  2
POZO_SAN
 10
105937.7048
 20
117208.8838
 30
0.0
 50
95.2
  0
INSERT
  5
328
330
17
100
AcDbEntity
  8
36-RH-SAN-POZOS
100
AcDbBlockReference
  2
POZO_SAN
 10
105902.746
 20
117195.416
 30
0.0
 50
4.7
  0
INSERT
  5
32A
330
17
100
AcDbEntity
  8
36-RH-SAN-POZOS
100
AcDbBlockReference
  2
POZO_SAN
 10
105786.2309
 20
117910.2313
 30
0.0
 50
204.8
  0
INSERT
  5
32C
330
17
100
AcDbEntity
  8
36-RH-SAN-POZOS
100
AcDbBlockReference
  2
POZO_SAN
 10
105915.291
 20
115604.058
 30
0.0
 50
66.3
  0
INSERT
  5
32E
330
17
100
AcDbEntity
  8
36-RH-SAN-POZOS
100
AcDbBlockReference
  2
POZO_SAN
 10
106145.6356
 20
116551.6703
 30
0.0
 50
82.7
  0
INSERT
  5
330
330
17
100
AcDbEntity
  8
36-RH-SAN-POZOS
100
AcDbBlockReference
  2
POZO_SAN
 10
105922.4978
 20
117109.3292
 30
0.0
 50
202.1
  0
INSERT
  5
332
330
17
100
AcDbEntity
  8
36-RH-SAN-POZOS
100
AcDbBlockReference
  2
POZO_SAN
 10
105693.1503
 20
118040.8311
 30
0.0
 50
30.9
  0
INSERT
  5
334
330
17
100
AcDbEntity
  8
36-RH-SAN-POZOS
100
AcDbBlockReference
  2
POZO_SAN
 10
106097.7529
 20
116526.1466
 30
0.0
 50
82.7
  0
INSERT
  5
336
330
17
100
AcDbEntity
  8
36-RH-SAN-POZOS
100
AcDbBlockReference
  2
POZO_SAN
 10
105902.3176
 20
117561.8592
 30
0.0
 50
279.0
  0
INSERT
  5
338
330
17
100
AcDbEntity
  8
36-RH-SAN-POZOS
100
AcDbBlockReference
  2
POZO_SAN
 10
105899.577
 20
117595.5492
 30
0.0
 50
279.0
  0
INSERT
  5
33A
330
17
100
AcDbEntity
  8
36-RH-SAN-POZOS
100
AcDbBlockReference
  2
POZO_SAN
 10
105823.1505
 20
117692.3971
 30
0.0
 50
279.0
  0
INSERT
  5
33C
330
17
100
AcDbEntity
  8
36-RH-SAN-POZOS
100
AcDbBlockReference
  2
POZO_SAN
 10
105906.22
 20
117500.82
 30
0.0
 50
279.0
  0
INSERT
  5
33E
330
17
100
AcDbEntity
  8
36-RH-SAN-POZOS
100
AcDbBlockReference
  2
POZO_SAN
 10
105909.3368
 20
117449.974
 30
0.0
 50
279.0
  0
INSERT
  5
340
330
17
100
AcDbEntity
  8
36-RH-SAN-POZOS
100
AcDbBlockReference
  2
POZO_SAN
 10
105892.5246
 20
117629.8569
 30
0.0
 50
279.0
  0
INSERT
  5
342
330
17
100
AcDbEntity
  8
36-RH-SAN-POZOS
100
AcDbBlockReference
  2
POZO_SAN
 10
105878.9323
 20
117691.4166
 30
0.0
 50
279.0
  0
INSERT
  5
344
330
17
100
AcDbEntity
  8
36-RH-SAN-POZOS
100
AcDbBlockReference
  2
POZO_SAN
 10
105932.815
 20
117445.7477
 30
0.0
 50
279.0
  0
INSERT
  5
346
330
17
100
AcDbEntity
  8
36-RH-SAN-POZOS
100
AcDbBlockReference
  2
POZO_SAN
 10
105912.7104
 20
117398.4432
 30
0.0
 50
279.0
  0
INSERT
  5
348
330
17
100
AcDbEntity
  8
36-RH-SAN-POZOS
100
AcDbBlockReference
  2
POZO_SAN
 10
105819.0435
 20
117689.0964
 30
0.0
 50
279.0
  0
INSERT
  5
34A
330
17
100
AcDbEntity
  8
36-RH-SAN-POZOS
100
AcDbBlockReference
  2
POZO_SAN
 10
106106.3019
 20
115782.2262
 30
0.0
 50
245.0
  0
INSERT
  5
34C
330
17
100
AcDbEntity
  8
36-RH-SAN-POZOS
100
AcDbBlockReference
  2
POZO_SAN
 10
105939.505
 20
114995.534
 30
0.0
 50
267.0
  0
INSERT
  5
34E
330
17
100
AcDbEntity
  8
36-RH-SAN-POZOS
100
AcDbBlockReference
  2
POZO_SAN
 10
105939.7411
 20
115029.4518
 30
0.0
 50
267.0
  0
INSERT
  5
350
330
17
100
AcDbEntity
  8
36-RH-SAN-POZOS
100
AcDbBlockReference
  2
POZO_SAN
 10
105934.1276
 20
115059.376
 30
0.0
 50
275.0
  0
INSERT
  5
352
330
17
100
AcDbEntity
  8
36-RH-SAN-POZOS
100
AcDbBlockReference
  2
POZO_SAN
 10
105963.416
 20
115033.863
 30
0.0
 50
267.0
  0
INSERT
  5
354
330
17
100
AcDbEntity
  8
36-RH-SAN-POZOS
100
AcDbBlockReference
  2
POZO_SAN
 10
105954.2215
 20
115081.6637
 30
0.0
 50
275.0
  0
INSERT
  5
356
330
17
100
AcDbEntity
  8
36-RH-SAN-POZOS
100
AcDbBlockReference
  2
POZO_SAN
 10
105954.502
 20
114862.7823
 30
0.0
 50
267.0
  0
INSERT
  5
358
330
17
100
AcDbEntity
  8
36-RH-SAN-POZOS
100
AcDbBlockReference
  2
POZO_SAN
 10
105955.6719
 20
114876.8624
 30
0.0
 50
267.0
  0
INSERT
  5
35A
330
17
100
AcDbEntity
  8
36-RH-SAN-POZOS
100
AcDbBlockReference
  2
POZO_SAN
 10
105943.5207
 20
115128.9392
 30
0.0
 50
275.0
  0
INSERT
  5
35C
330
17
100
AcDbEntity
  8
36-RH-SAN-POZOS
100
AcDbBlockReference
  2
POZO_SAN
 10
105933.1
 20
114932.5
 30
0.0
 50
267.0
  0
INSERT
  5
35E
330
17
100
AcDbEntity
  8
36-RH-SAN-POZOS
100
AcDbBlockReference
  2
POZO_SAN
 10
105929.08
 20
114878.0002
 30
0.0
 50
267.0
  0
INSERT
  5
360
330
17
100
AcDbEntity
  8
36-RH-SAN-POZOS
100
AcDbBlockReference
  2
POZO_SAN
 10
106102.632
 20
116587.761
 30
0.0
 50
270.0
  0
INSERT
  5
362
330
17
100
AcDbEntity
  8
36-RH-SAN-POZOS
100
AcDbBlockReference
  2
POZO_SAN
 10
106098.468
 20
116614.0637
 30
0.0
 50
270.0
  0
INSERT
  5
364
330
17
100
AcDbEntity
  8
36-RH-SAN-POZOS
100
AcDbBlockReference
  2
POZO_SAN
 10
106080.7939
 20
116674.9701
 30
0.0
 50
270.0
  0
INSERT
  5
366
330
17
100
AcDbEntity
  8
36-RH-SAN-POZOS
100
AcDbBlockReference
  2
POZO_SAN
 10
106120.382
 20
116662.9203
 30
0.0
 50
270.0
  0
INSERT
  5
368
330
17
100
AcDbEntity
  8
36-RH-SAN-POZOS
100
AcDbBlockReference
  2
POZO_SAN
 10
106137.164
 20
116552.814
 30
0.0
 50
270.0
  0
INSERT
  5
36A
330
17
100
AcDbEntity
  8
36-RH-SAN-POZOS
100
AcDbBlockReference
  2
POZO_SAN
 10
106064.83
 20
115672.91
 30
0.0
 50
245.0
  0
INSERT
  5
36C
330
17
100
AcDbEntity
  8
36-RH-SAN-POZOS
100
AcDbBlockReference
  2
POZO_SAN
 10
106054.1354
 20
115635.753
 30
0.0
 50
245.0
  0
INSERT
  5
36E
330
17
100
AcDbEntity
  8
36-RH-SAN-POZOS
100
AcDbBlockReference
  2
POZO_SAN
 10
106041.0443
 20
115614.93
 30
0.0
 50
245.0
  0
INSERT
  5
370
330
17
100
AcDbEntity
  8
36-RH-SAN-POZOS
100
AcDbBlockReference
  2
POZO_SAN
 10
106017.3946
 20
115589.4712
 30
0.0
 50
245.0
  0
INSERT
  5
372
330
17
100
AcDbEntity
  8
36-RH-SAN-POZOS
100
AcDbBlockReference
  2
POZO_SAN
 10
106013.464
 20
115548.253
 30
0.0
 50
245.0
  0
INSERT
  5
374
330
17
100
AcDbEntity
  8
36-RH-SAN-POZOS
100
AcDbBlockReference
  2
POZO_SAN
 10
105959.8861
 20
115495.8913
 30
0.0
 50
240.9
  0
INSERT
  5
376
330
17
100
AcDbEntity
  8
36-RH-SAN-POZOS
100
AcDbBlockReference
  2
POZO_SAN
 10
105931.2389
 20
115444.8006
 30
0.0
 50
275.0
  0
INSERT
  5
378
330
17
100
AcDbEntity
  8
36-RH-SAN-POZOS
100
AcDbBlockReference
  2
POZO_SAN
 10
106149.7834
 20
116325.0708
 30
0.0
 50
270.0
  0
INSERT
  5
37A
330
17
100
AcDbEntity
  8
36-RH-SAN-POZOS
100
AcDbBlockReference
  2
POZO_SAN
 10
106157.0161
 20
116396.7476
 30
0.0
 50
270.0
  0
INSERT
  5
37C
330
17
100
AcDbEntity
  8
36-RH-SAN-POZOS
100
AcDbBlockReference
  2
POZO_SAN
 10
106149.0361
 20
116129.8303
 30
0.0
 50
266.0
  0
INSERT
  5
37E
330
17
100
AcDbEntity
  8
36-RH-SAN-POZOS
100
AcDbBlockReference
  2
POZO_SAN
 10
106146.925
 20
116050.113
 30
0.0
 50
266.0
  0
INSERT
  5
380
330
17
100
AcDbEntity
  8
36-RH-SAN-POZOS
100
AcDbBlockReference
  2
POZO_SAN
 10
106138.143
 20
116014.394
 30
0.0
 50
266.0
  0
INSERT
  5
382
330
17
100
AcDbEntity
  8
36-RH-SAN-POZOS
100
AcDbBlockReference
  2
POZO_SAN
 10
106081.4038
 20
115643.0485
 30
0.0
 50
245.0
  0
INSERT
  5
384
330
17
100
AcDbEntity
  8
36-RH-SAN-POZOS
100
AcDbBlockReference
  2
POZO_SAN
 10
106088.9433
 20
115667.3519
 30
0.0
 50
245.0
  0
INSERT
  5
386
330
17
100
AcDbEntity
  8
36-RH-SAN-POZOS
100
AcDbBlockReference
  2
POZO_SAN
 10
106101.523
 20
115801.635
 30
0.0
 50
245.0
  0
INSERT
  5
388
330
17
100
AcDbEntity
  8
36-RH-SAN-POZOS
100
AcDbBlockReference
  2
POZO_SAN
 10
105983.034
 20
115555.7393
 30
0.0
 50
245.0
  0
INSERT
  5
38A
330
17
100
AcDbEntity
  8
36-RH-SAN-POZOS
100
AcDbBlockReference
  2
POZO_SAN
 10
106096.535
 20
115799.468
 30
0.0
 50
245.0
  0
INSERT
  5
38C
330
17
100
AcDbEntity
  8
36-RH-SAN-POZOS
100
AcDbBlockReference
  2
POZO_SAN
 10
105942.4096
 20
115516.705
 30
0.0
 50
245.0
  0
INSERT
  5
38E
330
17
100
AcDbEntity
  8
36-RH-SAN-POZOS
100
AcDbBlockReference
  2
POZO_SAN
 10
106065.9885
 20
115610.1773
 30
0.0
 50
245.0
  0
INSERT
  5
390
330
17
100
AcDbEntity
  8
36-RH-SAN-POZOS
100
AcDbBlockReference
  2
POZO_SAN
 10
106061.78
 20
115657.99
 30
0.0
 50
245.0
  0
INSERT
  5
392
330
17
100
AcDbEntity
  8
36-RH-SAN-POZOS
100
AcDbBlockReference
  2
POZO_SAN
 10
106104.1322
 20
115722.9784
 30
0.0
 50
245.0
  0
INSERT
  5
394
330
17
100
AcDbEntity
  8
36-RH-SAN-POZOS
100
AcDbBlockReference
  2
POZO_SAN
 10
106032.5491
 20
115646.163
 30
0.0
 50
245.0
  0
INSERT
  5
396
330
17
100
AcDbEntity
  8
36-RH-SAN-POZOS
100
AcDbBlockReference
  2
POZO_SAN
 10
106052.3891
 20
115589.7211
 30
0.0
 50
245.0
  0
INSERT
  5
398
330
17
100
AcDbEntity
  8
36-RH-SAN-POZOS
100
AcDbBlockReference
  2
POZO_SAN
 10
105899.4208
 20
115488.5809
 30
0.0
 50
245.0
  0
INSERT
  5
39A
330
17
100
AcDbEntity
  8
36-RH-SAN-POZOS
100
AcDbBlockReference
  2
POZO_SAN
 10
106094.4805
 20
115706.7176
 30
0.0
 50
245.0
  0
INSERT
  5
39C
330
17
100
AcDbEntity
  8
36-RH-SAN-POZOS
100
AcDbBlockReference
  2
POZO_SAN
 10
106095.5054
 20
115752.9892
 30
0.0
 50
245.0
  0
INSERT
  5
39E
330
17
100
AcDbEntity
  8
36-RH-SAN-POZOS
100
AcDbBlockReference
  2
POZO_SAN
 10
106158.5505
 20
116251.8707
 30
0.0
 50
266.0
  0
INSERT
  5
3A0
330
17
100
AcDbEntity
  8
36-RH-SAN-POZOS
100
AcDbBlockReference
  2
POZO_SAN
 10
105981.58
 20
115518.26
 30
0.0
 50
245.0
  0
INSERT
  5
3A2
330
17
100
AcDbEntity
  8
36-RH-SAN-POZOS
100
AcDbBlockReference
  2
POZO_SAN
 10
105986.24
 20
115513.11
 30
0.0
 50
245.0
  0
INSERT
  5
3A4
330
17
100
AcDbEntity
  8
36-RH-SAN-POZOS
100
AcDbBlockReference
  2
POZO_SAN
 10
105944.8492
 20
115475.0767
 30
0.0
 50
245.0
  0
INSERT
  5
3A6
330
17
100
AcDbEntity
  8
36-RH-SAN-POZOS
100
AcDbBlockReference
  2
POZO_SAN
 10
105925.26
 20
117208.23
 30
0.0
 50
279.0
  0
INSERT
  5
3A8
330
17
100
AcDbEntity
  8
36-RH-SAN-POZOS
100
AcDbBlockReference
  2
POZO_SAN
 10
105919.181
 20
117290.053
 30
0.0
 50
279.0
  0
INSERT
  5
3AA
330
17
100
AcDbEntity
  8
36-RH-SAN-POZOS
100
AcDbBlockReference
  2
POZO_SAN
 10
105889.894
 20
117339.912
 30
0.0
 50
279.0
  0
INSERT
  5
3AC
330
17
100
AcDbEntity
  8
36-RH-SAN-POZOS
100
AcDbBlockReference
  2
POZO_SAN
 10
105902.746
 20
117195.416
 30
0.0
 50
279.0
  0
INSERT
  5
3AE
330
17
100
AcDbEntity
  8
36-RH-SAN-POZOS
100
AcDbBlockReference
  2
POZO_SAN
 10
106086.79
 20
116752.233
 30
0.0
 50
290.0
  0
INSERT
  5
3B0
330
17
100
AcDbEntity
  8
36-RH-SAN-POZOS
100
AcDbBlockReference
  2
POZO_SAN
 10
106054.869
 20
116840.907
 30
0.0
 50
290.0
  0
INSERT
  5
3B2
330
17
100
AcDbEntity
  8
36-RH-SAN-POZOS
100
AcDbBlockReference
  2
POZO_SAN
 10
106007.617
 20
116969.8502
 30
0.0
 50
290.0
  0
INSERT
  5
3B4
330
17
100
AcDbEntity
  8
36-RH-SAN-POZOS
100
AcDbBlockReference
  2
POZO_SAN
 10
105958.581
 20
117098.6341
 30
0.0
 50
279.0
  0
INSERT
  5
3B6
330
17
100
AcDbEntity
  8
36-RH-SAN-POZOS
100
AcDbBlockReference
  2
POZO_SAN
 10
105931.6303
 20
117170.7655
 30
0.0
 50
279.0
  0
INSERT
  5
3B8
330
17
100
AcDbEntity
  8
36-RH-SAN-POZOS
100
AcDbBlockReference
  2
POZO_SAN
 10
106073.0451
 20
116790.416
 30
0.0
 50
290.0
  0
INSERT
  5
3BA
330
17
100
AcDbEntity
  8
36-RH-SAN-POZOS
100
AcDbBlockReference
  2
POZO_SAN
 10
105870.1499
 20
117727.3634
 30
0.0
 50
279.0
  0
INSERT
  5
3BC
330
17
100
AcDbEntity
  8
36-RH-SAN-POZOS
100
AcDbBlockReference
  2
POZO_SAN
 10
105895.6469
 20
115134.5387
 30
0.0
 50
275.0
  0
INSERT
  5
3BE
330
17
100
AcDbEntity
  8
36-RH-SAN-POZOS
100
AcDbBlockReference
  2
POZO_SAN
 10
105997.0651
 20
117023.1379
 30
0.0
 50
290.0
  0
INSERT
  5
3C0
330
17
100
AcDbEntity
  8
36-RH-SAN-POZOS
100
AcDbBlockReference
  2
POZO_SAN
 10
106145.6356
 20
116551.6703
 30
0.0
 50
270.0
  0
INSERT
  5
3C2
330
17
100
AcDbEntity
  8
36-RH-SAN-POZOS
100
AcDbBlockReference
  2
POZO_SAN
 10
105922.5138
 20
117109.3979
 30
0.0
 50
279.0
  0
INSERT
  5
3C4
330
17
100
AcDbEntity
  8
36-RH-SAN-POZOS
100
AcDbBlockReference
  2
POZO_SAN
 10
105928.701
 20
117036.2579
 30
0.0
 50
279.0
  0
INSERT
  5
3C6
330
17
100
AcDbEntity
  8
36-RH-SAN-POZOS
100
AcDbBlockReference
  2
POZO_SAN
 10
106048.3419
 20
115584.3288
 30
0.0
 50
245.0
  0
INSERT
  5
3C8
330
17
100
AcDbEntity
  8
36-RH-SAN-POZOS
100
AcDbBlockReference
  2
POZO_SAN
 10
106062.4
 20
115579.38
 30
0.0
 50
245.0
  0
INSERT
  5
3CA
330
17
100
AcDbEntity
  8
36-RH-SAN-POZOS
100
AcDbBlockReference
  2
POZO_SAN
 10
105927.91
 20
114837.1536
 30
0.0
 50
264.0
  0
INSERT
  5
3CC
330
17
100
AcDbEntity
  8
36-RH-SAN-POZOS
100
AcDbBlockReference
  2
POZO_SAN
 10
105926.77
 20
115232.09
 30
0.0
 50
275.0
  0
INSERT
  5
3CE
330
17
100
AcDbEntity
  8
36-RH-SAN-POZOS
100
AcDbBlockReference
  2
POZO_SAN
 10
105927.18
 20
115310.59
 30
0.0
 50
275.0
  0
INSERT
  5
3D0
330
17
100
AcDbEntity
  8
36-RH-SAN-POZOS
100
AcDbBlockReference
  2
POZO_SAN
 10
106147.4908
 20
116239.5669
 30
0.0
 50
266.0
  0
INSERT
  5
3D2
330
17
100
AcDbEntity
  8
36-RH-SAN-POZOS
100
AcDbBlockReference
  2
POZO_SAN
 10
106121.763
 20
116326.2031
 30
0.0
 50
270.0
  0
INSERT
  5
3D4
330
17
100
AcDbEntity
  8
36-RH-SAN-POZOS
100
AcDbBlockReference
  2
POZO_SAN
 10
106064.6083
 20
116673.5701
 30
0.0
 50
270.0
  0
INSERT
  5
3D6
330
17
100
AcDbEntity
  8
36-RH-SAN-POZOS
100
AcDbBlockReference
  2
POZO_SAN
 10
105852.59
 20
117048.34
 30
0.0
 50
279.0
  0
INSERT
  5
3D8
330
17
100
AcDbEntity
  8
36-RH-SAN-POZOS
100
AcDbBlockReference
  2
POZO_SAN
 10
105946.5326
 20
117043.4878
 30
0.0
 50
279.0
  0
INSERT
  5
3DA
330
17
100
AcDbEntity
  8
36-RH-SAN-POZOS
100
AcDbBlockReference
  2
POZO_SAN
 10
105965.8631
 20
114973.2535
 30
0.0
 50
267.0
  0
INSERT
  5
3DC
330
17
100
AcDbEntity
  8
36-RH-SAN-POZOS
100
AcDbBlockReference
  2
POZO_SAN
 10
105937.5928
 20
114978.315
 30
0.0
 50
267.0
  0
INSERT
  5
3DE
330
17
100
AcDbEntity
  8
36-RH-SAN-POZOS
100
AcDbBlockReference
  2
POZO_SAN
 10
105915.2285
 20
115130.9086
 30
0.0
 50
275.0
  0
INSERT
  5
3E0
330
17
100
AcDbEntity
  8
36-RH-SAN-POZOS
100
AcDbBlockReference
  2
POZO_SAN
 10
105927.8059
 20
115394.348
 30
0.0
 50
275.0
  0
INSERT
  5
3E2
330
17
100
AcDbEntity
  8
36-RH-SAN-POZOS
100
AcDbBlockReference
  2
POZO_SAN
 10
105915.5936
 20
115485.08
 30
0.0
 50
245.0
  0
INSERT
  5
3E4
330
17
100
AcDbEntity
  8
36-RH-SAN-POZOS
100
AcDbBlockReference
  2
POZO_SAN
 10
105997.0293
 20
115569.1218
 30
0.0
 50
245.0
  0
INSERT
  5
3E6
330
17
100
AcDbEntity
  8
36-RH-SAN-POZOS
100
AcDbBlockReference
  2
POZO_SAN
 10
106063.4678
 20
115716.1699
 30
0.0
 50
245.0
  0
INSERT
  5
3E8
330
17
100
AcDbEntity
  8
36-RH-SAN-POZOS
100
AcDbBlockReference
  2
POZO_SAN
 10
106149.5691
 20
116300.1645
 30
0.0
 50
270.0
  0
INSERT
  5
3EA
330
17
100
AcDbEntity
  8
36-RH-SAN-POZOS
100
AcDbBlockReference
  2
POZO_SAN
 10
106132.7954
 20
116580.0573
 30
0.0
 50
270.0
  0
INSERT
  5
3EC
330
17
100
AcDbEntity
  8
36-RH-SAN-POZOS
100
AcDbBlockReference
  2
POZO_SAN
 10
106089.5376
 20
116648.0967
 30
0.0
 50
270.0
  0
INSERT
  5
3EE
330
17
100
AcDbEntity
  8
36-RH-SAN-POZOS
100
AcDbBlockReference
  2
POZO_SAN
 10
106124.3289
 20
116639.5738
 30
0.0
 50
270.0
  0
INSERT
  5
3F0
330
17
100
AcDbEntity
  8
36-RH-SAN-POZOS
100
AcDbBlockReference
  2
POZO_SAN
 10
105904.0504
 20
117040.8698
 30
0.0
 50
279.0
  0
INSERT
  5
3F2
330
17
100
AcDbEntity
  8
36-RH-SAN-POZOS
100
AcDbBlockReference
  2
POZO_SAN
 10
106032.07
 20
116905.17
 30
0.0
 50
290.0
  0
INSERT
  5
3F4
330
17
100
AcDbEntity
  8
36-RH-SAN-POZOS
100
AcDbBlockReference
  2
POZO_SAN
 10
106023.54
 20
116928.2
 30
0.0
 50
290.0
  0
INSERT
  5
3F6
330
17
100
AcDbEntity
  8
36-RH-SAN-POZOS
100
AcDbBlockReference
  2
POZO_SAN
 10
105986.6893
 20
117022.8919
 30
0.0
 50
290.0
  0
INSERT
  5
3F8
330
17
100
AcDbEntity
  8
36-RH-SAN-POZOS
100
AcDbBlockReference
  2
POZO_SAN
 10
105899.3061
 20
117233.2313
 30
0.0
 50
279.0
  0
INSERT
  5
3FA
330
17
100
AcDbEntity
  8
36-RH-SAN-POZOS
100
AcDbBlockReference
  2
POZO_SAN
 10
105893.9164
 20
117286.1855
 30
0.0
 50
279.0
  0
INSERT
  5
3FC
330
17
100
AcDbEntity
  8
36-RH-SAN-POZOS
100
AcDbBlockReference
  2
POZO_SAN
 10
105988.2691
 20
115585.8765
 30
0.0
 50
245.0
  0
INSERT
  5
3FE
330
17
100
AcDbEntity
  8
36-RH-SAN-POZOS
100
AcDbBlockReference
  2
POZO_SAN
 10
105927.81
 20
117290.92
 30
0.0
 50
279.0
  0
INSERT
  5
400
330
17
100
AcDbEntity
  8
36-RH-SAN-POZOS
100
AcDbBlockReference
  2
POZO_SAN
 10
105916.096
 20
117347.487
 30
0.0
 50
279.0
  0
INSERT
  5
402
330
17
100
AcDbEntity
  8
36-RH-SAN-POZOS
100
AcDbBlockReference
  2
POZO_SAN
 10
105668.9646
 20
118052.3699
 30
0.0
 50
295.0
  0
INSERT
  5
404
330
17
100
AcDbEntity
  8
36-RH-SAN-POZOS
100
AcDbBlockReference
  2
POZO_SAN
 10
105742.651
 20
117996.185
 30
0.0
 50
295.0
  0
INSERT
  5
406
330
17
100
AcDbEntity
  8
36-RH-SAN-POZOS
100
AcDbBlockReference
  2
POZO_SAN
 10
105786.2309
 20
117910.2313
 30
0.0
 50
295.0
  0
INSERT
  5
408
330
17
100
AcDbEntity
  8
36-RH-SAN-POZOS
100
AcDbBlockReference
  2
POZO_SAN
 10
106086.8135
 20
116527.0584
 30
0.0
 50
270.0
  0
INSERT
  5
40A
330
17
100
AcDbEntity
  8
36-RH-SAN-POZOS
100
AcDbBlockReference
  2
POZO_SAN
 10
106121.2979
 20
116271.8053
 30
0.0
 50
270.0
  0
INSERT
  5
40C
330
17
100
AcDbEntity
  8
36-RH-SAN-POZOS
100
AcDbBlockReference
  2
POZO_SAN
 10
105723.2099
 20
117992.7562
 30
0.0
 50
295.0
  0
INSERT
  5
40E
330
17
100
AcDbEntity
  8
36-RH-SAN-POZOS
100
AcDbBlockReference
  2
POZO_SAN
 10
105747.013
 20
117990.718
 30
0.0
 50
295.0
  0
INSERT
  5
410
330
17
100
AcDbEntity
  8
36-RH-SAN-POZOS
100
AcDbBlockReference
  2
POZO_SAN
 10
106044.4026
 20
115721.052
 30
0.0
 50
245.0
  0
INSERT
  5
412
330
17
100
AcDbEntity
  8
36-RH-SAN-POZOS
100
AcDbBlockReference
  2
POZO_SAN
 10
106083.1122
 20
116025.6645
 30
0.0
 50
266.0
  0
INSERT
  5
414
330
17
100
AcDbEntity
  8
36-RH-SAN-POZOS
100
AcDbBlockReference
  2
POZO_SAN
 10
105828.7576
 20
117822.6179
 30
0.0
 50
279.0
  0
INSERT
  5
416
330
17
100
AcDbEntity
  8
36-RH-SAN-POZOS
100
AcDbBlockReference
  2
POZO_SAN
 10
106091.7744
 20
115684.1571
 30
0.0
 50
245.0
  0
INSERT
  5
418
330
17
100
AcDbEntity
  8
36-RH-SAN-POZOS
100
AcDbBlockReference
  2
POZO_SAN
 10
106160.19
 20
116432.9
 30
0.0
 50
270.0
  0
INSERT
  5
41A
330
17
100
AcDbEntity
  8
36-RH-SAN-POZOS
100
AcDbBlockReference
  2
POZO_SAN
 10
106157.0161
 20
116396.7476
 30
0.0
 50
354.4
  0
INSERT
  5
41C
330
17
100
AcDbEntity
  8
36-RH-SAN-POZOS
100
AcDbBlockReference
  2
POZO_SAN
 10
106108.12
 20
115560.07
 30
0.0
 50
245.0
  0
INSERT
  5
41E
330
17
100
AcDbEntity
  8
36-RH-SAN-POZOS
100
AcDbBlockReference
  2
POZO_SAN
 10
106112.7028
 20
115807.518
 30
0.0
 50
245.0
  0
INSERT
  5
420
330
17
100
AcDbEntity
  8
36-RH-SAN-POZOS
100
AcDbBlockReference
  2
POZO_SAN
 10
105689.8164
 20
113778.0145
 30
0.0
 50
243.0
  0
INSERT
  5
422
330
17
100
AcDbEntity
  8
36-RH-SAN-POZOS
100
AcDbBlockReference
  2
POZO_SAN
 10
105909.8748
 20
114750.2713
 30
0.0
 50
64.3
  0
INSERT
  5
424
330
17
100
AcDbEntity
  8
36-RH-SAN-POZOS
100
AcDbBlockReference
  2
POZO_SAN
 10
105806.9394
 20
117867.6064
 30
0.0
 50
295.0
  0
INSERT
  5
426
330
17
100
AcDbEntity
  8
36-RH-SAN-POZOS
100
AcDbBlockReference
  2
POZO_SAN
 10
106084.0424
 20
115571.6749
 30
0.0
 50
245.0
  0
INSERT
  5
428
330
17
100
AcDbEntity
  8
36-RH-SAN-POZOS
100
AcDbBlockReference
  2
POZO_SAN
 10
105937.7048
 20
117208.8838
 30
0.0
 50
279.0
  0
INSERT
  5
42A
330
17
100
AcDbEntity
  8
36-RH-SAN-POZOS
100
AcDbBlockReference
  2
POZO_SAN
 10
105912.9884
 20
114831.1262
 30
0.0
 50
264.0
  0
INSERT
  5
42C
330
17
100
AcDbEntity
  8
36-RH-SAN-POZOS
100
AcDbBlockReference
  2
POZO_SAN
 10
105912.9884
 20
114831.1262
 30
0.0
 50
75.9
  0
INSERT
  5
42E
330
17
100
AcDbEntity
  8
36-RH-SAN-POZOS
100
AcDbBlockReference
  2
POZO_SAN
 10
106102.5311
 20
116437.7489
 30
0.0
 50
270.0
  0
INSERT
  5
430
330
17
100
AcDbEntity
  8
36-RH-SAN-POZOS
100
AcDbBlockReference
  2
POZO_SAN
 10
106111.6798
 20
116256.5796
 30
0.0
 50
270.0
  0
INSERT
  5
432
330
17
100
AcDbEntity
  8
36-RH-SAN-POZOS
100
AcDbBlockReference
  2
POZO_SAN
 10
106149.1994
 20
116249.5608
 30
0.0
 50
266.0
  0
INSERT
  5
434
330
17
100
AcDbEntity
  8
36-RH-SAN-POZOS
100
AcDbBlockReference
  2
POZO_SAN
 10
106120.2525
 20
116062.6105
 30
0.0
 50
266.0
  0
INSERT
  5
436
330
17
100
AcDbEntity
  8
36-RH-SAN-POZOS
100
AcDbBlockReference
  2
POZO_SAN
 10
106118.8084
 20
116039.7606
 30
0.0
 50
266.0
  0
INSERT
  5
438
330
17
100
AcDbEntity
  8
36-RH-SAN-POZOS
100
AcDbBlockReference
  2
POZO_SAN
 10
106113.9896
 20
116019.3649
 30
0.0
 50
266.0
  0
INSERT
  5
43A
330
17
100
AcDbEntity
  8
36-RH-SAN-POZOS
100
AcDbBlockReference
  2
POZO_SAN
 10
106120.2525
 20
116062.6105
 30
0.0
 50
175.8
  0
INSERT
  5
43C
330
17
100
AcDbEntity
  8
36-RH-SAN-POZOS
100
AcDbBlockReference
  2
POZO_SAN
 10
105967.175
 20
115005.6679
 30
0.0
 50
267.0
  0
INSERT
  5
43E
330
17
100
AcDbEntity
  8
36-RH-SAN-POZOS
100
AcDbBlockReference
  2
POZO_SAN
 10
105889.092
 20
114527.9989
 30
0.0
 50
264.0
  0
INSERT
  5
440
330
17
100
AcDbEntity
  8
36-RH-SAN-POZOS
100
AcDbBlockReference
  2
POZO_SAN
 10
105889.083
 20
114527.99
 30
0.0
 50
320.4
  0
INSERT
  5
442
330
17
100
AcDbEntity
  8
36-RH-SAN-POZOS
100
AcDbBlockReference
  2
POZO_SAN
 10
105588.8151
 20
113716.3628
 30
0.0
 50
243.0
  0
INSERT
  5
444
330
17
100
AcDbEntity
  8
36-RH-SAN-POZOS
100
AcDbBlockReference
  2
POZO_SAN
 10
105713.9876
 20
113787.3042
 30
0.0
 50
243.0
  0
INSERT
  5
446
330
17
100
AcDbEntity
  8
36-RH-SAN-POZOS
100
AcDbBlockReference
  2
POZO_SAN
 10
105484.3873
 20
113469.7659
 30
0.0
 50
243.0
  0
INSERT
  5
448
330
17
100
AcDbEntity
  8
36-RH-SAN-POZOS
100
AcDbBlockReference
  2
POZO_SAN
 10
105683.6875
 20
114005.5585
 30
0.0
 50
257.0
  0
INSERT
  5
44A
330
17
100
AcDbEntity
  8
36-RH-SAN-POZOS
100
AcDbBlockReference
  2
POZO_SAN
 10
105371.916
 20
113287.1548
 30
0.0
 50
279.0
  0
INSERT
  5
44C
330
17
100
AcDbEntity
  8
36-RH-SAN-POZOS
100
AcDbBlockReference
  2
POZO_SAN
 10
105371.916
 20
113287.1548
 30
0.0
 50
64.9
  0
INSERT
  5
44E
330
17
100
AcDbEntity
  8
36-RH-SAN-POZOS
100
AcDbBlockReference
  2
POZO_SAN
 10
105460.2048
 20
112003.8309
 30
0.0
 50
270.0
  0
INSERT
  5
450
330
17
100
AcDbEntity
  8
36-RH-SAN-POZOS
100
AcDbBlockReference
  2
POZO_SAN
 10
106143.7917
 20
116031.3653
 30
0.0
 50
266.0
  0
INSERT
  5
452
330
17
100
AcDbEntity
  8
36-RH-SAN-POZOS
100
AcDbBlockReference
  2
POZO_SAN
 10
106070.9425
 20
115581.7739
 30
0.0
 50
245.0
  0
INSERT
  5
454
330
17
100
AcDbEntity
  8
36-RH-SAN-POZOS
100
AcDbBlockReference
  2
POZO_SAN
 10
105693.1503
 20
118040.8311
 30
0.0
 50
295.0
  0
INSERT
  5
456
330
17
100
AcDbEntity
  8
36-RH-SAN-POZOS
100
AcDbBlockReference
  2
POZO_SAN
 10
105685.0107
 20
118055.2362
 30
0.0
 50
295.0
  0
INSERT
  5
458
330
17
100
AcDbEntity
  8
36-RH-SAN-POZOS
100
AcDbBlockReference
  2
POZO_SAN
 10
106038.8793
 20
115612.6553
 30
0.0
 50
245.0
  0
INSERT
  5
45A
330
17
100
AcDbEntity
  8
36-RH-SAN-POZOS
100
AcDbBlockReference
  2
POZO_SAN
 10
105878.4993
 20
117729.4065
 30
0.0
 50
279.0
  0
INSERT
  5
45C
330
17
100
AcDbEntity
  8
36-RH-SAN-POZOS
100
AcDbBlockReference
  2
POZO_SAN
 10
106120.382
 20
116662.9203
 30
0.0
 50
191.4
  0
INSERT
  5
45E
330
17
100
AcDbEntity
  8
36-RH-SAN-POZOS
100
AcDbBlockReference
  2
POZO_SAN
 10
105918.7972
 20
117631.5181
 30
0.0
 50
279.0
  0
INSERT
  5
460
330
17
100
AcDbEntity
  8
36-RH-SAN-POZOS
100
AcDbBlockReference
  2
POZO_SAN
 10
106091.2789
 20
116753.7748
 30
0.0
 50
290.0
  0
INSERT
  5
462
330
17
100
AcDbEntity
  8
36-RH-SAN-POZOS
100
AcDbBlockReference
  2
POZO_SAN
 10
106067.3915
 20
116845.1222
 30
0.0
 50
290.0
  0
INSERT
  5
464
330
17
100
AcDbEntity
  8
36-RH-SAN-POZOS
100
AcDbBlockReference
  2
POZO_SAN
 10
106097.7529
 20
116526.1466
 30
0.0
 50
270.0
  0
INSERT
  5
466
330
17
100
AcDbEntity
  8
36-RH-SAN-POZOS
100
AcDbBlockReference
  2
POZO_SAN
 10
106107.8677
 20
116699.9529
 30
0.0
 50
290.0
  0
INSERT
  5
468
330
17
100
AcDbEntity
  8
36-RH-SAN-POZOS
100
AcDbBlockReference
  2
POZO_SAN
 10
105991.3432
 20
115572.5844
 30
0.0
 50
245.0
  0
INSERT
  5
46A
330
17
100
AcDbEntity
  8
36-RH-SAN-POZOS
100
AcDbBlockReference
  2
POZO_SAN
 10
105978.7996
 20
115577.7749
 30
0.0
 50
245.0
  0
INSERT
  5
46C
330
17
100
AcDbEntity
  8
36-RH-SAN-POZOS
100
AcDbBlockReference
  2
POZO_SAN
 10
105991.3432
 20
115572.5844
 30
0.0
 50
69.7
  0
INSERT
  5
46E
330
17
100
AcDbEntity
  8
36-RH-SAN-POZOS
100
AcDbBlockReference
  2
POZO_SAN
 10
105839.7584
 20
114421.3018
 30
0.0
 50
264.0
  0
INSERT
  5
470
330
17
100
AcDbEntity
  8
36-RH-SAN-POZOS
100
AcDbBlockReference
  2
POZO_SAN
 10
105812.3115
 20
114434.1968
 30
0.0
 50
264.0
  0
INSERT
  5
472
330
17
100
AcDbEntity
  8
36-RH-SAN-POZOS
100
AcDbBlockReference
  2
POZO_SAN
 10
105832.5577
 20
114238.9937
 30
0.0
 50
250.0
  0
INSERT
  5
474
330
17
100
AcDbEntity
  8
36-RH-SAN-POZOS
100
AcDbBlockReference
  2
POZO_SAN
 10
105422.0126
 20
112330.9557
 30
0.0
 50
285.0
  0
INSERT
  5
476
330
17
100
AcDbEntity
  8
36-RH-SAN-POZOS
100
AcDbBlockReference
  2
POZO_SAN
 10
105394.4243
 20
112336.0602
 30
0.0
 50
285.0
  0
INSERT
  5
478
330
17
100
AcDbEntity
  8
36-RH-SAN-POZOS
100
AcDbBlockReference
  2
POZO_SAN
 10
105460.9281
 20
112089.8616
 30
0.0
 50
270.0
  0
INSERT
  5
47A
330
17
100
AcDbEntity
  8
36-RH-SAN-POZOS
100
AcDbBlockReference
  2
POZO_SAN
 10
105445.9372
 20
111893.1813
 30
0.0
 50
270.0
  0
INSERT
  5
47C
330
17
100
AcDbEntity
  8
36-RH-SAN-POZOS
100
AcDbBlockReference
  2
POZO_SAN
 10
105868.1814
 20
117341.9293
 30
0.0
 50
279.0
  0
INSERT
  5
47E
330
17
100
AcDbEntity
  8
36-RH-SAN-POZOS
100
AcDbBlockReference
  2
POZO_SAN
 10
106120.7059
 20
116700.8944
 30
0.0
 50
290.0
  0
INSERT
  5
480
330
17
100
AcDbEntity
  8
36-RH-SAN-POZOS
100
AcDbBlockReference
  2
POZO_SAN
 10
105382.5942
 20
113405.5199
 30
0.0
 50
279.0
  0
INSERT
  5
482
330
17
100
AcDbEntity
  8
36-RH-SAN-POZOS
100
AcDbBlockReference
  2
POZO_SAN
 10
105838.1742
 20
114526.6244
 30
0.0
 50
264.0
  0
INSERT
  5
484
330
17
100
AcDbEntity
  8
36-RH-SAN-POZOS
100
AcDbBlockReference
  2
POZO_SAN
 10
105960.8238
 20
114924.6413
 30
0.0
 50
267.0
  0
INSERT
  5
486
330
17
100
AcDbEntity
  8
36-RH-SAN-POZOS
100
AcDbBlockReference
  2
POZO_SAN
 10
105526.8158
 20
113641.8876
 30
0.0
 50
243.0
  0
INSERT
  5
488
330
17
100
AcDbEntity
  8
36-RH-SAN-POZOS
100
AcDbBlockReference
  2
POZO_SAN
 10
105898.6744
 20
114538.1909
 30
0.0
 50
264.0
  0
INSERT
  5
48A
330
17
100
AcDbEntity
  8
36-RH-SAN-POZOS
100
AcDbBlockReference
  2
POZO_SAN
 10
105688.915
 20
113995.7974
 30
0.0
 50
257.0
  0
INSERT
  5
48C
330
17
100
AcDbEntity
  8
36-RH-SAN-POZOS
100
AcDbBlockReference
  2
POZO_SAN
 10
105535.5998
 20
113544.698
 30
0.0
 50
243.0
  0
INSERT
  5
48E
330
17
100
AcDbEntity
  8
36-RH-SAN-POZOS
100
AcDbBlockReference
  2
POZO_SAN
 10
105580.8087
 20
113641.1601
 30
0.0
 50
243.0
  0
INSERT
  5
490
330
17
100
AcDbEntity
  8
36-RH-SAN-POZOS
100
AcDbBlockReference
  2
POZO_SAN
 10
105425.758
 20
113069.708
 30
0.0
 50
279.0
  0
INSERT
  5
492
330
17
100
AcDbEntity
  8
36-RH-SAN-POZOS
100
AcDbBlockReference
  2
POZO_SAN
 10
105203.5462
 20
112834.0028
 30
0.0
 50
340.0
  0
INSERT
  5
494
330
17
100
AcDbEntity
  8
36-RH-SAN-POZOS
100
AcDbBlockReference
  2
POZO_SAN
 10
105154.9963
 20
112849.4318
 30
0.0
 50
340.0
  0
INSERT
  5
496
330
17
100
AcDbEntity
  8
36-RH-SAN-POZOS
100
AcDbBlockReference
  2
POZO_SAN
 10
105964.2217
 20
114861.7442
 30
0.0
 50
267.0
  0
INSERT
  5
498
330
17
100
AcDbEntity
  8
36-RH-SAN-POZOS
100
AcDbBlockReference
  2
POZO_SAN
 10
105934.1308
 20
115231.3642
 30
0.0
 50
275.0
  0
INSERT
  5
49A
330
17
100
AcDbEntity
  8
36-RH-SAN-POZOS
100
AcDbBlockReference
  2
POZO_SAN
 10
105672.4698
 20
118083.801
 30
0.0
 50
295.0
  0
INSERT
  5
49C
330
17
100
AcDbEntity
  8
36-RH-SAN-POZOS
100
AcDbBlockReference
  2
POZO_SAN
 10
105661.1597
 20
118123.1168
 30
0.0
 50
196.2
  0
INSERT
  5
49E
330
17
100
AcDbEntity
  8
36-RH-SAN-POZOS
100
AcDbBlockReference
  2
POZO_SAN
 10
105661.1597
 20
118123.1168
 30
0.0
 50
295.0
  0
INSERT
  5
4A0
330
17
100
AcDbEntity
  8
36-RH-SAN-POZOS
100
AcDbBlockReference
  2
POZO_SAN
 10
105851.9626
 20
117774.1736
 30
0.0
 50
279.0
  0
INSERT
  5
4A2
330
17
100
AcDbEntity
  8
36-RH-SAN-POZOS
100
AcDbBlockReference
  2
POZO_SAN
 10
105686.783
 20
117992.2797
 30
0.0
 50
295.0
  0
INSERT
  5
4A4
330
17
100
AcDbEntity
  8
36-RH-SAN-POZOS
100
AcDbBlockReference
  2
POZO_SAN
 10
105573.0604
 20
113727.6312
 30
0.0
 50
243.0
  0
INSERT
  5
4A6
330
17
100
AcDbEntity
  8
36-RH-SAN-POZOS
100
AcDbBlockReference
  2
POZO_SAN
 10
105377.2773
 20
112605.657
 30
0.0
 50
290.0
  0
INSERT
  5
4A8
330
17
100
AcDbEntity
  8
36-RH-SAN-POZOS
100
AcDbBlockReference
  2
POZO_SAN
 10
105462.7379
 20
112161.9073
 30
0.0
 50
270.0
  0
INSERT
  5
4AA
330
17
100
AcDbEntity
  8
36-RH-SAN-POZOS
100
AcDbBlockReference
  2
POZO_SAN
 10
105395.3412
 20
112156.7572
 30
0.0
 50
270.0
  0
INSERT
  5
4AC
330
17
100
AcDbEntity
  8
36-RH-SAN-POZOS
100
AcDbBlockReference
  2
POZO_SAN
 10
106075.338
 20
115578.746
 30
0.0
 50
245.0
  0
INSERT
  5
4AE
330
17
100
AcDbEntity
  8
36-RH-SAN-POZOS
100
AcDbBlockReference
  2
POZO_SAN
 10
105933.9485
 20
115373.0449
 30
0.0
 50
275.0
  0
INSERT
  5
4B0
330
17
100
AcDbEntity
  8
36-RH-SAN-POZOS
100
AcDbBlockReference
  2
POZO_SAN
 10
105965.4059
 20
114872.2898
 30
0.0
 50
267.0
  0
INSERT
  5
4B2
330
17
100
AcDbEntity
  8
36-RH-SAN-POZOS
100
AcDbBlockReference
  2
POZO_SAN
 10
106035.197
 20
116903.483
 30
0.0
 50
290.0
  0
INSERT
  5
4B4
330
17
100
AcDbEntity
  8
36-RH-SAN-POZOS
100
AcDbBlockReference
  2
POZO_SAN
 10
105747.013
 20
117990.718
 30
0.0
 50
36.8
  0
INSERT
  5
4B6
330
17
100
AcDbEntity
  8
36-RH-SAN-POZOS
100
AcDbBlockReference
  2
POZO_SAN
 10
106031.0519
 20
116930.2591
 30
0.0
 50
290.0
  0
INSERT
  5
4B8
330
17
100
AcDbEntity
  8
36-RH-SAN-POZOS
100
AcDbBlockReference
  2
POZO_SAN
 10
105868.1398
 20
114353.5623
 30
0.0
 50
250.0
  0
INSERT
  5
4BA
330
17
100
AcDbEntity
  8
36-RH-SAN-POZOS
100
AcDbBlockReference
  2
POZO_SAN
 10
105803.6782
 20
114193.3823
 30
0.0
 50
250.0
  0
INSERT
  5
4BC
330
17
100
AcDbEntity
  8
36-RH-SAN-POZOS
100
AcDbBlockReference
  2
POZO_SAN
 10
105857.8087
 20
114287.8888
 30
0.0
 50
250.0
  0
INSERT
  5
4BE
330
17
100
AcDbEntity
  8
36-RH-SAN-POZOS
100
AcDbBlockReference
  2
POZO_SAN
 10
105437.6377
 20
113164.7976
 30
0.0
 50
279.0
  0
INSERT
  5
4C0
330
17
100
AcDbEntity
  8
36-RH-SAN-POZOS
100
AcDbBlockReference
  2
POZO_SAN
 10
105759.4154
 20
114120.1005
 30
0.0
 50
250.0
  0
INSERT
  5
4C2
330
17
100
AcDbEntity
  8
36-RH-SAN-POZOS
100
AcDbBlockReference
  2
POZO_SAN
 10
105255.818
 20
112785.1578
 30
0.0
 50
340.0
  0
INSERT
  5
4C4
330
17
100
AcDbEntity
  8
36-RH-SAN-POZOS
100
AcDbBlockReference
  2
POZO_SAN
 10
106105.5021
 20
115637.4971
 30
0.0
 50
245.0
  0
INSERT
  5
4C6
330
17
100
AcDbEntity
  8
36-RH-SAN-POZOS
100
AcDbBlockReference
  2
POZO_SAN
 10
106097.4531
 20
115641.9641
 30
0.0
 50
245.0
  0
INSERT
  5
4C8
330
17
100
AcDbEntity
  8
36-RH-SAN-POZOS
100
AcDbBlockReference
  2
POZO_SAN
 10
105967.175
 20
115005.6679
 30
0.0
 50
6.7
  0
INSERT
  5
4CA
330
17
100
AcDbEntity
  8
36-RH-SAN-POZOS
100
AcDbBlockReference
  2
POZO_SAN
 10
105997.068
 20
117023.2168
 30
0.0
 50
94.5
  0
INSERT
  5
4CC
330
17
100
AcDbEntity
  8
36-RH-SAN-POZOS
100
AcDbBlockReference
  2
POZO_SAN
 10
105688.9356
 20
113995.9187
 30
0.0
 50
68.6
  0
INSERT
  5
4CE
330
17
100
AcDbEntity
  8
36-RH-SAN-POZOS
100
AcDbBlockReference
  2
POZO_SAN
 10
105387.126
 20
112671.5202
 30
0.0
 50
194.1
  0
INSERT
  5
4D0
330
17
100
AcDbEntity
  8
36-RH-SAN-POZOS
100
AcDbBlockReference
  2
POZO_SAN
 10
105928.601
 20
114612.9582
 30
0.0
 50
264.0
  0
INSERT
  5
4D2
330
17
100
AcDbEntity
  8
36-RH-SAN-POZOS
100
AcDbBlockReference
  2
POZO_SAN
 10
105210.3752
 20
112807.83
 30
0.0
 50
340.0
  0
INSERT
  5
4D4
330
17
100
AcDbEntity
  8
36-RH-SAN-POZOS
100
AcDbBlockReference
  2
POZO_SAN
 10
105388.4454
 20
112969.232
 30
0.0
 50
340.0
  0
INSERT
  5
4D6
330
17
100
AcDbEntity
  8
36-RH-SAN-POZOS
100
AcDbBlockReference
  2
POZO_SAN
 10
105391.7735
 20
112968.2574
 30
0.0
 50
340.0
  0
INSERT
  5
4D8
330
17
100
AcDbEntity
  8
36-RH-SAN-POZOS
100
AcDbBlockReference
  2
POZO_SAN
 10
105400.259
 20
112949.6005
 30
0.0
 50
340.0
  0
INSERT
  5
4DA
330
17
100
AcDbEntity
  8
36-RH-SAN-POZOS
100
AcDbBlockReference
  2
POZO_SAN
 10
105409.4502
 20
112957.1481
 30
0.0
 50
340.0
  0
INSERT
  5
4DC
330
17
100
AcDbEntity
  8
36-RH-SAN-POZOS
100
AcDbBlockReference
  2
POZO_SAN
 10
105409.5373
 20
112957.1385
 30
0.0
 50
127.6
  0
ENDSEC
  0
SECTION
  2
OBJECTS
  0
DICTIONARY
  5
A
330
0
100
AcDbDictionary
281
1
  3
ACAD_COLOR
350
B
  3
ACAD_GROUP
350
C
  3
ACAD_LAYOUT
350
D
  3
ACAD_MATERIAL
350
E
  3
ACAD_MLEADERSTYLE
350
F
  3
ACAD_MLINESTYLE
350
10
  3
ACAD_PLOTSETTINGS
350
11
  3
ACAD_PLOTSTYLENAME
350
12
  3
ACAD_SCALELIST
350
14
  3
ACAD_TABLESTYLE
350
15
  3
ACAD_VISUALSTYLE
350
16
  3
EZDXF_META
350
2D
  0
DICTIONARY
  5
B
330
A
100
AcDbDictionary
281
1
  0
DICTIONARY
  5
C
330
A
100
AcDbDictionary
281
1
  0
DICTIONARY
  5
D
330
A
100
AcDbDictionary
281
1
  3
Model
350
1A
  3
Layout1
350
1E
  0
DICTIONARY
  5
E
330
A
100
AcDbDictionary
281
1
  3
ByBlock
350
1F
  3
ByLayer
350
20
  3
Global
350
21
  0
DICTIONARY
  5
F
330
A
100
AcDbDictionary
281
1
  3
Standard
350
2C
  0
DICTIONARY
  5
10
330
A
100
AcDbDictionary
281
1
  3
Standard
350
22
  0
DICTIONARY
  5
11
330
A
100
AcDbDictionary
281
1
  0
ACDBDICTIONARYWDFLT
  5
12
330
A
100
AcDbDictionary
281
1
  3
Normal
350
13
100
AcDbDictionaryWithDefault
340
13
  0
ACDBPLACEHOLDER
  5
13
330
12
  0
DICTIONARY
  5
14
330
A
100
AcDbDictionary
281
1
  0
DICTIONARY
  5
15
330
A
100
AcDbDictionary
281
1
  0
DICTIONARY
  5
16
330
A
100
AcDbDictionary
281
1
  3
2dWireframe
350
5A
  3
Basic
350
5B
  3
Brighten
350
5C
  3
ColorChange
350
5D
  3
Conceptual
350
5E
  3
Dim
350
5F
  3
EdgeColorOff
350
60
  3
Facepattern
350
61
  3
Flat
350
62
  3
FlatWithEdges
350
63
  3
Gouraud
350
64
  3
GouraudWithEdges
350
65
  3
Hidden
350
66
  3
JitterOff
350
67
  3
Linepattern
350
68
  3
Modeling
350
69
  3
OverhangOff
350
6A
  3
Realistic
350
6B
  3
Shaded
350
6C
  3
Shaded with edges
350
6D
  3
Shades of Gray
350
6E
  3
Sketchy
350
6F
  3
Thicken
350
70
  3
Wireframe
350
71
  3
X-Ray
350
72
  0
LAYOUT
  5
1A
330
D
100
AcDbPlotSettings
  1

  4
A3
  6

 40
7.5
 41
20.0
 42
7.5
 43
20.0
 44
420.0
 45
297.0
 46
0.0
 47
0.0
 48
0.0
 49
0.0
140
0.0
141
0.0
142
1.0
143
1.0
 70
1024
 72
1
 73
0
 74
5
  7

 75
16
 76
0
 77
2
 78
300
147
1.0
148
0.0
149
0.0
100
AcDbLayout
  1
Model
 70
1
 71
0
 10
0.0
 20
0.0
 11
420.0
 21
297.0
 12
0.0
 22
0.0
 32
0.0
 14
1e+20
 24
1e+20
 34
1e+20
 15
-1e+20
 25
-1e+20
 35
-1e+20
146
0.0
 13
0.0
 23
0.0
 33
0.0
 16
1.0
 26
0.0
 36
0.0
 17
0.0
 27
1.0
 37
0.0
 76
1
330
17
  0
LAYOUT
  5
1E
330
D
100
AcDbPlotSettings
  1

  4
A3
  6

 40
7.5
 41
20.0
 42
7.5
 43
20.0
 44
420.0
 45
297.0
 46
0.0
 47
0.0
 48
0.0
 49
0.0
140
0.0
141
0.0
142
1.0
143
1.0
 70
0
 72
1
 73
0
 74
5
  7

 75
16
 76
0
 77
2
 78
300
147
1.0
148
0.0
149
0.0
100
AcDbLayout
  1
Layout1
 70
1
 71
1
 10
0.0
 20
0.0
 11
420.0
 21
297.0
 12
0.0
 22
0.0
 32
0.0
 14
1e+20
 24
1e+20
 34
1e+20
 15
-1e+20
 25
-1e+20
 35
-1e+20
146
0.0
 13
0.0
 23
0.0
 33
0.0
 16
1.0
 26
0.0
 36
0.0
 17
0.0
 27
1.0
 37
0.0
 76
1
330
1B
  0
MATERIAL
  5
1F
102
{ACAD_REACTORS
330
E
102
}
330
E
100
AcDbMaterial
  1
ByBlock
  2

 70
0
 40
1.0
 71
1
 41
1.0
 91
-1023410177
 42
1.0
 72
1
  3

 73
1
 74
1
 75
1
 44
0.5
 73
0
 45
1.0
 46
1.0
 77
1
  4

 78
1
 79
1
170
1
 48
1.0
171
1
  6

172
1
173
1
174
1
140
1.0
141
1.0
175
1
  7

176
1
177
1
178
1
143
1.0
179
1
  8

270
1
271
1
272
1
145
1.0
146
1.0
273
1
  9

274
1
275
1
276
1
 42
1.0
 72
1
  3

 73
1
 74
1
 75
1
 94
63
  0
MATERIAL
  5
20
102
{ACAD_REACTORS
330
E
102
}
330
E
100
AcDbMaterial
  1
ByLayer
  2

 70
0
 40
1.0
 71
1
 41
1.0
 91
-1023410177
 42
1.0
 72
1
  3

 73
1
 74
1
 75
1
 44
0.5
 73
0
 45
1.0
 46
1.0
 77
1
  4

 78
1
 79
1
170
1
 48
1.0
171
1
  6

172
1
173
1
174
1
140
1.0
141
1.0
175
1
  7

176
1
177
1
178
1
143
1.0
179
1
  8

270
1
271
1
272
1
145
1.0
146
1.0
273
1
  9

274
1
275
1
276
1
 42
1.0
 72
1
  3

 73
1
 74
1
 75
1
 94
63
  0
MATERIAL
  5
21
102
{ACAD_REACTORS
330
E
102
}
330
E
100
AcDbMaterial
  1
Global
  2

 70
0
 40
1.0
 71
1
 41
1.0
 91
-1023410177
 42
1.0
 72
1
  3

 73
1
 74
1
 75
1
 44
0.5
 73
0
 45
1.0
 46
1.0
 77
1
  4

 78
1
 79
1
170
1
 48
1.0
171
1
  6

172
1
173
1
174
1
140
1.0
141
1.0
175
1
  7

176
1
177
1
178
1
143
1.0
179
1
  8

270
1
271
1
272
1
145
1.0
146
1.0
273
1
  9

274
1
275
1
276
1
 42
1.0
 72
1
  3

 73
1
 74
1
 75
1
 94
63
  0
MLINESTYLE
  5
22
102
{ACAD_REACTORS
330
10
102
}
330
10
100
AcDbMlineStyle
  2
Standard
 70
0
  3

 62
256
 51
90.0
 52
90.0
 71
2
 49
0.5
 62
256
  6
BYLAYER
 49
-0.5
 62
256
  6
BYLAYER
  0
MLEADERSTYLE
  5
2C
102
{ACAD_REACTORS
330
F
102
}
330
F
100
AcDbMLeaderStyle
179
2
170
2
171
1
172
0
 90
2
 40
0.0
 41
0.0
173
1
 91
-1056964608
 92
-2
290
1
 42
2.0
291
1
 43
8.0
  3
Standard
 44
4.0
300

342
29
174
1
175
1
176
0
178
1
 93
-1056964608
 45
4.0
292
0
297
0
 46
4.0
 94
-1056964608
 47
1.0
 49
1.0
140
1.0
294
1
141
0.0
177
0
142
1.0
295
0
296
0
143
3.75
271
0
272
9
273
9
  0
DICTIONARY
  5
2D
330
A
100
AcDbDictionary
280
1
281
1
  3
CREATED_BY_EZDXF
350
2E
  3
WRITTEN_BY_EZDXF
350
4E8
  0
DICTIONARYVAR
  5
2E
330
2D
100
DictionaryVariables
280
0
  1
1.4.4 @ 2026-07-19T23:01:34.649802+00:00
  0
VISUALSTYLE
  5
5A
102
{ACAD_REACTORS
330
16
102
}
330
16
100
AcDbVisualStyle
  2
2dWireframe
 70
4
 90
0
 40
0.6
 62
7
290
0
291
0
  0
VISUALSTYLE
  5
5B
102
{ACAD_REACTORS
330
16
102
}
330
16
100
AcDbVisualStyle
  2
Basic
 70
7
 90
1
 40
0.6
 62
7
290
0
291
1
  0
VISUALSTYLE
  5
5C
102
{ACAD_REACTORS
330
16
102
}
330
16
100
AcDbVisualStyle
  2
Brighten
 70
12
 90
2
 40
0.6
 62
7
290
0
291
1
  0
VISUALSTYLE
  5
5D
102
{ACAD_REACTORS
330
16
102
}
330
16
100
AcDbVisualStyle
  2
ColorChange
 70
16
 90
2
 40
0.6
 62
8
290
0
291
1
  0
VISUALSTYLE
  5
5E
102
{ACAD_REACTORS
330
16
102
}
330
16
100
AcDbVisualStyle
  2
Conceptual
 70
9
 90
3
 40
0.6
 62
7
290
0
291
0
  0
VISUALSTYLE
  5
5F
102
{ACAD_REACTORS
330
16
102
}
330
16
100
AcDbVisualStyle
  2
Dim
 70
11
 90
2
 40
0.6
 62
7
290
0
291
1
  0
VISUALSTYLE
  5
60
102
{ACAD_REACTORS
330
16
102
}
330
16
100
AcDbVisualStyle
  2
EdgeColorOff
 70
22
 90
2
 40
0.6
 62
7
290
0
291
1
  0
VISUALSTYLE
  5
61
102
{ACAD_REACTORS
330
16
102
}
330
16
100
AcDbVisualStyle
  2
Facepattern
 70
15
 90
2
 40
0.6
 62
7
290
0
291
1
  0
VISUALSTYLE
  5
62
102
{ACAD_REACTORS
330
16
102
}
330
16
100
AcDbVisualStyle
  2
Flat
 70
0
 90
2
 40
0.6
 62
7
290
0
291
1
  0
VISUALSTYLE
  5
63
102
{ACAD_REACTORS
330
16
102
}
330
16
100
AcDbVisualStyle
  2
FlatWithEdges
 70
1
 90
2
 40
0.6
 62
7
290
0
291
1
  0
VISUALSTYLE
  5
64
102
{ACAD_REACTORS
330
16
102
}
330
16
100
AcDbVisualStyle
  2
Gouraud
 70
2
 90
2
 40
0.6
 62
7
290
0
291
1
  0
VISUALSTYLE
  5
65
102
{ACAD_REACTORS
330
16
102
}
330
16
100
AcDbVisualStyle
  2
GouraudWithEdges
 70
3
 90
2
 40
0.6
 62
7
290
0
291
1
  0
VISUALSTYLE
  5
66
102
{ACAD_REACTORS
330
16
102
}
330
16
100
AcDbVisualStyle
  2
Hidden
 70
6
 90
1
 40
0.6
 62
7
290
0
291
0
  0
VISUALSTYLE
  5
67
102
{ACAD_REACTORS
330
16
102
}
330
16
100
AcDbVisualStyle
  2
JitterOff
 70
20
 90
2
 40
0.6
 62
7
290
0
291
1
  0
VISUALSTYLE
  5
68
102
{ACAD_REACTORS
330
16
102
}
330
16
100
AcDbVisualStyle
  2
Linepattern
 70
14
 90
2
 40
0.6
 62
7
290
0
291
1
  0
VISUALSTYLE
  5
69
102
{ACAD_REACTORS
330
16
102
}
330
16
100
AcDbVisualStyle
  2
Modeling
 70
10
 90
2
 40
0.6
 62
7
290
0
291
0
  0
VISUALSTYLE
  5
6A
102
{ACAD_REACTORS
330
16
102
}
330
16
100
AcDbVisualStyle
  2
OverhangOff
 70
21
 90
2
 40
0.6
 62
7
290
0
291
1
  0
VISUALSTYLE
  5
6B
102
{ACAD_REACTORS
330
16
102
}
330
16
100
AcDbVisualStyle
  2
Realistic
 70
8
 90
2
 40
0.6
 62
7
290
0
291
0
  0
VISUALSTYLE
  5
6C
102
{ACAD_REACTORS
330
16
102
}
330
16
100
AcDbVisualStyle
  2
Shaded
 70
27
 90
2
 40
0.6
 62
7
290
0
291
0
  0
VISUALSTYLE
  5
6D
102
{ACAD_REACTORS
330
16
102
}
330
16
100
AcDbVisualStyle
  2
Shaded with edges
 70
26
 90
2
 40
0.6
 62
7
290
0
291
0
  0
VISUALSTYLE
  5
6E
102
{ACAD_REACTORS
330
16
102
}
330
16
100
AcDbVisualStyle
  2
Shades of Gray
 70
23
 90
2
 40
0.6
 62
7
290
0
291
0
  0
VISUALSTYLE
  5
6F
102
{ACAD_REACTORS
330
16
102
}
330
16
100
AcDbVisualStyle
  2
Sketchy
 70
24
 90
1
 40
0.6
 62
7
290
0
291
0
  0
VISUALSTYLE
  5
70
102
{ACAD_REACTORS
330
16
102
}
330
16
100
AcDbVisualStyle
  2
Thicken
 70
13
 90
2
 40
0.6
 62
7
290
0
291
1
  0
VISUALSTYLE
  5
71
102
{ACAD_REACTORS
330
16
102
}
330
16
100
AcDbVisualStyle
  2
Wireframe
 70
5
 90
0
 40
0.6
 62
7
290
0
291
0
  0
VISUALSTYLE
  5
72
102
{ACAD_REACTORS
330
16
102
}
330
16
100
AcDbVisualStyle
  2
X-Ray
 70
25
 90
2
 40
0.5
 62
7
290
0
291
0
  0
DICTIONARYVAR
  5
4E8
330
2D
100
DictionaryVariables
280
0
  1
1.4.4 @ 2026-07-19T23:01:34.911181+00:00
  0
ENDSEC
  0
EOF
